<svg t="1639467093631" class="icon" viewBox="0 0 1024 1024" version="1.1" xmlns="http://www.w3.org/2000/svg" p-id="7429" width="24" height="24"><path d="M779.946667 960.426667h-81.92c-46.08-1.28-83.2-38.826667-83.2-84.053334v-131.413333c0-15.786667-13.226667-28.586667-29.013334-28.586667h-123.733333c-15.786667 0-28.586667 12.8-28.586667 28.586667v130.986667c0 2.986667-0.426667 6.4-1.28 8.96-4.693333 42.24-40.533333 75.52-84.48 75.52H265.386667C165.973333 960.426667 85.333333 880.213333 85.333333 781.653333V409.6c0.426667-42.24 20.053333-81.066667 53.76-106.666667l278.613334-223.573333a166.826667 166.826667 0 0 1 208.213333 0l280.746667 224c32.853333 25.173333 52.48 64 52.906666 105.813333v372.48c0.426667 98.56-80.213333 178.773333-179.626666 178.773334z m-194.56-308.053334c51.2 0 93.013333 41.386667 93.013333 92.586667v131.413333c0 10.666667 8.96 19.626667 20.053333 20.053334h81.493334c64 0 116.053333-51.626667 116.053333-114.773334V409.173333c-0.426667-21.76-10.666667-42.24-28.586667-55.893333l-281.173333-224.426667c-37.546667-29.866667-90.453333-29.866667-128.426667 0L178.346667 353.28c-18.346667 14.08-29.013333 34.56-29.013334 56.746667v371.626666c0 63.146667 52.053333 114.773333 116.053334 114.773334h81.92c11.52 0 20.906667-8.96 20.906666-20.48 0-2.56 0.426667-4.693333 0.853334-7.253334v-123.733333c0-50.773333 41.386667-92.16 92.586666-92.586667h123.733334z" p-id="7430" fill="#666666"></path></svg>