<svg width="25" height="24" viewBox="0 0 25 24" fill="none" xmlns="http://www.w3.org/2000/svg">
<path fill-rule="evenodd" clip-rule="evenodd" d="M12.8071 4C8.39596 4 4.80713 7.58883 4.80713 12C4.80713 16.4112 8.39596 20 12.8071 20C17.2183 20 20.8071 16.4112 20.8071 12C20.8071 7.58883 17.2183 4 12.8071 4ZM12.8071 5.2C16.5698 5.2 19.6071 8.23736 19.6071 12C19.6071 15.7626 16.5698 18.8 12.8071 18.8C9.04448 18.8 6.00713 15.7626 6.00713 12C6.00713 8.23736 9.04448 5.2 12.8071 5.2ZM12.2071 8.6C12.2024 8.26893 12.4667 7.99658 12.7978 7.99141C12.96 7.98887 13.1164 8.05215 13.2312 8.16681C13.346 8.28148 13.4095 8.43775 13.4071 8.6V11.4H16.2071C16.4235 11.3969 16.6248 11.5106 16.7339 11.6975C16.8429 11.8844 16.8429 12.1156 16.7339 12.3025C16.6248 12.4894 16.4235 12.6031 16.2071 12.6H13.4071V15.4C13.4102 15.6164 13.2965 15.8176 13.1096 15.9267C12.9227 16.0358 12.6916 16.0358 12.5047 15.9267C12.3178 15.8176 12.2041 15.6164 12.2071 15.4V12.6H9.40713C9.19075 12.6031 8.98948 12.4894 8.8804 12.3025C8.77131 12.1156 8.77131 11.8844 8.8804 11.6975C8.98948 11.5106 9.19075 11.3969 9.40713 11.4H12.2071V8.6Z" fill="#666666"/>
</svg>
