<?xml version="1.0" standalone="no"?><!DOCTYPE svg PUBLIC "-//W3C//DTD SVG 1.1//EN" "http://www.w3.org/Graphics/SVG/1.1/DTD/svg11.dtd"><svg t="1640082551271" class="icon" viewBox="0 0 1024 1024" version="1.1" xmlns="http://www.w3.org/2000/svg" p-id="21440" xmlns:xlink="http://www.w3.org/1999/xlink" width="32" height="32"><defs><style type="text/css"></style></defs><path d="M0 0m230.4 0l563.2 0q230.4 0 230.4 230.4l0 563.2q0 230.4-230.4 230.4l-563.2 0q-230.4 0-230.4-230.4l0-563.2q0-230.4 230.4-230.4Z" fill="#FF9B00" p-id="21441"></path><path d="M179.2 153.6h665.6a179.2 179.2 0 0 1 179.2 179.2v460.8a230.4 230.4 0 0 1-230.4 230.4H230.4a230.4 230.4 0 0 1-230.4-230.4V332.8a179.2 179.2 0 0 1 179.2-179.2z" fill="#FF2A00" p-id="21442"></path><path d="M547.6096 713.1392c26.0352 0 47.104 20.3264 47.104 45.44 0 25.088-21.0688 45.44-47.104 45.44-10.5984 0-20.4032-3.4048-28.2624-9.1136l-3.2768-2.56V844.8h-15.5648v-86.5792c0.2048-24.9344 21.2224-45.0816 47.104-45.0816z m154.7776 0c25.8304 0.128 41.472 21.12 41.3184 46.0288l-0.0768 2.4064-0.2304 2.3552h-73.0112c4.48 15.744 15.7696 25.6768 31.5904 25.7792 8.9088 0.0256 16.512-3.072 22.2208-8.704l2.304-2.5856 10.3424 9.984a47.36 47.36 0 0 1-34.944 14.8992c-25.8304-0.1536-46.6432-20.4288-46.5152-45.312 0.1536-24.9344 21.1968-45.0048 47.0016-44.8768z m83.7888-0.7168c17.92 0 28.8 13.568 30.2592 15.5136l0.1792 0.2304-11.8784 7.8592s-7.424-10.752-19.3024-10.752c-8.9088 0-17.792 4.3008-17.792 12.1856 0 10.0096 11.1104 10.752 28.928 14.3104 19.2 3.84 23.0144 15.744 23.0144 25.0368 0 13.5936-12.6208 26.496-36.352 26.496-20.096 0-32.4352-13.7216-33.9968-15.5648l-0.1536-0.1792 11.8784-8.6016s8.8832 11.4432 22.272 11.4432c10.368 0 20.736-4.992 20.736-12.8768 0-9.2928-8.8832-12.8768-22.2464-15.0272-10.6496-1.7152-28.928-5.7088-28.928-23.6032 0-17.8944 16.3328-26.4704 33.3824-26.4704z m76.4416 0c17.92 0 28.7744 13.568 30.2336 15.5136l0.1792 0.2304-11.8784 7.8592s-7.424-10.752-19.2768-10.752c-8.9088 0-17.8176 4.3008-17.8176 12.1856 0 10.0096 11.136 10.752 28.928 14.3104 19.2 3.84 23.0144 15.744 23.0144 25.0368 0 13.5936-12.6208 26.496-36.352 26.496-20.096 0-32.4096-13.7216-33.9712-15.5648l-0.1792-0.1792 11.8784-8.6016s8.9088 11.4432 22.272 11.4432c10.3936 0 20.7616-4.992 20.7616-12.8768 0-9.2928-8.8832-12.8768-22.272-15.0272-10.6496-1.7152-28.928-5.7088-28.928-23.6032 0-17.8944 16.3328-26.4704 33.408-26.4704z m-437.0688 2.8416l25.2416 31.4112 25.216-31.4112h18.56l-34.5088 42.9568 34.5088 42.9312h-18.56l-25.216-31.4112-25.2416 31.4112H407.04l34.4832-42.9312L407.04 715.264h18.5344z m-29.696-33.6128v15.0272h-57.1136v37.1968h50.432v15.0272h-50.432v37.2224h62.336v15.0272h-77.9264v-119.5008h72.704z m257.28 31.4368l0.2304 0.0256v15.0528c-21.504 0-28.9792 16.128-31.488 25.0368l-0.4352 1.664v46.2848h-15.5648V715.264h15.5648v9.8304a39.2448 39.2448 0 0 1 31.7184-12.0064zM190.3616 681.6512l47.488 119.5008h-14.848l-11.648-29.3376h-56.832l-11.648 29.3376H128l47.488-119.5008h14.848z m72.704 0v119.5008h-15.5648v-119.5008h15.5648z m37.632 35.4048l1.1008 84.096h-15.616l-1.1008-84.096h15.616z m246.9376 11.1104c-17.3824 0-31.5392 13.6192-31.5392 30.4128 0 16.768 14.1568 30.4128 31.5392 30.4128 17.408 0 31.5392-13.6448 31.5392-30.4128 0-16.7936-14.1312-30.4128-31.5392-30.4128zM182.912 700.3136l-22.144 55.7568h44.288l-22.144-55.7568z m519.424 26.4192c-15.4368 0-28.3648 9.9328-31.6672 24.32h58.5216c-0.896-14.3104-15.616-24.32-26.88-24.32zM292.6592 665.6l1.4848 8.2944c1.536 5.9648 5.9648 10.7776 11.776 13.0304l2.56 0.7936 8.6016 1.4336-8.576 1.4336a19.5072 19.5072 0 0 0-13.5168 11.3408l-0.8448 2.4832-1.4848 8.2944-1.4592-8.2944a19.2512 19.2512 0 0 0-11.776-13.0304l-2.56-0.7936-8.6272-1.4336 8.6016-1.4336a19.5072 19.5072 0 0 0 13.5168-11.3408l0.8448-2.4832 1.4592-8.2944z" fill="#FFFFFF" p-id="21443"></path><path d="M256 307.2m-51.2 0a51.2 51.2 0 1 0 102.4 0 51.2 51.2 0 1 0-102.4 0Z" fill="#D11B00" p-id="21444"></path><path d="M768 307.2m-51.2 0a51.2 51.2 0 1 0 102.4 0 51.2 51.2 0 1 0-102.4 0Z" fill="#D11B00" p-id="21445"></path><path d="M768 281.6a25.6 25.6 0 0 1 25.6 25.6c0 155.52-126.08 281.6-281.6 281.6S230.4 462.72 230.4 307.2a25.6 25.6 0 1 1 51.2 0 230.4 230.4 0 1 0 460.8 0 25.6 25.6 0 0 1 25.6-25.6z" fill="#FFFFFF" p-id="21446"></path></svg>