<?xml version="1.0" standalone="no"?><!DOCTYPE svg PUBLIC "-//W3C//DTD SVG 1.1//EN" "http://www.w3.org/Graphics/SVG/1.1/DTD/svg11.dtd"><svg t="1640570166226" class="icon" viewBox="0 0 1024 1024" version="1.1" xmlns="http://www.w3.org/2000/svg" p-id="13538" width="24" height="24" xmlns:xlink="http://www.w3.org/1999/xlink"><defs><style type="text/css"></style></defs><path d="M380.16 767.744c-17.664 0-35.84-5.632-50.645333-16.426667a80.938667 80.938667 0 0 1-33.365334-80.213333l17.322667-97.792-74.197333-69.333333a79.914667 79.914667 0 0 1-21.802667-84.181334c9.856-30.464 36.693333-52.138667 69.205333-56.917333l103.381334-14.464 45.738666-89.386667A85.077333 85.077333 0 0 1 512.042667 213.333333c32.512 0 61.781333 17.621333 76.202666 45.696l46.122667 89.386667 102.997333 14.464c32.554667 4.394667 58.922667 26.453333 69.205334 56.917333a79.146667 79.146667 0 0 1-22.186667 84.181334l-74.197333 69.333333 17.322666 97.834667a81.92 81.92 0 0 1-33.408 80.554666 87.168 87.168 0 0 1-90.197333 6.826667l-92.288-46.506667-91.861333 46.506667c-12.373333 6.4-25.984 9.216-39.552 9.216z m92.330667-490.666667L417.664 384.085333l-13.184 2.816-112.042667 15.658667c-17.28 2.389333-30.464 13.653333-35.84 29.653333a40.362667 40.362667 0 0 0 11.52 42.88L357.12 558.506667l-1.237333 12.032-18.944 107.434666a40.832 40.832 0 0 0 16.896 41.301334c10.666667 7.637333 28.842667 12.8 46.933333 3.626666l110.037333-55.338666 12.757334 4.821333 100.096 50.517333c18.133333 9.216 36.266667 4.010667 46.976-3.626666a40.832 40.832 0 0 0 16.896-41.301334l-21.034667-117.845333 8.661333-9.216 81.194667-75.776a41.045333 41.045333 0 0 0 11.52-43.264 42.794667 42.794667 0 0 0-35.84-29.269333L608.853333 385.28l-6.997333-10.837333-50.261333-97.408c-15.274667-29.653333-63.872-29.653333-79.104 0z" p-id="13539"></path><path d="M42.666667 501.333333C42.666667 248.021333 248.021333 42.666667 501.333333 42.666667S960 248.021333 960 501.333333 754.645333 960 501.333333 960 42.666667 754.645333 42.666667 501.333333zM501.333333 106.666667a394.666667 394.666667 0 1 0 0 789.333333 394.666667 394.666667 0 0 0 0-789.333333z" p-id="13540"></path></svg>