<svg width="16" height="16" viewBox="0 0 16 16" fill="none" xmlns="http://www.w3.org/2000/svg">
<path fill-rule="evenodd" clip-rule="evenodd" d="M1.34473 7.99967C1.34473 4.30757 4.33472 1.33301 8.00014 1.33301C11.6649 1.33301 14.6556 4.30753 14.6556 7.99967C14.6556 11.6918 11.6649 14.6663 8.00014 14.6663C4.33472 14.6663 1.34473 11.6918 1.34473 7.99967ZM8.00014 2.33301C4.85356 2.33301 2.32223 4.88111 2.32223 7.99967C2.32223 11.1182 4.85356 13.6663 8.00014 13.6663C11.1461 13.6663 13.6781 11.1182 13.6781 7.99967C13.6781 4.88115 11.1461 2.33301 8.00014 2.33301Z" fill="#999999"/>
<path d="M8.21198 4.66634C8.81554 4.66634 9.30087 4.83123 9.66798 5.16101C10.0413 5.48456 10.228 5.92945 10.228 6.49567C10.228 6.9499 10.1098 7.32945 9.87331 7.63434C9.79242 7.7339 9.53109 7.97656 9.08931 8.36234C8.91509 8.50545 8.78443 8.66723 8.69731 8.84768C8.59776 9.02812 8.54798 9.23345 8.54798 9.46368C8.54798 9.5513 8.47854 9.62234 8.39288 9.62234H7.70441C7.61875 9.62234 7.54931 9.5513 7.54931 9.46368C7.54931 9.10279 7.61154 8.80723 7.73598 8.57701C7.8542 8.32812 8.20576 7.94234 8.79065 7.41968L8.94931 7.24234C9.12354 7.01834 9.21065 6.79123 9.21065 6.56101C9.21065 6.24367 9.12043 5.98856 8.93998 5.79567C8.75331 5.60901 8.48887 5.51567 8.14665 5.51567C7.72354 5.51567 7.41865 5.64945 7.23198 5.91701C7.13954 6.04026 7.07254 6.19176 7.03096 6.37152C6.96865 6.64093 6.7606 6.86901 6.48998 6.86901C6.21936 6.86901 5.99363 6.64273 6.03958 6.3699C6.11491 5.92269 6.29771 5.55395 6.58798 5.26367C6.97998 4.86545 7.52131 4.66634 8.21198 4.66634ZM8.04398 10.1263C8.24931 10.1263 8.4142 10.1886 8.53865 10.313C8.66931 10.4312 8.73465 10.5899 8.73465 10.789C8.73465 10.9757 8.6662 11.1375 8.52931 11.2743C8.39243 11.3988 8.23065 11.461 8.04398 11.461C7.85109 11.461 7.68931 11.3957 7.55865 11.265C7.42798 11.1343 7.36265 10.9757 7.36265 10.789C7.36265 10.5899 7.42798 10.4312 7.55865 10.313C7.68309 10.1886 7.84487 10.1263 8.04398 10.1263Z" fill="#999999"/>
</svg>
