<?xml version="1.0" standalone="no"?><!DOCTYPE svg PUBLIC "-//W3C//DTD SVG 1.1//EN" "http://www.w3.org/Graphics/SVG/1.1/DTD/svg11.dtd"><svg t="1641291209430" class="icon" viewBox="0 0 1024 1024" version="1.1" xmlns="http://www.w3.org/2000/svg" p-id="5747" width="16" height="16" xmlns:xlink="http://www.w3.org/1999/xlink"><defs><style type="text/css"></style></defs><path d="M512 256a256 256 0 1 0 0 512 256 256 0 0 0 0-512zM128 512a384 384 0 1 1 768 0A384 384 0 0 1 128 512z" fill="#B3B4C1" p-id="5748"></path><path d="M448 192a64 64 0 0 1 64-64 384 384 0 0 1 384 384 64 64 0 1 1-128 0 256 256 0 0 0-256-256 64 64 0 0 1-64-64z" fill="#0045F0" p-id="5749"></path></svg>