<?xml version="1.0" standalone="no"?><!DOCTYPE svg PUBLIC "-//W3C//DTD SVG 1.1//EN" "http://www.w3.org/Graphics/SVG/1.1/DTD/svg11.dtd"><svg t="1647853534275" class="icon" viewBox="0 0 1024 1024" version="1.1" xmlns="http://www.w3.org/2000/svg" p-id="6510" xmlns:xlink="http://www.w3.org/1999/xlink" width="200" height="200"><defs><style type="text/css">@font-face { font-family: feedback-iconfont; src: url("//at.alicdn.com/t/font_1031158_u69w8yhxdu.woff2?t=1630033759944") format("woff2"), url("//at.alicdn.com/t/font_1031158_u69w8yhxdu.woff?t=1630033759944") format("woff"), url("//at.alicdn.com/t/font_1031158_u69w8yhxdu.ttf?t=1630033759944") format("truetype"); }
</style></defs><path d="M682.666667 853.333333V341.333333H170.666667v512h512zM170.666667 256h85.333333V170.666667a85.333333 85.333333 0 0 1 85.333333-85.333334h512a85.333333 85.333333 0 0 1 85.333334 85.333334v512a85.333333 85.333333 0 0 1-85.333334 85.333333H768v85.333333a85.333333 85.333333 0 0 1-85.333333 85.333334H170.666667a85.333333 85.333333 0 0 1-85.333334-85.333334V341.333333a85.333333 85.333333 0 0 1 85.333334-85.333333z m597.333333 426.666667h85.333333V170.666667H341.333333v85.333333h341.333334a85.333333 85.333333 0 0 1 85.333333 85.333333v341.333334z" p-id="6511"></path></svg>