<svg width="20" height="20" viewBox="0 0 20 20" fill="none" xmlns="http://www.w3.org/2000/svg">
<path fill-rule="evenodd" clip-rule="evenodd" d="M13.92 5.92C13.7247 5.72474 13.4082 5.72474 13.2129 5.92L10.1211 9.01176L6.90776 5.79837C6.7125 5.6031 6.39592 5.6031 6.20066 5.79837L5.8471 6.15192C5.65184 6.34718 5.65184 6.66376 5.8471 6.85903L9.06049 10.0724L5.84894 13.284C5.65368 13.4792 5.65368 13.7958 5.84894 13.9911L6.2025 14.3446C6.39776 14.5399 6.71434 14.5399 6.9096 14.3446L10.1211 11.1331L13.2111 14.223C13.4063 14.4183 13.7229 14.4183 13.9182 14.223L14.2717 13.8694C14.467 13.6742 14.467 13.3576 14.2717 13.1623L11.1818 10.0724L14.2736 6.98066C14.4688 6.7854 14.4688 6.46881 14.2736 6.27355L13.92 5.92Z" fill="#4E5969"/>
</svg>
