<?xml version="1.0" standalone="no"?><!DOCTYPE svg PUBLIC "-//W3C//DTD SVG 1.1//EN" "http://www.w3.org/Graphics/SVG/1.1/DTD/svg11.dtd"><svg t="1636861583602" class="icon" viewBox="0 0 1024 1024" version="1.1" xmlns="http://www.w3.org/2000/svg" p-id="6949" xmlns:xlink="http://www.w3.org/1999/xlink" width="32" height="32"><defs><style type="text/css"></style></defs><path d="M153.24 307.752l-45.616-45.6C-48.672 463-34.648 753.44 149.976 938.032a519.688 519.688 0 0 0 23.68 22.096l42.288-48.008a451.568 451.568 0 0 1-20.72-19.336C35.632 733.192 21.688 483.232 153.24 307.752z m44.872-136.136l45.592 45.592c158.56-118.88 377.968-118.848 536.56 0.04l45.592-45.6C641.712 28.312 382.264 28.304 198.112 171.616z m718.232 90.52l-45.584 45.6c131.56 175.48 117.624 425.448-41.976 585.048-6.696 6.696-13.6 13.048-20.6 19.224L850.48 960a521.776 521.776 0 0 0 23.52-21.96c184.664-184.6 198.68-475.056 42.344-675.904zM558.528 586.72V484.728L512 260.008l-46.56 224.72v102.008c-27.792 15.552-46.528 44.504-46.528 77.744 0 49.656 41.688 89.872 93.096 89.872 51.4 0 93.088-40.216 93.088-89.872 0-33.248-18.76-62.216-46.568-77.76z" p-id="6950"></path></svg>