<svg t="1639464816103" class="icon" viewBox="0 0 1024 1024" version="1.1" xmlns="http://www.w3.org/2000/svg" p-id="8321" width="24" height="24"><path d="M881.92 422.4H121.173333c-17.493333 0-32-14.506667-32-32s14.506667-32 32-32h760.32c17.493333 0 32 14.506667 32 32s-14.08 32-31.573333 32zM691.2 589.226667a31.957333 31.957333 0 1 1 0-64h0.426667c17.493333 0 32 14.506667 32 32s-14.506667 32-32.426667 32zM501.76 589.226667a31.957333 31.957333 0 1 1 0-64h0.426667c17.493333 0 32 14.506667 32 32s-14.506667 32-32.426667 32zM312.32 589.226667a31.957333 31.957333 0 1 1 0-64h0.426667c17.493333 0 32 14.506667 32 32s-14.933333 32-32.426667 32zM691.2 755.2a31.957333 31.957333 0 1 1 0-64h0.426667c17.493333 0 32 14.506667 32 32s-14.506667 32-32.426667 32zM501.76 755.2a31.957333 31.957333 0 1 1 0-64h0.426667c17.493333 0 32 14.506667 32 32s-14.506667 32-32.426667 32zM312.32 755.2a31.957333 31.957333 0 1 1 0-64h0.426667c17.493333 0 32 14.506667 32 32s-14.933333 32-32.426667 32zM673.706667 247.04c-17.493333 0-32-14.506667-32-32V74.666667c0-17.493333 14.506667-32 32-32s32 14.506667 32 32v140.373333c0 17.493333-14.08 32-32 32zM329.386667 247.04c-17.493333 0-32-14.506667-32-32V74.666667a31.957333 31.957333 0 1 1 64 0v140.373333c0 17.493333-14.506667 32-32 32z" p-id="8322" fill="#666666"></path><path d="M681.813333 960H320.853333C175.786667 960 85.333333 870.4 85.333333 726.186667V340.053333c0-142.08 90.453333-229.973333 235.52-229.973333h361.386667c72.96 0 133.12 21.76 174.506667 63.146667 39.68 40.106667 60.586667 97.706667 60.586666 166.826666v389.12c0 142.506667-90.453333 230.826667-235.52 230.826667zM320.853333 174.08c-110.506667 0-171.52 58.88-171.52 165.973333v386.133334C149.333333 835.84 210.346667 896 320.853333 896h360.96c110.506667 0 171.52-59.306667 171.52-166.4V340.053333c0-52.48-14.08-93.44-42.24-121.6-29.013333-29.013333-73.386667-44.373333-128.853333-44.373333H320.853333z" p-id="8323" fill="#666666"></path></svg>