<svg width="36" height="36" viewBox="0 0 36 36" fill="none" xmlns="http://www.w3.org/2000/svg">
<path d="M32 0H4C1.79086 0 0 1.79086 0 4V32C0 34.2091 1.79086 36 4 36H32C34.2091 36 36 34.2091 36 32V4C36 1.79086 34.2091 0 32 0Z" fill="white"/>
<path d="M4 0.5H32C33.933 0.5 35.5 2.067 35.5 4V32C35.5 33.933 33.933 35.5 32 35.5H4C2.067 35.5 0.5 33.933 0.5 32V4C0.5 2.067 2.067 0.5 4 0.5Z" stroke="#000430" stroke-opacity="0.05"/>
<g opacity="0.4" clip-path="url(#clip0_499_60102)">
<path d="M16.8336 16.3754V19.3064H20.0624C19.8151 19.9994 19.3719 20.6183 18.7599 21.0946C18.0423 21.6514 17.1307 21.9023 16.2212 21.9023H12.9337C12.0844 21.9023 11.2338 21.678 10.546 21.1788C9.37472 20.3311 8.77407 18.9772 8.92604 17.5557C9.00078 16.8519 9.27039 16.1765 9.70191 15.616C10.464 14.6272 11.5978 14.0738 12.8169 14.0738H22.4146V11.1344H12.8169C9.03104 11.1344 5.9621 14.2029 5.9621 17.9886C5.9621 21.7745 9.03104 24.843 12.8169 24.843H16.3754C18.9713 24.843 21.2284 23.3996 22.3927 21.2729V24.8658H25.3244V16.3754H16.8336Z" fill="#0045F0"/>
<path d="M28.2655 13.447V11.1343H25.3327V16.3791H30.825V13.447H28.2655Z" fill="#EE7C30"/>
</g>
<defs>
<clipPath id="clip0_499_60102">
<rect width="25" height="14" fill="white" transform="translate(5.89355 11)"/>
</clipPath>
</defs>
</svg>
