<?xml version="1.0" standalone="no"?><!DOCTYPE svg PUBLIC "-//W3C//DTD SVG 1.1//EN" "http://www.w3.org/Graphics/SVG/1.1/DTD/svg11.dtd"><svg t="1641893112499" class="icon" viewBox="0 0 1024 1024" version="1.1" xmlns="http://www.w3.org/2000/svg" p-id="6858" xmlns:xlink="http://www.w3.org/1999/xlink" width="18" height="18"><defs><style type="text/css"></style></defs><path d="M512 170.666667c-188.202667 0-341.333333 153.130667-341.333333 341.333333s153.130667 341.333333 341.333333 341.333333 341.333333-153.130667 341.333333-341.333333-153.130667-341.333333-341.333333-341.333333z m0 51.2c160.554667 0 290.133333 129.578667 290.133333 290.133333s-129.578667 290.133333-290.133333 290.133333A289.706667 289.706667 0 0 1 221.866667 512 289.706667 289.706667 0 0 1 512 221.866667z m-167.552 277.205333A25.6 25.6 0 0 1 366.933333 486.4h290.133334a25.6 25.6 0 1 1 0 51.2H366.933333a25.6 25.6 0 0 1-22.485333-38.485333z" fill="#666666" p-id="6859"></path></svg>