<?xml version="1.0" standalone="no"?><!DOCTYPE svg PUBLIC "-//W3C//DTD SVG 1.1//EN" "http://www.w3.org/Graphics/SVG/1.1/DTD/svg11.dtd"><svg t="1641794416013" class="icon" viewBox="0 0 1024 1024" version="1.1" xmlns="http://www.w3.org/2000/svg" p-id="6826" xmlns:xlink="http://www.w3.org/1999/xlink" width="18" height="18"><defs><style type="text/css"></style></defs><path d="M347.733333 149.589333A86.613333 86.613333 0 0 1 431.488 85.333333h180.608a86.613333 86.613333 0 0 1 84.181333 66.261334l10.368 51.84a38.314667 38.314667 0 0 0 37.546667 30.762666h139.392a32 32 0 0 1 0 64H160a32 32 0 0 1 0-64h139.392a38.314667 38.314667 0 0 0 37.546667-30.72l10.368-51.882666a32.213333 32.213333 0 0 1 0.426666-2.005334z m46.506667 84.608h255.018667a102.442667 102.442667 0 0 1-5.418667-18.176l-10.112-50.688a22.613333 22.613333 0 0 0-21.674667-16h-180.608a22.613333 22.613333 0 0 0-21.632 16l-10.112 50.645334c-1.28 6.357333-3.114667 12.416-5.461333 18.218666zM827.093333 372.053333a32 32 0 0 1 29.312 34.474667l0.128-2.56-63.914666-2.56a32 32 0 0 1 34.474666-29.354667z m-7.381333 443.861334c-3.84 34.688-16.896 65.365333-40.789333 87.552-23.936 22.272-55.637333 33.024-91.050667 33.664-111.658667 2.005333-223.530667 2.133333-335.274667-0.213334-34.688-0.725333-65.664-11.861333-89.002666-34.133333-23.168-22.058667-36.010667-52.437333-39.808-86.613333-6.826667-61.482667-15.957333-164.053333-23.424-250.88a34580.266667 34580.266667 0 0 1-12.202667-146.176l-1.024-12.586667a32 32 0 0 1 63.786667-5.12l1.024 12.501333a30741.248 30741.248 0 0 0 12.202666 145.92c7.424 86.912 16.554667 188.714667 23.253334 249.301334 2.517333 22.613333 10.368 37.845333 20.352 47.36 9.856 9.386667 24.576 16 46.165333 16.426666 110.805333 2.346667 221.866667 2.218667 332.8 0.213334 23.082667-0.426667 38.528-7.125333 48.64-16.554667 10.24-9.472 18.176-24.618667 20.736-47.744 6.698667-60.032 15.786667-161.792 23.296-248.789333a34704.64 34704.64 0 0 0 12.202667-146.090667l1.024-12.544 63.914666 2.56" p-id="6827"></path></svg>