<svg width="16" height="16" viewBox="0 0 16 16" fill="none" xmlns="http://www.w3.org/2000/svg">
<path fill-rule="evenodd" clip-rule="evenodd" d="M5.4339 2.3375C5.5926 1.74398 6.13002 1.33398 6.7416 1.33398H9.5636C10.1752 1.33398 10.7126 1.74398 10.8713 2.3375C10.8741 2.34781 10.8765 2.3582 10.8786 2.36867L11.0405 3.17914C11.0965 3.45833 11.3423 3.65998 11.6269 3.65998H13.8053C14.0815 3.65998 14.3053 3.88384 14.3053 4.15998C14.3053 4.43613 14.0815 4.65998 13.8053 4.65998H2.5C2.22386 4.65998 2 4.43613 2 4.15998C2 3.88384 2.22386 3.65998 2.5 3.65998H4.67827C4.96294 3.65998 5.20862 3.45853 5.26463 3.17934L5.42663 2.36867C5.42872 2.3582 5.43114 2.34781 5.4339 2.3375ZM6.16023 3.65998H10.145C10.1084 3.5693 10.0798 3.47422 10.06 3.3755L9.90178 2.58373C9.85656 2.43575 9.71981 2.33398 9.5636 2.33398H6.7416C6.58539 2.33398 6.44864 2.43575 6.40342 2.58373L6.24524 3.3753C6.22547 3.47402 6.1968 3.5693 6.16023 3.65998ZM12.9233 5.81394C13.1986 5.83613 13.4037 6.07725 13.3815 6.3525L13.3832 6.31232L12.3847 6.27214C12.4069 5.99689 12.6481 5.79174 12.9233 5.81394ZM12.8081 12.7488C12.748 13.291 12.5438 13.7706 12.1707 14.1171C11.7964 14.4648 11.3016 14.6328 10.7482 14.6429C9.00333 14.6743 7.2553 14.6764 5.50926 14.6395C4.96719 14.6284 4.48351 14.4545 4.11884 14.1069C3.75647 13.7616 3.5558 13.287 3.49684 12.7534C3.39039 11.7922 3.24705 10.1897 3.13071 8.83252C3.07244 8.15284 3.02079 7.53289 2.98371 7.08288C2.96516 6.85786 2.95026 6.6753 2.93999 6.54897L2.92408 6.35244C2.90195 6.07719 3.10714 5.83605 3.3824 5.81393C3.65765 5.7918 3.89873 5.997 3.92086 6.27225L3.9367 6.46795C3.94695 6.59396 3.96182 6.77615 3.98033 7.00075C4.01735 7.44999 4.06891 8.0688 4.12706 8.74711C4.24354 10.1059 4.38588 11.6964 4.49076 12.6433C4.52982 12.9969 4.6525 13.2341 4.80876 13.383C4.96269 13.5297 5.19289 13.6329 5.53003 13.6398C7.26128 13.6763 8.99631 13.6743 10.73 13.6431C11.0907 13.6365 11.3319 13.5315 11.4901 13.3845C11.6495 13.2364 11.7742 12.9997 11.8142 12.6386C11.9184 11.7001 12.0609 10.1107 12.1777 8.75093C12.236 8.07216 12.2878 7.45237 12.325 7.00226C12.3436 6.77722 12.3585 6.59463 12.3688 6.46832L12.3847 6.27214L13.3832 6.31232" fill="#999999"/>
</svg>
