<svg id="图层_1" data-name="图层 1" xmlns="http://www.w3.org/2000/svg" viewBox="0 0 32 32"><defs><style>.cls-1{fill:#4e5969;fill-rule:evenodd;}</style></defs><path class="cls-1" d="M22.4,9H18a2.59,2.59,0,0,0-2,1,2.59,2.59,0,0,0-2-1H9.6a.6.6,0,0,0-.6.6V21.4a.6.6,0,0,0,.6.6h3.46a3.4,3.4,0,0,1,1.52.36l1.15.57a.38.38,0,0,0,.1,0A1,1,0,0,0,16,23l.12,0a.8.8,0,0,0,.15,0l1.15-.58A3.4,3.4,0,0,1,18.94,22H22.4a.6.6,0,0,0,.6-.6V9.6A.6.6,0,0,0,22.4,9ZM13.06,20.8H10.2V10.2H14a1.4,1.4,0,0,1,1.4,1.4v9.83l-.29-.15A4.57,4.57,0,0,0,13.06,20.8Zm8.74,0H18.94a4.71,4.71,0,0,0-2.05.48l-.29.15V11.6A1.4,1.4,0,0,1,18,10.2h3.8Z"/></svg>