<svg width="24" height="24" viewBox="0 0 24 24" fill="none" xmlns="http://www.w3.org/2000/svg">
<mask id="path-1-outside-1_997_15189" maskUnits="userSpaceOnUse" x="0.490234" y="0.198242" width="24" height="24" fill="black">
<rect fill="white" x="0.490234" y="0.198242" width="24" height="24"/>
<path fill-rule="evenodd" clip-rule="evenodd" d="M11.7087 1.34167C11.7697 1.25268 11.8807 1.19824 11.9997 1.19824C12.1197 1.19824 12.2297 1.25268 12.2907 1.34167C12.8167 2.11155 13.9207 3.7282 14.4527 4.50844C14.5147 4.5983 14.5157 4.71063 14.4557 4.80135C14.3957 4.89208 14.2837 4.94824 14.1627 4.94824L13.25 4.94824L13.25 10.457H18.7588L18.7588 9.54478C18.7588 9.42378 18.815 9.31178 18.9057 9.25178C18.9964 9.19178 19.1087 9.19178 19.1986 9.25378C19.9788 9.78678 21.5955 10.8908 22.3654 11.4158C22.4544 11.4768 22.5088 11.5878 22.5088 11.7068C22.5088 11.8268 22.4544 11.9368 22.3654 11.9978C21.5955 12.5238 19.9788 13.6278 19.1986 14.1598C19.1087 14.2218 18.9964 14.2228 18.9057 14.1628C18.815 14.1028 18.7588 13.9908 18.7588 13.8698L18.7588 12.957H13.25L13.25 18.4668H14.1622C14.2832 18.4668 14.3952 18.523 14.4552 18.6137C14.5152 18.7044 14.5152 18.8167 14.4532 18.9066C13.9202 19.6868 12.8163 21.3035 12.2913 22.0734C12.2303 22.1624 12.1193 22.2168 12.0003 22.2168C11.8803 22.2168 11.7703 22.1624 11.7093 22.0734C11.1833 21.3035 10.0793 19.6868 9.54726 18.9066C9.48526 18.8167 9.48426 18.7044 9.54426 18.6137C9.60426 18.523 9.71626 18.4668 9.83726 18.4668H10.75L10.75 12.957H5.24023L5.24023 13.8693C5.24023 13.9903 5.18407 14.1023 5.09334 14.1623C5.00262 14.2223 4.89029 14.2223 4.80043 14.1603C4.02019 13.6273 2.40354 12.5233 1.63367 11.9983C1.54467 11.9373 1.49023 11.8263 1.49023 11.7073C1.49023 11.5873 1.54467 11.4773 1.63367 11.4163C2.40354 10.8903 4.02019 9.78629 4.80043 9.25429C4.89029 9.19229 5.00262 9.19129 5.09334 9.25129C5.18407 9.31129 5.24023 9.42329 5.24023 9.54429L5.24023 10.457H10.75L10.75 4.94824H9.83775C9.71675 4.94824 9.60475 4.89208 9.54475 4.80135C9.48475 4.71063 9.48475 4.5983 9.54675 4.50844C10.0798 3.7282 11.1837 2.11155 11.7087 1.34167Z"/>
</mask>
<path fill-rule="evenodd" clip-rule="evenodd" d="M11.7087 1.34167C11.7697 1.25268 11.8807 1.19824 11.9997 1.19824C12.1197 1.19824 12.2297 1.25268 12.2907 1.34167C12.8167 2.11155 13.9207 3.7282 14.4527 4.50844C14.5147 4.5983 14.5157 4.71063 14.4557 4.80135C14.3957 4.89208 14.2837 4.94824 14.1627 4.94824L13.25 4.94824L13.25 10.457H18.7588L18.7588 9.54478C18.7588 9.42378 18.815 9.31178 18.9057 9.25178C18.9964 9.19178 19.1087 9.19178 19.1986 9.25378C19.9788 9.78678 21.5955 10.8908 22.3654 11.4158C22.4544 11.4768 22.5088 11.5878 22.5088 11.7068C22.5088 11.8268 22.4544 11.9368 22.3654 11.9978C21.5955 12.5238 19.9788 13.6278 19.1986 14.1598C19.1087 14.2218 18.9964 14.2228 18.9057 14.1628C18.815 14.1028 18.7588 13.9908 18.7588 13.8698L18.7588 12.957H13.25L13.25 18.4668H14.1622C14.2832 18.4668 14.3952 18.523 14.4552 18.6137C14.5152 18.7044 14.5152 18.8167 14.4532 18.9066C13.9202 19.6868 12.8163 21.3035 12.2913 22.0734C12.2303 22.1624 12.1193 22.2168 12.0003 22.2168C11.8803 22.2168 11.7703 22.1624 11.7093 22.0734C11.1833 21.3035 10.0793 19.6868 9.54726 18.9066C9.48526 18.8167 9.48426 18.7044 9.54426 18.6137C9.60426 18.523 9.71626 18.4668 9.83726 18.4668H10.75L10.75 12.957H5.24023L5.24023 13.8693C5.24023 13.9903 5.18407 14.1023 5.09334 14.1623C5.00262 14.2223 4.89029 14.2223 4.80043 14.1603C4.02019 13.6273 2.40354 12.5233 1.63367 11.9983C1.54467 11.9373 1.49023 11.8263 1.49023 11.7073C1.49023 11.5873 1.54467 11.4773 1.63367 11.4163C2.40354 10.8903 4.02019 9.78629 4.80043 9.25429C4.89029 9.19229 5.00262 9.19129 5.09334 9.25129C5.18407 9.31129 5.24023 9.42329 5.24023 9.54429L5.24023 10.457H10.75L10.75 4.94824H9.83775C9.71675 4.94824 9.60475 4.89208 9.54475 4.80135C9.48475 4.71063 9.48475 4.5983 9.54675 4.50844C10.0798 3.7282 11.1837 2.11155 11.7087 1.34167Z" fill="#000430"/>
<path d="M11.7087 1.34167L10.8839 0.776316L10.8826 0.778275L11.7087 1.34167ZM12.2907 1.34167L13.1164 0.777543L13.1156 0.776317L12.2907 1.34167ZM14.4527 4.50844L13.6265 5.07179L13.6296 5.07634L14.4527 4.50844ZM14.4557 4.80135L13.6216 4.24973L13.6216 4.24974L14.4557 4.80135ZM13.25 4.94824L13.25 3.94824H12.25L12.25 4.94824H13.25ZM13.25 10.457H12.25L12.25 11.457H13.25L13.25 10.457ZM18.7588 10.457L18.7588 11.457H19.7588L19.7588 10.457H18.7588ZM18.9057 9.25178L18.3541 8.41768L18.3541 8.41769L18.9057 9.25178ZM19.1986 9.25378L18.6307 10.0769L18.6345 10.0795L19.1986 9.25378ZM22.3654 11.4158L22.9307 10.5909L22.9288 10.5896L22.3654 11.4158ZM22.3654 11.9978L22.9295 12.8235L22.9307 12.8226L22.3654 11.9978ZM19.1986 14.1598L18.6352 13.3335L18.6307 13.3367L19.1986 14.1598ZM18.9057 14.1628L18.3541 14.9969L18.3541 14.9969L18.9057 14.1628ZM18.7588 12.957H19.7588L19.7588 11.957H18.7588L18.7588 12.957ZM13.25 12.957L13.25 11.957H12.25L12.25 12.957H13.25ZM13.25 18.4668H12.25L12.25 19.4668H13.25L13.25 18.4668ZM14.4552 18.6137L15.2893 18.0621L15.2893 18.0621L14.4552 18.6137ZM14.4532 18.9066L13.6301 18.3387L13.6275 18.3425L14.4532 18.9066ZM12.2913 22.0734L13.1161 22.6387L13.1174 22.6368L12.2913 22.0734ZM11.7093 22.0734L10.8836 22.6375L10.8844 22.6387L11.7093 22.0734ZM9.54726 18.9066L10.3735 18.3432L10.3704 18.3387L9.54726 18.9066ZM9.54426 18.6137L10.3784 19.1653L10.3784 19.1653L9.54426 18.6137ZM10.75 18.4668L10.75 19.4668H11.75L11.75 18.4668H10.75ZM10.75 12.957L11.75 12.957L11.75 11.957L10.75 11.957L10.75 12.957ZM5.24023 12.957L5.24023 11.957H4.24023L4.24023 12.957H5.24023ZM5.09334 14.1623L5.64496 14.9964L5.64496 14.9964L5.09334 14.1623ZM4.80043 14.1603L5.36833 13.3372L5.3645 13.3346L4.80043 14.1603ZM1.63367 11.9983L1.06831 12.8231L1.07027 12.8245L1.63367 11.9983ZM1.63367 11.4163L1.06954 10.5906L1.0683 10.5914L1.63367 11.4163ZM4.80043 9.25429L5.36379 10.0805L5.36832 10.0774L4.80043 9.25429ZM5.09334 9.25129L5.64496 8.4172L5.64496 8.41719L5.09334 9.25129ZM5.24023 10.457H4.24023L4.24023 11.457H5.24023L5.24023 10.457ZM10.75 10.457L10.75 11.457L11.75 11.457L11.75 10.457L10.75 10.457ZM10.75 4.94824H11.75L11.75 3.94824H10.75L10.75 4.94824ZM9.54475 4.80135L10.3789 4.24974L10.3789 4.24974L9.54475 4.80135ZM9.54675 4.50844L10.3699 5.07634L10.3725 5.07251L9.54675 4.50844ZM11.9997 0.198242C11.5936 0.198242 11.1542 0.381913 10.8839 0.776317L12.5336 1.90703C12.3853 2.12344 12.1679 2.19824 11.9997 2.19824L11.9997 0.198242ZM13.1156 0.776317C12.8461 0.383075 12.4085 0.198242 11.9997 0.198242L11.9997 2.19824C11.831 2.19824 11.6134 2.12228 11.4659 1.90703L13.1156 0.776317ZM15.279 3.94509C14.7467 3.16444 13.6425 1.54746 13.1164 0.777544L11.4651 1.9058C11.991 2.67563 13.0948 4.29195 13.6265 5.07178L15.279 3.94509ZM15.2898 5.35297C15.575 4.92173 15.5696 4.36629 15.2758 3.94054L13.6296 5.07634C13.4599 4.8303 13.4564 4.49952 13.6216 4.24973L15.2898 5.35297ZM14.1627 5.94824C14.5751 5.94824 15.0215 5.75871 15.2898 5.35297L13.6216 4.24974C13.77 4.02545 13.9924 3.94824 14.1627 3.94824L14.1627 5.94824ZM13.25 5.94824H14.1627L14.1627 3.94824L13.25 3.94824L13.25 5.94824ZM12.25 4.94824L12.25 10.457H14.25L14.25 4.94824L12.25 4.94824ZM13.25 11.457H18.7588L18.7588 9.45703H13.25L13.25 11.457ZM19.7588 10.457L19.7588 9.54478H17.7588L17.7588 10.457H19.7588ZM19.7588 9.54478C19.7588 9.71516 19.6816 9.93755 19.4573 10.0859L18.3541 8.41769C17.9483 8.68602 17.7588 9.13241 17.7588 9.54478H19.7588ZM19.4573 10.0859C19.2142 10.2467 18.8832 10.2511 18.6307 10.0769L19.7665 8.43069C19.3342 8.13244 18.7786 8.1369 18.3541 8.41768L19.4573 10.0859ZM18.6345 10.0795C19.4148 10.6125 21.0317 11.7167 21.802 12.242L22.9288 10.5896C22.1593 10.0648 20.5429 8.96106 19.7627 8.42806L18.6345 10.0795ZM21.8 12.2406C21.5836 12.0923 21.5088 11.8749 21.5088 11.7068H23.5088C23.5088 11.3006 23.3251 10.8613 22.9307 10.5909L21.8 12.2406ZM21.5088 11.7068C21.5088 11.5381 21.5848 11.3205 21.8 11.1729L22.9307 12.8226C23.324 12.5531 23.5088 12.1155 23.5088 11.7068H21.5088ZM21.8012 11.1721C21.0314 11.6981 19.4151 12.8018 18.6352 13.3335L19.7619 14.986C20.5426 14.4537 22.1596 13.3495 22.9295 12.8235L21.8012 11.1721ZM18.6307 13.3367C18.8767 13.1669 19.2075 13.1635 19.4573 13.3287L18.3541 14.9969C18.7853 15.2821 19.3407 15.2766 19.7665 14.9829L18.6307 13.3367ZM19.4573 13.3287C19.6816 13.477 19.7588 13.6994 19.7588 13.8698H17.7588C17.7588 14.2821 17.9483 14.7285 18.3541 14.9969L19.4573 13.3287ZM19.7588 13.8698L19.7588 12.957H17.7588L17.7588 13.8698H19.7588ZM18.7588 11.957H13.25L13.25 13.957H18.7588L18.7588 11.957ZM12.25 12.957L12.25 18.4668H14.25L14.25 12.957H12.25ZM14.1622 17.4668H13.25L13.25 19.4668H14.1622L14.1622 17.4668ZM15.2893 18.0621C15.021 17.6563 14.5746 17.4668 14.1622 17.4668L14.1622 19.4668C13.9919 19.4668 13.7695 19.3896 13.6211 19.1653L15.2893 18.0621ZM15.2763 19.4745C15.5746 19.0422 15.5701 18.4867 15.2893 18.0621L13.6211 19.1653C13.4604 18.9222 13.4559 18.5913 13.6302 18.3387L15.2763 19.4745ZM13.1174 22.6368C13.6422 21.8673 14.746 20.2509 15.279 19.4707L13.6275 18.3425C13.0945 19.1228 11.9903 20.7397 11.4651 21.51L13.1174 22.6368ZM12.0003 23.2168C12.4064 23.2168 12.8458 23.0331 13.1161 22.6387L11.4664 21.508C11.6147 21.2916 11.8321 21.2168 12.0003 21.2168L12.0003 23.2168ZM10.8844 22.6387C11.1539 23.032 11.5915 23.2168 12.0003 23.2168L12.0003 21.2168C12.169 21.2168 12.3866 21.2928 12.5341 21.508L10.8844 22.6387ZM8.72104 19.47C9.25332 20.2506 10.3575 21.8676 10.8836 22.6375L12.5349 21.5092C12.009 20.7394 10.9052 19.1231 10.3735 18.3433L8.72104 19.47ZM8.71016 18.0621C8.42497 18.4933 8.43042 19.0487 8.72416 19.4745L10.3704 18.3387C10.5401 18.5847 10.5436 18.9155 10.3784 19.1653L8.71016 18.0621ZM9.83726 17.4668C9.42488 17.4668 8.97849 17.6563 8.71016 18.0621L10.3784 19.1653C10.23 19.3896 10.0076 19.4668 9.83726 19.4668L9.83726 17.4668ZM10.75 17.4668H9.83726L9.83726 19.4668H10.75L10.75 17.4668ZM11.75 18.4668L11.75 12.957L9.75 12.957L9.75 18.4668H11.75ZM10.75 11.957H5.24023L5.24023 13.957H10.75L10.75 11.957ZM4.24023 12.957L4.24023 13.8693H6.24023L6.24023 12.957H4.24023ZM4.24023 13.8693C4.24023 13.6989 4.31744 13.4765 4.54173 13.3282L5.64496 14.9964C6.0507 14.728 6.24023 14.2816 6.24023 13.8693H4.24023ZM4.54173 13.3282C4.78486 13.1674 5.11578 13.1629 5.36833 13.3372L4.23253 14.9834C4.66481 15.2816 5.22038 15.2772 5.64496 14.9964L4.54173 13.3282ZM5.3645 13.3346C4.58426 12.8016 2.96731 11.6974 2.19707 11.1721L1.07027 12.8245C1.83977 13.3492 3.45611 14.453 4.23636 14.986L5.3645 13.3346ZM2.19902 11.1734C2.41543 11.3218 2.49023 11.5391 2.49023 11.7073H0.490234C0.490234 12.1134 0.673903 12.5528 1.06832 12.8231L2.19902 11.1734ZM2.49023 11.7073C2.49023 11.876 2.41427 12.0936 2.19903 12.2411L1.0683 10.5914C0.675069 10.861 0.490234 11.2986 0.490234 11.7073H2.49023ZM2.1978 12.242C2.96762 11.716 4.58395 10.6122 5.36378 10.0805L4.23708 8.42807C3.45643 8.96035 1.83946 10.0646 1.06954 10.5906L2.1978 12.242ZM5.36832 10.0774C5.12229 10.2471 4.79152 10.2506 4.54173 10.0854L5.64496 8.41719C5.21372 8.13201 4.65829 8.13745 4.23254 8.43119L5.36832 10.0774ZM4.54173 10.0854C4.31744 9.93706 4.24023 9.71467 4.24023 9.54429H6.24023C6.24023 9.13192 6.0507 8.68552 5.64496 8.4172L4.54173 10.0854ZM4.24023 9.54429L4.24023 10.457H6.24023L6.24023 9.54429H4.24023ZM5.24023 11.457H10.75L10.75 9.45703H5.24023L5.24023 11.457ZM11.75 10.457L11.75 4.94824H9.75L9.75 10.457L11.75 10.457ZM9.83775 5.94824H10.75L10.75 3.94824H9.83775L9.83775 5.94824ZM8.71065 5.35297C8.97898 5.75871 9.42538 5.94824 9.83775 5.94824L9.83775 3.94824C10.0081 3.94824 10.2305 4.02545 10.3789 4.24974L8.71065 5.35297ZM8.72365 3.94054C8.42541 4.37281 8.42986 4.92838 8.71065 5.35297L10.3789 4.24974C10.5396 4.49287 10.5441 4.82379 10.3699 5.07633L8.72365 3.94054ZM10.8826 0.778275C10.3578 1.54778 9.25403 3.16412 8.72103 3.94437L10.3725 5.07251C10.9055 4.29227 12.0097 2.67532 12.5349 1.90507L10.8826 0.778275Z" fill="white" mask="url(#path-1-outside-1_997_15189)"/>
</svg>
