<?xml version="1.0" standalone="no"?><!DOCTYPE svg PUBLIC "-//W3C//DTD SVG 1.1//EN" "http://www.w3.org/Graphics/SVG/1.1/DTD/svg11.dtd"><svg t="1648969565842" class="icon" viewBox="0 0 1024 1024" version="1.1" xmlns="http://www.w3.org/2000/svg" p-id="22257" xmlns:xlink="http://www.w3.org/1999/xlink" width="16" height="16"><defs><style type="text/css"></style></defs><path d="M256 256m85.333333 0l0 0q85.333333 0 85.333334 85.333333l0 0q0 85.333333-85.333334 85.333334l0 0q-85.333333 0-85.333333-85.333334l0 0q0-85.333333 85.333333-85.333333Z" p-id="22258"></path><path d="M256 597.333333m85.333333 0l0 0q85.333333 0 85.333334 85.333334l0 0q0 85.333333-85.333334 85.333333l0 0q-85.333333 0-85.333333-85.333333l0 0q0-85.333333 85.333333-85.333334Z" p-id="22259"></path><path d="M597.333333 256m85.333334 0l0 0q85.333333 0 85.333333 85.333333l0 0q0 85.333333-85.333333 85.333334l0 0q-85.333333 0-85.333334-85.333334l0 0q0-85.333333 85.333334-85.333333Z" p-id="22260"></path><path d="M597.333333 597.333333m85.333334 0l0 0q85.333333 0 85.333333 85.333334l0 0q0 85.333333-85.333333 85.333333l0 0q-85.333333 0-85.333334-85.333333l0 0q0-85.333333 85.333334-85.333334Z" p-id="22261"></path></svg>