<svg width="16" height="16" viewBox="0 0 16 16" fill="none" xmlns="http://www.w3.org/2000/svg">
<path d="M5.66667 3.33301H5C3.34315 3.33301 2 4.67615 2 6.33301V11.6663C2 13.3232 3.34315 14.6663 5 14.6663H9.66667C10.9553 14.6663 12 13.6217 12 12.333V12.333" stroke="#999999" stroke-width="1.5"/>
<path fill-rule="evenodd" clip-rule="evenodd" d="M11.1577 1.84084H8.05637C6.6697 1.83551 5.53303 2.94017 5.50037 4.32684V9.55951C5.47703 10.9262 6.5657 12.0535 7.93303 12.0775C7.9737 12.0775 8.01503 12.0775 8.05637 12.0762H12.0484C13.4277 12.0622 14.537 10.9388 14.535 9.55951V5.35951L11.1577 1.84084Z" stroke="#999999" stroke-width="1.5" stroke-linecap="round" stroke-linejoin="round"/>
<path d="M11.5291 7.27572H8.26245" stroke="#999999" stroke-width="1.5" stroke-linecap="round" stroke-linejoin="round"/>
<path d="M9.89608 8.90924V5.64258" stroke="#999999" stroke-width="1.5" stroke-linecap="round" stroke-linejoin="round"/>
</svg>
