<?xml version="1.0" standalone="no"?><!DOCTYPE svg PUBLIC "-//W3C//DTD SVG 1.1//EN" "http://www.w3.org/Graphics/SVG/1.1/DTD/svg11.dtd"><svg t="1640082564941" class="icon" viewBox="0 0 2555 1024" version="1.1" xmlns="http://www.w3.org/2000/svg" p-id="21854" xmlns:xlink="http://www.w3.org/1999/xlink" width="79.84375" height="32"><defs><style type="text/css"></style></defs><path d="M330.467496 223.417407C150.209399 223.417407 0 299.881757 0 530.60462c0 182.781336 101.006252 297.87851 335.113324 297.87851 275.56149 0 293.224158-181.519717 293.224158-181.519717H494.818964s-28.625116 97.741386-167.846494 97.741386c-113.392283 0-194.945732-76.600741-194.945731-183.957711h510.282322v-67.377282c0-106.214693-67.428429-269.9524-311.841565-269.952399zM325.80462 309.522914c107.936633 0 181.519717 66.124187 181.519717 165.229486h-372.348137c0-105.217332 96.053544-165.229486 190.82842-165.229486z" fill="#E53238" p-id="21855"></path><path d="M642.215292 0v712.618755c0 40.448533-2.88979 97.246968-2.889789 97.246968h127.346813s4.577632-40.789511 4.577632-78.075471c0 0 62.918993 98.440391 234.004778 98.440391 180.155804 0 302.532862-125.087834 302.532862-304.280375 0-166.712741-112.403446-300.793873-302.24303-300.793873-177.768957 0-233.007417 95.993873-233.007418 95.993873V0H642.215292z m330.458972 313.299247c122.342959 0 200.145648 90.802481 200.145649 212.651021 0 130.662826-89.856266 216.137523-199.26763 216.137524-130.577582 0-201.015143-101.960991-201.015143-214.978198 0-105.311101 63.2003-213.810348 200.137124-213.810347z" fill="#0064D2" p-id="21856"></path><path d="M1624.292029 223.417407c-271.179921 0-288.569806 148.478934-288.569806 172.211013h134.976199s7.075297-86.68517 144.284904-86.685169c89.157261 0 158.247958 40.815084 158.247958 119.265631v27.926111h-158.247958c-210.085161 0-321.150268 61.461311-321.150269 186.182593 0 122.735084 102.617374 189.515655 241.301711 189.515654 189.004187 0 249.885836-104.433082 249.885836-104.433082 0 41.539663 3.19667 82.474089 3.19667 82.47409h119.99021s-4.645827-50.737548-4.645827-83.198668V446.101711c0-183.97476-148.39369-222.684304-279.269628-222.684304z m148.939255 316.495917v37.234813c0 48.563813-29.971979 169.304175-206.394073 169.304175-96.607634 0-138.027954-48.21431-138.027954-104.143251 0-101.739355 139.485636-102.395738 344.422027-102.395737z" fill="#F5AF02" p-id="21857"></path><path d="M1830.87364 246.706214h151.846094l217.927658 436.60547 217.424716-436.60547H2555.631217l-396.037594 777.293786h-144.293427l114.278826-216.683088-298.705382-560.610698z" fill="#86B817" p-id="21858"></path></svg>