<?xml version="1.0" standalone="no"?><!DOCTYPE svg PUBLIC "-//W3C//DTD SVG 1.1//EN" "http://www.w3.org/Graphics/SVG/1.1/DTD/svg11.dtd"><svg t="1642492219190" class="icon" viewBox="0 0 1024 1024" version="1.1" xmlns="http://www.w3.org/2000/svg" p-id="7736" width="15" height="15" xmlns:xlink="http://www.w3.org/1999/xlink"><defs><style type="text/css"></style></defs><path d="M885.333333 936.106667H576c-17.493333 0-32-14.506667-32-32s14.506667-32 32-32h309.333333c17.493333 0 32 14.506667 32 32s-14.506667 32-32 32zM154.026667 936.106667c-14.933333 0-27.733333-10.24-31.146667-24.746667l-34.986667-148.053333c-7.253333-30.72 0-62.293333 19.626667-87.04l402.346667-502.613334 0.426666-0.426666c43.946667-52.906667 123.733333-60.586667 177.493334-17.493334l73.386666 57.173334c26.026667 15.36 46.08 43.093333 53.76 75.946666 7.68 32.426667 2.133333 65.706667-15.786666 93.866667-1.28 2.133333-2.56 3.84-409.173334 512.426667-19.2 24.32-48.64 38.826667-80.213333 38.826666l-155.733333 2.133334c0.426667 0 0.426667 0 0 0z m405.333333-721.92L157.866667 716.373333c-7.253333 8.96-9.813333 20.906667-7.253334 32l29.013334 122.88 129.706666-1.706666c12.373333 0 23.893333-5.546667 31.146667-14.933334 137.386667-171.52 398.933333-498.773333 406.186667-508.586666 7.253333-11.52 9.813333-27.306667 5.973333-42.666667-3.84-15.786667-13.653333-29.44-27.733333-37.973333l-77.226667-59.733334c-26.88-21.333333-66.133333-17.493333-88.32 8.533334z" p-id="7737"></path><path d="M692.053333 498.346667c-6.826667 0-13.653333-2.133333-19.626666-6.826667l-232.533334-178.346667a31.872 31.872 0 0 1-5.546666-44.8c10.666667-14.08 30.72-16.64 44.8-5.973333l232.533333 178.773333c14.08 10.666667 16.64 30.72 5.973333 44.8-6.4 8.106667-15.786667 12.373333-25.6 12.373334z" p-id="7738"></path></svg>