<?xml version="1.0" standalone="no"?><!DOCTYPE svg PUBLIC "-//W3C//DTD SVG 1.1//EN" "http://www.w3.org/Graphics/SVG/1.1/DTD/svg11.dtd"><svg t="1640569489844" class="icon" viewBox="0 0 1024 1024" version="1.1" xmlns="http://www.w3.org/2000/svg" p-id="13398" xmlns:xlink="http://www.w3.org/1999/xlink" width="14" height="14"><defs><style type="text/css"></style></defs><path d="M707.437714 954.514286H330.605714c-146.797714 0-245.321143-103.277714-245.321143-256.438857V343.478857c0-153.161143 98.523429-256.438857 245.321143-256.438857h159.524572a31.963429 31.963429 0 1 1 0 64H330.678857c-110.08 0-181.394286 75.556571-181.394286 192.438857v354.596572c0 116.882286 71.314286 192.365714 181.394286 192.365714h376.32c110.08 0 181.321143-75.483429 181.321143-192.365714V526.116571a32.182857 32.182857 0 0 1 32.036571-32.036571 32.182857 32.182857 0 0 1 31.963429 32.036571v171.885715c0.438857 153.234286-98.157714 256.512-244.882286 256.512z" p-id="13399"></path><path d="M505.197714 722.358857H345.6a31.597714 31.597714 0 0 1-23.04-9.801143 30.866286 30.866286 0 0 1-8.996571-23.04l3.876571-161.28a122.88 122.88 0 0 1 36.717714-84.845714l318.683429-318.756571a133.851429 133.851429 0 0 1 189.001143 0l52.077714 52.004571a133.339429 133.339429 0 0 1 0 189.074286l-320.365714 320.365714c-23.552 23.478857-55.076571 36.278857-88.356572 36.278857z m-126.756571-64h127.122286a59.026286 59.026286 0 0 0 42.715428-17.92l320.365714-320.365714a69.339429 69.339429 0 0 0 0-98.523429l-52.004571-52.150857a70.290286 70.290286 0 0 0-98.596571 0L399.36 488.594286a60.342857 60.342857 0 0 0-17.92 41.325714l-2.925714 128.438857z" p-id="13400"></path><path d="M841.874286 423.277714a31.670857 31.670857 0 0 1-22.674286-9.362285L624.201143 218.916571a32.182857 32.182857 0 0 1 0-45.202285 32.182857 32.182857 0 0 1 45.202286 0l194.998857 194.925714c12.434286 12.434286 12.434286 32.914286 0 45.275429a33.499429 33.499429 0 0 1-22.601143 9.362285z" p-id="13401"></path></svg>