<?xml version="1.0" standalone="no"?><!DOCTYPE svg PUBLIC "-//W3C//DTD SVG 1.1//EN" "http://www.w3.org/Graphics/SVG/1.1/DTD/svg11.dtd"><svg t="1640570196962" class="icon" viewBox="0 0 1024 1024" version="1.1" xmlns="http://www.w3.org/2000/svg" p-id="13719" xmlns:xlink="http://www.w3.org/1999/xlink" width="24" height="24"><defs><style type="text/css"></style></defs><path d="M224 704a32 32 0 0 1 32-32h106.666667a32 32 0 0 1 0 64H256a32 32 0 0 1-32-32zM224 533.333333a32 32 0 0 1 32-32h213.333333a32 32 0 0 1 0 64H256a32 32 0 0 1-32-32zM224 362.666667A32 32 0 0 1 256 330.666667h341.333333a32 32 0 0 1 0 64H256a32 32 0 0 1-32-32z" p-id="13720"></path><path d="M561.408 96c66.56 0 123.477333 21.973333 163.669333 63.488 40.106667 41.386667 60.629333 99.072 60.629334 165.077333a32 32 0 0 1-64 0c0-52.778667-16.213333-93.354667-42.581334-120.576-26.24-27.050667-65.493333-43.946667-117.717333-43.989333l-242.602667 0.170667c-51.669333 0.341333-90.538667 17.322667-116.565333 44.373333-26.154667 27.136-42.24 67.541333-42.24 120.021333v392.362667c0 52.778667 16.213333 93.354667 42.581333 120.576 26.069333 26.922667 65.066667 43.818667 116.906667 43.989333h5.845333c7.082667-0.042667 23.04-0.085333 58.666667-0.085333a32 32 0 0 1 0 64l-58.453333 0.042667H321.365333l-1.152 0.042666c-66.56 0-123.477333-21.973333-163.669333-63.488-40.064-41.386667-60.586667-99.072-60.586667-165.077333V324.565333c0-65.706667 20.352-123.136 60.16-164.437333 39.850667-41.386667 96.256-63.573333 162.304-63.957333h0.213334l242.730666-0.170667z" p-id="13721"></path><path d="M522.666667 917.333333c-14.933333 0-27.733333-10.24-31.146667-24.746666l-20.053333-84.906667c-5.12-21.76 0-43.946667 14.08-61.44l230.826666-288 0.426667-0.426667c30.293333-35.84 84.48-41.386667 120.746667-11.946666l41.813333 32.426666c16.64 9.813333 30.72 28.586667 35.84 51.2 5.12 22.186667 1.28 44.8-10.666667 64.426667-1.28 2.133333-1.706667 2.986667-235.52 295.253333-13.653333 17.066667-34.56 27.306667-56.746666 27.306667l-89.6 0.853333z m242.773333-418.986666l-230.4 288c-1.706667 2.133333-2.133333 4.266667-1.706667 6.826666l14.08 59.733334 63.573334-0.853334c2.986667 0 5.546667-1.28 7.253333-3.413333 63.146667-78.506667 227.84-284.586667 232.96-291.413333 2.133333-2.56 2.986667-7.68 1.706667-13.226667a21.546667 21.546667 0 0 0-9.813334-13.226667l-45.653333-34.986666a23.253333 23.253333 0 0 0-32 2.56z" p-id="13722"></path></svg>