<?xml version="1.0" standalone="no"?><!DOCTYPE svg PUBLIC "-//W3C//DTD SVG 1.1//EN" "http://www.w3.org/Graphics/SVG/1.1/DTD/svg11.dtd"><svg t="1637559686447" class="icon" viewBox="0 0 1024 1024" version="1.1" xmlns="http://www.w3.org/2000/svg" p-id="3168" xmlns:xlink="http://www.w3.org/1999/xlink" width="32" height="32"><defs><style type="text/css"></style></defs><path d="M511.898 700.288c-104.09 0-188.8-84.71-188.8-188.8s84.71-188.8 188.8-188.8 188.8 84.71 188.8 188.8-84.685 188.8-188.8 188.8z m0-326.4c-75.853 0-137.6 61.722-137.6 137.6s61.747 137.6 137.6 137.6c75.904 0 137.6-61.722 137.6-137.6s-61.696-137.6-137.6-137.6z" p-id="3169"></path><path d="M589.9 968.909H434.1c-14.08 0-25.524-11.392-25.6-25.498l-0.206-49.28c-0.153-3.66-2.688-39.859-47.206-50.867-0.051 0-21.58-4.3-42.291 10.138l-36.199 35.123c-10.06 9.753-26.086 9.6-35.942-0.282L136.499 777.882c-9.779-9.78-10.01-25.575-0.512-35.661l37.453-39.757c3.405-5.99 15.59-30.72 2.1-56.525 0 0-15.002-26.573-42.983-29.696l-51.226-0.46c-14.003-0.154-25.293-11.572-25.293-25.6V434.201c0-14.106 11.392-25.55 25.498-25.6l48.538-0.205c3.865-0.103 39.552-2.279 51.481-47.386 0.128-0.537 4.89-22.81-12.877-45.696l-32.281-32.717c-9.882-10.01-9.83-26.112 0.128-36.07l110.157-110.31c9.932-9.908 26.01-10.01 36.044-0.18l35.226 34.637h-0.026c0.154 0 14.26 11.239 34.15 11.239 6.196 0 12.494-1.101 18.74-3.252 4.096-1.382 35.942-13.312 37.709-54.45l-0.026-44.442c0-14.132 11.469-25.6 25.6-25.6h155.802a25.657 25.657 0 0 1 19.481 8.985c4.839 5.709 6.99 13.235 5.812 20.634-0.512 3.405-12.263 85.453 49.05 97.536 1.023 0.205 1.996 0.46 2.994 0.768-0.537-0.205 1.946 0.358 5.146 0.358 9.088 0 23.603-3.174 40.858-18.278l27.852-27.955a25.636 25.636 0 0 1 18.125-7.501c6.81 0 13.338 2.688 18.125 7.5l110.157 110.311c9.907 9.907 10.01 25.933 0.23 35.942l-34.33 35.226c-4.889 7.117-25.702 41.549 4.43 73.626 0.076 0 18.739 17.28 40.473 17.28h44.058c6.784 0 13.312 2.688 18.099 7.5s7.5 11.316 7.5 18.1l-0.05 155.98c0 14.08-11.341 25.524-25.421 25.6l-50.484 0.333c-3.123 0.077-31.283 1.69-46.156 35.251-1.844 3.866-12.544 28.237 8.857 56.96l32.947 33.536c9.83 10.01 9.754 26.087-0.153 36.02L777.318 888.243c-9.83 9.856-25.728 10.035-35.814 0.41l-40.013-38.272c-0.307 0-12.749-8.55-29.44-8.55-10.214 0-20.531 3.25-30.566 9.702 0.025 0-25.703 18.227-25.83 43.494l-0.154 48.333c-0.051 14.131-11.495 25.549-25.6 25.549z m-130.303-51.2h104.806l0.051-22.861c0.256-52.838 46.976-84.787 48.973-86.118 18.867-12.084 38.477-18.074 58.624-18.074 35.917 0 60.442 19.072 63.155 21.222l23.578 22.503 74.573-74.701-16.307-16.589c-0.717-0.717-1.408-1.485-1.997-2.304-43.495-56.345-16.435-109.414-15.258-111.641 22.221-50.33 68.378-64.18 92.007-64.18l24.908-0.153 0.052-104.96h-18.458c-42.65 0-73.702-29.338-77.107-32.691-50.637-53.888-27.213-116.02-7.86-141.415 0.64-0.819 1.306-1.613 2.049-2.355l18.022-18.509-74.189-74.317-11.008 11.008c-46.003 40.32-84.838 32.538-94.976 29.773-70.656-14.54-89.856-77.977-90.598-125.952H459.699v19.917c-3.353 79.59-70.118 101.171-72.985 102.042-10.855 3.763-22.81 5.785-34.663 5.785-40.013 0-66.253-22.528-69.12-25.088l-17.997-17.664-74.265 74.368 15.437 15.642a20.707 20.707 0 0 1 1.715 1.945c28.16 35.047 27.853 74.164 23.245 91.75-17.895 67.687-73.805 85.556-100.864 85.556l-22.964 0.102v105.19l28.442 0.334c57.83 6.323 84.045 54.835 85.146 56.908 29.644 56.628-4.276 108.16-5.735 110.31a21.237 21.237 0 0 1-2.637 3.252l-22.22 23.603 74.777 74.906 19.456-18.867c0.845-0.82 1.741-1.562 2.663-2.228 41.958-30.899 83.046-20.403 86.604-19.456 67.175 16.59 85.504 72.756 85.76 100.122l0.103 23.885z" p-id="3170"></path></svg>