<?xml version="1.0" standalone="no"?><!DOCTYPE svg PUBLIC "-//W3C//DTD SVG 1.1//EN" "http://www.w3.org/Graphics/SVG/1.1/DTD/svg11.dtd"><svg t="1637559806355" class="icon" viewBox="0 0 1024 1024" version="1.1" xmlns="http://www.w3.org/2000/svg" p-id="9127" xmlns:xlink="http://www.w3.org/1999/xlink" width="32" height="32"><defs><style type="text/css"></style></defs><path d="M349.44 113.536c3.882667 4.437333 7.68 9.002667 11.861333 14.293333 2.176 2.730667 17.450667 22.485333 22.442667 28.714667 5.12 6.314667 10.24 12.416 15.658667 18.602667 38.314667 0.128 73.557333 0.128 118.485333 0.085333l35.925333-0.085333 71.466667-0.085334c1.962667-1.962667 3.882667-3.968 5.802667-6.058666 10.624-11.562667 39.68-51.712 43.733333-56.490667l6.698667-7.253333c-24.533333-1.365333-47.658667-15.872-81.237334-44.586667-11.477333-9.813333-8.704-10.410667-22.784 2.56-1.877333 1.706667-10.069333 9.514667-12.245333 11.52-21.248 19.626667-29.525333 25.429333-51.925333 26.368-22.528 0.981333-37.930667-8.149333-53.333334-23.808-5.802667-5.845333-7.936-8.277333-21.333333-24.490667-21.077333 21.802667-46.378667 39.978667-69.376 45.397334-11.093333 2.602667-21.034667 3.84-30.378667 3.754666 3.328 3.456 6.784 7.253333 10.581334 11.562667z m385.109333-30.037333a45.056 45.056 0 0 1-14.464-9.472l10.154667 9.770666 13.738667 3.2A10.368 10.368 0 0 1 740.48 85.333333a38.016 38.016 0 0 1-5.930667-1.834666z m-294.186666-32.810667c1.109333-0.725333 2.432-2.261333 4.437333-4.522667l-2.602667 2.901334-1.834666 1.621333zM259.157333 37.12C282.709333 32.554667 290.133333 34.133333 310.912 42.794667c12.842667 5.418667 22.656 11.221333 46.634667 5.546666 13.525333-3.157333 34.816-20.394667 49.152-36.352 14.336-16 51.456-16 64.64 0 36.394667 44.117333 36.565333 45.994667 59.221333 25.173334 22.613333-20.906667 53.205333-58.069333 103.04-15.36 41.045333 35.157333 48.341333 38.784 80.64 22.698666 32.341333-16.042667 41.386667-7.381333 41.386667-7.381333 47.573333 11.093333 19.285333 64-15.274667 85.589333-12.586667 7.594667-16 11.605333-27.904 24.533334-15.018667 17.92-33.152 51.2-67.669333 79.018666-99.968 0-164.437333 0.426667-267.904 0-34.432-36.053333-47.658667-58.026667-65.962667-79.018666a244.181333 244.181333 0 0 0-27.904-27.733334c-23.893333-14.250667-61.44-50.133333-23.893333-82.346666zM514.090667 1006.933333c-227.157333 0-409.728-141.568-409.728-342.826666 0-90.24 30.848-163.114667 97.194666-227.2 17.322667-16.725333 34.816-38.272 52.650667-64 15.530667-22.485333 27.434667-41.898667 47.232-75.904 9.301333-15.914667 12.202667-20.864 15.786667-26.453334 2.56-4.010667 4.778667-7.125333 6.869333-9.685333 6.4-7.722667 11.434667-11.818667 22.869333-11.818667h323.029334c20.224 7.68 20.224 7.68 20.821333 10.325334 1.621333 2.133333 1.621333 2.133333 2.901333 4.010666 1.450667 2.133333 3.157333 4.736 6.229334 9.557334 12.032 18.858667 13.525333 21.205333 20.266666 31.317333a944.213333 944.213333 0 0 0 70.314667 93.824c11.946667 13.909333 24.064 26.922667 36.266667 39.04 64.981333 64.213333 91.861333 143.573333 91.861333 245.333333 0 199.082667-173.184 324.48-404.565333 324.48zM345.685333 322.773333c-20.48 35.114667-32.853333 55.381333-49.365333 79.232-19.626667 28.330667-39.125333 52.352-59.221333 71.722667-56.32 54.4-81.536 114.005333-81.536 190.378667 0 169.728 157.184 291.626667 358.528 291.626666 205.994667 0 353.365333-106.666667 353.365333-273.322666 0-89.045333-22.442667-155.306667-76.629333-208.896a709.546667 709.546667 0 0 1-39.125334-42.069334 993.962667 993.962667 0 0 1-74.154666-98.858666 1562.197333 1562.197333 0 0 1-20.906667-32.341334H359.04c-2.645333 4.266667-5.845333 9.642667-13.354667 22.528z" p-id="9128"></path><path d="M480.853333 539.648m31.146667 0l-0.042667 0q31.146667 0 31.146667 31.146667l0 218.794666q0 31.146667-31.146667 31.146667l0.042667 0q-31.146667 0-31.146667-31.146667l0-218.794666q0-31.146667 31.146667-31.146667Z" p-id="9129"></path><path d="M655.232 627.968a28.117333 28.117333 0 0 1-28.117333 28.16H396.885333a28.117333 28.117333 0 1 1 0-56.234667h230.229334c15.530667 0 28.117333 12.586667 28.117333 28.074667zM655.232 736.426667a28.117333 28.117333 0 0 1-28.117333 28.074666H396.885333a28.117333 28.117333 0 0 1 0-56.234666h230.229334c15.530667 0 28.117333 12.629333 28.117333 28.16zM402.474667 462.464l0.426666-0.341333a29.056 29.056 0 0 1 40.362667 1.408l71.04 73.685333a27.690667 27.690667 0 0 1-1.408 39.765333l-0.384 0.341334a29.056 29.056 0 0 1-40.362667-1.408L401.066667 502.229333a27.690667 27.690667 0 0 1 1.365333-39.765333z" p-id="9130"></path><path d="M620.8 462.464l-0.341333-0.341333a29.056 29.056 0 0 0-40.362667 1.408L509.013333 537.173333a27.690667 27.690667 0 0 0 1.408 39.765334l0.384 0.341333a29.056 29.056 0 0 0 40.362667-1.408l71.04-73.685333a27.690667 27.690667 0 0 0-1.365333-39.765334z" p-id="9131"></path></svg>