<svg t="1639463575023" class="icon" viewBox="0 0 1024 1024" version="1.1" xmlns="http://www.w3.org/2000/svg" p-id="6915" width="24" height="24"><path d="M144.085333 153.856C187.093333 107.776 248.32 81.92 320.682667 81.92h369.877333c72.533333 0 133.802667 25.813333 176.768 71.978667 42.709333 45.866667 64.981333 109.226667 64.981333 180.437333v348.501333c0 71.168-22.272 134.570667-64.981333 180.48-42.965333 46.08-104.234667 71.936-176.768 71.936h-369.92c-72.533333 0-133.76-25.813333-176.725333-71.978666-42.709333-45.866667-64.938667-109.226667-64.938667-180.48V334.378667c0-71.253333 22.357333-134.613333 65.109333-180.48zM190.890667 197.546667c-29.866667 32.042667-47.914667 78.933333-47.914667 136.832v160.170666l348.586667-348.586666H320.64c-56.533333 0-100.138667 19.797333-129.792 51.626666z m391.168-51.626667L142.933333 585.045333v97.834667c0 48.128 12.373333 88.576 33.664 119.253333L799.786667 178.986667c-27.989333-20.778667-64.554667-33.066667-109.226667-33.066667h-108.501333z m260.138666 81.194667L223.146667 846.08c26.197333 15.957333 58.752 25.173333 97.493333 25.173333h128.128l419.498667-419.456V334.336c0-42.112-9.514667-78.336-26.112-107.264z m26.112 315.221333l-328.96 328.96h151.210667c56.746667 0 100.352-19.797333 129.92-51.584 29.866667-32 47.786667-78.848 47.786667-136.832V542.293333z" p-id="6916" fill="#666666"></path></svg>