<?xml version="1.0" standalone="no"?><!DOCTYPE svg PUBLIC "-//W3C//DTD SVG 1.1//EN" "http://www.w3.org/Graphics/SVG/1.1/DTD/svg11.dtd"><svg t="1635815201158" class="icon" viewBox="0 0 1024 1024" version="1.1" xmlns="http://www.w3.org/2000/svg" p-id="10996" xmlns:xlink="http://www.w3.org/1999/xlink" width="32" height="32"><defs><style type="text/css"></style></defs><path d="M512 938.666667a426.666667 426.666667 0 1 1 0-853.333334 426.666667 426.666667 0 0 1 0 853.333334z m0-56.888889a369.777778 369.777778 0 1 0 0-739.555556 369.777778 369.777778 0 0 0 0 739.555556z" p-id="10997"></path><path d="M526.222222 505.230222l117.532445 109.624889a28.444444 28.444444 0 1 1-38.798223 41.585778L481.393778 541.184a28.444444 28.444444 0 0 1-12.060445-23.210667v-170.666666a28.444444 28.444444 0 1 1 56.888889 0V505.173333z" p-id="10998"></path></svg>