<svg t="1639466170896" class="icon" viewBox="0 0 1024 1024" version="1.1" xmlns="http://www.w3.org/2000/svg" p-id="6680" width="24" height="24"><path d="M695.466667 936.533333H326.4c-144.213333 0-241.066667-101.12-241.066667-251.733333V337.066667C85.333333 186.453333 182.186667 85.333333 326.4 85.333333h369.066667c68.693333 0 127.573333 23.04 171.093333 66.133334 45.226667 45.226667 69.973333 111.36 69.973333 185.6v347.733333c0 150.613333-96.853333 251.733333-241.066666 251.733333zM326.4 149.333333C218.88 149.333333 149.333333 223.146667 149.333333 337.066667v347.733333c0 113.92 69.546667 187.733333 177.066667 187.733333h369.066667c107.52 0 177.066667-73.813333 177.066666-187.733333V337.066667c0-58.026667-17.493333-106.666667-51.2-140.373334-31.146667-30.72-74.666667-47.36-125.866666-47.36H326.4z" p-id="6681" fill="#666666"></path><path d="M378.026667 485.546667c-61.013333 0-110.933333-49.92-110.933334-110.933334 0-61.013333 49.493333-110.933333 110.933334-110.933333 61.013333 0 110.506667 49.92 110.933333 110.506667-0.426667 61.866667-49.92 111.36-110.933333 111.36z m0-157.44c-25.6 0-46.933333 20.906667-46.933334 46.933333 0 26.026667 20.906667 46.933333 46.933334 46.933333 25.6 0 46.933333-20.906667 46.933333-46.933333-0.426667-26.026667-21.333333-46.933333-46.933333-46.933333zM160 858.026667c-5.12 0-10.666667-1.28-15.786667-4.266667a32.128 32.128 0 0 1-12.373333-43.52c2.56-4.693333 63.573333-112.64 130.986667-168.533333 53.333333-43.946667 110.933333-19.626667 157.44-0.426667 27.306667 11.52 52.906667 22.186667 77.653333 22.186667 22.613333 0 51.2-40.106667 76.373333-75.52 34.986667-49.493333 74.666667-104.96 132.693334-104.96 92.586667 0 172.373333 82.773333 215.466666 127.146666l5.12 5.12c12.373333 12.8 11.946667 32.853333-0.853333 45.226667-12.8 12.373333-32.853333 11.946667-45.226667-0.853333l-5.12-5.12c-36.266667-37.546667-104.106667-107.52-169.386666-107.52-25.173333 0-54.613333 41.386667-80.64 78.08-35.84 50.346667-72.96 102.4-128.426667 102.4-37.546667 0-72.106667-14.506667-102.4-27.306667-48.64-20.48-70.4-26.88-91.733333-9.386667-58.026667 47.786667-115.626667 149.333333-116.053334 150.186667-5.546667 11.093333-16.64 17.066667-27.733333 17.066667z" p-id="6682" fill="#666666"></path></svg>