<svg width="12" height="12" viewBox="0 0 12 12" fill="none" xmlns="http://www.w3.org/2000/svg">
<path d="M6 12C2.68636 12 0 9.31364 0 6C0 2.68636 2.68636 0 6 0C9.31364 0 12 2.68636 12 6C12 9.31364 9.31364 12 6 12ZM6 10.9091C8.71118 10.9091 10.9091 8.71118 10.9091 6C10.9091 3.28882 8.71118 1.09091 6 1.09091C3.28882 1.09091 1.09091 3.28882 1.09091 6C1.09091 8.71118 3.28882 10.9091 6 10.9091ZM6 3.81818C5.92836 3.81819 5.85743 3.80409 5.79124 3.77669C5.72505 3.74928 5.66491 3.7091 5.61425 3.65845C5.56359 3.6078 5.52341 3.54767 5.49599 3.48148C5.46857 3.4153 5.45446 3.34436 5.45446 3.27273C5.45446 3.20109 5.46857 3.13015 5.49599 3.06397C5.52341 2.99779 5.56359 2.93765 5.61425 2.887C5.66491 2.83635 5.72505 2.79618 5.79124 2.76877C5.85743 2.74136 5.92836 2.72726 6 2.72727C6.14465 2.72729 6.28337 2.78477 6.38564 2.88706C6.48792 2.98935 6.54537 3.12808 6.54537 3.27273C6.54537 3.41738 6.48792 3.5561 6.38564 3.65839C6.28337 3.76068 6.14465 3.81816 6 3.81818ZM5.45455 5.18182C5.45455 5.03716 5.51201 4.89842 5.61431 4.79612C5.7166 4.69383 5.85534 4.63636 6 4.63636C6.14466 4.63636 6.2834 4.69383 6.38569 4.79612C6.48799 4.89842 6.54545 5.03716 6.54545 5.18182V8.72727C6.54545 8.87194 6.48799 9.01067 6.38569 9.11297C6.2834 9.21526 6.14466 9.27273 6 9.27273C5.85534 9.27273 5.7166 9.21526 5.61431 9.11297C5.51201 9.01067 5.45455 8.87194 5.45455 8.72727V5.18182Z" fill="#000430" fill-opacity="0.5"/>
</svg>
