<?xml version="1.0" standalone="no"?><!DOCTYPE svg PUBLIC "-//W3C//DTD SVG 1.1//EN" "http://www.w3.org/Graphics/SVG/1.1/DTD/svg11.dtd"><svg t="1640569124804" class="icon" viewBox="0 0 1024 1024" version="1.1" xmlns="http://www.w3.org/2000/svg" p-id="7748" xmlns:xlink="http://www.w3.org/1999/xlink" width="14" height="14"><defs><style type="text/css"></style></defs><path d="M416.426667 623.786667c-8.106667 0-16.213333-2.986667-22.613334-9.386667a165.632 165.632 0 0 1-49.066666-117.76c0-92.16 75.093333-167.253333 166.826666-167.253333 44.373333 0 87.466667 17.92 117.76 49.066666 12.373333 12.8 12.373333 32.853333-0.426666 45.226667-12.373333 12.373333-32.853333 12.373333-45.226667-0.426667a102.954667 102.954667 0 0 0-145.066667 145.92c12.373333 12.373333 12.373333 32.853333 0 45.226667-5.546667 5.973333-14.08 9.386667-22.186666 9.386667zM536.32 660.906667a32 32 0 0 1-5.973333-63.573334c41.813333-7.68 75.093333-40.96 82.346666-82.773333a32 32 0 0 1 37.12-26.026667c17.493333 2.986667 29.013333 19.626667 26.026667 37.12a167.722667 167.722667 0 0 1-133.973333 134.4c-1.706667 0.853333-3.84 0.853333-5.546667 0.853334z" p-id="7749"></path><path d="M283.733333 756.053333c-6.826667 0-14.08-2.133333-19.626666-6.826666-72.106667-56.746667-133.12-139.52-176.213334-240.213334a32.213333 32.213333 0 0 1 0-25.173333c43.52-100.693333 104.96-184.32 177.493334-241.493333 148.053333-116.906667 344.746667-117.333333 494.08 0.853333a31.914667 31.914667 0 0 1-39.68 49.92c-126.293333-100.266667-289.706667-99.84-414.72-0.853333-61.44 48.64-113.92 119.04-152.746667 204.373333 38.4 84.906667 90.453333 154.88 151.466667 202.24a32 32 0 0 1-20.053334 57.173333zM512 840.106667c-40.106667 0-79.786667-6.4-118.186667-19.2a31.786667 31.786667 0 0 1-20.053333-40.533334c5.546667-16.64 23.466667-25.6 40.533333-20.053333 32 10.666667 64.853333 16.213333 98.133334 16.213333 146.346667 0 279.893333-104.106667 359.68-279.466666-19.626667-42.666667-42.24-81.066667-67.413334-114.773334A32.469333 32.469333 0 0 1 810.666667 336.64a32 32 0 0 1 44.8 6.4c30.72 40.96 58.026667 88.32 80.64 140.8 3.413333 8.106667 3.413333 17.493333 0 25.173333-89.6 207.36-247.893333 331.093333-424.106667 331.093334z" p-id="7750"></path><path d="M175.36 864.853333c-8.106667 0-16.213333-2.986667-22.613333-9.386666a32.170667 32.170667 0 0 1 0-45.226667L826.026667 137.386667c12.373333-12.373333 32.853333-12.373333 45.226666 0 12.373333 12.373333 12.373333 32.853333 0 45.226666L197.973333 855.466667a30.293333 30.293333 0 0 1-22.613333 9.386666z" p-id="7751"></path></svg>