<?xml version="1.0" standalone="no"?><!DOCTYPE svg PUBLIC "-//W3C//DTD SVG 1.1//EN" "http://www.w3.org/Graphics/SVG/1.1/DTD/svg11.dtd"><svg t="1641043632672" class="icon" viewBox="0 0 1024 1024" version="1.1" xmlns="http://www.w3.org/2000/svg" p-id="11264" xmlns:xlink="http://www.w3.org/1999/xlink" width="32" height="32"><defs><style type="text/css"></style></defs><path d="M494.016 872.096C446.624 845.024 95.68 628.224 82.272 621.632a31.392 31.392 0 0 1-18.08-25.12V292.32a32.626 32.626 0 0 1 15.04-28.224l2.624-1.472c33.984-20.736 147.584-89.056 165.664-98.912a27.36 27.36 0 0 1 26.528-0.544s159.04 102.144 183.36 111.264c17.024 7.68 35.68 11.584 54.496 11.264a123.328 123.328 0 0 0 61.024-14.56c23.776-12.384 175.744-107.424 177.408-107.424a24.448 24.448 0 0 1 12.608-3.424c4.8 0 9.536 1.376 13.696 3.712 20.608 11.328 161.568 96.288 167.52 100 9.888 5.824 15.904 16.48 15.84 27.936v304.192a31.072 31.072 0 0 1-18.176 25.056c-13.184 7.136-363.104 224-411.392 250.464-5.568 3.2-11.904 4.992-18.336 5.088a37.12 37.12 0 0 1-18.08-4.608v-0.032z" fill="#F65636" p-id="11265"></path><path d="M762.944 160.224c4.8 0 9.536 1.376 13.696 3.712 20.608 11.36 161.568 96.32 167.52 100A32.26 32.26 0 0 1 960 291.904v304.16a31.072 31.072 0 0 1-18.176 25.088c-6.56 3.552-97.344 59.552-192.544 117.952l-35.68 21.984c-83.2 50.944-162.048 98.944-183.168 110.464a37.856 37.856 0 0 1-18.272 5.12V285.696l8.832-0.16a123.84 123.84 0 0 0 51.936-14.464c9.824-5.12 41.664-24.384 75.616-45.248l17.12-10.464c42.752-26.304 83.808-51.712 84.672-51.712a24.448 24.448 0 0 1 12.608-3.424z" fill="#FB25A9" p-id="11266"></path><path d="M510.24 876.672H512c6.336 0.064 12.608-1.568 18.144-4.672 47.392-27.072 398.24-243.872 411.424-250.464a30.944 30.944 0 0 0 18.144-25.088v-304.16a31.84 31.84 0 0 0-3.488-14.848l-446.08 241.408v357.824" fill="#F50197" p-id="11267"></path><path d="M508.8 872.416h-1.888a36.768 36.768 0 0 1-17.92-4.544c-46.88-26.752-393.92-241.28-407.04-247.808A30.656 30.656 0 0 1 64 595.2V294.176a31.552 31.552 0 0 1 3.424-14.656l441.344 238.784v354.112z" fill="#F14918" p-id="11268"></path><path d="M293.856 391.776h40.704V584.64h70.016v38.08H293.984l-0.256-230.976h0.128v0.032z m204.96 57.824a69.056 69.056 0 0 1 55.104 26.112v-22.784h38.144v170.08H553.92V600.16a69.184 69.184 0 0 1-55.104 26.112c-47.328 0-83.2-39.936-83.2-88.512 0-48.224 35.872-88.096 83.2-88.096v-0.064z m6.944 34.24c-30.72 0-51.136 23.872-51.136 54.304 0 30.464 20.64 54.368 51.136 54.368 30.432 0 51.104-23.904 51.104-54.368 0-30.432-20.416-54.336-51.072-54.336h-0.032zM621.568 593.6l90.496-106.528h-89.12v-33.92h138.048v29.984l-90.048 106.08h92.064V623.2h-141.44v-29.632z" fill="#FFFFFF" p-id="11269"></path></svg>