<?xml version="1.0" standalone="no"?><!DOCTYPE svg PUBLIC "-//W3C//DTD SVG 1.1//EN" "http://www.w3.org/Graphics/SVG/1.1/DTD/svg11.dtd"><svg t="1641547872847" class="icon" viewBox="0 0 1024 1024" version="1.1" xmlns="http://www.w3.org/2000/svg" p-id="10134" xmlns:xlink="http://www.w3.org/1999/xlink" width="24" height="24"><defs><style type="text/css"></style></defs><path d="M203.349333 820.650667a223.573333 223.573333 0 0 1 0-316.16L278.186667 429.653333a32 32 0 1 0-45.226667-45.269333l-74.88 74.837333a287.573333 287.573333 0 1 0 406.656 406.656l75.52-75.434666a32 32 0 1 0-45.312-45.269334l-75.477333 75.477334a223.573333 223.573333 0 0 1-316.16 0zM384.426667 232.917333a32 32 0 0 0 45.226666 45.226667l74.837334-74.837333a223.573333 223.573333 0 0 1 316.16 316.16l-75.477334 75.52a32 32 0 0 0 45.226667 45.226666l75.52-75.52a287.573333 287.573333 0 1 0-406.656-406.613333L384.384 232.874667z" p-id="10135"></path><path d="M618.922667 429.653333a32 32 0 1 0-45.226667-45.226666l-170.410667 170.325333a32 32 0 1 0 45.269334 45.269333l170.368-170.368z" p-id="10136"></path></svg>