<svg width="42" height="42" viewBox="0 0 42 42" fill="none" xmlns="http://www.w3.org/2000/svg">
<path d="M21.0248 39.3297C10.9218 39.3297 2.70312 31.111 2.70312 21.0081C2.70312 10.9051 10.9218 2.68555 21.0248 2.68555C21.752 2.68555 22.3421 3.27558 22.3421 4.00287C22.3421 4.73015 21.752 5.32018 21.0248 5.32018C12.3747 5.32018 5.33776 12.3579 5.33776 21.008C5.33776 29.6581 12.3747 36.695 21.0248 36.695C29.6748 36.695 36.7126 29.6581 36.7126 21.008C36.7126 16.6598 34.9742 12.6161 31.8181 9.62378C31.2906 9.12293 31.2683 8.28929 31.7683 7.761C32.2683 7.23182 33.1028 7.21125 33.6311 7.71126C37.3172 11.207 39.3473 15.9291 39.3473 21.008C39.3473 31.111 31.1277 39.3297 21.0248 39.3297Z" fill="#1F6EEF"/>
</svg>
