<?xml version="1.0" standalone="no"?><!DOCTYPE svg PUBLIC "-//W3C//DTD SVG 1.1//EN" "http://www.w3.org/Graphics/SVG/1.1/DTD/svg11.dtd"><svg t="1640933788329" class="icon" viewBox="0 0 1828 1024" version="1.1" xmlns="http://www.w3.org/2000/svg" p-id="6348" xmlns:xlink="http://www.w3.org/1999/xlink" width="57.125" height="32"><defs><style type="text/css"></style></defs><path d="M800.182857 393.216v214.308571h236.178286a288.182857 288.182857 0 0 1-95.305143 130.852572c-52.443429 40.740571-119.149714 59.099429-185.709714 59.099428H514.925714c-62.171429 0-124.342857-16.457143-174.665143-52.955428a285.988571 285.988571 0 0 1-118.491428-264.996572c5.485714-51.492571 25.234286-100.937143 56.758857-141.897142a285.403429 285.403429 0 0 1 227.84-112.786286h702.025143V9.801143H506.368a501.321143 501.321143 0 1 0 0 1002.788571h260.315429a501.321143 501.321143 0 0 0 440.100571-261.12v262.729143h214.454857v-620.982857H800.182857z" fill="#0045F0" p-id="6349"></path><path d="M1636.352 178.980571V9.874286H1421.897143V393.508571h401.773714V178.980571h-187.245714z" fill="#EE7C30" p-id="6350"></path></svg>