<?xml version="1.0" standalone="no"?><!DOCTYPE svg PUBLIC "-//W3C//DTD SVG 1.1//EN" "http://www.w3.org/Graphics/SVG/1.1/DTD/svg11.dtd"><svg t="1637564255633" class="icon" viewBox="0 0 1024 1024" version="1.1" xmlns="http://www.w3.org/2000/svg" p-id="14427" xmlns:xlink="http://www.w3.org/1999/xlink" width="32" height="32"><defs><style type="text/css"></style></defs><path d="M392.6 422.8L280 440.6c-4.4 0.7-9-0.4-12.6-3.2L85.6 297.7c-5.2-4-7.5-10.7-5.9-17.1 1.6-6.3 6.8-11.1 13.3-12.2l86.2-13.7-15.6-91.7c-1.1-6.6 1.9-13.3 7.7-16.8 5.7-3.5 13.1-3.2 18.4 1L384 293.8c3.4 2.6 5.6 6.3 6.3 10.5l15.8 99.7c1.5 9-4.5 17.3-13.5 18.8z m-110.7-15.7l89.4-14.2-12.2-76.9-156.2-117.8 11.5 67.4c0.8 4.3-0.3 8.7-2.8 12.4-2.6 3.5-6.4 5.9-10.8 6.6l-64.9 10.3 146 112.2z" p-id="14428"></path><path d="M277.4 448.3c-5.3 0-10.4-1.7-14.6-5L81 303.6c-7.6-5.8-10.9-15.6-8.6-24.9 2.3-9.2 9.9-16.2 19.3-17.8l78.8-12.5-14.3-84.2c-1.6-9.8 2.8-19.4 11.2-24.5 8.4-5.1 19.2-4.6 26.9 1.5l194.2 146.6c4.9 3.8 8.2 9.2 9.2 15.3l15.8 99.8c2.1 12.9-6.7 25.2-19.7 27.4h-0.1L281.2 448c-1.3 0.2-2.5 0.3-3.8 0.3z m-97.6-297c-1.6 0-3.2 0.4-4.6 1.3-3.1 1.9-4.8 5.6-4.2 9.2l16.9 99.1-93.7 14.9c-3.5 0.6-6.3 3.2-7.2 6.6-0.9 3.5 0.4 7.1 3.2 9.3L272 431.5c1.9 1.5 4.4 2.1 6.9 1.7l112.6-17.8c2.4-0.4 4.4-1.7 5.8-3.6 1.4-1.9 1.9-4.2 1.5-6.6L383 305.4c-0.4-2.3-1.6-4.3-3.4-5.7L185 153.1c-1.5-1.2-3.3-1.8-5.2-1.8zM279.9 415L117.5 290.2l82.1-13c2.3-0.4 4.4-1.6 5.9-3.5 1.4-2.1 2-4.5 1.5-6.7v-0.1l-14.7-86 173.7 131 13.8 87.3-99.9 15.8zM154.3 299.6l129.6 99.6 78.8-12.5-10.6-66.5-138.6-104.6 8.3 48.7c1.1 6.1-0.3 12.5-4 17.9l-0.2 0.3c-3.8 5.2-9.4 8.5-15.6 9.5l-47.7 7.6z" p-id="14429"></path><path d="M550.6 540c-4.2 0.7-8.6-0.3-12.3-3l-158-117c-7.3-5.4-8.9-15.7-3.5-23s15.7-8.9 23-3.5l158 117c7.3 5.4 8.9 15.7 3.5 23-2.7 3.7-6.5 5.8-10.7 6.5z" p-id="14430"></path><path d="M548 547.7c-5 0-9.9-1.6-14.1-4.7l-158-117c-10.6-7.9-12.9-22.9-5.1-33.5 3.8-5.1 9.4-8.5 15.7-9.5 6.3-1 12.7 0.6 17.8 4.4l158 117c5.1 3.8 8.5 9.4 9.5 15.7 1 6.3-0.6 12.7-4.4 17.8-3.7 5.1-9.1 8.4-15.5 9.4-1.4 0.3-2.7 0.4-3.9 0.4zM390.1 397.8c-0.5 0-0.9 0-1.4 0.1-2.4 0.4-4.5 1.6-5.9 3.6-2.9 3.9-2.1 9.6 1.9 12.5l158 117c2 1.4 4.3 2 6.6 1.6 2.5-0.4 4.5-1.6 5.9-3.5 1.4-1.9 2-4.3 1.7-6.7-0.4-2.4-1.6-4.5-3.6-5.9l-158-117c-1.5-1.1-3.3-1.7-5.2-1.7z" p-id="14431"></path><path d="M551.6 773.5c-65 0-126.2-25.3-172.2-71.3-46-46-71.3-107.1-71.3-172.2 0-18.5 2.1-36.8 6.1-54.3 4-17.2 21.2-27.9 38.4-23.9s27.9 21.2 23.9 38.4c-3 12.8-4.5 26.2-4.5 39.9 0 99 80.5 179.5 179.5 179.5S731.1 629 731.1 530s-80.5-179.5-179.5-179.5c-31 0-61.5 8-88.3 23.2-15.4 8.7-34.9 3.3-43.6-12.1-8.7-15.4-3.3-34.9 12.1-43.6 36.4-20.6 77.9-31.6 119.9-31.6 65 0 126.2 25.3 172.2 71.3 46 46 71.3 107.1 71.3 172.2 0 65-25.3 126.2-71.3 172.2-46.1 46.1-107.3 71.4-172.3 71.4z" p-id="14432"></path><path d="M551.6 933.5c-54.4 0-107.3-10.7-157-31.7-48.1-20.3-91.2-49.4-128.2-86.5-37.1-37-66.1-80.2-86.5-128.2-21.1-49.8-31.7-102.6-31.7-157.1 0-30.4 3.4-60.7 10.1-90 4-17.2 21.1-28 38.3-24 17.2 4 28 21.1 24 38.3-5.6 24.6-8.5 50-8.5 75.6 0 187.2 152.3 339.5 339.5 339.5C738.7 869.5 891 717.2 891 530c0-187.1-152.3-339.4-339.5-339.4-58.7 0-116.4 15.2-167 43.8-15.4 8.7-34.9 3.3-43.6-12.1-8.7-15.4-3.3-34.9 12.1-43.6 60.2-34.1 128.9-52.2 198.6-52.2 54.5 0 107.3 10.7 157.1 31.7 48.1 20.3 91.2 49.4 128.2 86.4 37 37 66.1 80.2 86.5 128.2 21 49.8 31.7 102.6 31.7 157 0 54.4-10.7 107.3-31.7 157C903.1 734.8 874 778 837 815c-37 37.1-80.2 66.1-128.2 86.5-49.9 21.3-102.8 32-157.2 32z" p-id="14433"></path><path d="M551.5 645.2c-30 0-58.5-11.5-80.1-32.4-21.5-20.8-34-48.7-35.1-78.6v-0.9-0.5c0-0.9-0.1-1.9-0.1-2.9 0-13.8 11.2-25 25-25s25 11.2 25 25v0.7c0 0.7 0.1 1.4 0.1 2.1 1.5 35.1 30.1 62.5 65.2 62.5 36 0 65.2-29.2 65.2-65.2s-29.2-65.2-65.2-65.2c-5.9 0-11.5 0.7-16.8 2.1-13.3 3.6-27.1-4.3-30.7-17.6s4.3-27.1 17.6-30.7c9.5-2.6 19.5-3.9 29.8-3.9 63.5 0 115.2 51.7 115.2 115.2S615 645.2 551.5 645.2z" p-id="14434"></path></svg>