<svg width="12" height="12" viewBox="0 0 12 12" fill="none" xmlns="http://www.w3.org/2000/svg">
<path d="M0.558603 3.51739C-0.186201 3.14086 -0.186201 2.61447 0.558603 2.23795L4.65809 0.281994C5.4037 -0.0939979 6.59624 -0.0939979 7.34184 0.281994L11.4413 2.23795C12.1861 2.61447 12.1861 3.14086 11.4413 3.51739L7.34184 5.47361C6.59624 5.84934 5.4037 5.84934 4.65809 5.47361L0.558603 3.51739ZM0.857271 5.24775L4.65809 7.12877C5.4037 7.50477 6.59624 7.50477 7.34184 7.12877L11.1429 5.24775L11.4416 5.39761C12.1861 5.77414 12.1861 6.30079 11.4416 6.67732L7.34184 8.63327C6.59624 9.0098 5.4037 9.0098 4.65809 8.63327L0.558603 6.67732C-0.186201 6.30079 -0.186201 5.77414 0.558603 5.39761L0.857271 5.24775V5.24775ZM0.857271 8.33248L4.65809 10.2135C5.4037 10.5895 6.59624 10.5895 7.34184 10.2135L11.1429 8.33248L11.4416 8.48261C12.1861 8.85913 12.1861 9.38552 11.4416 9.76205L7.34184 11.718C6.59624 12.094 5.4037 12.094 4.65809 11.718L0.558603 9.76205C-0.186201 9.38552 -0.186201 8.85913 0.558603 8.48261L0.857271 8.33248V8.33248Z" fill="#999999"/>
</svg>
