<svg t="1639465961368" class="icon" viewBox="0 0 1024 1024" version="1.1" xmlns="http://www.w3.org/2000/svg" p-id="6026" width="24" height="24"><path d="M502.613333 574.293333c-28.586667 0-57.173333-9.386667-80.64-28.16L230.4 392.106667c-13.653333-11.52-16.213333-31.573333-5.12-45.226667 11.093333-13.653333 31.146667-15.786667 44.8-4.693333l191.146667 154.026666c23.893333 19.2 58.026667 19.2 81.92 0l189.44-154.026666a32.426667 32.426667 0 0 1 45.226666 4.693333c11.093333 13.653333 8.96 33.706667-4.693333 45.226667l-189.44 154.026666c-23.893333 18.773333-52.48 28.16-81.066667 28.16z" p-id="6027" fill="#666666"></path><path d="M711.253333 917.333333H290.986667c-65.706667 0-124.586667-23.893333-170.24-69.12C70.4 797.866667 42.666667 726.613333 42.666667 648.106667V354.986667C42.666667 201.386667 149.76 85.333333 291.84 85.333333h418.986667c142.08 0 249.173333 116.053333 249.173333 269.653334v293.12c0 78.506667-27.733333 149.76-78.506667 200.106666-45.226667 45.226667-104.106667 69.12-170.24 69.12z m-0.426666-64h0.853333c48.64 0 91.733333-17.493333 125.013333-50.346666 38.4-38.4 59.733333-93.44 59.733334-154.88V354.986667c0-119.04-78.08-205.653333-185.173334-205.653334H291.84C184.746667 149.333333 106.666667 235.946667 106.666667 354.986667v293.12c0 61.44 21.333333 116.48 59.733333 154.88 32.853333 32.853333 76.373333 50.346667 125.013333 50.346666h419.413334z" p-id="6028" fill="#666666"></path></svg>