<svg t="1639464199278" class="icon" viewBox="0 0 1024 1024" version="1.1" xmlns="http://www.w3.org/2000/svg" p-id="7477" width="24" height="24"><path d="M224 426.666667A32 32 0 0 1 256 394.666667h256a32 32 0 0 1 0 64H256a32 32 0 0 1-32-32zM53.333333 853.333333a32 32 0 0 1 32-32h853.333334a32 32 0 0 1 0 64H85.333333a32 32 0 0 1-32-32z" p-id="7478" fill="#666666"></path><path d="M112 594.432a32 32 0 0 1-11.733333-43.690667L353.578667 112a32 32 0 1 1 55.466666 32L155.733333 582.741333a32 32 0 0 1-43.733333 11.690667z" p-id="7479" fill="#666666"></path><path d="M656 594.432a32 32 0 0 0 11.690667-43.690667L414.421333 112a32 32 0 1 0-55.466666 32l253.354666 438.741333a32 32 0 0 0 43.690667 11.690667zM736 128a32 32 0 0 1 32-32h170.666667a32 32 0 0 1 0 64h-170.666667a32 32 0 0 1-32-32zM736 384a32 32 0 0 1 32-32h170.666667a32 32 0 0 1 0 64h-170.666667a32 32 0 0 1-32-32zM736 640a32 32 0 0 1 32-32h170.666667a32 32 0 0 1 0 64h-170.666667a32 32 0 0 1-32-32z" p-id="7480" fill="#666666"></path></svg>