<?xml version="1.0" standalone="no"?><!DOCTYPE svg PUBLIC "-//W3C//DTD SVG 1.1//EN" "http://www.w3.org/Graphics/SVG/1.1/DTD/svg11.dtd"><svg t="1641096815893" class="icon" viewBox="0 0 1024 1024" version="1.1" xmlns="http://www.w3.org/2000/svg" p-id="5863" width="16" height="16" xmlns:xlink="http://www.w3.org/1999/xlink"><defs><style type="text/css"></style></defs><path d="M522.666667 782.933333c-199.68 0-379.733333-14.08-394.666667-183.893333 0-70.4 21.333333-106.24 40.106667-137.813333 19.2-32 37.546667-61.866667 37.546666-132.693334C205.653333 190.293333 332.8 42.666667 522.666667 42.666667c189.866667 0 317.013333 147.626667 317.013333 285.866666 0 70.826667 17.92 101.12 37.12 132.693334 18.773333 31.573333 40.533333 67.413333 40.533333 134.826666-14.933333 172.8-195.413333 186.88-394.666666 186.88z m0-676.266666c-149.333333 0-253.013333 116.906667-253.013334 221.866666 0 88.746667-24.746667 129.706667-46.506666 165.973334-17.493333 28.586667-31.146667 51.626667-31.146667 101.546666 7.253333 80.64 60.16 122.88 330.666667 122.88 268.8 0 323.84-43.946667 330.666666-125.44 0-46.933333-14.08-69.973333-31.573333-98.986666-21.76-36.266667-46.506667-77.226667-46.506667-165.973334 0.426667-104.96-103.68-221.866667-252.586666-221.866666zM520.533333 960c-47.786667 0-93.013333-21.333333-127.573333-59.306667a31.872 31.872 0 0 1 2.56-45.226666c13.226667-11.946667 33.28-10.666667 45.226667 2.56 21.76 24.32 50.346667 37.973333 79.786666 37.973333 29.44 0 58.026667-13.653333 80.213334-38.4 11.946667-13.226667 32-14.08 45.226666-2.56 13.226667 11.946667 14.08 32 2.56 45.226667-34.56 38.826667-80.213333 59.733333-128 59.733333z" p-id="5864"></path></svg>