<svg t="1639464546020" class="icon" viewBox="0 0 1024 1024" version="1.1" xmlns="http://www.w3.org/2000/svg" p-id="8040" width="24" height="24"><path d="M884.352 877.354667c-42.965333 46.122667-104.234667 71.978667-176.768 71.978666H337.706667c-72.533333 0-133.802667-25.856-176.768-71.978666-42.666667-45.909333-64.938667-109.269333-64.938667-180.48V348.458667c0-71.253333 22.357333-134.613333 65.109333-180.48C204.117333 121.856 265.386667 96 337.706667 96h369.877333c72.533333 0 133.802667 25.813333 176.768 71.936 42.752 45.909333 64.981333 109.269333 64.981333 180.48v348.501333c0 71.168-22.229333 134.528-64.981333 180.437334zM837.546667 833.706667c29.866667-32.042667 47.829333-78.890667 47.829333-136.832V348.416c0-58.026667-18.005333-104.832-47.786667-136.874667-29.610667-31.744-73.216-51.541333-129.962666-51.541333H337.706667c-56.490667 0-100.096 19.754667-129.749334 51.584-29.866667 32.042667-47.957333 78.890667-47.957333 136.832v348.501333c0 57.941333 17.962667 104.789333 47.786667 136.832 29.568 31.744 73.173333 51.584 129.92 51.584h369.877333c56.746667 0 100.352-19.84 129.92-51.626666z" p-id="8041" fill="#666666"></path><path d="M329.088 311.765333a32 32 0 0 1 34.858667 6.912l329.386666 329.386667v-306.773333a32 32 0 0 1 64 0v384a32 32 0 0 1-54.613333 22.613333L373.333333 418.56V725.333333a32 32 0 0 1-64 0V341.333333a32 32 0 0 1 19.754667-29.568z" p-id="8042" fill="#666666"></path></svg>