<?xml version="1.0" standalone="no"?><!DOCTYPE svg PUBLIC "-//W3C//DTD SVG 1.1//EN" "http://www.w3.org/Graphics/SVG/1.1/DTD/svg11.dtd"><svg t="1637145876286" class="icon" viewBox="0 0 1024 1024" version="1.1" xmlns="http://www.w3.org/2000/svg" p-id="4698" xmlns:xlink="http://www.w3.org/1999/xlink" width="32" height="32"><defs><style type="text/css"></style></defs><path d="M280.352 174.08c0-44.928 36.496-81.28 81.44-81.28h264.432a81.36 81.36 0 0 1 81.424 81.28v0.208h74.128a81.36 81.36 0 0 1 81.44 81.28v263.888a19.2 19.2 0 0 1-38.416 0V255.584a42.96 42.96 0 0 0-43.024-42.88h-74.48A81.376 81.376 0 0 1 626.24 286.4H361.76a81.376 81.376 0 0 1-81.072-73.728h-74.48a42.96 42.96 0 0 0-43.024 42.88V829.92a42.96 42.96 0 0 0 43.024 42.896H516a19.2 19.2 0 1 1 0 38.4H206.224A81.36 81.36 0 0 1 124.8 829.92V255.568c0-44.944 36.48-81.28 81.424-81.28h74.128v-0.208z m81.44-42.88a42.96 42.96 0 0 0-43.04 42.88v31.04a42.96 42.96 0 0 0 43.04 42.896h264.432a42.96 42.96 0 0 0 43.024-42.88v-31.04a42.96 42.96 0 0 0-43.04-42.896H361.792z m-120.32 276.32a19.2 19.2 0 0 1 19.2-19.2h462.768a19.2 19.2 0 1 1 0 38.4H260.672a19.2 19.2 0 0 1-19.2-19.2z m461.36 164.368l-11.76 30.8a19.2 19.2 0 0 1-12.032 11.424 125.872 125.872 0 0 0-30.656 14.72 19.2 19.2 0 0 1-16.416 2.272l-31.552-10.048c-6.992 7.232-13.328 15.104-18.88 23.52l16.8 28.352a19.2 19.2 0 0 1 1.456 16.576 124.512 124.512 0 0 0-7.52 33.024 19.2 19.2 0 0 1-8.512 14.288l-27.536 18.304c1.328 10.096 3.584 19.888 6.688 29.312l32.832 4.592c5.76 0.8 10.816 4.16 13.808 9.12 5.856 9.76 13.008 18.688 21.232 26.512 4.224 4.016 6.384 9.728 5.888 15.536l-2.816 32.864c8.608 5.168 17.728 9.568 27.28 13.12l24.08-22.752a19.2 19.2 0 0 1 15.744-5.072 127.808 127.808 0 0 0 34.08 0 19.2 19.2 0 0 1 15.744 5.072l24.08 22.736c9.552-3.52 18.672-7.936 27.28-13.104l-2.816-32.864a19.2 19.2 0 0 1 5.888-15.536 126.448 126.448 0 0 0 21.232-26.496 19.2 19.2 0 0 1 13.808-9.136l32.848-4.592c3.088-9.424 5.344-19.216 6.672-29.312l-27.52-18.304a19.2 19.2 0 0 1-8.512-14.288 124.512 124.512 0 0 0-7.536-33.024 19.2 19.2 0 0 1 1.44-16.576l16.8-28.336a163.44 163.44 0 0 0-18.864-23.536l-31.552 10.048a19.2 19.2 0 0 1-16.416-2.256 125.984 125.984 0 0 0-30.656-14.736 19.2 19.2 0 0 1-12.032-11.424l-11.76-30.8a165.984 165.984 0 0 0-30.336 0z m-16.848-36.56a203.392 203.392 0 0 1 64.032 0 19.2 19.2 0 0 1 14.912 12.112l12.72 33.28c8.032 3.12 15.776 6.848 23.136 11.12l34.08-10.864a19.2 19.2 0 0 1 18.72 4.08c15.84 14.352 29.376 31.2 40 49.92a19.2 19.2 0 0 1-0.192 19.264L875.2 684.88c2.512 8.048 4.416 16.352 5.68 24.864l29.728 19.776a19.2 19.2 0 0 1 8.544 17.216 199.52 199.52 0 0 1-14.24 62.336 19.2 19.2 0 0 1-15.136 11.792l-35.472 4.96c-4.8 7.056-10.16 13.728-15.968 19.936l3.04 35.504a19.2 19.2 0 0 1-8.16 17.392 201.12 201.12 0 0 1-57.76 27.76 19.2 19.2 0 0 1-18.624-4.448l-26.016-24.56a167.12 167.12 0 0 1-25.664 0l-26.016 24.56a19.2 19.2 0 0 1-18.64 4.448 201.12 201.12 0 0 1-57.728-27.76 19.2 19.2 0 0 1-8.16-17.392l3.04-35.504a164.896 164.896 0 0 1-15.968-19.936l-35.488-4.96a19.2 19.2 0 0 1-15.136-11.792 199.52 199.52 0 0 1-14.24-62.336 19.2 19.2 0 0 1 8.544-17.216l29.728-19.776a162.88 162.88 0 0 1 5.68-24.864l-18.176-30.64a19.2 19.2 0 0 1-0.176-19.28 201.872 201.872 0 0 1 39.984-49.92 19.2 19.2 0 0 1 18.72-4.064l34.08 10.88c7.36-4.288 15.104-8.016 23.136-11.136l12.72-33.28a19.2 19.2 0 0 1 14.912-12.112z m-444.512 27.424a19.2 19.2 0 0 1 19.2-19.2h217.328a19.2 19.2 0 1 1 0 38.4H260.672a19.2 19.2 0 0 1-19.2-19.2z m479.2 114.272a54.56 54.56 0 0 0-54.656 54.432 54.56 54.56 0 0 0 54.672 54.416 54.56 54.56 0 0 0 54.672-54.416 54.56 54.56 0 0 0-54.672-54.432z m-93.056 54.432c0-51.328 41.728-92.832 93.072-92.832s93.072 41.504 93.072 92.832c0 51.328-41.728 92.816-93.072 92.816s-93.072-41.488-93.072-92.816z m-385.472-13.488a19.2 19.2 0 0 1 19.2-19.2H424a19.2 19.2 0 1 1 0 38.4H261.344a19.2 19.2 0 0 1-19.2-19.2z" p-id="4699"></path></svg>