<?xml version="1.0" standalone="no"?><!DOCTYPE svg PUBLIC "-//W3C//DTD SVG 1.1//EN" "http://www.w3.org/Graphics/SVG/1.1/DTD/svg11.dtd"><svg t="1634029543725" class="icon" viewBox="0 0 1024 1024" version="1.1" xmlns="http://www.w3.org/2000/svg" p-id="14711" xmlns:xlink="http://www.w3.org/1999/xlink" width="200" height="200"><defs><style type="text/css"></style></defs><path d="M721.728 281.216V224a9.6 9.6 0 0 0-9.6-9.536H254.72a9.6 9.6 0 0 0-9.6 9.536v57.216a9.6 9.6 0 0 0 9.6 9.536h457.536a9.6 9.6 0 0 0 9.536-9.6zM254.656 386.048a9.6 9.6 0 0 0-9.6 9.536v57.152a9.6 9.6 0 0 0 9.6 9.6h219.2a9.6 9.6 0 0 0 9.6-9.6v-57.152a9.6 9.6 0 0 0-9.6-9.6H254.72z m448 74.24a257.344 257.344 0 1 0 0 514.688 257.344 257.344 0 0 0 0-514.752z m128.064 385.408a179.968 179.968 0 0 1-128.064 53.056 179.968 179.968 0 0 1-128.128-53.056 179.968 179.968 0 0 1-52.992-128.064c0-48.384 18.816-93.888 52.992-128.128a179.968 179.968 0 0 1 128.128-52.992c48.384 0 93.888 18.816 128.064 52.992 34.176 34.24 53.056 79.744 53.056 128.128 0 48.384-18.88 93.888-53.056 128.064z m-22.016-218.624h-52.8a9.408 9.408 0 0 0-7.744 3.904l-75.648 104.64-27.52-38.016a9.408 9.408 0 0 0-7.744-3.904h-52.544a9.6 9.6 0 0 0-7.744 15.104l87.936 121.6c3.84 5.312 11.52 5.312 15.36 0l136.064-188.16a9.472 9.472 0 0 0-7.68-15.168zM426.24 866.048H149.76V80.384h667.264v319.872c0 4.928 4.288 8.96 9.536 8.96h66.688c5.248 0 9.6-4.032 9.6-8.96V35.712c0-19.776-17.088-35.712-38.144-35.712H102.144C81.024 0 64 16 64 35.712v874.944c0 19.776 17.024 35.712 38.144 35.712H426.24c5.184 0 9.536-4.032 9.536-8.96v-62.464c0-4.928-4.352-8.96-9.6-8.96z" p-id="14712"></path></svg>