<?xml version="1.0" standalone="no"?><!DOCTYPE svg PUBLIC "-//W3C//DTD SVG 1.1//EN" "http://www.w3.org/Graphics/SVG/1.1/DTD/svg11.dtd"><svg t="1635815265036" class="icon" viewBox="0 0 1024 1024" version="1.1" xmlns="http://www.w3.org/2000/svg" p-id="11787" xmlns:xlink="http://www.w3.org/1999/xlink" width="32" height="32"><defs><style type="text/css"></style></defs><path d="M663.31 285.04c-15.67 0-28.37-12.71-28.37-28.37 0-67.78-55.15-122.94-122.94-122.94s-122.94 55.15-122.94 122.94c0 15.66-12.7 28.37-28.37 28.37s-28.37-12.71-28.37-28.37C332.32 157.6 412.93 77 512 77s179.68 80.6 179.68 179.68c0 15.65-12.7 28.36-28.37 28.36zM512 776.79c-92.83 0-175.49-53.78-205.68-133.83-5.53-14.67 1.87-31.03 16.53-36.55 14.68-5.5 31.03 1.88 36.55 16.53 21.91 58.09 83.23 97.12 152.6 97.12 69.03 0 130.26-38.79 152.36-96.51 5.6-14.65 22.03-22.03 36.64-16.35 14.64 5.6 21.96 22 16.36 36.63C686.9 723.35 604.38 776.79 512 776.79z" p-id="11788"></path><path d="M814.61 947H209.39c-36.5 0-66.2-29.7-66.2-66.2V313.4c0-36.5 29.7-66.2 66.2-66.2h605.22c36.5 0 66.2 29.7 66.2 66.2v567.4c0 36.51-29.7 66.2-66.2 66.2zM209.39 303.95c-5.22 0-9.46 4.25-9.46 9.46v567.4c0 5.21 4.24 9.46 9.46 9.46h605.22c5.22 0 9.46-4.25 9.46-9.46v-567.4c0-5.21-4.24-9.46-9.46-9.46H209.39z" p-id="11789"></path></svg>