<svg t="1639464853605" class="icon" viewBox="0 0 1024 1024" version="1.1" xmlns="http://www.w3.org/2000/svg" p-id="8556" width="24" height="24"><path d="M749.226667 960c-106.24 0-244.906667-84.906667-412.16-251.733333C169.386667 540.586667 84.48 401.493333 85.333333 294.826667c0.426667-70.4 37.12-106.24 51.2-119.893334 0.853333-0.853333 2.986667-3.413333 3.84-4.266666 61.44-61.44 102.4-86.186667 143.36-85.333334 47.786667 0.426667 81.493333 36.266667 124.586667 81.493334 10.666667 11.093333 22.186667 23.466667 34.986667 36.266666 62.293333 62.293333 44.373333 113.066667 30.293333 154.026667-15.36 44.373333-29.013333 82.773333 51.626667 163.413333 80.64 80.213333 119.04 66.986667 163.413333 51.2 40.96-14.506667 91.733333-32 154.026667 30.293334 12.8 12.8 24.746667 23.893333 35.84 34.56 45.226667 43.093333 81.066667 77.226667 81.92 125.013333 0.426667 40.96-24.32 82.346667-85.333334 143.36l-26.88-18.346667 23.04 22.186667c-13.653333 14.08-49.493333 50.773333-119.893333 51.2h-2.133333zM186.026667 215.893333l-4.693334 4.693334c-10.24 10.24-31.573333 31.146667-32 74.666666-0.426667 61.013333 39.68 174.506667 232.96 367.786667 192.426667 192.426667 305.493333 232.96 366.933334 232.96h0.853333c43.52-0.426667 64.426667-21.76 74.666667-32 2.986667-2.986667 5.546667-5.546667 7.253333-6.826667 42.666667-42.666667 64.426667-74.666667 64-95.146666-0.426667-20.906667-26.026667-45.226667-61.866667-79.36-11.52-10.666667-23.893333-22.613333-36.693333-35.84-33.706667-33.706667-50.773333-27.733333-87.466667-14.933334-51.2 17.92-120.746667 42.24-229.546666-66.56C371.2 456.533333 395.52 386.56 413.44 335.786667c12.8-36.693333 18.773333-53.76-14.933333-87.466667-13.226667-13.226667-25.173333-25.6-36.266667-37.12-33.706667-35.84-58.453333-61.44-78.933333-61.866667h-0.426667c-20.48 0-52.053333 21.76-96.853333 66.56z" p-id="8557" fill="#666666"></path></svg>