<?xml version="1.0" standalone="no"?><!DOCTYPE svg PUBLIC "-//W3C//DTD SVG 1.1//EN" "http://www.w3.org/Graphics/SVG/1.1/DTD/svg11.dtd"><svg t="1641302288534" class="icon" viewBox="0 0 1024 1024" version="1.1" xmlns="http://www.w3.org/2000/svg" p-id="6311" xmlns:xlink="http://www.w3.org/1999/xlink" width="24" height="24"><defs><style type="text/css"></style></defs><path d="M522.666667 960C281.6 960 85.333333 763.733333 85.333333 522.666667S281.6 85.333333 522.666667 85.333333 960 281.6 960 522.666667 763.733333 960 522.666667 960z m0-810.666667c-205.653333 0-373.333333 167.253333-373.333334 373.333334S317.013333 896 522.666667 896 896 728.746667 896 522.666667 728.32 149.333333 522.666667 149.333333z" p-id="6312" fill="#ffffff"></path><path d="M462.08 682.666667c-11.52 0-22.186667-3.413333-31.146667-11.946667-6.826667-6.826667-25.173333-25.173333-25.173333-145.066667 0-126.293333 19.2-145.066667 25.173333-151.466666 22.186667-22.186667 58.453333-6.826667 74.24-0.426667 21.76 9.386667 177.493333 89.173333 177.493334 148.906667 0 55.893333-139.946667 133.973333-175.786667 148.906666-14.08 5.546667-29.866667 11.093333-44.8 11.093334z m12.8-252.16c-7.68 42.666667-7.68 144.64 0 185.173333 37.546667-13.226667 118.613333-66.56 140.373333-93.013333-21.76-25.6-101.973333-78.08-140.373333-92.16z" p-id="6313" fill="#ffffff"></path></svg>