<svg width="12" height="12" viewBox="0 0 12 12" fill="none" xmlns="http://www.w3.org/2000/svg">
<path fill-rule="evenodd" clip-rule="evenodd" d="M6.00041 3.25C7.40882 3.25 8.70874 3.78506 9.65805 4.46801C10.1312 4.80843 10.4921 5.1678 10.7246 5.48185C10.9644 5.80566 10.9968 5.98262 10.9997 5.99884C10.9999 5.99985 11 6.00024 11 6C11 5.99976 10.9999 6.00015 10.9997 6.00116C10.9968 6.01738 10.9644 6.19434 10.7246 6.51815C10.4921 6.8322 10.1312 7.19157 9.65805 7.53199C8.70874 8.21494 7.40882 8.75 6.00041 8.75C4.59199 8.75 3.29184 8.21493 2.34229 7.53194C1.86898 7.1915 1.50807 6.83211 1.27543 6.51805C1.03573 6.19446 1.00327 6.01756 1.00026 6.00118C1.00007 6.00015 1 5.99975 1 6C1 6.00025 1.00007 5.99985 1.00026 5.99882C1.00327 5.98244 1.03573 5.80554 1.27543 5.48195C1.50807 5.16789 1.86898 4.8085 2.34229 4.46806C3.29184 3.78507 4.59199 3.25 6.00041 3.25ZM6.00041 2.25C9.31198 2.25 12 4.75 12 6C12 7.25 9.31198 9.75 6.00041 9.75C2.68884 9.75 0 7.25 0 6C0 4.75 2.68884 2.25 6.00041 2.25ZM8.25 6C8.25 7.24264 7.24264 8.25 6 8.25C4.75736 8.25 3.75 7.24264 3.75 6C3.75 4.75736 4.75736 3.75 6 3.75C6.2306 3.75 6.4531 3.78469 6.66256 3.84914C6.27189 4.02552 6 4.41851 6 4.875C6 5.49632 6.50368 6 7.125 6C7.58149 6 7.97448 5.72811 8.15086 5.33744C8.21531 5.5469 8.25 5.7694 8.25 6Z" fill="#000430" fill-opacity="0.6"/>
</svg>
