<svg width="12" height="8" viewBox="0 0 12 8" fill="none" xmlns="http://www.w3.org/2000/svg">
<path fill-rule="evenodd" clip-rule="evenodd" d="M6.00041 1.25C7.40882 1.25 8.70874 1.78506 9.65805 2.46801C10.1312 2.80843 10.4921 3.1678 10.7246 3.48185C10.9644 3.80566 10.9968 3.98262 10.9997 3.99884C10.9999 3.99985 11 4.00024 11 4C11 3.99976 10.9999 4.00015 10.9997 4.00116C10.9968 4.01738 10.9644 4.19434 10.7246 4.51815C10.4921 4.8322 10.1312 5.19157 9.65805 5.53199C8.70874 6.21494 7.40882 6.75 6.00041 6.75C4.59199 6.75 3.29184 6.21493 2.34229 5.53194C1.86898 5.1915 1.50807 4.83211 1.27543 4.51805C1.03573 4.19446 1.00327 4.01756 1.00026 4.00118C1.00007 4.00015 1 3.99975 1 4C1 4.00025 1.00007 3.99985 1.00026 3.99882C1.00327 3.98244 1.03573 3.80554 1.27543 3.48195C1.50807 3.16789 1.86898 2.8085 2.34229 2.46806C3.29184 1.78507 4.59199 1.25 6.00041 1.25ZM6.00041 0.25C9.31198 0.25 12 2.75 12 4C12 5.25 9.31198 7.75 6.00041 7.75C2.68884 7.75 0 5.25 0 4C0 2.75 2.68884 0.25 6.00041 0.25ZM8.25 4C8.25 5.24264 7.24264 6.25 6 6.25C4.75736 6.25 3.75 5.24264 3.75 4C3.75 2.75736 4.75736 1.75 6 1.75C6.2306 1.75 6.4531 1.78469 6.66256 1.84914C6.27189 2.02552 6 2.41851 6 2.875C6 3.49632 6.50368 4 7.125 4C7.58149 4 7.97448 3.72811 8.15086 3.33744C8.21531 3.5469 8.25 3.7694 8.25 4Z" fill="white"/>
</svg>
