<?xml version="1.0" standalone="no"?><!DOCTYPE svg PUBLIC "-//W3C//DTD SVG 1.1//EN" "http://www.w3.org/Graphics/SVG/1.1/DTD/svg11.dtd"><svg t="1637147344153" class="icon" viewBox="0 0 1024 1024" version="1.1" xmlns="http://www.w3.org/2000/svg" p-id="21748" xmlns:xlink="http://www.w3.org/1999/xlink" width="32" height="32"><defs><style type="text/css"></style></defs><path d="M535.466667 981.333333l-38.4 0c-53.333333 0-102.4-36.266667-121.6-87.466667-8.533333-4.266667-19.2-8.533333-27.733333-12.8-17.066667 6.4-34.133333 10.666667-53.333333 10.666667-34.133333 0-68.266667-12.8-91.733333-38.4l-27.733333-27.733333c-38.4-38.4-49.066667-98.133333-27.733333-145.066667-4.266667-8.533333-8.533333-17.066667-12.8-27.733333C81.066667 633.6 42.666667 584.533333 42.666667 531.2L42.666667 490.666667c0-53.333333 38.4-102.4 89.6-121.6 4.266667-8.533333 8.533333-17.066667 12.8-25.6 0 0 0-2.133333 2.133333-2.133333-6.4-17.066667-10.666667-34.133333-10.666667-53.333333 0-34.133333 12.8-68.266667 38.4-91.733333l27.733333-27.733333c25.6-25.6 57.6-38.4 91.733333-38.4 19.2 0 36.266667 4.266667 53.333333 10.666667 8.533333-4.266667 19.2-8.533333 25.6-10.666667 19.2-51.2 68.266667-85.333333 121.6-85.333333l38.4 0c53.333333 0 102.4 36.266667 121.6 87.466667 8.533333 4.266667 19.2 8.533333 27.733333 12.8 17.066667-8.533333 34.133333-10.666667 53.333333-10.666667 34.133333 0 68.266667 12.8 91.733333 38.4l27.733333 27.733333c38.4 38.4 49.066667 98.133333 27.733333 145.066667 4.266667 8.533333 8.533333 17.066667 12.8 27.733333 51.2 19.2 85.333333 68.266667 85.333333 121.6l0 38.4c0 55.466667-36.266667 102.4-87.466667 121.6-4.266667 8.533333-8.533333 19.2-12.8 27.733333 6.4 17.066667 10.666667 34.133333 10.666667 53.333333 0 34.133333-12.8 68.266667-38.4 91.733333L827.733333 853.333333c-25.6 25.6-57.6 38.4-91.733333 38.4-19.2 0-36.266667-4.266667-53.333333-10.666667-8.533333 4.266667-17.066667 8.533333-27.733333 12.8C637.866667 945.066667 588.8 981.333333 535.466667 981.333333zM347.733333 810.666667c4.266667 0 10.666667 2.133333 14.933333 4.266667l12.8 6.4c12.8 6.4 25.6 12.8 36.266667 17.066667 10.666667 4.266667 19.2 12.8 21.333333 23.466667 6.4 32 34.133333 55.466667 64 55.466667l38.4 0c29.866667 0 57.6-23.466667 64-55.466667 2.133333-10.666667 10.666667-19.2 21.333333-23.466667 14.933333-4.266667 32-12.8 49.066667-21.333333 10.666667-4.266667 21.333333-4.266667 32 2.133333 21.333333 14.933333 59.733333 12.8 81.066667-10.666667l27.733333-27.733333c12.8-12.8 19.2-29.866667 19.2-46.933333 0-12.8-4.266667-25.6-10.666667-36.266667-6.4-8.533333-6.4-21.333333-2.133333-32l4.266667-6.4c6.4-14.933333 14.933333-29.866667 19.2-42.666667 4.266667-10.666667 12.8-19.2 23.466667-21.333333 29.866667-6.4 53.333333-34.133333 53.333333-64L917.333333 490.666667c0-29.866667-23.466667-57.6-53.333333-64-10.666667-2.133333-19.2-10.666667-23.466667-21.333333-6.4-17.066667-12.8-34.133333-21.333333-49.066667-4.266667-10.666667-4.266667-21.333333 2.133333-32 17.066667-25.6 12.8-59.733333-8.533333-83.2L782.933333 213.333333c-21.333333-21.333333-57.6-25.6-81.066667-8.533333-10.666667 6.4-21.333333 6.4-32 2.133333-14.933333-8.533333-32-17.066667-49.066667-21.333333-10.666667-4.266667-19.2-12.8-21.333333-23.466667-6.4-29.866667-34.133333-53.333333-64-53.333333l-38.4 0c-29.866667 0-57.6 23.466667-64 53.333333-2.133333 10.666667-10.666667 19.2-21.333333 23.466667-14.933333 4.266667-29.866667 10.666667-49.066667 21.333333-10.666667 4.266667-21.333333 4.266667-32-2.133333C307.2 187.733333 270.933333 192 247.466667 213.333333l-27.733333 27.733333c-12.8 12.8-19.2 29.866667-19.2 46.933333 0 12.8 4.266667 25.6 10.666667 36.266667 6.4 8.533333 6.4 21.333333 2.133333 32-4.266667 6.4-6.4 12.8-10.666667 19.2-6.4 10.666667-12.8 21.333333-14.933333 29.866667-4.266667 10.666667-12.8 19.2-23.466667 21.333333C136.533333 433.066667 106.666667 458.666667 106.666667 490.666667l0 38.4c0 32 29.866667 57.6 57.6 64 10.666667 2.133333 19.2 10.666667 23.466667 21.333333 4.266667 12.8 10.666667 25.6 17.066667 38.4l6.4 10.666667c4.266667 10.666667 4.266667 21.333333-2.133333 32-17.066667 25.6-12.8 59.733333 10.666667 83.2l27.733333 27.733333c21.333333 21.333333 57.6 25.6 83.2 8.533333C334.933333 812.8 341.333333 810.666667 347.733333 810.666667zM516.266667 721.066667c-117.333333 0-211.2-93.866667-211.2-211.2 0-117.333333 93.866667-211.2 211.2-211.2s211.2 93.866667 211.2 211.2C727.466667 625.066667 631.466667 721.066667 516.266667 721.066667zM516.266667 360.533333c-81.066667 0-147.2 66.133333-147.2 147.2s66.133333 147.2 147.2 147.2 147.2-66.133333 147.2-147.2S597.333333 360.533333 516.266667 360.533333z" p-id="21749"></path></svg>