<?xml version="1.0" standalone="no"?><!DOCTYPE svg PUBLIC "-//W3C//DTD SVG 1.1//EN" "http://www.w3.org/Graphics/SVG/1.1/DTD/svg11.dtd"><svg t="1637564398244" class="icon" viewBox="0 0 1024 1024" version="1.1" xmlns="http://www.w3.org/2000/svg" p-id="16308" xmlns:xlink="http://www.w3.org/1999/xlink" width="32" height="32"><defs><style type="text/css"></style></defs><path d="M832 312h-136v-16a184 184 0 0 0-368 0v16H192a32 32 0 0 0-32 32v536a32 32 0 0 0 32 32h640a32 32 0 0 0 32-32V344a32 32 0 0 0-32-32z m-432-16a112 112 0 1 1 224 0v16h-224v-16z m392 544h-560V384h96v88c0 4.416 3.584 8 8 8h56a8 8 0 0 0 8-8V384h224v88c0 4.416 3.584 8 8 8h56a8 8 0 0 0 8-8V384h96v456z" p-id="16309"></path><path d="M634.752 576h-30.72a21.504 21.504 0 0 0-17.024 8l-103.232 131.648-46.72-59.648a21.632 21.632 0 0 0-17.024-8h-30.72c-4.288 0-6.784 4.48-4.288 7.68l81.792 104.32c8.32 10.688 25.6 10.688 33.92 0l138.24-176.32c2.56-3.2 0-7.68-4.224-7.68z" p-id="16310"></path></svg>