<?xml version="1.0" standalone="no"?><!DOCTYPE svg PUBLIC "-//W3C//DTD SVG 1.1//EN" "http://www.w3.org/Graphics/SVG/1.1/DTD/svg11.dtd"><svg t="1637147212296" class="icon" viewBox="0 0 1024 1024" version="1.1" xmlns="http://www.w3.org/2000/svg" p-id="17826" xmlns:xlink="http://www.w3.org/1999/xlink" width="32" height="32"><defs><style type="text/css"></style></defs><path d="M768.232727 1024h-512a139.636364 139.636364 0 0 1-139.636363-139.636364V279.272727a139.636364 139.636364 0 0 1 139.636363-139.636363 23.272727 23.272727 0 0 1 0 46.545454 93.090909 93.090909 0 0 0-93.090909 93.090909v605.090909a93.090909 93.090909 0 0 0 93.090909 93.090909h512a93.090909 93.090909 0 0 0 93.090909-93.090909V279.272727a93.090909 93.090909 0 0 0-93.090909-93.090909 23.272727 23.272727 0 0 1 0-46.545454 139.636364 139.636364 0 0 1 139.636364 139.636363v605.090909a139.636364 139.636364 0 0 1-139.636364 139.636364z m-418.909091-605.090909h325.818182a23.272727 23.272727 0 0 1 0 46.545454h-325.818182a23.272727 23.272727 0 0 1 0-46.545454z m325.818182 325.818182a23.272727 23.272727 0 0 1 0 46.545454h-93.090909a23.272727 23.272727 0 0 1 0-46.545454h93.090909z m-325.818182 0h139.636364a23.272727 23.272727 0 0 1 0 46.545454h-139.636364a23.272727 23.272727 0 0 1 0-46.545454z m0-162.909091h325.818182a23.272727 23.272727 0 0 1 0 46.545454h-325.818182a23.272727 23.272727 0 0 1 0-46.545454z m-46.545454-372.363637a69.818182 69.818182 0 0 1 69.818182-69.818181h23.272727V116.363636a116.363636 116.363636 0 0 1 232.727273 0v23.272728h23.272727a69.818182 69.818182 0 0 1 69.818182 69.818181v69.818182h-418.909091V209.454545z m46.545454 23.272728h325.818182V209.454545a23.272727 23.272727 0 0 0-23.272727-23.272727h-69.818182V116.363636a69.818182 69.818182 0 1 0-139.636364 0v69.818182h-69.818181a23.272727 23.272727 0 0 0-23.272728 23.272727v23.272728z m162.909091-139.636364a23.272727 23.272727 0 1 1 0 46.545455 23.272727 23.272727 0 0 1 0-46.545455z" fill="#5E636D" p-id="17827"></path></svg>