<?xml version="1.0" standalone="no"?><!DOCTYPE svg PUBLIC "-//W3C//DTD SVG 1.1//EN" "http://www.w3.org/Graphics/SVG/1.1/DTD/svg11.dtd"><svg t="1652956936551" class="icon" viewBox="0 0 1024 1024" version="1.1" xmlns="http://www.w3.org/2000/svg" p-id="20563" xmlns:xlink="http://www.w3.org/1999/xlink" width="200" height="200"><defs><style type="text/css">@font-face { font-family: feedback-iconfont; src: url("//at.alicdn.com/t/font_1031158_u69w8yhxdu.woff2?t=1630033759944") format("woff2"), url("//at.alicdn.com/t/font_1031158_u69w8yhxdu.woff?t=1630033759944") format("woff"), url("//at.alicdn.com/t/font_1031158_u69w8yhxdu.ttf?t=1630033759944") format("truetype"); }
</style></defs><path d="M631.456 445.024h-238.912a8.544 8.544 0 0 0-8.544 8.512v34.144c0 4.704 3.84 8.544 8.544 8.544h238.912c4.736 0 8.544-3.84 8.544-8.544v-34.144a8.544 8.544 0 0 0-8.544-8.512zM524.8 551.68h-132.256a8.544 8.544 0 0 0-8.544 8.544v34.112c0 4.736 3.84 8.544 8.544 8.544H524.8c4.704 0 8.544-3.84 8.544-8.544v-34.112a8.544 8.544 0 0 0-8.544-8.544z" p-id="20564"></path><path d="M512 256a256 256 0 0 0-256 256v213.344A42.656 42.656 0 0 0 298.656 768H512a256 256 0 0 0 0-512z m0 454.816H307.2v-204.8a204.8 204.8 0 1 1 204.8 204.8z" p-id="20565"></path></svg>