<svg t="1639466009334" class="icon" viewBox="0 0 1024 1024" version="1.1" xmlns="http://www.w3.org/2000/svg" p-id="6353" width="24" height="24"><path d="M522.666667 96c235.605333 0 426.666667 191.018667 426.666666 426.666667 0 235.605333-191.061333 426.666667-426.666666 426.666666s-426.666667-191.061333-426.666667-426.666666c0-235.648 191.061333-426.666667 426.666667-426.666667z m362.666666 426.666667a362.666667 362.666667 0 1 0-725.333333 0 362.666667 362.666667 0 0 0 725.333333 0z" p-id="6354" fill="#666666"></path><path d="M512 352a181.333333 181.333333 0 1 1 0 362.666667 181.333333 181.333333 0 0 1 0-362.666667z m117.333333 181.333333a117.333333 117.333333 0 1 0-234.666666 0 117.333333 117.333333 0 0 0 234.666666 0z" p-id="6355" fill="#666666"></path></svg>