<svg id="图层_1" data-name="图层 1" xmlns="http://www.w3.org/2000/svg" viewBox="0 0 32 32"><defs><style>.cls-1{fill:#4e5969;fill-rule:evenodd;}</style></defs><path class="cls-1" d="M14.44,10.42a6,6,0,0,1,3.8.15,5.85,5.85,0,0,1,2.39,1.68l-1.23.55a.2.2,0,0,0,0,.37l3.31,1.34a.2.2,0,0,0,.28-.2l-.33-3.51a.2.2,0,0,0-.35-.12l-.75.83a7,7,0,0,0-2.9-2,7.18,7.18,0,0,0-8.31,2.42,6.89,6.89,0,0,0,.23,8.52,7.15,7.15,0,0,0,3.87,2.4A7.22,7.22,0,0,0,19,22.39a7,7,0,0,0,3.35-3.06.58.58,0,0,0-.24-.8.61.61,0,0,0-.82.24,5.91,5.91,0,0,1-2.78,2.54,6,6,0,0,1-3.79.35,5.91,5.91,0,0,1-3.22-2,5.73,5.73,0,0,1-.19-7.08A6,6,0,0,1,14.44,10.42Z"/></svg>