<svg width="24" height="24" viewBox="0 0 24 24" fill="none" xmlns="http://www.w3.org/2000/svg">
<path fill-rule="evenodd" clip-rule="evenodd" d="M12 4C7.58883 4 4 7.58883 4 12C4 16.4112 7.58883 20 12 20C16.4112 20 20 16.4112 20 12C20 7.58883 16.4112 4 12 4ZM12 5.2C15.7626 5.2 18.8 8.23736 18.8 12C18.8 15.7626 15.7626 18.8 12 18.8C8.23735 18.8 5.2 15.7626 5.2 12C5.2 8.23736 8.23735 5.2 12 5.2ZM8.07327 11.6975C8.18235 11.5106 8.38362 11.3969 8.6 11.4H15.4C15.6164 11.3969 15.8176 11.5106 15.9267 11.6975C16.0358 11.8844 16.0358 12.1156 15.9267 12.3025C15.8176 12.4894 15.6164 12.6031 15.4 12.6H8.6C8.38362 12.6031 8.18235 12.4894 8.07327 12.3025C7.96418 12.1156 7.96418 11.8844 8.07327 11.6975Z" fill="#666666"/>
</svg>
