<svg width="16" height="16" viewBox="0 0 16 16" fill="none" xmlns="http://www.w3.org/2000/svg">
<path d="M10.8 6.42999H5.2C5.08954 6.42999 5 6.51954 5 6.62999V7.42999C5 7.54045 5.08954 7.62999 5.2 7.62999H10.8C10.9105 7.62999 11 7.54045 11 7.42999V6.62999C11 6.51954 10.9105 6.42999 10.8 6.42999Z" fill="#4D5867"/>
<path d="M8.3 8.92999H5.2C5.08954 8.92999 5 9.01954 5 9.12999V9.92999C5 10.0404 5.08954 10.13 5.2 10.13H8.3C8.41046 10.13 8.5 10.0404 8.5 9.92999V9.12999C8.5 9.01954 8.41046 8.92999 8.3 8.92999Z" fill="#4D5867"/>
<path fill-rule="evenodd" clip-rule="evenodd" d="M8 2C6.4087 2 4.88258 2.63214 3.75736 3.75736C2.63214 4.88258 2 6.4087 2 8V13C2 13.2652 2.10536 13.5196 2.29289 13.7071C2.48043 13.8946 2.73478 14 3 14H8C9.5913 14 11.1174 13.3679 12.2426 12.2426C13.3679 11.1174 14 9.5913 14 8C14 6.4087 13.3679 4.88258 12.2426 3.75736C11.1174 2.63214 9.5913 2 8 2ZM8 12.66H3.2V7.86C3.2 6.91065 3.48152 5.98262 4.00895 5.19326C4.53638 4.40391 5.28603 3.78868 6.16312 3.42538C7.0402 3.06208 8.00532 2.96702 8.93643 3.15223C9.86754 3.33744 10.7228 3.7946 11.3941 4.46589C12.0654 5.13718 12.5226 5.99246 12.7078 6.92357C12.893 7.85468 12.7979 8.8198 12.4346 9.69688C12.0713 10.574 11.4561 11.3236 10.6667 11.8511C9.87738 12.3785 8.94935 12.66 8 12.66Z" fill="#4D5867"/>
</svg>
