<?xml version="1.0" standalone="no"?><!DOCTYPE svg PUBLIC "-//W3C//DTD SVG 1.1//EN" "http://www.w3.org/Graphics/SVG/1.1/DTD/svg11.dtd"><svg t="1644907347367" class="icon" viewBox="0 0 1024 1024" version="1.1" xmlns="http://www.w3.org/2000/svg" p-id="12212" width="12" height="12" xmlns:xlink="http://www.w3.org/1999/xlink"><defs><style type="text/css"></style></defs><path d="M502.016 86.528c-229.461333 0-415.488 186.026667-415.488 415.488 0 229.504 186.026667 415.530667 415.488 415.530667 98.133333 0 188.373333-34.048 259.456-90.922667l135.04 134.698667a32 32 0 0 0 45.226667-45.312l-133.461334-133.12a414.037333 414.037333 0 0 0 109.226667-280.874667c0-229.461333-186.026667-415.488-415.488-415.488z m-351.488 415.488a351.530667 351.530667 0 1 1 703.018667 0 351.530667 351.530667 0 0 1-703.018667 0z" p-id="12213" fill="#808197"></path></svg>