<svg t="1639465266004" class="icon" viewBox="0 0 1024 1024" version="1.1" xmlns="http://www.w3.org/2000/svg" p-id="9277" width="24" height="24"><path d="M884.352 877.354667c-42.965333 46.165333-104.234667 71.978667-176.768 71.978666H337.706667c-72.533333 0-133.802667-25.813333-176.768-71.978666-42.666667-45.866667-64.938667-109.226667-64.938667-180.437334V348.416c0-71.253333 22.357333-134.613333 65.109333-180.48C204.117333 121.856 265.386667 96 337.706667 96h369.877333c72.533333 0 133.802667 25.813333 176.768 71.978667 42.752 45.866667 64.981333 109.226667 64.981333 180.437333v348.501333c0 71.168-22.229333 134.570667-64.981333 180.48z m-46.848-43.605334c29.866667-32 47.829333-78.848 47.829333-136.832V348.416c0-57.984-18.005333-104.789333-47.786666-136.832-29.610667-31.786667-73.216-51.584-129.962667-51.584H337.706667c-56.490667 0-100.096 19.797333-129.749334 51.626667-29.866667 32-47.957333 78.848-47.957333 136.789333v348.501333c0 57.984 17.962667 104.789333 47.786667 136.832 29.568 31.786667 73.173333 51.584 129.92 51.584h369.877333c56.746667 0 100.352-19.797333 129.92-51.584z" p-id="9278" fill="#666666"></path><path d="M318.72 304.042667a32 32 0 0 1 45.226667 0l158.421333 158.421333 158.378667-158.421333a32 32 0 1 1 45.226666 45.269333l-180.992 181.034667a32 32 0 0 1-45.226666 0L318.72 349.312a32 32 0 0 1 0-45.226667z" p-id="9279" fill="#666666"></path></svg>