<?xml version="1.0" standalone="no"?><!DOCTYPE svg PUBLIC "-//W3C//DTD SVG 1.1//EN" "http://www.w3.org/Graphics/SVG/1.1/DTD/svg11.dtd"><svg t="1636859475139" class="icon" viewBox="0 0 1024 1024" version="1.1" xmlns="http://www.w3.org/2000/svg" p-id="3111" xmlns:xlink="http://www.w3.org/1999/xlink" width="32" height="32"><defs><style type="text/css"></style></defs><path d="M499.364 169.05c-2.837 0.165-5.724 0.72-8.446 1.665L83.233 306.407c-12.556 4.167-21.725 16.779-21.78 29.95V833.89c0.389 28.505 62.678 27.726 63.4 0V358.97l375.12-124.63L831.48 358.413v475.474c0.386 26.45 64.844 27.726 63.453 0V336.357c0-12.836-8.67-25.228-20.67-29.675L511.81 170.995c-3.891-1.445-8.169-2.11-12.446-1.946zM362.117 484.49c-5.501 0.89-10 5.283-9.946 9.895v40.172c0 5.277 5.89 9.89 12.223 9.945h96.185c6.278-0.11 12.165-4.721 12.226-10v-40.117c0-5.226-5.894-9.895-12.172-9.895h-96.238a7.936 7.936 0 0 0-2.278 0z m156.25 0c-5.447 0.89-9.724 5.283-9.614 9.895v40.172c0 5.277 5.888 9.89 12.167 9.945h96.02c6.279 0.056 12.332-4.612 12.446-9.945v-40.172c-0.114-5.226-6.113-10.004-12.446-9.895h-96.02c-0.775-0.109-1.831-0.109-2.552 0zM206.98 580.287c-5.893 0.444-11.062 5.223-11.062 10.225v39.84c0 5.223 5.669 10.225 11.891 10.225h96.522c6.278 0 11.832-5.002 11.892-10.224v-39.84c-0.06-5.224-5.613-10.226-11.892-10.226h-97.352z m156.246 0c-5.942 0.444-11 5.223-11.055 10.225v39.84c0 5.223 5.89 10.225 12.223 10.225h96.185c6.278 0 12.165-5.002 12.165-10.224v-39.84c0-5.224-5.886-10.226-12.165-10.226H363.226z m156.308 0c-5.893 0.555-10.78 5.338-10.78 10.225v39.84c0 5.223 5.888 10.225 12.167 10.225h96.02c6.279 0.11 12.332-4.89 12.446-10.224v-39.84c-0.114-5.335-6.113-10.337-12.446-10.226h-97.407z m-314 96.46c-5.448 0.89-9.725 5.222-9.616 9.834v40.178c0 5.275 5.669 9.946 11.891 9.946h96.522c6.278 0 11.832-4.67 11.892-9.946v-40.178c-0.06-5.168-5.613-9.835-11.892-9.835h-96.522a7.918 7.918 0 0 0-2.274 0z m156.583 0c-5.501 0.89-10 5.222-9.946 9.834v40.178c0 5.275 5.89 9.946 12.223 9.946h96.185c6.278 0 12.165-4.67 12.165-9.946v-40.178c0-5.168-5.886-9.835-12.165-9.835h-96.185a7.93 7.93 0 0 0-2.277 0z m156.25 0c-5.447 0.89-9.724 5.222-9.614 9.834v40.178c0 5.275 5.888 9.946 12.167 9.946h96.02c6.279 0.053 12.332-4.613 12.446-9.946v-40.178c-0.114-5.276-6.113-10-12.446-9.835h-96.02c-0.775-0.11-1.831-0.11-2.552 0z m156.25 0c-5.39 0.947-9.445 5.337-9.39 9.834v40.178c0.109 5.275 5.666 9.946 12 9.946h96.186c6.223 0 11.833-4.67 11.946-9.946v-40.178c-0.059-5.168-5.723-9.835-11.946-9.835h-96.185c-0.89-0.11-1.722-0.11-2.612 0z m-467.637 95.74c-5.893 0.445-11.062 5.28-11.062 10.225v39.895c0 5.223 5.669 10.167 11.891 10.167h96.522c6.278 0 11.832-4.944 11.892-10.167v-39.895c-0.06-5.279-5.613-10.225-11.892-10.225h-97.352z m156.246 0c-5.942 0.445-11 5.28-11.055 10.225v39.895c0 5.223 5.89 10.167 12.223 10.167h96.185c6.278 0 12.165-4.944 12.165-10.167v-39.895c0-5.279-5.886-10.225-12.165-10.225H363.226z m156.308 0c-5.833 0.555-10.78 5.333-10.78 10.225v39.895c0 5.223 5.888 10.167 12.167 10.167h96.02c6.279 0.113 12.332-4.889 12.446-10.167v-39.895c-0.114-5.279-6.113-10.28-12.446-10.225h-97.407z m156.583 0c-5.833 0.555-10.835 5.333-10.835 10.225v39.895c0.109 5.223 5.668 10.167 12 10.167h96.187c6.222 0 11.832-4.944 11.946-10.167v-39.895c-0.056-5.279-5.724-10.225-11.946-10.225h-97.352z m0 0" p-id="3112"></path></svg>