<?xml version="1.0" standalone="no"?><!DOCTYPE svg PUBLIC "-//W3C//DTD SVG 1.1//EN" "http://www.w3.org/Graphics/SVG/1.1/DTD/svg11.dtd"><svg t="1637145979815" class="icon" viewBox="0 0 1024 1024" version="1.1" xmlns="http://www.w3.org/2000/svg" p-id="7089" xmlns:xlink="http://www.w3.org/1999/xlink" width="32" height="32"><defs><style type="text/css"></style></defs><path d="M442.948267 216.610133c0-119.739733 94.958933-216.576 212.1728-216.576 117.248 0 212.309333 96.836267 212.309333 216.576 0 119.6032-95.163733 216.4736-212.309333 216.4736-117.213867 0.1024-212.1728-96.8704-212.1728-216.4736z m302.216533 238.7968h-180.053333c-73.864533 0-140.868267 16.520533-189.883734 65.877334h288.290134v445.064533h-140.458667c35.293867 17.749333 35.293867 20.036267 35.293867 30.583467 0 3.959467 0 9.489067-3.2768 13.994666a1105.92 1105.92 0 0 0 123.562666 7.850667c199.68 0 315.5968-57.344 322.6624-60.996267l14.2336-6.485333h3.4816v-226.065067c0-152.917333-123.8016-269.892267-273.646933-269.892266h-0.2048v0.068266z m-219.136 543.812267c0 11.0592-87.586133 19.933867-197.2224 19.933867-109.7728 0-198.656-8.874667-198.656-19.933867 0-7.918933 47.650133-14.677333 112.298667-17.851733v-30.139734H0V539.136h632.6272V951.296h-245.009067v29.218133c81.92 2.389333 138.410667 9.796267 138.410667 18.670934z m57.890133-82.261333V570.811733H48.298667v346.112h535.620266v0.1024zM144.042667 885.282133h44.817066V687.445333H144.042667v197.802667z m67.106133 0h31.095467V736.938667h-31.095467v148.309333z m47.240533 0h44.817067v-247.261866H258.389333v247.261866z m168.925867 0h44.782933V687.445333H427.349333v197.802667z m-54.613333 0h32.290133V736.938667h-32.324267v148.309333z m-47.172267 0h31.061333v-215.6544h-31.061333v215.6544z" p-id="7090"></path></svg>