<svg id="图层_1" data-name="图层 1" xmlns="http://www.w3.org/2000/svg" viewBox="0 0 32 32"><defs><style>.cls-1{fill:#4e5969;}</style></defs><path class="cls-1" d="M16,23a9.2,9.2,0,0,1-1.39-.11,1,1,0,0,1-.68-.51l-.75-1.46a.19.19,0,0,0-.2-.1l-1.6.15a.93.93,0,0,1-.81-.32,8.11,8.11,0,0,1-.74-1l0-.07a8.06,8.06,0,0,1-.58-1.18.93.93,0,0,1,.12-.88l.93-1.31a.26.26,0,0,0,0-.24l-.93-1.31a.91.91,0,0,1-.12-.87,8.3,8.3,0,0,1,.58-1.2,7.92,7.92,0,0,1,.79-1.16.92.92,0,0,1,.8-.34l1.68.13a.18.18,0,0,0,.19-.11L14,9.62a1,1,0,0,1,.69-.51,8.58,8.58,0,0,1,2.77,0,1,1,0,0,1,.68.51l.75,1.46a.2.2,0,0,0,.19.11l1.63-.13a1,1,0,0,1,.79.32,8.47,8.47,0,0,1,.76,1l0,.05a8.27,8.27,0,0,1,.58,1.2.94.94,0,0,1-.11.87l-.95,1.35a.21.21,0,0,0,0,.24l.93,1.31a.93.93,0,0,1,.12.88,8.72,8.72,0,0,1-.58,1.19,7.68,7.68,0,0,1-.77,1.12.94.94,0,0,1-.81.33L19,20.82a.2.2,0,0,0-.2.1L18,22.38a1,1,0,0,1-.68.51A9.3,9.3,0,0,1,16,23Zm-1-1.17Zm-.06-.1a7.53,7.53,0,0,0,2.12,0l.69-1.36a1.41,1.41,0,0,1,1.37-.75l1.56.14a8.51,8.51,0,0,0,.55-.83,7.65,7.65,0,0,0,.46-.9l-.86-1.2a1.4,1.4,0,0,1,0-1.61L21.66,14a6.15,6.15,0,0,0-.41-.81l0-.07a6.34,6.34,0,0,0-.57-.82l-1.5.11a1.41,1.41,0,0,1-1.35-.75l-.7-1.36a8.36,8.36,0,0,0-2.12,0l-.69,1.36a1.41,1.41,0,0,1-1.35.75l-1.55-.11a6.93,6.93,0,0,0-.58.87,8.64,8.64,0,0,0-.46.91l.86,1.2a1.41,1.41,0,0,1,0,1.62l-.86,1.2a6.15,6.15,0,0,0,.41.81l0,.07a6.17,6.17,0,0,0,.56.81l1.48-.14a1.4,1.4,0,0,1,1.38.75Zm5.64-1.85Zm-9.32-.11Zm10.5-5.66h0ZM17.23,10.3h0Zm-2.39,0h0Zm.19-.13Z"/><path class="cls-1" d="M16,19a3,3,0,1,1,3-3A3,3,0,0,1,16,19Zm0-4.8A1.8,1.8,0,1,0,17.8,16,1.81,1.81,0,0,0,16,14.2Z"/></svg>