<?xml version="1.0" standalone="no"?><!DOCTYPE svg PUBLIC "-//W3C//DTD SVG 1.1//EN" "http://www.w3.org/Graphics/SVG/1.1/DTD/svg11.dtd"><svg t="1640568857373" class="icon" viewBox="0 0 1024 1024" version="1.1" xmlns="http://www.w3.org/2000/svg" p-id="7062" width="14" height="14" xmlns:xlink="http://www.w3.org/1999/xlink"><defs><style type="text/css"></style></defs><path d="M295.850667 614.229333a32 32 0 0 1 0-45.269333l422.826666-422.826667a32 32 0 0 1 45.226667 45.226667l-422.826667 422.826667a32 32 0 0 1-45.226666 0z" p-id="7063"></path><path d="M763.904 614.229333a32 32 0 0 0 0-45.269333l-422.826667-422.826667a32 32 0 1 0-45.226666 45.226667l422.784 422.826667a32 32 0 0 0 45.226666 0zM117.333333 746.666667a181.333333 181.333333 0 1 1 362.666667 0 181.333333 181.333333 0 0 1-362.666667 0z m181.333334-117.333334a117.333333 117.333333 0 1 0 0 234.666667 117.333333 117.333333 0 0 0 0-234.666667z" p-id="7064"></path><path d="M586.666667 746.666667a181.333333 181.333333 0 1 1 362.666666 0 181.333333 181.333333 0 0 1-362.666666 0z m181.333333-117.333334a117.333333 117.333333 0 1 0 0 234.666667 117.333333 117.333333 0 0 0 0-234.666667z" p-id="7065"></path></svg>