<?xml version="1.0" standalone="no"?><!DOCTYPE svg PUBLIC "-//W3C//DTD SVG 1.1//EN" "http://www.w3.org/Graphics/SVG/1.1/DTD/svg11.dtd"><svg t="1640082557206" class="icon" viewBox="0 0 1024 1024" version="1.1" xmlns="http://www.w3.org/2000/svg" p-id="21579" xmlns:xlink="http://www.w3.org/1999/xlink" width="32" height="32"><defs><style type="text/css"></style></defs><path d="M99.754667 285.781333h208c6.314667-70.144 25.941333-133.12 54.101333-181.802666C399.146667 39.594667 452.181333 0 512.128 0c59.946667 0 112.682667 39.893333 150.229333 103.978667 28.16 48.384 47.786667 111.658667 54.186667 181.76h207.658667c24.576 0 46.677333 20.096 44.757333 44.586666l-41.728 579.541334C922.026667 982.485333 876.16 1024 809.6 1024H214.613333c-74.026667 0-113.237333-51.413333-117.674666-114.133333L55.04 330.624c-1.621333-24.490667 20.181333-44.842667 44.8-44.842667z m259.925333 0h304.341333c-6.058667-60.8-22.912-114.688-46.933333-155.946666-27.648-48.128-65.194667-78.122667-104.96-78.122667-40.064 0-77.354667 29.994667-105.514667 78.378667-24.021333 40.96-40.618667 95.146667-46.933333 155.690666z" fill="#EA501F" p-id="21580"></path><path d="M361.045333 820.736a20.992 20.992 0 0 1 23.765334-34.645333c6.058667 4.096 12.373333 8.234667 19.328 12.373333 48.597333 29.44 93.354667 43.989333 130.645333 43.989333 33.706667 0 61.013333-12.629333 78.421333-38.229333 1.109333-1.92 2.218667-2.986667 2.474667-3.84 4.992-7.978667 8.576-16.512 11.093333-24.746667 4.949333-17.066667 4.096-34.645333-2.816-50.602666-7.424-16.768-21.76-33.024-44.16-46.506667-14.933333-9.088-33.450667-17.066667-55.808-23.082667-56.874667-15.957333-98.858667-38.528-121.514666-68.778666-24.874667-33.28-26.794667-73.429333-0.298667-122.112 17.706667-32.170667 53.888-52.266667 99.712-55.850667 39.509333-2.986667 87.04 6.357333 135.338667 30.805333a20.693333 20.693333 0 0 1 9.130666 28.330667 20.906667 20.906667 0 0 1-28.458666 9.088c-41.130667-20.906667-80.384-28.885333-112.938667-26.410667-31.232 2.474667-54.997333 14.592-65.493333 33.834667-17.664 32.170667-17.408 57.472-2.986667 76.757333 16.512 22.272 51.072 39.594667 99.114667 53.077334a274.005333 274.005333 0 0 1 66.304 27.733333c30.08 18.176 50.261333 41.002667 61.013333 65.792 11.093333 25.6 12.458667 52.48 4.992 78.933333-3.328 11.818667-8.533333 23.637333-15.786667 35.2-1.621333 2.474667-2.730667 4.394667-3.541333 5.76-25.685333 37.674667-65.194667 56.405333-113.237333 56.661334-45.056 0-97.536-16.512-152.746667-50.048a245.76 245.76 0 0 1-21.546667-13.482667z" fill="#FFFFFF" p-id="21581"></path></svg>