<?xml version="1.0" standalone="no"?><!DOCTYPE svg PUBLIC "-//W3C//DTD SVG 1.1//EN" "http://www.w3.org/Graphics/SVG/1.1/DTD/svg11.dtd"><svg t="1641283312117" class="icon" viewBox="0 0 1024 1024" version="1.1" xmlns="http://www.w3.org/2000/svg" p-id="5880" xmlns:xlink="http://www.w3.org/1999/xlink" width="20" height="20"><defs><style type="text/css"></style></defs><path d="M512 680.96a166.826667 166.826667 0 1 1 0-333.653333 166.826667 166.826667 0 1 1 0 333.653333z m0-269.653333c-56.746667 0-102.826667 46.08-102.826667 102.826666s46.08 102.826667 102.826667 102.826667 102.826667-46.08 102.826667-102.826667S568.746667 411.306667 512 411.306667z" p-id="5881" fill="#ffffff"></path><path d="M512 858.026667c-176.64 0-334.933333-123.733333-424.106667-331.093334a32.213333 32.213333 0 0 1 0-25.173333C177.066667 294.4 335.36 170.666667 512 170.666667s334.933333 123.733333 424.106667 331.093333c3.413333 8.106667 3.413333 17.066667 0 25.173333-89.173333 206.933333-247.466667 330.666667-424.106667 331.093334z m-359.68-343.893334C231.68 689.493333 365.226667 793.6 512 793.6c146.773333 0 280.32-104.106667 359.68-279.466667C792.32 338.773333 658.773333 234.666667 512 234.666667c-146.773333 0-280.32 104.106667-359.68 279.466666z" p-id="5882" fill="#ffffff"></path></svg>