<svg t="1639465814031" class="icon" viewBox="0 0 1024 1024" version="1.1" xmlns="http://www.w3.org/2000/svg" p-id="5418" width="24" height="24"><path d="M532.48 954.026667c-2.986667 0-6.4-0.426667-9.386667-1.28-14.08-4.266667-349.866667-109.226667-349.866666-403.2 0-81.92-0.853333-140.8-1.706667-184.32-2.133333-108.373333-2.56-130.986667 25.6-159.146667C230.4 172.373333 484.266667 85.333333 532.48 85.333333s302.08 87.04 335.786667 120.746667c28.16 28.16 27.733333 50.773333 25.6 159.146667-0.853333 43.52-1.706667 102.826667-1.706667 184.746666 0 293.546667-335.786667 398.506667-349.866667 403.2-3.413333 0.426667-6.4 0.853333-9.813333 0.853334z m0-804.693334c-36.266667 0-264.533333 80.213333-290.56 102.4-7.68 7.68-8.106667 21.333333-6.4 112.213334 0.853333 43.946667 1.706667 103.253333 1.706667 185.6 0 221.866667 244.053333 320.426667 295.253333 338.773333 51.2-18.346667 295.253333-117.333333 295.253333-338.773333 0-82.346667 1.28-142.08 1.706667-185.6 1.706667-90.88 1.28-104.533333-6.826667-112.64-25.6-21.76-253.866667-101.973333-290.133333-101.973334z" p-id="5419" fill="#666666"></path><path d="M502.613333 619.52a32 32 0 0 1-22.613333-9.386667l-80.64-80.64a32.170667 32.170667 0 0 1 0-45.226666c12.373333-12.373333 32.853333-12.373333 45.226667 0l58.026666 58.026666 143.786667-143.786666c12.373333-12.373333 32.853333-12.373333 45.226667 0 12.373333 12.373333 12.373333 32.853333 0 45.226666l-166.4 166.4a32 32 0 0 1-22.613334 9.386667z" p-id="5420" fill="#666666"></path></svg>