<?xml version="1.0" standalone="no"?><!DOCTYPE svg PUBLIC "-//W3C//DTD SVG 1.1//EN" "http://www.w3.org/Graphics/SVG/1.1/DTD/svg11.dtd"><svg t="1637148945448" class="icon" viewBox="0 0 1024 1024" version="1.1" xmlns="http://www.w3.org/2000/svg" p-id="22568" xmlns:xlink="http://www.w3.org/1999/xlink" width="32" height="32"><defs><style type="text/css"></style></defs><path d="M181.4 842.6c-17.3 0-31.9 6.1-43.8 18.3-11.9 12.2-17.8 26.9-17.8 44.3 0 16.7 5.9 31.1 17.8 43.3 11.9 12.2 26.5 18.3 43.8 18.3 17.3 0 31.9-6.1 43.8-18.3 11.9-12.2 17.8-26.6 17.8-43.3 0-17.3-5.9-32.1-17.8-44.3-11.9-12.2-26.5-18.3-43.8-18.3zM231 380.5c90 0 163-73 163-163s-73-163-163-163-163 73-163 163 73 163 163 163z m-77.7-219l57.9 51.8L315.8 120v62.4l-104.6 93.3-57.9-51.8v-62.4z" fill="" p-id="22569"></path><path d="M427.1 169.5c4.8 17 7.2 34.7 7.2 53 0 28-5.3 54.2-16 78.5-10.7 24.4-25.1 45.7-43.4 63.9-18.3 18.3-39.6 32.6-63.9 42.9-24.4 10.3-50.2 15.5-77.6 15.5-28 0-54.2-5.2-78.5-15.5-24.4-10.3-45.7-24.7-63.9-42.9-18.3-18.3-32.7-39.6-43.4-63.9-10.7-24.4-16-50.5-16-78.5 0-3.1 0.1-6.1 0.2-9.1-9.2 11.2-16.4 23.5-21.6 36.9-5.8 14.7-8.7 29.8-8.7 45.2v570.1c0 12.2 3.5 21.5 10.6 27.9 7.1 6.4 16 9.6 26.9 9.6h22.1c0-41 10.4-71.7 31.3-91.8 20.8-20.2 50.8-30.3 89.9-30.3 41 0 71.2 10.9 90.4 32.7 19.2 21.8 28.9 51.6 28.9 89.4h262.6c10.3 0 19.1-3.5 26.4-10.6 7.4-7 11.1-16 11.1-26.9l-1.9-696.1H427.1zM1014.7 555.7c-4.8-36.2-13.3-73.3-25.5-111.1s-30.5-73.4-54.8-106.8c-13.5-18.6-30.1-34.6-50-48.1s-41-24.4-63.5-32.7c-22.4-8.3-45.2-14.3-68.3-17.8-23.1-3.5-75.2-4.3-96.4-2.4-7 0.6-13 5.6-17.8 14.9-4.8 9.3-7.2 17.5-7.2 24.5v583.6c0 11.5 4.2 21.5 12.5 29.8s18.3 12.5 29.8 12.5h47.3c0-16 3-31.3 9.1-45.7 6.1-14.4 14.4-27.1 25-38 10.6-10.9 22.9-19.6 37-26 14.1-6.4 29.5-9.6 46.2-9.6 16.7 0 32.5 2.2 47.6 6.7 15.1 4.5 28.2 11.5 39.4 21.2 11.2 9.6 20.2 22.1 26.9 37.5 6.7 15.4 10.1 34 10.1 55.8h39.4c3.8 0 6.9-1.9 9.1-5.8 2.2-3.9 4.2-8.5 5.8-14 1.6-5.4 2.7-10.9 3.4-16.3 0.6-5.5 1-10.1 1-13.9 0-19.9 0.2-45.5 0.5-76.9 0.5-31.3-1.8-185.2-6.6-221.4z m-75.5-11.5c-5.8 0.3-12.5 0.5-20.2 0.5H742c-4.5 0-9-2.2-13.5-6.7s-6.7-8.3-6.7-11.5v-1c-0.6-31.4-1-59.9-1-85.6v-87.5c0-7.1 2.9-13.6 8.7-19.7 5.8-6.1 12.8-9.1 21.2-9.1 0.6 0 5.4-0.3 14.4-1 9-0.6 20-0.2 33.2 1.4 13.1 1.6 27.1 5.1 41.8 10.6 14.7 5.4 28.5 14.3 41.4 26.5 19.9 20.5 34 45.4 42.3 74.5 8.3 29.2 16 59.5 23.1 90.9 0 1.3 0.2 2.2 0.5 2.9 0.3 0.6 0.5 1.6 0.5 2.9 0 7.5-2.9 11.5-8.7 11.9z" fill="" p-id="22570"></path><path d="M843.1 843.5c-17.3 0-31.9 6.1-43.8 18.3-11.9 12.2-17.8 26.6-17.8 43.3 0 17.3 5.9 32.1 17.8 44.2 11.9 12.2 26.5 18.3 43.8 18.3 16.7 0 31.1-6.1 43.3-18.3 12.2-12.2 18.3-26.9 18.3-44.2 0-16.7-6.1-31.1-18.3-43.3-12.2-12.2-26.7-18.3-43.3-18.3z" fill="" p-id="22571"></path></svg>