<svg width="12" height="12" viewBox="0 0 12 12" fill="none" xmlns="http://www.w3.org/2000/svg">
<path d="M0 6C0 2.68629 2.68629 0 6 0C9.31371 0 12 2.68629 12 6C12 9.31371 9.31371 12 6 12C2.68629 12 0 9.31371 0 6Z" fill="#2DA641"/>
<path fill-rule="evenodd" clip-rule="evenodd" d="M9.2868 3.64644C9.48206 3.8417 9.48207 4.15828 9.28681 4.35355L5.28692 8.35355C5.19315 8.44732 5.06598 8.5 4.93337 8.5C4.80076 8.5 4.67358 8.44732 4.57981 8.35356L2.71322 6.487C2.51796 6.29174 2.51796 5.97516 2.71322 5.7799C2.90848 5.58463 3.22506 5.58463 3.42032 5.77989L4.93335 7.29289L8.57969 3.64645C8.77495 3.45119 9.09153 3.45118 9.2868 3.64644Z" fill="white"/>
</svg>
