<?xml version="1.0" standalone="no"?><!DOCTYPE svg PUBLIC "-//W3C//DTD SVG 1.1//EN" "http://www.w3.org/Graphics/SVG/1.1/DTD/svg11.dtd"><svg t="1637147283284" class="icon" viewBox="0 0 1024 1024" version="1.1" xmlns="http://www.w3.org/2000/svg" p-id="20033" xmlns:xlink="http://www.w3.org/1999/xlink" width="32" height="32"><defs><style type="text/css"></style></defs><path d="M116 891.2V129.3c0-32.2 26.5-58.7 58.7-58.7h527.5c32.2 0 58.7 26.5 58.7 58.7v243.2c21.3 6.4 41.2 16.6 58.7 29.5V129.3C819.5 64.9 766.8 12 702.2 12H174.7C110.3 12 57.4 64.7 57.4 129.3v761.9c0 64.4 52.7 117.3 117.3 117.3h217.6l4.9-58.7H174.7c-32.2 0.1-58.7-26.4-58.7-58.6z" p-id="20034"></path><path d="M539.7 729.8c-56.8 44.7-93.5 105.8-94.7 141.9L433.3 1012h41.8l11.3-136.8v-1.6c0-25.4 31-73.2 79-111.2 17.2-13.5 36.7-25.6 57.6-34.5-14.6-7.2-28.1-16-40.4-26.5-15.2 8.5-29.5 18.1-42.9 28.4zM950.3 871.5c-1.2-36.1-37.9-97.2-94.7-141.7-10.5-8.2-21.5-15.8-33.2-22.8-12.7 9.8-26.9 18.3-41.8 24.6 17.8 8.4 34.5 19.1 49.4 30.8 48.2 37.7 79 85.7 79 111.2v2.2l15.8 136.2h41.8l-16.3-140.5zM734.6 980.6l-16.4-203.8h-27.9l-16.4 204 30.3 30.2 30.4-30.2zM689.7 762.2h27.6l11.5-30.6H678zM853.7 557.1c0-81.6-66.2-147.7-147.7-147.7-81.6 0-147.7 66.2-147.7 147.7 0 81.6 66.2 147.7 147.7 147.7s147.7-66.1 147.7-147.7zM705.9 669.7c-62.8 0-113.4-50.5-113.4-112.6 0-62.1 50.9-112.6 113.4-112.6S819.5 495 819.5 557.1s-50.9 112.6-113.6 112.6zM222.3 220.8h432.3c15.4 0 28.1-12.7 28.1-28.1s-12.7-28.1-28.1-28.1H222.3c-15.4 0-28.1 12.7-28.1 28.1s12.7 28.1 28.1 28.1zM222.3 333.4h432.3c15.4 0 28.1-12.7 28.1-28.1 0-15.4-12.7-28.1-28.1-28.1H222.3c-15.4 0-28.1 12.7-28.1 28.1 0 15.4 12.7 28.1 28.1 28.1zM410.3 389.6h-188c-15.4 0-28.1 12.7-28.1 28.1 0 15.4 12.7 28.1 28.1 28.1h188.1c15.4 0 28.1-12.7 28.1-28.1-0.1-15.4-12.8-28.1-28.2-28.1z" p-id="20035"></path></svg>