<?xml version="1.0" standalone="no"?><!DOCTYPE svg PUBLIC "-//W3C//DTD SVG 1.1//EN" "http://www.w3.org/Graphics/SVG/1.1/DTD/svg11.dtd"><svg t="1635759064061" class="icon" viewBox="0 0 1024 1024" version="1.1" xmlns="http://www.w3.org/2000/svg" p-id="8341" xmlns:xlink="http://www.w3.org/1999/xlink" width="32" height="32"><defs><style type="text/css"></style></defs><path d="M917.333 394.667H106.667a32 32 0 0 1 0-64h810.666a32 32 0 0 1 0 64z m0 298.666H106.667a32 32 0 0 1 0-64h810.666a32 32 0 0 1 0 64z" p-id="8342"></path><path d="M106.667 394.667a32 32 0 0 1-22.614-54.614l241.28-241.28A32 32 0 0 1 370.56 144L129.28 385.28a32 32 0 0 1-22.613 9.387z m569.386 539.946A32 32 0 0 1 653.44 880l241.28-241.28a32 32 0 1 1 45.227 45.227l-241.28 241.28a32 32 0 0 1-22.614 9.386z" p-id="8343"></path><path d="M917.333 394.667H106.667a32 32 0 0 1 0-64h810.666a32 32 0 0 1 0 64z m0 298.666H106.667a32 32 0 0 1 0-64h810.666a32 32 0 0 1 0 64z" p-id="8344"></path><path d="M106.667 394.667a32 32 0 0 1-22.614-54.614l241.28-241.28A32 32 0 0 1 370.56 144L129.28 385.28a32 32 0 0 1-22.613 9.387z m569.386 539.946A32 32 0 0 1 653.44 880l241.28-241.28a32 32 0 1 1 45.227 45.227l-241.28 241.28a32 32 0 0 1-22.614 9.386z" p-id="8345"></path></svg>