<svg width="32" height="32" viewBox="0 0 32 32" fill="none" xmlns="http://www.w3.org/2000/svg">
<path d="M23.0001 21.1124C23.0001 22.1687 22.1438 23.0249 21.0876 23.0249C20.0313 23.0249 19.1751 22.1687 19.1751 21.1124C19.1751 20.0562 20.0313 19.2 21.0876 19.2C22.1438 19.2 23.0001 20.0562 23.0001 21.1124Z" fill="#4E5969"/>
<path fill-rule="evenodd" clip-rule="evenodd" d="M19.5049 11.5124H11.9999V10.3124H19.5049C21.2604 10.3124 22.6836 11.7355 22.6836 13.491C22.6835 15.2466 21.2604 16.6697 19.5049 16.6697H11.855C10.7938 16.6697 9.93364 17.5299 9.93364 18.591C9.93365 19.6521 10.7939 20.5123 11.855 20.5123H22.0836V21.7123H11.855C10.1311 21.7123 8.73365 20.3149 8.73364 18.591C8.73364 16.8671 10.1311 15.4697 11.855 15.4697H19.5049C20.5977 15.4697 21.4835 14.5838 21.4836 13.491C21.4836 12.3983 20.5977 11.5124 19.5049 11.5124Z" fill="#4E5969"/>
<path fill-rule="evenodd" clip-rule="evenodd" d="M10.9124 11.625C11.3059 11.625 11.6249 11.306 11.6249 10.9125C11.6249 10.519 11.3059 10.2 10.9124 10.2C10.5189 10.2 10.2 10.519 10.2 10.9125C10.2 11.306 10.5189 11.625 10.9124 11.625ZM10.9124 12.825C11.9687 12.825 12.8249 11.9687 12.8249 10.9125C12.8249 9.85625 11.9687 9 10.9124 9C9.8562 9 8.99995 9.85625 8.99995 10.9125C8.99995 11.9687 9.8562 12.825 10.9124 12.825Z" fill="#4E5969"/>
</svg>
