<svg t="1639463626504" class="icon" viewBox="0 0 1024 1024" version="1.1" xmlns="http://www.w3.org/2000/svg" p-id="7195" width="24" height="24"><path d="M224 426.666667A32 32 0 0 1 256 394.666667h298.666667a32 32 0 0 1 0 64H256a32 32 0 0 1-32-32zM53.333333 853.333333a32 32 0 0 1 32-32h853.333334a32 32 0 0 1 0 64H85.333333a32 32 0 0 1-32-32z" p-id="7196" fill="#666666"></path><path d="M112 625.066667a32 32 0 0 1-11.733333-43.733334l270.976-469.333333a32 32 0 1 1 55.466666 32l-270.976 469.333333a32 32 0 0 1-43.733333 11.690667z" p-id="7197" fill="#666666"></path><path d="M691.712 625.066667a32 32 0 0 0 11.690667-43.733334l-270.933334-469.333333a32 32 0 1 0-55.466666 32l270.976 469.333333a32 32 0 0 0 43.733333 11.690667z" p-id="7198" fill="#666666"></path></svg>