<svg width="18" height="18" viewBox="0 0 18 18" fill="none" xmlns="http://www.w3.org/2000/svg">
<path d="M5.69319 16.395C5.68569 16.395 5.61819 16.395 5.61069 16.395C3.71319 16.3575 2.21319 14.7825 2.25069 12.8925V4.8675C2.29569 3.0075 3.83319 1.5075 5.67819 1.5075C5.68569 1.5075 5.68569 1.5075 5.69319 1.5075H10.6807C10.8307 1.5075 10.9807 1.5675 11.0857 1.68L14.8807 5.64C14.9782 5.745 15.0382 5.8875 15.0382 6.03V12.9075C15.0532 14.79 13.5832 16.3275 11.7007 16.4025L5.69319 16.395ZM5.67819 2.6325C4.43319 2.6325 3.40569 3.6375 3.37569 4.8825V12.9075C3.34569 14.19 4.35819 15.2475 5.63319 15.2775H11.6782C12.9307 15.225 13.9207 14.1825 13.9132 12.9075V6.255L10.4407 2.6325H5.69319C5.68569 2.6325 5.68569 2.6325 5.67819 2.6325Z" fill="#666666"/>
<path d="M14.4757 6.735H12.4057C11.0332 6.735 9.91569 5.61 9.91569 4.2375V2.0625C9.91569 1.755 10.1707 1.5 10.4782 1.5C10.7857 1.5 11.0407 1.755 11.0407 2.0625V4.245C11.0407 4.995 11.6557 5.61 12.4057 5.6175H14.4682C14.7757 5.6175 15.0307 5.8725 15.0307 6.18C15.0307 6.4875 14.7832 6.735 14.4757 6.735Z" fill="#666666"/>
<path d="M10.3432 12.0825H6.29319C5.98569 12.0825 5.73069 11.8275 5.73069 11.52C5.73069 11.2125 5.98569 10.9575 6.29319 10.9575H10.3432C10.6507 10.9575 10.9057 11.2125 10.9057 11.52C10.9057 11.8275 10.6507 12.0825 10.3432 12.0825Z" fill="#666666"/>
<path d="M8.80569 9.27H6.29319C5.98569 9.27 5.73069 9.015 5.73069 8.7075C5.73069 8.4 5.98569 8.145 6.29319 8.145H8.81319C9.12069 8.145 9.37569 8.4 9.37569 8.7075C9.37569 9.015 9.12069 9.27 8.80569 9.27Z" fill="#666666"/>
</svg>
