<svg t="1639464915812" class="icon" viewBox="0 0 1024 1024" version="1.1" xmlns="http://www.w3.org/2000/svg" p-id="8836" width="24" height="24"><path d="M512 938.666667C276.906667 938.666667 85.333333 747.093333 85.333333 512S276.906667 85.333333 512 85.333333s426.666667 191.573333 426.666667 426.666667-191.573333 426.666667-426.666667 426.666667z m0-789.333334c-200.106667 0-362.666667 162.56-362.666667 362.666667 0 200.106667 162.56 362.666667 362.666667 362.666667 200.106667 0 362.666667-162.56 362.666667-362.666667 0-200.106667-162.56-362.666667-362.666667-362.666667z" p-id="8837" fill="#666666"></path><path d="M658.346667 669.44a28.586667 28.586667 0 0 1-16.213334-4.693333l-160.853333-96a32.042667 32.042667 0 0 1-15.786667-27.306667V334.933333c0-17.493333 14.506667-32 32-32s32 14.506667 32 32v188.586667l145.066667 86.613333c15.36 8.96 20.053333 28.586667 11.093333 43.946667a31.146667 31.146667 0 0 1-27.306666 15.36z" p-id="8838" fill="#666666"></path></svg>