<svg width="10" height="10" viewBox="0 0 10 10" fill="none" xmlns="http://www.w3.org/2000/svg">
<path d="M8.5 9L1.5 9C1.22386 9 0.999999 8.77614 0.999999 8.5L1 1.5C1 1.22386 1.22386 1 1.5 1H2.5C2.77614 1 3 0.776142 3 0.5C3 0.223858 2.77614 0 2.5 0H1.5C0.671573 0 0 0.671574 0 1.5V8.5C0 9.32843 0.671572 10 1.5 10L8.5 10C9.32843 10 10 9.32843 10 8.5V7.5C10 7.22386 9.77614 7 9.5 7C9.22386 7 9 7.22386 9 7.5V8.5C9 8.77614 8.77614 9 8.5 9Z" fill="#666883"/>
<path d="M9.44975 0H4.94975C4.6736 0 4.44975 0.223858 4.44975 0.5C4.44975 0.776142 4.6736 1 4.94975 1L8.24264 1L4.14645 5.09619C3.95118 5.29146 3.95118 5.60804 4.14645 5.8033C4.34171 5.99856 4.65829 5.99856 4.85355 5.8033L8.94975 1.70711V5C8.94975 5.27614 9.1736 5.5 9.44975 5.5C9.72589 5.5 9.94975 5.27614 9.94975 5V0.5C9.94975 0.223857 9.72589 0 9.44975 0Z" fill="#666883"/>
</svg>
