<?xml version="1.0" standalone="no"?><!DOCTYPE svg PUBLIC "-//W3C//DTD SVG 1.1//EN" "http://www.w3.org/Graphics/SVG/1.1/DTD/svg11.dtd"><svg t="1641633923098" class="icon" viewBox="0 0 1024 1024" version="1.1" xmlns="http://www.w3.org/2000/svg" p-id="6597" width="15" height="15" xmlns:xlink="http://www.w3.org/1999/xlink"><defs><style type="text/css"></style></defs><path d="M714.112 412.842667a42.666667 42.666667 0 0 0-62.890667-57.685334L448 576.853333l-75.221333-82.048a42.666667 42.666667 0 0 0-62.890667 57.642667l106.666667 116.394667a42.666667 42.666667 0 0 0 62.890666 0l234.666667-256z" fill="#2DA641" p-id="6598"></path><path d="M512 938.666667c235.648 0 426.666667-191.018667 426.666667-426.666667S747.648 85.333333 512 85.333333 85.333333 276.352 85.333333 512s191.018667 426.666667 426.666667 426.666667z m341.333333-426.666667a341.333333 341.333333 0 1 1-682.666666 0 341.333333 341.333333 0 0 1 682.666666 0z" fill="#2DA641" p-id="6599"></path></svg>