<svg width="16" height="13" viewBox="0 0 16 13" fill="none" xmlns="http://www.w3.org/2000/svg">
<path d="M15.11 5.04C14.58 4.3 13.84 3.75001 13.01 3.47001C12.59 2.47001 11.93 1.62 11.09 1.01C9.27 -0.329995 6.76 -0.329995 4.93 1.01C4.08 1.62 3.42 2.47001 3 3.47001C2.17 3.74001 1.43 4.29 0.9 5.04C0.31 5.84 0 6.85 0 7.87C0 10.41 1.91 12.48 4.25 12.48H5.68C5.96 12.48 6.18 12.26 6.18 11.98C6.18 11.7 5.96 11.48 5.68 11.48H4.25C2.46 11.48 1 9.86 1 7.87C1 7.05 1.25 6.25 1.71 5.62C2.16 4.99 2.79 4.55 3.5 4.36L3.75 4.3L3.84 4.06C4.18 3.14 4.76 2.37 5.51 1.82C6.99 0.730005 9.01 0.730005 10.49 1.82C11.24 2.37 11.82 3.15 12.16 4.06L12.25 4.3L12.5 4.37C13.2 4.55 13.84 5 14.29 5.63C14.75 6.26 15 7.06 15 7.87C15 9.86 13.54 11.48 11.75 11.48H10.23C9.95 11.48 9.73 11.7 9.73 11.98C9.73 12.26 9.95 12.48 10.23 12.48H11.75C14.09 12.48 16 10.41 16 7.88C16.01 6.85001 15.69 5.84 15.11 5.04Z" fill="#0045F0"/>
<path d="M10.8296 8.52001C11.0296 8.72001 11.3396 8.72001 11.5396 8.52001C11.7396 8.32001 11.7396 8.01001 11.5396 7.81001L8.34957 4.63001C8.14957 4.43001 7.83957 4.43001 7.63957 4.63001L4.45957 7.81001C4.25957 8.01001 4.25957 8.32001 4.45957 8.52001C4.65957 8.72001 4.96957 8.72001 5.16957 8.52001L7.49957 6.19001V11.98C7.49957 12.26 7.71957 12.48 7.99957 12.48C8.27957 12.48 8.49957 12.26 8.49957 11.98V6.19001L10.8296 8.52001Z" fill="#0045F0"/>
</svg>
