<?xml version="1.0" standalone="no"?><!DOCTYPE svg PUBLIC "-//W3C//DTD SVG 1.1//EN" "http://www.w3.org/Graphics/SVG/1.1/DTD/svg11.dtd"><svg t="1641634150482" class="icon" viewBox="0 0 1024 1024" version="1.1" xmlns="http://www.w3.org/2000/svg" p-id="6934" xmlns:xlink="http://www.w3.org/1999/xlink" width="15" height="15"><defs><style type="text/css"></style></defs><path d="M512 853.333333a341.333333 341.333333 0 1 0 0-682.666666 341.333333 341.333333 0 0 0 0 682.666666z m426.666667-341.333333c0 235.648-191.018667 426.666667-426.666667 426.666667S85.333333 747.648 85.333333 512 276.352 85.333333 512 85.333333s426.666667 191.018667 426.666667 426.666667z" fill="#F5222D" p-id="6935"></path><path d="M712.832 311.168a42.666667 42.666667 0 0 1 0 60.330667l-341.333333 341.333333a42.666667 42.666667 0 0 1-60.330667-60.330667l341.333333-341.333333a42.666667 42.666667 0 0 1 60.330667 0z" fill="#F5222D" p-id="6936"></path><path d="M311.168 311.168a42.666667 42.666667 0 0 1 60.330667 0l341.333333 341.333333a42.666667 42.666667 0 0 1-60.330667 60.330667l-341.333333-341.333333a42.666667 42.666667 0 0 1 0-60.330667z" fill="#F5222D" p-id="6937"></path></svg>