<?xml version="1.0" standalone="no"?><!DOCTYPE svg PUBLIC "-//W3C//DTD SVG 1.1//EN" "http://www.w3.org/Graphics/SVG/1.1/DTD/svg11.dtd"><svg t="1640251124549" class="icon" viewBox="0 0 1024 1024" version="1.1" xmlns="http://www.w3.org/2000/svg" p-id="6839" width="13" height="13" xmlns:xlink="http://www.w3.org/1999/xlink"><defs><style type="text/css"></style></defs><path d="M750.08 375.04h-30.293333c-17.493333 0-32 14.506667-32 32s14.506667 32 32 32h30.293333c68.693333 0 124.586667 55.893333 124.586667 124.586667v208.213333a125.013333 125.013333 0 0 1-125.44 125.013333H274.346667c-69.12 0-125.44-55.893333-125.44-125.013333v-207.786667c0-69.12 55.893333-125.44 125.44-125.44h29.866666c17.493333 0 32-14.506667 32-32s-14.506667-32-32-32h-29.866666c-104.106667 0.426667-189.013333 85.333333-189.013334 189.866667v207.786667c0 104.533333 84.906667 189.013333 189.013334 189.013333h474.88c104.533333 0 189.013333-84.906667 189.013333-189.013333v-208.213334a188.373333 188.373333 0 0 0-188.16-189.013333z m-90.88-155.306667l-124.586667-125.013333a27.008 27.008 0 0 0-10.24-6.826667h0.426667a24.448 24.448 0 0 0-5.973333-1.706666C516.266667 85.76 514.133333 85.333333 512 85.333333c-2.56 0-5.12 0.426667-7.68 0.853334h-0.426667l-4.266666 1.28c-3.84 1.706667-7.253333 4.266667-10.24 7.253333L364.8 219.733333c-12.373333 12.373333-12.373333 32.853333 0 45.226667 12.373333 12.373333 32.853333 12.373333 45.226667 0l69.546666-69.973333V631.04c0 17.493333 14.506667 32 32 32s32-14.506667 32-32.426667V194.986667l69.546667 69.973333c12.373333 12.373333 32.853333 12.373333 45.226667 0 13.226667-12.373333 13.226667-32.853333 0.853333-45.226667z" p-id="6840" fill="#666883"></path></svg>