<svg t="1639466875558" class="icon" viewBox="0 0 1024 1024" version="1.1" xmlns="http://www.w3.org/2000/svg" p-id="6961" width="24" height="24"><path d="M482.432 106.538667c3.797333 1.536 7.296 3.84 10.368 6.912l0.128 0.085333 124.416 124.970667a32 32 0 0 1-45.354667 45.141333L502.186667 213.632v180.352h205.909333a188.8 188.8 0 0 1 188.757333 188.8v208.426667a189.226667 189.226667 0 0 1-189.184 189.184H232.832a189.226667 189.226667 0 0 1-189.269333-189.184v-208a189.226667 189.226667 0 0 1 189.226666-189.226667h205.44V213.632l-69.674666 69.973333A32 32 0 1 1 323.2 238.506667l124.330667-124.928m-9.301334 344.405333H232.789333a125.226667 125.226667 0 0 0-125.226666 125.226667v208a125.226667 125.226667 0 0 0 125.226666 125.184h474.88a125.226667 125.226667 0 0 0 125.269334-125.184v-208.426667a124.8 124.8 0 0 0-124.757334-124.8H502.186667v191.872a32 32 0 0 1-64 0v-191.872z m44.202667-351.445333a31.872 31.872 0 0 0-12.202667-2.432z m-12.202667-2.432a32.085333 32.085333 0 0 0-22.570666 9.344" p-id="6962" fill="#666666"></path></svg>