<svg width="28" height="28" viewBox="0 0 28 28" fill="none" xmlns="http://www.w3.org/2000/svg">
<path d="M0 14C0 6.26801 6.26801 0 14 0C21.732 0 28 6.26801 28 14C28 21.732 21.732 28 14 28C6.26801 28 0 21.732 0 14Z" fill="#9CAAD3"/>
<path d="M9.41554 13.9864H11.2461V7.22546C11.2461 6.60324 10.7595 6.09863 10.1587 6.09863H9.41554C8.81508 6.09863 8.32812 6.60324 8.32812 7.22546V12.8596C8.32812 13.4818 8.81508 13.9864 9.41554 13.9864Z" fill="#162339"/>
<path d="M18.5845 6.10156H17.8413C17.2409 6.10156 16.7539 6.60617 16.7539 7.22839V8.20943C17.9307 9.11653 18.6932 10.5684 18.6932 12.2051V13.9834C19.2427 13.9267 19.6719 13.4464 19.6719 12.8622V7.22804C19.6719 6.60617 19.1849 6.10156 18.5845 6.10156Z" fill="#162339"/>
<path d="M17.25 12.633C17.25 13.2081 17.546 13.7394 18.0268 14.0271C18.5073 14.3145 19.0996 14.3145 19.5801 14.0271C20.061 13.7394 20.3569 13.2081 20.3569 12.633C20.3569 12.058 20.061 11.5266 19.5801 11.2389C19.0996 10.9516 18.5073 10.9516 18.0268 11.2389C17.546 11.5266 17.25 12.058 17.25 12.633Z" fill="#E1EAFF"/>
<path d="M7.46289 12.633C7.46289 13.5222 8.1585 14.2426 9.01619 14.2426C9.87389 14.2426 10.5695 13.5218 10.5695 12.633C10.5695 12.058 10.2735 11.5266 9.79267 11.2389C9.31217 10.9516 8.71987 10.9516 8.23937 11.2389C7.75887 11.5266 7.46289 12.058 7.46289 12.633Z" fill="#DEE9FF"/>
<path d="M22.5 28.0003H5.5V25.6434C5.5 22.6873 7.81245 20.291 10.6652 20.291H17.3348C20.1875 20.291 22.5 22.6873 22.5 25.6434V28.0003Z" fill="#5279EC"/>
<path d="M8.97972 26.7703C8.97972 23.8141 11.2922 21.4178 14.1449 21.4178H20.5049C19.6299 20.7118 18.5296 20.291 17.3344 20.291H10.6652C7.81279 20.291 5.5 22.6873 5.5 25.6434V28.0003H8.97972V26.7703Z" fill="#3B6CEE"/>
<path d="M14.0005 23.5301C12.6993 23.5301 11.6445 22.4371 11.6445 21.0888V15.2666H16.3568V21.0888C16.3564 22.4367 15.302 23.5301 14.0005 23.5301Z" fill="#F5F8FF"/>
<path d="M13.2756 21.0884V15.2666H11.6445V21.0888C11.6445 22.4371 12.6993 23.5301 14.0005 23.5301C14.2873 23.5301 14.5619 23.4769 14.816 23.3798C13.9169 23.0357 13.2756 22.1395 13.2756 21.0884Z" fill="#D7E6FF"/>
<path d="M13.9999 18.3643C11.3473 18.3643 9.19727 16.136 9.19727 13.3873V10.8537C9.19727 8.1049 11.3476 5.87695 13.9999 5.87695C16.6522 5.87695 18.8025 8.1049 18.8025 10.8537V13.3873C18.8025 16.136 16.6525 18.3643 13.9999 18.3643Z" fill="#F5F8FF"/>
<path d="M10.8817 12.7608V10.2902C10.8817 10.1018 10.8919 9.91592 10.9116 9.73281C10.9422 9.4497 11.1767 9.23701 11.4516 9.23701H18.5422C17.8945 7.28197 16.1051 5.87695 13.9989 5.87695C13.7926 5.87695 13.5897 5.89069 13.3903 5.91674L13.3913 5.91639C13.376 5.91815 13.3607 5.92132 13.3454 5.92343C13.2948 5.93048 13.2445 5.93822 13.1942 5.94703C13.1701 5.95125 13.1459 5.95618 13.1218 5.96076C13.0776 5.96921 13.0331 5.97802 12.9893 5.98788C12.921 6.00302 12.853 6.01992 12.7854 6.03823C12.7606 6.04492 12.7358 6.05161 12.7113 6.05865C12.6675 6.07133 12.624 6.08471 12.5808 6.0988C12.5587 6.10584 12.5366 6.11253 12.5146 6.11993C12.4626 6.13753 12.4113 6.15619 12.3603 6.17521C12.3477 6.18014 12.3348 6.18437 12.3222 6.1893C12.2587 6.21394 12.1958 6.23965 12.1336 6.26712C12.1173 6.27416 12.1013 6.28191 12.0854 6.2893C12.0398 6.30973 11.9946 6.33085 11.9494 6.35269C11.927 6.3636 11.9049 6.37522 11.8825 6.38649C11.8203 6.41783 11.7588 6.45093 11.698 6.48544C11.6623 6.50551 11.627 6.52629 11.592 6.54742C11.5682 6.5615 11.5451 6.57559 11.5216 6.59038C11.4863 6.61256 11.4516 6.6351 11.4169 6.65799C11.3952 6.67242 11.3731 6.68686 11.3514 6.70165C11.313 6.72771 11.2756 6.75482 11.2385 6.78194C11.2212 6.79426 11.2039 6.80659 11.1869 6.81926C11.1339 6.85905 11.0819 6.89955 11.0306 6.94145C11.0146 6.95448 10.9993 6.96786 10.9837 6.98124C10.9477 7.01082 10.9123 7.04146 10.8773 7.07209C10.8566 7.0904 10.8362 7.10977 10.8158 7.12844C10.7866 7.1552 10.7577 7.18196 10.7292 7.20943C10.7078 7.2302 10.6863 7.25133 10.6653 7.27246C10.5905 7.34711 10.5181 7.42458 10.4481 7.50416C10.4281 7.52705 10.408 7.54959 10.3883 7.57283C10.3628 7.60311 10.338 7.63375 10.3132 7.66473C10.2956 7.68657 10.2775 7.7084 10.2602 7.73058C10.2239 7.77742 10.1882 7.82496 10.1535 7.87285C10.1355 7.89785 10.1182 7.9232 10.1005 7.94855C10.076 7.98377 10.0519 8.01863 10.0285 8.05419C10.0115 8.08025 9.99482 8.10701 9.97816 8.13342C9.95846 8.16441 9.93909 8.1954 9.92006 8.22709C9.90307 8.25526 9.88675 8.28378 9.87044 8.31231C9.83612 8.37217 9.80316 8.43239 9.77122 8.49366C9.75491 8.525 9.73893 8.55669 9.7233 8.58873C9.70835 8.61866 9.6934 8.6486 9.67947 8.67888C9.66383 8.71163 9.64922 8.74508 9.63461 8.77853C9.62136 8.80811 9.60776 8.83769 9.59519 8.86762C9.5782 8.90812 9.56223 8.94896 9.54626 8.99016C9.52893 9.03489 9.51194 9.07996 9.49597 9.12538C9.48271 9.16236 9.46912 9.19933 9.45655 9.23701H9.45689C9.2846 9.75711 9.19693 10.3036 9.19727 10.8537V13.327C9.19727 16.0652 11.3072 18.3354 13.9493 18.3636C14.7988 18.3728 15.598 18.153 16.2933 17.7608C16.0836 17.7882 15.8699 17.8016 15.6524 17.8002C13.0019 17.7822 10.8817 15.5064 10.8817 12.7608Z" fill="#DEE9FF"/>
<path d="M18.5846 8.50414H9.19789C8.14684 8.50414 7.29492 7.62134 7.29492 6.53219V4.61975C7.29492 4.27748 7.5627 4 7.893 4H16.2464C17.5377 4 18.5843 5.08457 18.5843 6.42268V8.50414H18.5846Z" fill="#293F60"/>
<path d="M11.5046 7.37731C10.4195 7.37731 9.54009 6.49451 9.54009 5.40536V4H7.91237C7.57153 4 7.29492 4.27748 7.29492 4.61975V6.53219C7.29492 7.62134 8.17437 8.50414 9.2594 8.50414H18.5843V7.37731H11.5046Z" fill="#162339"/>
<path d="M17.679 6.9132C17.5036 6.9132 17.3599 6.76953 17.3531 6.58819C17.3357 6.12689 17.1951 5.773 16.9351 5.53636C16.4624 5.10606 15.7223 5.1624 15.7152 5.16345C15.6289 5.17155 15.5432 5.14409 15.4766 5.08669C15.41 5.02929 15.3682 4.94654 15.3607 4.85745C15.3444 4.67152 15.4766 4.50708 15.656 4.49017C15.6975 4.4863 16.6772 4.40214 17.3653 5.02859C17.7653 5.39234 17.9804 5.90822 18.0048 6.56213C18.0082 6.65403 17.9756 6.74348 17.9138 6.80968C17.853 6.87588 17.7677 6.91356 17.679 6.9132Z" fill="#304D77"/>
<path d="M21.8117 27.4742C21.7196 27.4742 21.6316 27.4341 21.5698 27.3633C21.5079 27.2925 21.4777 27.1978 21.4865 27.1031C21.7822 24.0081 20.5191 23.2954 20.5065 23.2887C20.344 23.2085 20.2771 23.0081 20.3542 22.8394C20.4317 22.6707 20.6285 22.6003 20.7912 22.6806C20.8606 22.7144 22.4805 23.5567 22.1359 27.1696C22.1196 27.3421 21.9792 27.4738 21.8117 27.4742Z" fill="#8FB4FF"/>
<path d="M10.2676 5.68507C10.2676 6.16221 10.6407 6.54885 11.1011 6.54885C11.5616 6.54885 11.9351 6.16221 11.9351 5.68507C11.9351 5.20793 11.5619 4.82129 11.1011 4.82129C10.6407 4.82129 10.2676 5.20793 10.2676 5.68507Z" fill="#304D77"/>
</svg>
