<?xml version="1.0" standalone="no"?><!DOCTYPE svg PUBLIC "-//W3C//DTD SVG 1.1//EN" "http://www.w3.org/Graphics/SVG/1.1/DTD/svg11.dtd"><svg t="1646365915700" class="icon" viewBox="0 0 1024 1024" version="1.1" xmlns="http://www.w3.org/2000/svg" p-id="2903" width="12" height="12" xmlns:xlink="http://www.w3.org/1999/xlink"><defs><style type="text/css"></style></defs><path d="M469.333 469.333a42.667 42.667 0 0 1 85.334 0V768a42.667 42.667 0 0 1-85.334 0z m42.667-128a64 64 0 1 1 64-64 64 64 0 0 1-64 64z m0 571.734A401.067 401.067 0 1 0 110.933 512 401.067 401.067 0 0 0 512 913.067z m0 68.266A469.333 469.333 0 1 1 981.333 512 469.333 469.333 0 0 1 512 981.333z" p-id="2904" fill="#808197"></path></svg>