<svg width="13" height="13" viewBox="0 0 13 13" fill="none" xmlns="http://www.w3.org/2000/svg">
<path fill-rule="evenodd" clip-rule="evenodd" d="M0.036229 8.33689C-0.026275 8.15602 0.0199377 7.95534 0.155253 7.82003L7.22632 0.74896C7.36164 0.613645 7.56232 0.567432 7.74319 0.629936C7.92405 0.69244 8.05338 0.852696 8.07628 1.04269L8.83081 7.30319L12.1761 10.6485C12.3005 10.7729 12.3504 10.9536 12.3073 11.1243C12.2643 11.295 12.1347 11.4304 11.9661 11.4809L9.79001 12.1333C9.61385 12.1861 9.42292 12.1379 9.29288 12.0079L6.70949 9.42451L0.448979 8.66999C0.258989 8.64709 0.098733 8.51776 0.036229 8.33689ZM1.58931 7.80019L7.00069 8.45237C7.11183 8.46577 7.21526 8.51607 7.29441 8.59523L9.78886 11.0897L10.8769 10.7635L8.00152 7.88812C7.92236 7.80896 7.87206 7.70553 7.85867 7.59439L7.20648 2.18302L1.58931 7.80019Z" fill="#0045F0"/>
</svg>