<svg id="图层_1" data-name="图层 1" xmlns="http://www.w3.org/2000/svg" viewBox="0 0 32 32"><defs><style>.cls-1{fill:#4e5969;fill-rule:evenodd;}</style></defs><path class="cls-1" d="M21.67,10.33a.67.67,0,0,1,.66.67v2.8a.28.28,0,0,1,0,.13V14a.32.32,0,0,1-.14.27.5.5,0,0,1-.17.15l-3.69,2.2v4.71a.34.34,0,0,1-.33.34h-.67a.34.34,0,0,1-.33-.34v-5a.67.67,0,0,1,.06-.28.6.6,0,0,1,.27-.3L21,13.55V11.67H11.33v1.91l3.57,2.13a.66.66,0,0,1,.43.62V20a.33.33,0,0,1-.33.33h-.67A.33.33,0,0,1,14,20V16.64l-3.68-2.2a.64.64,0,0,1-.21-.19A.33.33,0,0,1,10,14V11a.67.67,0,0,1,.67-.67Z"/></svg>