<svg width="18" height="18" viewBox="0 0 18 18" fill="none" xmlns="http://www.w3.org/2000/svg">
<path d="M9.1875 16.875C4.95 16.875 1.5 13.425 1.5 9.1875C1.5 4.95 4.95 1.5 9.1875 1.5C13.425 1.5 16.875 4.95 16.875 9.1875C16.875 13.425 13.425 16.875 9.1875 16.875ZM9.1875 2.625C5.5725 2.625 2.625 5.565 2.625 9.1875C2.625 12.81 5.5725 15.75 9.1875 15.75C12.8025 15.75 15.75 12.81 15.75 9.1875C15.75 5.565 12.8025 2.625 9.1875 2.625Z" fill="#666666"/>
<path d="M8.1225 12C7.92 12 7.7325 11.94 7.575 11.79C7.455 11.67 7.1325 11.3475 7.1325 9.24C7.1325 7.02 7.47 6.69 7.575 6.5775C7.965 6.1875 8.6025 6.4575 8.88 6.57C9.2625 6.735 12 8.1375 12 9.1875C12 10.17 9.54 11.5425 8.91 11.805C8.6625 11.9025 8.385 12 8.1225 12ZM8.3475 7.5675C8.2125 8.3175 8.2125 10.11 8.3475 10.8225C9.0075 10.59 10.4325 9.6525 10.815 9.1875C10.4325 8.7375 9.0225 7.815 8.3475 7.5675Z" fill="#666666"/>
</svg>
