<?xml version="1.0" standalone="no"?><!DOCTYPE svg PUBLIC "-//W3C//DTD SVG 1.1//EN" "http://www.w3.org/Graphics/SVG/1.1/DTD/svg11.dtd"><svg t="1636793980843" class="icon" viewBox="0 0 1024 1024" version="1.1" xmlns="http://www.w3.org/2000/svg" p-id="1815" xmlns:xlink="http://www.w3.org/1999/xlink" width="32" height="32"><defs><style type="text/css"></style></defs><path d="M808.96 723.626667a90.197333 90.197333 0 0 0 0 180.337777 90.197333 90.197333 0 0 0 0-180.337777" p-id="1816"></path><path d="M808.96 963.982222c-83.057778 0-150.186667-67.413333-150.186667-150.186666s67.413333-150.186667 150.186667-150.186667c83.057778 0 150.186667 67.413333 150.186667 150.186667s-67.413333 150.186667-150.186667 150.186666m0-360.675555c-116.053333 0-210.204444 94.435556-210.204444 210.204444s94.151111 210.488889 210.204444 210.488889 210.204444-94.435556 210.204444-210.204444-94.151111-210.488889-210.204444-210.488889" p-id="1817"></path><path d="M513.422222 962.56H205.368889c-44.657778 0-81.066667-36.124444-81.066667-80.497778V431.502222L510.862222 68.551111 971.093333 500.622222c12.231111 11.377778 31.004444 10.808889 42.382223-1.422222 11.377778-11.946667 10.808889-31.004444-1.137778-42.382222L534.186667 7.964444c-6.257778-5.688889-14.791111-8.533333-23.324445-7.68-8.533333-0.853333-17.066667 1.991111-23.324444 7.68L9.671111 456.533333a30.065778 30.065778 0 0 0 20.48 52.053334c7.68 0 15.075556-2.844444 20.48-8.248889l13.368889-12.515556V881.777778a141.255111 141.255111 0 0 0 141.368889 140.8h308.053333c16.497778 0 30.151111-13.368889 30.151111-30.151111s-13.368889-29.866667-30.151111-29.866667" p-id="1818"></path><path d="M715.662222 526.791111l14.791111 50.062222a30.151111 30.151111 0 0 0 57.742223-17.351111l-35.84-120.035555c-4.835556-15.928889-21.617778-25.031111-37.262223-20.195556L595.057778 455.111111c-15.928889 4.551111-25.315556 21.048889-21.048889 36.977778 4.551111 15.928889 21.048889 25.315556 36.977778 21.048889 0.284444 0 0.853333-0.284444 1.137777-0.284445l50.915556-15.075555-116.906667 191.715555-93.297777-184.604444c-0.568889-1.137778-1.422222-1.706667-1.991112-2.844445a27.164444 27.164444 0 0 0-8.533333-8.533333c-0.853333-0.568889-1.422222-1.422222-2.275555-1.991111-0.853333-0.284444-1.422222-0.284444-1.991112-0.568889a22.584889 22.584889 0 0 0-6.257777-1.706667 21.248 21.248 0 0 0-11.093334 0.284445 23.608889 23.608889 0 0 0-5.973333 1.706667c-0.568889 0.284444-1.422222 0.284444-1.991111 0.568888-1.137778 0.568889-1.706667 1.422222-2.56 1.991112-1.706667 1.137778-3.413333 2.275556-4.835556 3.697777-1.422222 1.422222-2.56 3.128889-3.697777 4.835556-0.568889 0.853333-1.422222 1.706667-1.991112 2.56l-122.595555 242.915555a29.980444 29.980444 0 0 0 52.622222 28.728889l0.853333-1.706666 95.857778-190.008889 91.022222 179.768889c0.284444 0.568889 0.853333 0.853333 1.137778 1.137777 2.275556 4.551111 5.688889 8.248889 9.955556 10.808889 8.817778 5.404444 19.911111 5.688889 29.297778 1.137778 0.284444 0 0.284444-0.284444 0.284444-0.284444 0.853333-0.284444 1.137778-1.137778 1.991111-1.422223 3.413333-1.991111 6.257778-4.835556 8.533333-7.964444 0.284444-0.568889 0.853333-0.568889 1.137778-1.137778-0.568889-0.284444 145.92-240.071111 145.92-240.071111z" p-id="1819"></path></svg>