<svg width="16" height="16" viewBox="0 0 16 16" fill="none" xmlns="http://www.w3.org/2000/svg">
<path d="M8.00016 14.6663C11.6821 14.6663 14.6668 11.6816 14.6668 7.99968C14.6668 4.31778 11.6821 1.33301 8.00016 1.33301C4.31826 1.33301 1.3335 4.31778 1.3335 7.99968C1.3335 11.6816 4.31826 14.6663 8.00016 14.6663Z" fill="#EE7C30"/>
<path d="M8.66683 5.33366C8.66683 4.96547 8.36835 4.66699 8.00016 4.66699C7.63197 4.66699 7.3335 4.96547 7.3335 5.33366V8.00033C7.3335 8.36852 7.63197 8.66699 8.00016 8.66699C8.36835 8.66699 8.66683 8.36852 8.66683 8.00033V5.33366Z" fill="white"/>
<path d="M8.00016 10.0003C7.63197 10.0003 7.3335 10.2988 7.3335 10.667C7.3335 11.0352 7.63197 11.3337 8.00016 11.3337H8.00683C8.37502 11.3337 8.6735 11.0352 8.6735 10.667C8.6735 10.2988 8.37502 10.0003 8.00683 10.0003H8.00016Z" fill="white"/>
</svg>
