<svg width="16" height="16" viewBox="0 0 16 16" fill="none" xmlns="http://www.w3.org/2000/svg">
<path d="M8 0C5.78667 0 3.78667 0.893333 2.34 2.34C0.893333 3.79333 0 5.79333 0 8C0 10.2067 0.893333 12.2067 2.34 13.66C3.78667 15.1067 5.78667 16 8 16C10.2133 16 12.2133 15.1067 13.66 13.66C15.1067 12.2067 16 10.2067 16 8C16 3.58 12.42 0 8 0ZM11.6867 10.98C11.88 11.1733 11.88 11.4933 11.6867 11.6867C11.4933 11.88 11.1733 11.88 10.98 11.6867L8 8.70667L5.02 11.6867C4.82667 11.88 4.50667 11.88 4.31333 11.6867C4.12 11.4933 4.12 11.1733 4.31333 10.98L7.29333 8L4.31333 5.02C4.12 4.82667 4.12 4.50667 4.31333 4.31333C4.50667 4.12 4.82667 4.12 5.02 4.31333L8 7.29333L10.98 4.31333C11.1733 4.12 11.4933 4.12 11.6867 4.31333C11.88 4.50667 11.88 4.82667 11.6867 5.02L8.70667 8L11.6867 10.98Z" fill="#D8DADD"/>
</svg>
