<?xml version="1.0" standalone="no"?><!DOCTYPE svg PUBLIC "-//W3C//DTD SVG 1.1//EN" "http://www.w3.org/Graphics/SVG/1.1/DTD/svg11.dtd"><svg t="1645150788751" class="icon" viewBox="0 0 1024 1024" version="1.1" xmlns="http://www.w3.org/2000/svg" p-id="976" xmlns:xlink="http://www.w3.org/1999/xlink" width="200" height="200"><defs><style type="text/css"></style></defs><path d="M614.570667 219.904l0.256 0.256c16.213333 15.786667 183.893333 183.722667 185.770666 185.6a34.133333 34.133333 0 0 1 10.069334 24.149333c0 9.301333-3.413333 17.322667-9.728 23.466667l-0.341334 0.341333c-8.362667 8.362667-21.077333 9.898667-43.52 8.789334l-1.024-0.085334h-1.109333c-1.536 0-3.413333 0-6.144-0.170666h-0.170667a274.688 274.688 0 0 0-9.045333-0.170667c-38.656 0-73.898667 25.344-100.693333 54.442667h-0.085334c-19.882667 21.845333-35.84 46.421333-46.762666 69.12-9.898667 20.650667-19.029333 46.506667-17.237334 69.12v0.853333c0.597333 5.717333 2.218667 20.309333 3.072 24.576l0.170667 0.938667 0.256 0.938666c9.386667 38.4 1.109333 63.317333-8.021333 78.677334-5.973333 9.984-12.8 16.896-17.664 21.077333L422.4 651.605333l-63.146667 44.032-113.92 83.2 130.389334-176.554666L243.2 470.613333c4.266667-4.778667 11.264-11.52 21.077333-17.322666 15.616-9.216 41.130667-17.664 80.810667-7.936l0.853333 0.256 0.938667 0.170666a59.989333 59.989333 0 0 0 7.338667 1.024l1.194666 0.170667 1.792 0.170667c4.778667 0.426667 6.912 0.597333 9.130667 1.024l0.853333 0.170666 0.853334 0.085334c23.125333 3.754667 47.445333-3.84 66.304-12.288 20.48-9.216 41.642667-22.869333 61.013333-39.424a243.2 243.2 0 0 0 46.08-51.2c11.093333-17.066667 21.162667-38.656 21.162667-61.525334v-0.512c0-4.608 0-11.008-0.426667-17.237333-0.768-22.784 0.426667-34.730667 8.704-43.008a33.28 33.28 0 0 1 43.52-3.413333z m54.016-66.133333a118.613333 118.613333 0 0 0-157.866667 9.130666c-36.437333 36.352-34.56 84.309333-33.792 104.106667v2.645333l0.085333 0.768v0.682667a204.117333 204.117333 0 0 1 0.256 12.970667c-0.256 1.024-1.450667 5.973333-7.253333 14.848a158.634667 158.634667 0 0 1-29.866667 32.853333l-0.170666 0.085333a176.128 176.128 0 0 1-40.618667 26.453334 63.573333 63.573333 0 0 1-18.090667 5.802666 157.866667 157.866667 0 0 0-18.261333-2.218666c-60.842667-14.336-108.373333-1.962667-141.909333 17.834666a165.802667 165.802667 0 0 0-54.698667 51.456l-0.682667 1.024-0.512 1.024a77.312 77.312 0 0 0 12.458667 92.416v0.085334l85.589333 85.162666-120.064 162.645334a76.544 76.544 0 0 0 61.525334 122.453333c14.848 0 31.232-4.266667 45.226666-14.933333L408.576 765.44l4.096-2.816 85.077333 85.077333a77.141333 77.141333 0 0 0 94.122667 11.178667l0.682667-0.426667 0.682666-0.426666c6.570667-4.266667 31.232-21.162667 50.432-53.589334 19.797333-33.28 32.426667-80.213333 18.090667-140.629333v-0.170667a446.122667 446.122667 0 0 1-1.792-15.445333l0.085333-0.597333c0.426667-2.133333 2.048-10.496 8.96-24.832 7.509333-15.701333 18.858667-33.28 32.768-48.384 21.674667-23.552 35.584-26.88 37.888-26.88 1.706667 0 3.754667 0 6.4 0.170666h0.426667l7.424 0.170667h0.426667c20.224 1.024 69.376 3.498667 106.496-33.536 23.04-22.528 35.242667-52.650667 35.242666-84.309333a119.466667 119.466667 0 0 0-34.986666-84.48c-1.706667-1.706667-162.816-162.986667-185.173334-185.002667a45.056 45.056 0 0 0-7.253333-6.656z" fill="#B3B4C1" p-id="977"></path></svg>