<?xml version="1.0" standalone="no"?><!DOCTYPE svg PUBLIC "-//W3C//DTD SVG 1.1//EN" "http://www.w3.org/Graphics/SVG/1.1/DTD/svg11.dtd"><svg t="1650541475275" class="icon" viewBox="0 0 1024 1024" version="1.1" xmlns="http://www.w3.org/2000/svg" p-id="1675" width="16" height="16" xmlns:xlink="http://www.w3.org/1999/xlink"><defs><style type="text/css">@font-face { font-family: feedback-iconfont; src: url("//at.alicdn.com/t/font_1031158_u69w8yhxdu.woff2?t=1630033759944") format("woff2"), url("//at.alicdn.com/t/font_1031158_u69w8yhxdu.woff?t=1630033759944") format("woff"), url("//at.alicdn.com/t/font_1031158_u69w8yhxdu.ttf?t=1630033759944") format("truetype"); }
</style></defs><path d="M0 864m32 0l960 0q32 0 32 32l0 64q0 32-32 32l-960 0q-32 0-32-32l0-64q0-32 32-32Z" p-id="1676"></path><path d="M696.32 478.72A64 64 0 0 0 723.2 448a97.28 97.28 0 0 0 8.96-43.52 90.88 90.88 0 0 0-9.6-43.52 67.2 67.2 0 0 0-29.44-28.8 90.88 90.88 0 0 0-21.12-7.04 218.24 218.24 0 0 0-32.64 0h-16.64v163.2H640a226.56 226.56 0 0 0 35.2 0 67.84 67.84 0 0 0 21.12-9.6z" p-id="1677"></path><path d="M160 800h704a128 128 0 0 0 128-128v-512a128 128 0 0 0-128-128h-704a128 128 0 0 0-128 128v512a128 128 0 0 0 128 128z m395.52-522.24h94.72a227.84 227.84 0 0 1 54.4 5.12 128 128 0 0 1 39.04 15.36 116.48 116.48 0 0 1 42.24 44.16 133.12 133.12 0 0 1 15.36 64 128 128 0 0 1-16.64 64 117.12 117.12 0 0 1-42.24 44.16 112.64 112.64 0 0 1-41.6 16 259.84 259.84 0 0 1-53.76 4.48H555.52z m-245.76 0H384l96 259.2H413.44l-17.92-52.48h-96l-17.92 52.48H213.76z" p-id="1678"></path><path d="M347.52 344.32l-32 92.8h64l-32-92.8z" p-id="1679"></path></svg>