<?xml version="1.0" standalone="no"?><!DOCTYPE svg PUBLIC "-//W3C//DTD SVG 1.1//EN" "http://www.w3.org/Graphics/SVG/1.1/DTD/svg11.dtd"><svg class="icon" width="200px" height="71.11px" viewBox="0 0 2880 1024" version="1.1" xmlns="http://www.w3.org/2000/svg"><path fill="#333333" d="M902.72 554.88l-11.84 7.68c-7.68 4.48-15.36 8.96-23.36 13.12s-20.16 10.56-30.4 15.36l-22.72 11.52-43.2 19.52c-15.36 6.4-32 12.48-46.4 18.24s-28.16 9.92-42.24 14.08a274.56 274.56 0 0 1-45.12 8.96 91.2 91.2 0 0 1-38.4-2.24 27.84 27.84 0 0 1-19.84-23.36 45.12 45.12 0 0 1 3.84-24.32 128 128 0 0 1 22.4-35.52l23.68-28.8c5.44-6.08 11.2-12.16 16.64-18.56l21.76-25.28c5.44-6.72 11.2-13.44 16-20.48s15.68-22.72 22.72-34.56a43.2 43.2 0 0 0 6.4-21.12 26.56 26.56 0 0 0-7.36-17.6 65.92 65.92 0 0 0-19.2-13.12 344.64 344.64 0 0 0-56.32-19.52 6.08 6.08 0 0 0-5.76 0l-6.72 3.84 20.16 16.64-19.52 3.52-44.8 9.6c-13.76 2.88-27.52 6.4-41.28 9.92s-20.48 5.44-32 8.64c-16 4.8-32 10.24-47.04 15.68l-23.36 7.68c-1.92 0-2.56 0-1.6 3.84s4.8 12.48 7.04 18.88a3.84 3.84 0 0 1 0 3.52l-28.48 31.36v1.6a128 128 0 0 0 47.68 5.12 131.84 131.84 0 0 0 45.44-11.2 115.84 115.84 0 0 0 29.12-17.92l-11.84-9.6a28.16 28.16 0 0 1 25.6 32h-7.36l-1.6-2.24c-1.6-2.24 0-7.68-1.6-12.16a157.76 157.76 0 0 1-69.12 29.44 153.28 153.28 0 0 1-74.88-6.4v35.52a5.44 5.44 0 0 1-2.24 4.48c-9.28 5.12-18.88 9.6-28.16 15.04a85.44 85.44 0 0 0-23.68 21.76 27.52 27.52 0 0 0-7.04 17.28 21.12 21.12 0 0 0 11.84 18.88 79.04 79.04 0 0 0 33.92 9.28 303.68 303.68 0 0 0 38.08 0c13.44 0 26.56-2.56 39.68-4.48s26.24-4.48 39.36-7.04 20.8-5.12 32-7.04c-4.48 2.24-8.64 4.8-13.12 6.72-9.28 4.48-18.24 8.64-27.52 12.48a288 288 0 0 1-44.8 15.68c-14.4 3.52-28.8 6.4-43.52 8.96-8 0-16.32 1.6-24.64 2.24a161.92 161.92 0 0 1-16 1.6 117.76 117.76 0 0 1-48.96-11.2 56.32 56.32 0 0 1-32-37.76 75.52 75.52 0 0 1 0-32 132.48 132.48 0 0 1 10.88-32 183.36 183.36 0 0 1 11.2-18.88c5.44-8.32 10.56-16.64 16.32-24.64s10.56-13.44 16.32-19.84 11.2-12.8 16.96-18.88a163.52 163.52 0 0 1 15.36-14.4 352 352 0 0 1 32-26.24c14.4-10.24 29.12-19.52 44.16-28.16a392 392 0 0 1 54.08-24 435.2 435.2 0 0 1 64-20.48c13.12-3.2 26.56-5.76 40-8 7.04 0 14.08-1.6 21.44-2.24h23.04a192 192 0 0 1 50.24 6.4 110.4 110.4 0 0 1 32 13.12 64 64 0 0 1 20.8 20.16 65.92 65.92 0 0 1 9.6 41.6 96 96 0 0 1-12.8 38.08 322.24 322.24 0 0 1-32 47.68l-32 41.28c-9.28 11.2-18.24 22.4-27.2 34.24a116.16 116.16 0 0 0-8.96 16.32 9.6 9.6 0 0 0 8 12.8 175.36 175.36 0 0 0 22.4 0l15.36-1.6 21.76-2.88c11.52-1.92 23.36-4.16 34.56-7.04s28.16-7.04 41.92-11.2 32-9.28 45.76-14.72 25.28-9.6 37.76-14.4l27.52-11.2 12.8-5.44a2.56 2.56 0 0 1-1.6-1.6z m533.12 92.8h71.04v-195.84h-71.04z m-120 0h71.36v-278.4h-71.36z m-53.12-90.88c14.08 30.08 27.52 60.16 42.24 91.84h-82.88c-2.88 0-6.72-4.8-8.64-8.32a352 352 0 0 1-14.72-35.84 13.76 13.76 0 0 0-15.36-10.24H1056c-8 0-12.8 1.6-15.04 10.56a314.24 314.24 0 0 1-12.8 30.08 20.16 20.16 0 0 1-22.72 14.72h-66.56c9.92-19.84 18.88-36.8 27.52-54.08 18.56-37.12 36.16-74.88 55.04-112s37.12-72 56-107.84a13.76 13.76 0 0 1 10.24-5.44h77.44a20.16 20.16 0 0 1 12.8 10.88c29.44 57.6 56.96 116.48 84.8 175.36z m-96-20.8l-44.16-104c-17.6 36.48-32 69.44-49.28 103.68z m1444.48 112.64h-55.04c-18.56 0-9.28-16-14.72-24.64a111.04 111.04 0 0 1-86.08 32 86.4 86.4 0 0 1-58.88-20.16 64 64 0 0 1 5.12-91.84 135.04 135.04 0 0 1 80.96-20.8c18.88-1.6 38.4 0 57.6 0 0-19.84-3.84-27.84-21.76-33.92a42.56 42.56 0 0 0-47.04 12.48 25.28 25.28 0 0 1-16.32 8.96h-59.84a64 64 0 0 1 58.24-60.16 237.12 237.12 0 0 1 115.84 5.76 53.12 53.12 0 0 1 41.28 46.4c2.56 48.32 0.64 96.32 0.64 145.92z m-70.08-87.68c-24 2.88-47.04 4.48-69.12 8.96a25.92 25.92 0 0 0-14.4 17.92 20.8 20.8 0 0 0 9.28 16.96 49.28 49.28 0 0 0 74.24-43.84z m-480 64c0 7.36 0 14.72 1.92 24.32h-60.8c-5.44 0-9.6-11.2-15.68-19.2a207.68 207.68 0 0 1-27.52 14.72 104.96 104.96 0 0 1-114.88-10.24 49.6 49.6 0 0 1-15.68-32 66.24 66.24 0 0 1 70.08-72.96c29.44-2.24 59.2-3.2 88.32-4.8a32 32 0 0 0-44.48-34.24 38.08 38.08 0 0 0-21.44 11.84c-6.4 11.84-15.36 12.16-26.24 11.84H1841.28a64 64 0 0 1 59.2-58.56 242.56 242.56 0 0 1 107.2 2.24A64 64 0 0 1 2058.24 512c1.28 37.76 1.6 75.2 2.56 112.32z m-71.04-64c-25.6 3.2-48.96 4.8-71.68 9.6-5.76 0-12.48 10.24-13.76 16.64a19.84 19.84 0 0 0 8.64 17.28 57.6 57.6 0 0 0 56.64-1.92c15.68-8.96 15.68-23.36 19.84-41.92z m-488.32-192h-68.48v54.72h67.2a13.76 13.76 0 0 0 10.24-9.28 194.88 194.88 0 0 0 0-36.16 12.8 12.8 0 0 0-9.28-8.96z m844.48 128a112.64 112.64 0 0 1-26.56 138.56 104.64 104.64 0 0 1-138.24-18.56c-3.2 30.08-3.2 30.08-32 30.08h-42.88v-278.4h72.96v107.84c62.72-37.76 124.48-56 166.4 22.08z m-65.92 34.24a46.4 46.4 0 0 0-49.92-46.72 103.04 103.04 0 0 0-20.16 4.8 64 64 0 0 0-27.2 80.32 46.08 46.08 0 0 0 13.44 22.4 50.24 50.24 0 0 0 82.88-25.6 108.16 108.16 0 0 0 0.64-33.6z m-478.08-9.28c3.52 40.96 4.48 82.56-32 111.04a101.44 101.44 0 0 1-47.04 19.2A96 96 0 0 1 1632 619.84s-2.24 0-2.24 1.6c-1.92 27.2-1.92 27.2-28.8 27.2h-46.08v-279.36h73.92v105.6a416 416 0 0 1 41.28-20.8 97.92 97.92 0 0 1 110.08 21.44 83.84 83.84 0 0 1 21.76 48z m-76.16-3.2a50.24 50.24 0 0 0-73.28-26.88 59.2 59.2 0 0 0-26.24 53.12 56.64 56.64 0 0 0 26.88 54.08 52.16 52.16 0 0 0 69.44-19.52 90.24 90.24 0 0 0 2.88-59.2z" /></svg>