<?xml version="1.0" standalone="no"?><!DOCTYPE svg PUBLIC "-//W3C//DTD SVG 1.1//EN" "http://www.w3.org/Graphics/SVG/1.1/DTD/svg11.dtd"><svg t="1650873938521" class="icon" viewBox="0 0 2880 1024" version="1.1" xmlns="http://www.w3.org/2000/svg" p-id="11438" xmlns:xlink="http://www.w3.org/1999/xlink" width="562.5" height="200"><defs><style type="text/css">@font-face { font-family: feedback-iconfont; src: url("//at.alicdn.com/t/font_1031158_u69w8yhxdu.woff2?t=1630033759944") format("woff2"), url("//at.alicdn.com/t/font_1031158_u69w8yhxdu.woff?t=1630033759944") format("woff"), url("//at.alicdn.com/t/font_1031158_u69w8yhxdu.ttf?t=1630033759944") format("truetype"); }
</style></defs>
<path d="M902.72 554.88l-11.84 7.68c-7.68 4.48-15.36 8.96-23.36 13.12s-20.16 10.56-30.4 15.36l-22.72 11.52-43.2 19.52c-15.36 6.4-32 12.48-46.4 18.24s-28.16 9.92-42.24 14.08a274.56 274.56 0 0 1-45.12 8.96 91.2 91.2 0 0 1-38.4-2.24 27.84 27.84 0 0 1-19.84-23.36 45.12 45.12 0 0 1 3.84-24.32 128 128 0 0 1 22.4-35.52l23.68-28.8c5.44-6.08 11.2-12.16 16.64-18.56l21.76-25.28c5.44-6.72 11.2-13.44 16-20.48s15.68-22.72 22.72-34.56a43.2 43.2 0 0 0 6.4-21.12 26.56 26.56 0 0 0-7.36-17.6 65.92 65.92 0 0 0-19.2-13.12 344.64 344.64 0 0 0-56.32-19.52 6.08 6.08 0 0 0-5.76 0l-6.72 3.84 20.16 16.64-19.52 3.52-44.8 9.6c-13.76 2.88-27.52 6.4-41.28 9.92s-20.48 5.44-32 8.64c-16 4.8-32 10.24-47.04 15.68l-23.36 7.68c-1.92 0-2.56 0-1.6 3.84s4.8 12.48 7.04 18.88a3.84 3.84 0 0 1 0 3.52l-28.48 31.36v1.6a128 128 0 0 0 47.68 5.12 131.84 131.84 0 0 0 45.44-11.2 115.84 115.84 0 0 0 29.12-17.92l-11.84-9.6a28.16 28.16 0 0 1 25.6 32h-7.36l-1.6-2.24c-1.6-2.24 0-7.68-1.6-12.16a157.76 157.76 0 0 1-69.12 29.44 153.28 153.28 0 0 1-74.88-6.4v35.52a5.44 5.44 0 0 1-2.24 4.48c-9.28 5.12-18.88 9.6-28.16 15.04a85.44 85.44 0 0 0-23.68 21.76 27.52 27.52 0 0 0-7.04 17.28 21.12 21.12 0 0 0 11.84 18.88 79.04 79.04 0 0 0 33.92 9.28 303.68 303.68 0 0 0 38.08 0c13.44 0 26.56-2.56 39.68-4.48s26.24-4.48 39.36-7.04 20.8-5.12 32-7.04c-4.48 2.24-8.64 4.8-13.12 6.72-9.28 4.48-18.24 8.64-27.52 12.48a288 288 0 0 1-44.8 15.68c-14.4 3.52-28.8 6.4-43.52 8.96-8 0-16.32 1.6-24.64 2.24a161.92 161.92 0 0 1-16 1.6 117.76 117.76 0 0 1-48.96-11.2 56.32 56.32 0 0 1-32-37.76 75.52 75.52 0 0 1 0-32 132.48 132.48 0 0 1 10.88-32 183.36 183.36 0 0 1 11.2-18.88c5.44-8.32 10.56-16.64 16.32-24.64s10.56-13.44 16.32-19.84 11.2-12.8 16.96-18.88a163.52 163.52 0 0 1 15.36-14.4 352 352 0 0 1 32-26.24c14.4-10.24 29.12-19.52 44.16-28.16a392 392 0 0 1 54.08-24 435.2 435.2 0 0 1 64-20.48c13.12-3.2 26.56-5.76 40-8 7.04 0 14.08-1.6 21.44-2.24h23.04a192 192 0 0 1 50.24 6.4 110.4 110.4 0 0 1 32 13.12 64 64 0 0 1 20.8 20.16 65.92 65.92 0 0 1 9.6 41.6 96 96 0 0 1-12.8 38.08 322.24 322.24 0 0 1-32 47.68l-32 41.28c-9.28 11.2-18.24 22.4-27.2 34.24a116.16 116.16 0 0 0-8.96 16.32 9.6 9.6 0 0 0 8 12.8 175.36 175.36 0 0 0 22.4 0l15.36-1.6 21.76-2.88c11.52-1.92 23.36-4.16 34.56-7.04s28.16-7.04 41.92-11.2 32-9.28 45.76-14.72 25.28-9.6 37.76-14.4l27.52-11.2 12.8-5.44a2.56 2.56 0 0 1-1.6-1.6zM1435.84 647.68h71.04v-195.84h-71.04zM1315.84 647.36h71.68v-278.08h-71.68zM1179.2 380.16a20.16 20.16 0 0 0-12.8-10.88h-77.44a13.76 13.76 0 0 0-10.24 5.44c-18.88 35.84-37.76 73.28-54.72 107.84s-36.48 74.88-55.04 112c-8.64 17.28-17.6 34.24-27.52 54.08h66.56a20.16 20.16 0 0 0 22.72-14.72 314.24 314.24 0 0 0 12.8-30.08c2.24-8.96 7.04-10.56 15.04-10.56H1184a13.76 13.76 0 0 1 15.36 10.24 352 352 0 0 0 14.08 36.48c1.92 3.52 5.76 8.32 8.64 8.32h82.88c-14.72-32-28.16-61.76-42.24-91.84-27.84-58.88-55.36-117.76-83.52-176.32z m-105.92 155.52c16-34.24 32-67.2 49.28-103.68 15.36 36.16 29.44 69.12 44.48 103.68zM2610.56 503.68a53.12 53.12 0 0 0-41.28-46.4 237.12 237.12 0 0 0-115.84-5.76A64 64 0 0 0 2395.2 512h59.84a25.28 25.28 0 0 0 16.32-8.96 42.56 42.56 0 0 1 47.04-12.48c17.92 6.08 23.04 14.08 21.76 33.92h-57.6a135.04 135.04 0 0 0-80.96 20.8 64 64 0 0 0-5.12 88.96 86.4 86.4 0 0 0 58.88 20.16 111.04 111.04 0 0 0 86.08-32c5.44 8.64-2.24 24.32 14.72 24.64s37.44 0 55.04 0c0-48 1.92-96-0.64-143.36z m-143.68 101.12a20.8 20.8 0 0 1-9.28-16.96 25.92 25.92 0 0 1 14.4-17.92c22.08-4.48 45.12-6.08 69.12-8.96a49.28 49.28 0 0 1-74.24 43.84zM2058.24 512a64 64 0 0 0-50.56-58.56 242.56 242.56 0 0 0-107.2-2.24 64 64 0 0 0-59.2 60.8H1894.4c10.88 0 19.84 0 26.24-11.84a38.08 38.08 0 0 1 21.44-11.84 32 32 0 0 1 44.8 34.24c-29.44 1.6-59.2 2.56-88.64 4.8a66.24 66.24 0 0 0-70.08 72.96 49.6 49.6 0 0 0 15.68 32 104.96 104.96 0 0 0 114.88 10.24 207.68 207.68 0 0 0 27.52-14.72c6.08 8 10.24 18.56 15.68 19.2 19.84 1.92 40.32 0 60.8 0 0-9.6 0-16.96-1.92-24.32-0.96-35.52-1.28-72.96-2.56-110.72z m-88.64 89.6a57.6 57.6 0 0 1-56.64 1.92 19.84 19.84 0 0 1-8.64-17.28c0-6.4 8-15.68 13.76-16.64 22.72-4.8 46.08-6.4 71.68-9.6-4.16 19.2-4.16 33.6-20.16 42.24zM1501.44 369.28h-68.48v54.72h67.2a13.76 13.76 0 0 0 10.24-9.28 194.88 194.88 0 0 0 0-36.16 12.8 12.8 0 0 0-8.96-9.28zM2179.52 476.48v-107.84h-72.96v280h40.96c32 0 32 0 32-30.08a104.64 104.64 0 0 0 138.24 18.56 112.64 112.64 0 0 0 26.56-138.56c-40.32-78.08-102.08-59.84-164.8-22.08z m99.52 91.52a50.24 50.24 0 0 1-82.88 25.6 46.08 46.08 0 0 1-13.44-22.4 64 64 0 0 1 27.2-80.32 103.04 103.04 0 0 1 20.16-4.8 46.4 46.4 0 0 1 49.92 46.72 108.16 108.16 0 0 1-0.96 35.2zM1780.16 475.52a97.92 97.92 0 0 0-110.08-21.44 416 416 0 0 0-41.28 20.8v-105.6h-73.92v278.08H1600c26.88 0 26.88 0 28.8-27.2l2.24-1.6a96 96 0 0 0 89.6 33.92 101.44 101.44 0 0 0 47.04-19.2c37.44-28.48 36.48-70.08 32-111.04a83.84 83.84 0 0 0-19.52-46.72z m-57.6 105.6a52.16 52.16 0 0 1-69.44 19.52 56.64 56.64 0 0 1-26.88-54.08 59.2 59.2 0 0 1 26.24-53.12 50.24 50.24 0 0 1 73.28 26.88 90.24 90.24 0 0 1-3.2 60.8z" fill="#EF782A" p-id="11439"></path></svg>