<?xml version="1.0" standalone="no"?><!DOCTYPE svg PUBLIC "-//W3C//DTD SVG 1.1//EN" "http://www.w3.org/Graphics/SVG/1.1/DTD/svg11.dtd"><svg class="icon" width="200px" height="71.11px" viewBox="0 0 2880 1024" version="1.1" xmlns="http://www.w3.org/2000/svg"><path d="M1564.8 400.96a124.16 124.16 0 0 0-128 9.92 134.08 134.08 0 0 0-58.56 120.64V768h44.48v-156.8l8 4.8 3.2 1.92a113.6 113.6 0 0 0 87.36 29.76A123.2 123.2 0 0 0 1632 568.96a128 128 0 0 0-67.2-168zM1509.12 608a86.4 86.4 0 0 1-85.44-88.32 87.04 87.04 0 1 1 173.76 0A86.72 86.72 0 0 1 1509.12 608zM928 488.96h138.24V448H928v-105.28h156.48V300.16h-202.88V640h214.4v-42.88H928z" fill="#DC3300" /><path d="M472 299.84a13.76 13.76 0 0 0-9.6 6.4c-6.72 16-12.8 32-19.2 48.96q-45.44 118.72-91.2 236.8c-6.08 16.32-11.84 32-17.92 49.92h41.28l26.24-70.08a18.56 18.56 0 0 1 21.12-14.08h131.52a15.36 15.36 0 0 1 17.92 12.16c8.32 24.32 18.24 48 27.2 71.36H640c-43.84-114.56-87.36-227.84-131.2-341.44-11.52 0-24.32-0.64-36.8 0z m75.2 204.8c2.88 7.68 0 11.2-7.36 11.2h-109.12c-1.6 0-3.2 0-6.08-2.56l61.44-158.08h3.2c9.6 24.64 19.52 48.96 29.12 73.92s18.88 50.88 28.8 75.52z" fill="#F69B0C" /><path d="M2056 489.6a106.88 106.88 0 0 0-64-89.28 128 128 0 0 0-142.72 27.52 130.88 130.88 0 0 0 0 179.52A128 128 0 0 0 1952 647.68a131.2 131.2 0 0 0 90.88-43.84l-32-25.28a88.32 88.32 0 0 1-102.08 22.72A85.12 85.12 0 0 1 1856 539.52H2042.24c13.12 0 16.96-4.16 15.68-16.64s-0.64-22.08-1.92-33.28z m-200 9.6a84.8 84.8 0 0 1 96-67.2 70.72 70.72 0 0 1 61.44 67.2zM1325.76 394.24a25.28 25.28 0 0 0-26.24 12.48c-3.84 5.76-8.32 10.88-12.48 16.64l-47.68 61.76a102.4 102.4 0 0 1-8.32-7.68c-16-21.12-32-42.88-48.32-64-5.76-7.36-12.8-16.64-20.48-18.24a232.32 232.32 0 0 0-45.44 0l96 124.16c-32 41.92-64 81.92-96 123.52h38.72a21.44 21.44 0 0 0 20.16-9.28c9.92-13.12 19.2-26.24 29.44-39.36s21.44-27.2 32-42.24c19.52 24.96 37.44 48.64 56 72 5.12 6.72 10.56 16.64 17.28 17.6a263.68 263.68 0 0 0 48.32 0l-96-123.52 96-124.16a301.76 301.76 0 0 1-32.96 0.32zM2438.4 507.84c-24.96-7.36-50.56-13.44-75.52-21.12s-32-24.32-21.12-37.44a55.36 55.36 0 0 1 26.24-19.84 64 64 0 0 1 69.12 17.6c2.56 2.56 8.96 5.12 11.52 3.52a264 264 0 0 0 28.8-19.2c-6.08-5.76-10.88-9.6-15.04-14.08a108.16 108.16 0 0 0-149.44 3.52 62.08 62.08 0 0 0 8 88.64 200.32 200.32 0 0 0 46.08 19.2c14.72 4.8 32 6.4 44.8 11.2a34.24 34.24 0 0 1 17.92 56.32A64 64 0 0 1 2368 608a330.88 330.88 0 0 1-48.96-25.92l-30.08 23.36a355.2 355.2 0 0 0 32 24.96 130.56 130.56 0 0 0 120.96 6.72 70.4 70.4 0 0 0 42.24-72 64 64 0 0 0-45.76-57.28zM2190.08 497.28a390.08 390.08 0 0 1-54.4-18.88 17.6 17.6 0 0 1-8.32-25.92 67.2 67.2 0 0 1 16.96-18.56 64 64 0 0 1 76.48 10.56c3.84 4.16 7.04 12.48 15.68 5.44s16.64-11.84 24.96-17.92a107.52 107.52 0 0 0-161.92-11.52 61.12 61.12 0 0 0 17.28 96 680.32 680.32 0 0 0 71.36 21.76c27.52 8.64 38.4 17.92 36.8 39.04a32 32 0 0 1-19.84 26.88 78.72 78.72 0 0 1-97.92-23.68l-32 25.28c7.68 6.72 14.4 13.44 22.08 19.52a122.88 122.88 0 0 0 86.72 23.68 94.08 94.08 0 0 0 71.36-32 73.92 73.92 0 0 0 0-87.68 118.4 118.4 0 0 0-65.28-32z" fill="#DC3300" /><path d="M668.16 640h43.2V297.6h-43.2z" fill="#F69B0C" /><path d="M1716.8 419.2v-23.68h-41.92v246.08h41.28v-121.28A82.24 82.24 0 0 1 1755.84 448a298.56 298.56 0 0 1 46.4-18.56v-40.64a137.92 137.92 0 0 0-85.44 30.4z" fill="#DC3300" /><path d="M773.44 641.6h42.88v-246.4h-42.88zM795.84 256a71.36 71.36 0 0 1-64 64 69.44 69.44 0 0 1 64 64 71.36 71.36 0 0 1 64-64 68.8 68.8 0 0 1-64-64z" fill="#F69B0C" /><path d="M2485.44 368.96h9.6v25.92h5.12v-25.92h9.92v-4.16h-24.64v4.16zM2539.84 364.8l-9.92 23.68h-0.32l-10.24-23.68h-5.76v30.08h4.8v-20.8h0.32l8.96 20.8h4.16l8.96-20.8v20.8h5.12v-30.08h-6.08z" fill="#DC3300" /></svg>