<?xml version="1.0" standalone="no"?><!DOCTYPE svg PUBLIC "-//W3C//DTD SVG 1.1//EN" "http://www.w3.org/Graphics/SVG/1.1/DTD/svg11.dtd"><svg t="1644548100368" class="icon" viewBox="0 0 1024 1024" version="1.1" xmlns="http://www.w3.org/2000/svg" p-id="3769" xmlns:xlink="http://www.w3.org/1999/xlink" width="32" height="32"><defs><style type="text/css"></style></defs><path d="M1007.3590325 754.30490268C1007.3590325 891.12719577 896.4605291 1002.02569917 759.63823601 1002.02569917h-495.35903251C127.49819066 1002.02569917 16.6409675 891.12719577 16.6409675 754.30490268V258.98715042C16.6409675 122.16485733 127.49819066 11.30763417 264.2792035 11.30763417h495.35903251C896.4605291 11.30763417 1007.3590325 122.16485733 1007.3590325 258.98715042v495.31775226z" fill="#FDC133" p-id="3770"></path><path d="M208.88155235 684.70695861c78.49376701 68.15314721 164.47983843 131.51782313 280.12553288 131.55910337 2.24975529 0 4.52015117-0.04128024 6.85246598-0.08255951 73.56081633-1.69247637 156.78113379-26.54298847 221.36356764-67.10050927l0.37151928-0.24767952c8.4623838-5.07743009 16.92476663-10.81533919 24.87115174-17.21372638 4.99487056-3.6739125 8.37982331-9.39118198 8.37982332-15.35613001-0.20639928-10.65021919-9.22606198-17.83292517-18.947483-17.83292516a20.72251984 20.72251984 0 0 0-9.18478174 2.10527588c-3.30239323 1.3209571-6.72862718 2.8276748-9.88654101 4.18991214l-4.74719009 1.98143613-6.08878874 2.45615457v0.04128024c-66.44003023 26.93514739-136.22373394 42.74535619-200.78552721 44.16951341-2.37359504 0.08255952-4.74719105 0.08255952-7.10014645 0.08256047-101.54860166 0.04128024-184.43868009-47.10038833-267.98923659-93.51965798a19.23644275 19.23644275 0 0 0-8.83390306-2.3323148 15.47996977 15.47996977 0 0 0-10.44381896 4.02479214 14.07645219 14.07645219 0 0 0-4.43759165 10.36125943 16.51196807 16.51196807 0 0 0 6.48094766 12.71421485z" fill="#FFFFFF" p-id="3771"></path><path d="M821.47555556 660.74396541c-0.24767951-6.46030706-1.60991685-11.37261811-4.3137519-15.43868952l-0.24767952-0.41279951-0.33023904-0.41279856c-2.74511432-2.99279383-5.36638984-4.10735166-8.21470427-5.36638983-8.4623838-3.26111396-20.80507937-4.99487056-35.6245701-5.03614985-10.69149944 0-22.49755574 1.0113577-34.303613 3.59135299l-0.04128023-0.76367915-11.88861679 3.94223262-0.20639927 0.12383976-6.72862718 2.1878354v0.28895976a107.12139078 107.12139078 0 0 0-21.73387756 12.17757654c-4.14863189 3.13727419-7.61614513 7.22398621-7.82254439 13.51917327a12.69357521 12.69357521 0 0 0 4.5614314 9.72142101 14.32413171 14.32413171 0 0 0 11.12493763 2.97215419l0.51599964-0.04128023 0.47471843-0.08255952c5.79982899-1.25903722 14.30349206-2.06399565 24.23131331-3.46751323 8.50366308-0.92879818 17.54396541-1.65119709 25.34587019-1.65119709 5.55214948 0 10.52637944 0.37151928 13.95261242 1.13519842a16.07852891 16.07852891 0 0 1 4.23119238 1.42415722 12.05373678 12.05373678 0 0 1 0.33023903 3.42623299c0.12383976 6.54286755-2.70383504 18.72044311-6.48094766 30.56778061-3.71519275 11.88861678-8.25598355 23.7978732-11.24877739 31.70297809a16.20236867 16.20236867 0 0 0-1.13519842 6.00622826 13.10637473 13.10637473 0 0 0 3.98351286 9.59758126 13.31277399 13.31277399 0 0 0 9.06094198 3.59135298h0.12383975a18.82364324 18.82364324 0 0 0 11.33133788-4.31375189c30.23754062-27.22410714 40.72264078-70.60930177 41.15607994-95.02637472l-0.12383977-3.92159202v-0.04128025zM545.1271353 369.32837491c-17.77100529 1.3415977-38.2871249 2.70383504-58.78260487 5.40766912-31.43465893 4.14863189-62.84867725 9.59758126-88.81374718 21.94027778-50.54726095 20.49547997-84.7270342 64.21091459-84.72703419 128.46310846 0 80.66096278 51.93013889 121.67256236 117.5445701 121.67256236 21.85771731 0 39.6287226-2.78639455 55.99621127-6.81118669 26.00634921-8.23534392 47.80214664-23.24059429 73.80849585-50.60918084 15.00525038 20.49547997 19.11260299 30.09306122 45.07767195 51.95077853 6.81118669 2.70383504 13.66365364 2.70383504 19.11260203-1.32095709 16.45004819-13.70493292 45.1189522-38.3077655 60.10356293-51.99205878 6.89374621-5.44894935 5.4902296-13.66365364 1.36223734-20.45419973-14.98461073-19.15388227-30.03114134-35.56265022-30.03114135-72.50817838v-123.01416006c0-51.95077853 4.10735166-99.81484505-34.138493-135.3155754C590.2460875 208.04772959 541.01978364 197.06727136 502.77393802 197.06727136h-16.40876795c-69.65986394 4.06607238-143.46835979 34.1591336-159.87712774 120.31032502-2.74511432 10.93917895 5.4902296 15.00525038 10.9598186 16.36748771l76.47105063 9.55630197c8.23534392-1.36223734 12.34269557-8.23534392 13.66365364-15.00525133 6.85246694-30.09306122 31.43465893-45.13959183 58.78260487-47.86406651h5.4902296c16.40876795 0 34.138493 6.85246694 43.69479402 20.53676021 10.91853835 16.40876795 9.59758126 38.26648526 9.59758124 57.42036752v10.93917896z m-15.02589098 162.64288265c-9.55630101 19.07132275-25.96506896 31.37273905-43.73607425 35.56265023-2.74511432 0-6.81118669 1.3209571-10.95981859 1.3209571-30.03114134 0-47.80214664-23.26123489-47.80214664-57.39972789 0-43.79799414 26.00634921-64.2934741 58.78260487-73.84977513 17.77100529-4.06607238 38.24584562-5.4902296 58.78260583-5.49022959v16.40876795c-0.04128024 31.4965788 1.30031746 56.09941043-15.06717122 83.44735733z" fill="#FFFFFF" p-id="3772"></path></svg>