<?xml version="1.0" standalone="no"?><!DOCTYPE svg PUBLIC "-//W3C//DTD SVG 1.1//EN" "http://www.w3.org/Graphics/SVG/1.1/DTD/svg11.dtd"><svg t="1650541575550" class="icon" viewBox="0 0 1024 1024" version="1.1" xmlns="http://www.w3.org/2000/svg" p-id="3283" width="16" height="16" xmlns:xlink="http://www.w3.org/1999/xlink"><defs><style type="text/css">@font-face { font-family: feedback-iconfont; src: url("//at.alicdn.com/t/font_1031158_u69w8yhxdu.woff2?t=1630033759944") format("woff2"), url("//at.alicdn.com/t/font_1031158_u69w8yhxdu.woff?t=1630033759944") format("woff"), url("//at.alicdn.com/t/font_1031158_u69w8yhxdu.ttf?t=1630033759944") format("truetype"); }
</style></defs><path d="M907.52 564.48H608V492.16A240 240 0 0 0 456.32 38.4a240 240 0 0 0-40.32 453.76v72.32H116.48A84.48 84.48 0 0 0 32 648.96v162.56a25.6 25.6 0 0 0 25.6 25.6h908.8a25.6 25.6 0 0 0 25.6-25.6v-162.56a84.48 84.48 0 0 0-84.48-84.48z" p-id="3284"></path><path d="M128 896m25.6 0l716.8 0q25.6 0 25.6 25.6l0 44.8q0 25.6-25.6 25.6l-716.8 0q-25.6 0-25.6-25.6l0-44.8q0-25.6 25.6-25.6Z" p-id="3285"></path></svg>