<?xml version="1.0" standalone="no"?><!DOCTYPE svg PUBLIC "-//W3C//DTD SVG 1.1//EN" "http://www.w3.org/Graphics/SVG/1.1/DTD/svg11.dtd"><svg t="1645515386113" class="icon" viewBox="0 0 1024 1024" version="1.1" xmlns="http://www.w3.org/2000/svg" p-id="4729" xmlns:xlink="http://www.w3.org/1999/xlink" width="16" height="16"><defs><style type="text/css"></style></defs><path d="M352 463.488a32 32 0 0 0 0 64h320a32 32 0 0 0 0-64h-320z" p-id="4730"></path><path d="M371.84 160c53.632 0 89.984 18.56 140.16 60.736 50.176-42.176 86.528-60.736 140.16-60.736C800.832 160 896 278.08 896 436.928c0 123.328-112.64 259.136-334.4 411.712a87.68 87.68 0 0 1-99.2 0C240.64 696.064 128 560.256 128 436.928 128 278.08 223.232 160 371.84 160z m390.592 431.36C812.992 529.28 832 478.464 832 436.928c0-66.944-20.032-120.576-50.752-156.352-29.952-34.88-73.024-56.576-129.024-56.576-32.64 0-54.848 8.576-99.072 45.76L512 304.32l-41.152-34.56c-44.16-37.12-66.432-45.76-99.072-45.76-56 0-99.072 21.696-129.024 56.576C212.032 316.416 192 369.984 192 436.928c0 41.6 18.944 92.416 69.568 154.432 50.56 61.888 128.704 129.984 237.056 204.544h26.752c108.352-74.56 186.496-142.72 237.056-204.544zM512 800a23.68 23.68 0 0 0 13.376-4.096H498.56A23.68 23.68 0 0 0 512 800z" p-id="4731"></path></svg>