<?xml version="1.0" standalone="no"?><!DOCTYPE svg PUBLIC "-//W3C//DTD SVG 1.1//EN" "http://www.w3.org/Graphics/SVG/1.1/DTD/svg11.dtd"><svg t="1650541566851" class="icon" viewBox="0 0 1024 1024" version="1.1" xmlns="http://www.w3.org/2000/svg" p-id="2962" width="16" height="16" xmlns:xlink="http://www.w3.org/1999/xlink"><defs><style type="text/css">@font-face { font-family: feedback-iconfont; src: url("//at.alicdn.com/t/font_1031158_u69w8yhxdu.woff2?t=1630033759944") format("woff2"), url("//at.alicdn.com/t/font_1031158_u69w8yhxdu.woff?t=1630033759944") format("woff"), url("//at.alicdn.com/t/font_1031158_u69w8yhxdu.ttf?t=1630033759944") format("truetype"); }
</style></defs><path d="M512 32a480 480 0 0 0-412.8 725.12 146.56 146.56 0 0 1-11.52 179.2l-29.44 29.44a12.16 12.16 0 0 0 10.24 20.48l204.16-33.28a142.08 142.08 0 0 1 71.04 7.04 472.32 472.32 0 0 0 168.32 32 480 480 0 0 0 0-960z m250.88 704a305.92 305.92 0 0 1-250.88 128 308.48 308.48 0 0 1-250.24-128 25.6 25.6 0 0 1 8.32-36.48l38.4-23.68a25.6 25.6 0 0 1 33.92 7.68A209.28 209.28 0 0 0 512 768a211.84 211.84 0 0 0 168.32-84.48 25.6 25.6 0 0 1 33.92-7.68l38.4 22.4a25.6 25.6 0 0 1 10.24 36.48z" p-id="2963"></path></svg>