<?xml version="1.0" standalone="no"?><!DOCTYPE svg PUBLIC "-//W3C//DTD SVG 1.1//EN" "http://www.w3.org/Graphics/SVG/1.1/DTD/svg11.dtd"><svg t="1650541594813" class="icon" viewBox="0 0 1024 1024" version="1.1" xmlns="http://www.w3.org/2000/svg" p-id="4085" width="16" height="16" xmlns:xlink="http://www.w3.org/1999/xlink"><defs><style type="text/css">@font-face { font-family: feedback-iconfont; src: url("//at.alicdn.com/t/font_1031158_u69w8yhxdu.woff2?t=1630033759944") format("woff2"), url("//at.alicdn.com/t/font_1031158_u69w8yhxdu.woff?t=1630033759944") format("woff"), url("//at.alicdn.com/t/font_1031158_u69w8yhxdu.ttf?t=1630033759944") format("truetype"); }
</style></defs><path d="M512 32C151.04 32 32 151.04 32 512s119.04 480 480 480 480-119.04 480-480S872.96 32 512 32zM352 617.6l-45.44 44.8-128-128a30.72 30.72 0 0 1 0-44.8l128-128 45.44 44.8L246.4 512z m260.48-256L504.96 691.2a25.6 25.6 0 0 1-32.64 16l-42.24-13.44a26.24 26.24 0 0 1-16.64-32.64l107.52-327.04a26.24 26.24 0 0 1 32-14.08l42.88 14.08a26.88 26.88 0 0 1 16.64 30.08z m256 170.24l-128 128-45.44-44.8L798.08 512l-104.96-105.6 45.44-44.8 128 128a32 32 0 0 1 0 44.8z" p-id="4086"></path></svg>