<?xml version="1.0" standalone="no"?><!DOCTYPE svg PUBLIC "-//W3C//DTD SVG 1.1//EN" "http://www.w3.org/Graphics/SVG/1.1/DTD/svg11.dtd"><svg t="1647399534082" class="icon" viewBox="0 0 1024 1024" version="1.1" xmlns="http://www.w3.org/2000/svg" p-id="12256" xmlns:xlink="http://www.w3.org/1999/xlink" width="16" height="16"><defs><style type="text/css"></style></defs><path d="M128 0a128 128 0 0 0-128 128v768a128 128 0 0 0 128 128h768a128 128 0 0 0 128-128V128a128 128 0 0 0-128-128H128z m-32 896V128q0-13.248 9.344-22.656Q114.752 96 128 96h768q13.248 0 22.656 9.344 9.344 9.408 9.344 22.656v768q0 13.248-9.344 22.656-9.408 9.344-22.656 9.344H128q-13.248 0-22.656-9.344Q96 909.248 96 896zM560 256a48 48 0 0 0-96 0v396.16L289.92 478.08a48 48 0 0 0-67.84 67.84l256 256a47.808 47.808 0 0 0 67.84 0l256-256a48 48 0 0 0-67.84-67.84l-174.08 174.08V256z" p-id="12257"></path></svg>