<?xml version="1.0" standalone="no"?><!DOCTYPE svg PUBLIC "-//W3C//DTD SVG 1.1//EN" "http://www.w3.org/Graphics/SVG/1.1/DTD/svg11.dtd"><svg class="icon" width="200px" height="76.70px" viewBox="0 0 2670 1024" version="1.1" xmlns="http://www.w3.org/2000/svg"><path d="M1617.265515 399.123324l113.060213 213.063604L1677.504946 712.190318h66.471096l183.685753-360.546348h-62.910144l-101.487121 203.270986-101.783866-203.270986h-69.14181l20.178725 37.983483 4.747936 9.495871z" fill="#87B916" /><path d="M1041.875087 474.793546c-3.560952-89.02379-63.503637-131.755209-145.108778-131.755209-105.048072 0-153.71441 56.975225-153.71441 143.625047C741.864915 563.817335 789.937762 623.166529 895.876071 623.166529c59.349193 0 125.82029-21.662456 137.690129-85.166093h-61.426415c-21.959201 66.17435-162.320043 67.954826-168.551709-40.060705h237.396773z m-237.396773-16.024283c12.760077-104.751326 170.62893-101.48712 174.783374 0z" fill="#E73238" /><path d="M1209.833304 341.851353A134.722669 134.722669 0 0 0 1101.22428 385.769756V237.396773h-59.349193v313.660486c0 19.288488 0 42.434673-2.077222 61.426415h59.349193c0-11.869839 1.780476-24.036423 1.780476-36.203008A137.986874 137.986874 0 0 0 1208.943066 623.166529a134.425923 134.425923 0 0 0 135.909652-101.487121l1.780476-8.012141a162.913535 162.913535 0 0 0 2.96746-29.674596 135.316161 135.316161 0 0 0-139.76735-142.141318z m-15.727537 239.77074a91.397758 91.397758 0 0 1-92.881487-99.409898 93.178233 93.178233 0 1 1 185.762975 0 91.397758 91.397758 0 0 1-92.881488 99.409898z" fill="#0265D3" /><path d="M1625.277656 563.817335v-122.556084a102.080612 102.080612 0 0 0-8.308887-42.434673l-5.341427-10.089362c-21.36571-34.422532-66.17435-47.182609-116.324419-47.182609-59.349193 0-125.82029 16.024282-132.348701 79.824665H1424.380637c2.670714-25.520153 29.674597-40.357451 64.690621-40.357452 48.072846 0 75.966967 17.804758 75.966967 61.129669v6.231666h-77.153951c-78.934427 0-129.084495 18.694996-142.141318 63.800382l-2.077222 8.605633a104.45458 104.45458 0 0 0 0 17.211266c0 44.511895 38.873722 83.08887 112.169975 83.088871a131.755209 131.755209 0 0 0 114.543943-47.182609q0 18.101504 1.780476 37.389992h55.19475c-1.48373-14.243806-2.077222-31.455072-2.077222-47.479355z m-59.349193-68.548318c0 55.491496-33.235548 89.02379-95.552201 89.02379-46.589117 0-64.690621-24.629915-64.690621-47.7761 0-35.31277 33.532294-45.105387 87.243314-46.885863h72.999508z" fill="#F4AF02" /></svg>