<?xml version="1.0" standalone="no"?><!DOCTYPE svg PUBLIC "-//W3C//DTD SVG 1.1//EN" "http://www.w3.org/Graphics/SVG/1.1/DTD/svg11.dtd"><svg class="icon" width="200px" height="76.76px" viewBox="0 0 2668 1024" version="1.1" xmlns="http://www.w3.org/2000/svg"><path d="M1863.191235 351.349716l-101.402196 203.10089L1660.386843 351.349716h-69.676948l21.644328 40.620178c-20.458338-37.062206-66.415474-50.701098-118.59906-50.701098-59.29953 0-125.715004 16.010873-132.237952 79.757868H1423.188722c2.668479-25.498798 29.649765-40.32368 64.636488-40.323681 48.032619 0 75.903399 17.789859 75.903399 61.078516v6.226451h-77.08939c-79.757868 1.778986-130.162469 18.97585-142.615369 65.525981a141.429379 141.429379 0 0 0 3.557971-32.021747 135.202929 135.202929 0 0 0-139.650393-140.836384A134.609933 134.609933 0 0 0 1100.302781 385.446946V237.19812h-59.29953v243.721069c0-95.472243-61.078516-139.353896-144.987351-139.353896-104.960168 0-153.585783 56.927549-153.585783 143.504863C741.244126 563.345536 789.276746 622.645066 895.126407 622.645066c59.29953 0 125.715004-21.644328 137.57491-85.094826h-61.375014c-21.940826 66.118976-162.184215 67.897962-168.410666-40.027183h237.198121v53.962573c0 19.272347 0 42.399164-2.075484 61.375013h59.29953c0-11.859906 1.778986-24.01631 1.778986-36.172713A137.871407 137.871407 0 0 0 1207.931428 622.645066a134.016938 134.016938 0 0 0 136.388919-104.070675 93.100262 93.100262 0 0 0-2.075483 20.754835c0 44.474648 38.841192 83.019342 112.076112 83.019342a131.644957 131.644957 0 0 0 114.448093-47.143126q0 18.086357 1.778985 37.358704h55.148563c0-15.12138-1.778986-32.318244-1.778985-49.515108v-122.157032a104.663671 104.663671 0 0 0-9.487925-45.36414l114.448093 216.146787L1676.101218 711.594361h66.415474L1927.234728 351.349716z m-1059.386105 105.849661c12.749399-104.663671 170.486149-101.402196 174.637117 0z m389.301415 123.936018a91.321276 91.321276 0 0 1-92.803764-99.326713 93.100262 93.100262 0 1 1 185.607529 0 91.321276 91.321276 0 0 1-92.803765 99.326713z m371.511556-88.949295c0 55.445061-33.207737 88.949295-95.472243 88.949295-46.550131 0-64.636488-24.609305-64.636488-47.736122 0-35.28322 33.504235-45.067643 87.170309-46.846629h72.938422z" /></svg>