<?xml version="1.0" standalone="no"?><!DOCTYPE svg PUBLIC "-//W3C//DTD SVG 1.1//EN" "http://www.w3.org/Graphics/SVG/1.1/DTD/svg11.dtd"><svg t="1647399584378" class="icon" viewBox="0 0 1024 1024" version="1.1" xmlns="http://www.w3.org/2000/svg" p-id="14260" xmlns:xlink="http://www.w3.org/1999/xlink" width="16" height="16"><defs><style type="text/css"></style></defs><path d="M530.962963 56.888889a56.888889 56.888889 0 0 1 113.777778 0v303.407407q0 18.962963 18.962963 18.962963h303.407407a56.888889 56.888889 0 0 1 0 113.777778h-303.407407q-54.992593 0-93.828741-38.912Q530.962963 415.288889 530.962963 360.296296v-303.407407zM56.888889 530.962963h303.407407q54.992593 0 93.828741 38.912 38.912 38.836148 38.912 93.828741v303.407407a56.888889 56.888889 0 0 1-113.777778 0v-303.407407q0-18.962963-18.962963-18.962963h-303.407407a56.888889 56.888889 0 0 1 0-113.777778z" p-id="14261"></path></svg>