<?xml version="1.0" standalone="no"?><!DOCTYPE svg PUBLIC "-//W3C//DTD SVG 1.1//EN" "http://www.w3.org/Graphics/SVG/1.1/DTD/svg11.dtd"><svg t="1650541590881" class="icon" viewBox="0 0 1024 1024" version="1.1" xmlns="http://www.w3.org/2000/svg" p-id="3925" width="16" height="16" xmlns:xlink="http://www.w3.org/1999/xlink"><defs><style type="text/css">@font-face { font-family: feedback-iconfont; src: url("//at.alicdn.com/t/font_1031158_u69w8yhxdu.woff2?t=1630033759944") format("woff2"), url("//at.alicdn.com/t/font_1031158_u69w8yhxdu.woff?t=1630033759944") format("woff"), url("//at.alicdn.com/t/font_1031158_u69w8yhxdu.ttf?t=1630033759944") format("truetype"); }
</style></defs><path d="M983.029991 754.543966l-147.836859-347.512615A255.99456 255.99456 0 0 0 597.758178 249.594696h47.358993a32.639306 32.639306 0 0 0 31.99932-32.639306 31.99932 31.99932 0 0 0-31.99932-31.99932h-47.358993a136.317103 136.317103 0 0 0 113.917579-63.99864A79.358314 79.358314 0 0 0 618.237742 5.119891l-21.119551 7.039851a246.394764 246.394764 0 0 1-163.196532 0L413.442094 5.119891A79.358314 79.358314 0 0 0 320.00408 122.877389a135.677117 135.677117 0 0 0 113.277593 63.99864H384.00272a31.99932 31.99932 0 0 0-31.99932 31.99932 31.99932 31.99932 0 0 0 31.99932 30.719347h30.079361a255.99456 255.99456 0 0 0-237.434955 163.196532L39.690037 759.023871A191.99592 191.99592 0 0 0 219.526215 1023.97824h584.94757a191.99592 191.99592 0 0 0 178.556206-269.434274zM487.04053 583.667597a149.116831 149.116831 0 0 0 44.159062 23.679497 334.712887 334.712887 0 0 1 53.118871 23.03951 147.196872 147.196872 0 0 1 35.199252 23.679497 92.798028 92.798028 0 0 1 21.759538 30.719347 98.557906 98.557906 0 0 1 7.679837 40.319144 90.878069 90.878069 0 0 1-28.799388 69.758517 127.99728 127.99728 0 0 1-78.718328 31.359334v49.918939h-42.879088v-49.918939a127.99728 127.99728 0 0 1-85.758178-36.479225A111.357634 111.357634 0 0 1 384.00272 707.184972h76.798368a63.99864 63.99864 0 0 0 14.719687 46.079021 60.158722 60.158722 0 0 0 44.159062 15.99966 54.398844 54.398844 0 0 0 37.759197-12.159741 39.03917 39.03917 0 0 0 13.439715-31.359334 42.239102 42.239102 0 0 0-12.159742-32.639306 117.117511 117.117511 0 0 0-41.599116-23.039511 531.188712 531.188712 0 0 1-51.198912-20.479565 198.395784 198.395784 0 0 1-36.479225-23.03951 101.757838 101.757838 0 0 1-23.679496-31.359334 98.557906 98.557906 0 0 1-8.319824-42.879089 91.518055 91.518055 0 0 1 28.799388-69.758517A131.837198 131.837198 0 0 1 504.320163 447.99048v-51.198912h42.879089v55.038831a113.917579 113.917579 0 0 1 74.878409 37.119211 117.757498 117.757498 0 0 1 26.879429 79.9983H570.878749a63.99864 63.99864 0 0 0-13.439715-45.439035 44.159062 44.159062 0 0 0-35.839238-11.519755 46.079021 46.079021 0 0 0-33.919279 11.519755 42.239102 42.239102 0 0 0-12.159742 32.639307 41.599116 41.599116 0 0 0 11.519755 27.519415z" p-id="3926"></path></svg>