<?xml version="1.0" standalone="no"?><!DOCTYPE svg PUBLIC "-//W3C//DTD SVG 1.1//EN" "http://www.w3.org/Graphics/SVG/1.1/DTD/svg11.dtd"><svg t="1636879562006" class="icon" viewBox="0 0 1024 1024" version="1.1" xmlns="http://www.w3.org/2000/svg" p-id="2708" xmlns:xlink="http://www.w3.org/1999/xlink" width="32" height="32"><defs><style type="text/css"></style></defs><path d="M873.813333 314.453333l-357.546666 145.92-358.826667-145.92 357.973333-138.24zM128 375.04l357.12 149.333333v403.626667l-88.746667-39.253333-88.746666-38.826667-99.413334-42.666667a128 128 0 0 1-32.853333-21.76 148.48 148.48 0 0 1-25.173333-29.44 133.12 133.12 0 0 1-16.64-34.133333A115.626667 115.626667 0 0 1 128 686.933333z m768 0v310.186667a105.386667 105.386667 0 0 1-8.106667 42.666666 182.613333 182.613333 0 0 1-20.906666 37.973334 197.546667 197.546667 0 0 1-28.16 31.146666 170.666667 170.666667 0 0 1-30.293334 20.906667l-91.306666 35.413333-85.333334 35.84-91.733333 37.973334v-403.2z m0 0" p-id="2709"></path></svg>