<?xml version="1.0" standalone="no"?><!DOCTYPE svg PUBLIC "-//W3C//DTD SVG 1.1//EN" "http://www.w3.org/Graphics/SVG/1.1/DTD/svg11.dtd"><svg class="icon" width="200px" height="88.89px" viewBox="0 0 2304 1024" version="1.1" xmlns="http://www.w3.org/2000/svg"><path d="M545.536 346.112H445.44a43.776 43.776 0 0 0-43.776 43.776v62.72a31.232 31.232 0 0 0 31.232 31.232h125.184a31.232 31.232 0 0 0 30.72-31.232v-62.72a44.032 44.032 0 0 0-43.264-43.776z m6.144 100.096h-112.64v-56.32a6.4 6.4 0 0 1 6.4-5.888h100.096a6.144 6.144 0 0 1 6.144 6.144z" fill="#EB7F51" /><path d="M658.176 465.152v49.92a12.544 12.544 0 0 1-12.544 12.544h-100.096v-12.544a12.544 12.544 0 0 0-12.544-12.544h-75.008a12.544 12.544 0 0 0-12.544 12.544v12.544h-100.096a12.544 12.544 0 0 1-12.544-12.544v-49.92a51.2 51.2 0 0 1 49.92-51.2h225.28a51.2 51.2 0 0 1 50.176 51.2z" fill="#F0AC59" /><path d="M658.176 552.704v75.008a51.2 51.2 0 0 1-51.2 51.2H384a51.2 51.2 0 0 1-49.92-51.2v-75.008a12.544 12.544 0 0 1 12.544-12.544h98.816v12.544a12.544 12.544 0 0 0 12.544 12.544h75.008a12.544 12.544 0 0 0 12.544-12.544v-12.544h100.096a12.544 12.544 0 0 1 12.544 12.544zM781.056 647.168L768 617.472a305.408 305.408 0 0 1 25.6-25.6l7.168-5.888v-88.832h-31.488v-29.952h60.672v116.992a71.168 71.168 0 0 0 66.048 33.28q115.712 0 162.048-1.28c-4.096 10.24-7.168 19.456-9.472 27.392h-162.304a84.224 84.224 0 0 1-70.144-32.256 294.656 294.656 0 0 0-33.536 34.56z m38.144-204.8c-5.632-8.704-15.36-22.784-29.696-41.728l-10.752-14.336 25.6-15.36c3.328 3.84 7.936 10.24 14.336 18.944a438.784 438.784 0 0 1 27.392 34.56z m159.744 162.048a168.96 168.96 0 0 0-6.144-23.808h22.784c7.168 0 16.128-5.12 15.36-17.92v-4.608h-47.616v40.448h-28.672v-39.424H888.32v44.032h-29.696v-159.744h65.536a401.92 401.92 0 0 0-37.12-20.224l-8.192-4.608 16.64-14.336H855.04v-23.808h182.272v25.6l-66.816 36.864h70.4v123.904c0 23.808-10.496 35.84-33.536 35.84a251.904 251.904 0 0 1-28.416 1.792z m-90.624-138.24v25.6h46.336v-25.6z m0 46.336V537.6h46.336v-25.6z m105.984-108.288h-92.928a435.2 435.2 0 0 1 45.312 25.6z m16.64 61.952h-47.616v25.6h47.616zM963.328 512v25.6h47.616v-25.6zM1100.8 653.056l-14.336-8.192a167.936 167.936 0 0 1-15.36-9.472 172.544 172.544 0 0 0 23.808-53.76 392.192 392.192 0 0 0 5.888-78.592V381.44h242.944v227.584c1.536 25.6-11.52 38.912-39.168 38.144h-38.144c0-2.304-1.536-5.888-2.56-10.752a153.6 153.6 0 0 0-4.608-20.224 161.024 161.024 0 0 1 16.64 0h15.616c14.08 0 20.992-4.352 20.224-15.36V563.2h-74.496v81.152h-32V563.2h-72.704A192.256 192.256 0 0 1 1100.8 653.056z m33.28-150.016v32.256h71.424v-47.616h-70.656z m0-91.648v47.616h70.4v-47.616z m177.664 0h-74.496v47.616h75.264z m-75.264 76.8v47.616h75.264v-48.128zM1396.992 423.168v-32h249.088v32h-106.24v179.2H1664v29.952H1382.4v-30.464h122.624v-179.2zM1682.944 592.384v-25.6h35.584v-187.648h216.832v187.136H1971.2v25.6z m18.944 60.672a95.744 95.744 0 0 0-5.888-11.776c-3.072-7.168-5.632-12.288-7.168-15.616a497.92 497.92 0 0 0 102.4-29.696l14.336 21.504a1223.424 1223.424 0 0 1-103.68 35.584z m47.616-248.832v25.6h153.6v-25.6z m0 46.336v23.808h153.6v-23.808z m0 45.312v25.6h153.6v-25.6z m0 46.592v23.808h153.6v-23.808z m204.8 108.288c-39.68-12.8-75.008-23.296-105.984-32.256l12.032-20.224 93.952 22.784 12.032 3.584z" fill="#EB7F51" /></svg>