<?xml version="1.0" standalone="no"?><!DOCTYPE svg PUBLIC "-//W3C//DTD SVG 1.1//EN" "http://www.w3.org/Graphics/SVG/1.1/DTD/svg11.dtd"><svg t="1650541598906" class="icon" viewBox="0 0 1024 1024" version="1.1" xmlns="http://www.w3.org/2000/svg" p-id="4245" width="16" height="16" xmlns:xlink="http://www.w3.org/1999/xlink"><defs><style type="text/css">@font-face { font-family: feedback-iconfont; src: url("//at.alicdn.com/t/font_1031158_u69w8yhxdu.woff2?t=1630033759944") format("woff2"), url("//at.alicdn.com/t/font_1031158_u69w8yhxdu.woff?t=1630033759944") format("woff"), url("//at.alicdn.com/t/font_1031158_u69w8yhxdu.ttf?t=1630033759944") format("truetype"); }
</style></defs><path d="M992 96v256a64 64 0 0 1-64 64h-832a64 64 0 0 1-64-64v-256a64 64 0 0 1 64-64h832a64 64 0 0 1 64 64zM128 480h768v448a64 64 0 0 1-64 64H192a64 64 0 0 1-64-64z m198.4 163.2a12.8 12.8 0 0 0 12.8 12.8h358.4a12.8 12.8 0 0 0 12.8-12.8V576a12.8 12.8 0 0 0-12.8-12.8H339.2a12.8 12.8 0 0 0-12.8 12.8z" p-id="4246"></path></svg>