<?xml version="1.0" standalone="no"?><!DOCTYPE svg PUBLIC "-//W3C//DTD SVG 1.1//EN" "http://www.w3.org/Graphics/SVG/1.1/DTD/svg11.dtd"><svg class="icon" width="200px" height="71.11px" viewBox="0 0 2880 1024" version="1.1" xmlns="http://www.w3.org/2000/svg"><path d="M1294.4 331.84h-39.04v252.8h130.56V547.2h-91.52v-215.36zM1561.6 413.76a86.72 86.72 0 0 0-61.44-24.64 96 96 0 0 0-70.72 29.44 98.88 98.88 0 0 0-29.12 71.04 100.48 100.48 0 0 0 28.8 71.04 93.44 93.44 0 0 0 69.44 29.76 90.88 90.88 0 0 0 64-25.28v19.52H1600v-192h-38.4z m-17.28 122.88a61.12 61.12 0 0 1-88 0 64 64 0 0 1-18.56-45.44 64 64 0 0 1 18.24-45.44 61.44 61.44 0 0 1 88.64 0 67.2 67.2 0 0 1 0 92.48zM1756.16 416.32l0.32-22.4h-132.48v34.56h80.32l-83.2 140.8 0.32 15.36h143.04v-34.88h-87.04l78.72-133.44zM1935.68 413.76a86.72 86.72 0 0 0-61.44-24.64 96 96 0 0 0-70.72 29.44 98.88 98.88 0 0 0-29.12 71.04 100.48 100.48 0 0 0 28.8 71.04 93.44 93.44 0 0 0 69.44 29.76 90.88 90.88 0 0 0 64-25.28v19.52h36.8v-192h-37.76zM1920 536.64a61.12 61.12 0 0 1-88 0 64 64 0 0 1-18.56-45.44 64 64 0 0 1 18.24-45.44 61.44 61.44 0 0 1 88.64 0 67.2 67.2 0 0 1 0 92.48zM2165.76 413.76a86.72 86.72 0 0 0-61.44-24.64 96 96 0 0 0-70.72 29.44 98.56 98.56 0 0 0-28.8 71.04 100.48 100.48 0 0 0 28.48 71.36 93.44 93.44 0 0 0 69.44 29.44 90.88 90.88 0 0 0 64-25.28v19.52h36.8v-258.88h-37.76z m-17.6 123.2a60.8 60.8 0 0 1-43.2 17.92 56.96 56.96 0 0 1-44.16-19.2 64 64 0 0 1-18.56-45.44 64 64 0 0 1 17.92-45.44 59.2 59.2 0 0 1 44.8-19.2 57.92 57.92 0 0 1 44.48 18.56 64 64 0 0 1 17.6 46.72 60.16 60.16 0 0 1-18.88 46.08zM2395.84 393.92v19.84a86.08 86.08 0 0 0-59.84-24.64 96 96 0 0 0-70.72 29.44 102.08 102.08 0 0 0 0 142.08 92.48 92.48 0 0 0 69.44 29.76 90.88 90.88 0 0 0 64-25.28v19.52H2432v-192z m-16.96 142.72a59.2 59.2 0 0 1-43.84 18.24 57.92 57.92 0 0 1-44.16-19.2 64 64 0 0 1-18.88-45.44 64 64 0 0 1 18.24-45.44 58.24 58.24 0 0 1 45.76-19.2 59.52 59.52 0 0 1 44.48 18.56 64 64 0 0 1 18.24 46.4 62.08 62.08 0 0 1-19.84 46.08zM1076.8 333.12c-24.64-16.96-84.8-57.92-114.24-74.24a37.44 37.44 0 0 0-32 0c-35.84 20.16-70.72 42.24-105.6 64a102.08 102.08 0 0 1-116.48 0 813.12 813.12 0 0 1-79.36-50.56 58.24 58.24 0 0 0-82.88 0c-23.04 18.88-66.24 47.68-87.68 60.8a25.6 25.6 0 0 0-11.52 21.12v201.6a30.08 30.08 0 0 0 14.08 25.28l288 182.4a27.84 27.84 0 0 0 29.76 0l294.4-177.92a32 32 0 0 0 14.72-25.6v-206.4a24.64 24.64 0 0 0-11.2-20.48z m-302.08 171.2l-9.6 182.08-9.92-182.4-192-128 201.92 112.32L972.8 384z" /></svg>