<?xml version="1.0" standalone="no"?><!DOCTYPE svg PUBLIC "-//W3C//DTD SVG 1.1//EN" "http://www.w3.org/Graphics/SVG/1.1/DTD/svg11.dtd"><svg t="1650541533702" class="icon" viewBox="0 0 1024 1024" version="1.1" xmlns="http://www.w3.org/2000/svg" p-id="1838" width="16" height="16" xmlns:xlink="http://www.w3.org/1999/xlink"><defs><style type="text/css">@font-face { font-family: feedback-iconfont; src: url("//at.alicdn.com/t/font_1031158_u69w8yhxdu.woff2?t=1630033759944") format("woff2"), url("//at.alicdn.com/t/font_1031158_u69w8yhxdu.woff?t=1630033759944") format("woff"), url("//at.alicdn.com/t/font_1031158_u69w8yhxdu.ttf?t=1630033759944") format("truetype"); }
</style></defs><path d="M925.44 296.32a87.04 87.04 0 0 0-78.08-48h-166.4V135.68a64 64 0 0 0-67.2-64H64a64 64 0 0 0-64 64v643.2a64 64 0 0 0 64 64h46.72a108.8 108.8 0 1 0 217.6 0h362.24a108.8 108.8 0 1 0 217.6 0h64a49.92 49.92 0 0 0 49.92-49.92V487.68zM545.28 591.36l-19.2 40.32a25.6 25.6 0 0 1-34.56 11.52l-192-94.08a26.88 26.88 0 0 1-14.08-23.04v-243.2a25.6 25.6 0 0 1 25.6-25.6h44.8a25.6 25.6 0 0 1 25.6 25.6v183.04a24.96 24.96 0 0 0 14.08 23.04l138.24 68.48a24.96 24.96 0 0 1 11.52 33.92z" p-id="1839"></path></svg>