<?xml version="1.0" standalone="no"?><!DOCTYPE svg PUBLIC "-//W3C//DTD SVG 1.1//EN" "http://www.w3.org/Graphics/SVG/1.1/DTD/svg11.dtd"><svg class="icon" width="16px" height="1.82px" viewBox="0 0 8996 1024" version="1.1" xmlns="http://www.w3.org/2000/svg"><path d="M800.182857 393.142857v214.381714h236.178286a288.182857 288.182857 0 0 1-95.305143 130.852572c-52.443429 40.667429-119.149714 59.026286-185.636571 59.026286H514.925714c-62.171429 0-124.342857-16.384-174.665143-52.882286a285.988571 285.988571 0 0 1-118.491428-264.996572c5.485714-51.492571 25.234286-100.937143 56.758857-141.897142a285.403429 285.403429 0 0 1 227.84-112.786286h702.025143V9.801143H506.368a501.321143 501.321143 0 1 0 0 1002.715428h260.315429a501.321143 501.321143 0 0 0 440.100571-261.12v262.802286h214.454857v-620.982857h-620.982857z" fill="#0045F0" /><path d="M1636.352 178.980571V9.801143h-214.528V393.508571h401.700571V178.980571h-187.172571z" fill="#EE7C30" /><path d="M3729.554286 1010.249143l-165.083429-291.84 98.157714-56.758857 164.937143 291.84-98.011428 56.758857zM4636.745143 171.812571c-39.204571-24.429714-89.380571-38.034286-141.165714-38.034285h-211.382858L4290.56 13.750857h-120.027429L4169.142857 47.030857c-1.170286 29.403429-3.072 58.514286-5.12 86.747429h-245.321143v101.156571h237.787429l-4.608 50.761143c-30.354286 286.646857-92.379429 473.453714-212.918857 649.362286l-10.386286 15.872 100.498286 57.782857 13.970285-20.48a1213.878857 1213.878857 0 0 0 165.668572-350.793143c29.622857-101.229714 50.176-214.381714 63.488-351.597714 1.609143-14.628571 3.145143-32.621714 4.608-50.907429h218.843428c54.272 0 90.258286 25.965714 90.258286 43.300572v562.029714c0 17.627429-35.181714 43.227429-90.258286 43.227428h-219.428571v101.083429h219.428571c52.077714 0 102.107429-13.165714 140.873143-37.083429 44.470857-27.428571 68.827429-65.536 68.827429-107.227428V278.235429c0-40.374857-24.941714-79.067429-68.608-106.422858zM2383.725714 386.852571c23.332571 408.356571-87.259429 588.141714-88.210285 589.824l110.006857 30.866286c3.364571-5.632 55.442286-96.329143 80.530285-313.124571a2048.731429 2048.731429 0 0 0 10.752-307.565715h-113.078857z m615.716572 562.395429l100.059428 57.929143c150.162286-171.593143 176.420571-294.619429 178.029715-300.982857l-109.348572-28.672c-0.365714 1.243429-35.254857 129.536-168.740571 271.725714z m-43.739429-562.395429h-119.442286v601.746286h119.442286V386.852571z m46.299429-155.501714h-274.505143V153.6h274.285714V52.662857H2321.554286V153.6h286.500571v77.750857H2320.822857v101.083429h287.305143v656.091428h119.515429v-656.091428h274.505142V231.350857z m2241.609143-156.525714h-271.36c-98.962286 0-179.419429 56.100571-179.419429 125.366857v659.748571c0 71.606857 77.165714 125.44 179.492571 125.44h271.36c102.253714 0 179.419429-53.833143 179.419429-125.366857V200.192c0-69.266286-80.457143-125.44-179.492571-125.44z m3412.918857 46.811428h-684.251429V971.337143h120.685714v-226.596572h567.149715c82.578286 0 160.182857-32.694857 218.477714-91.940571a311.076571 311.076571 0 0 0 89.746286-221.476571 312.466286 312.466286 0 0 0-311.808-309.76zM7785.984 364.251429c0-133.851429-107.666286-242.688-240.128-242.688H6788.315429V971.337143h123.026285V607.085714h519.753143l254.683429 364.324572h157.257143l-257.536-368.420572a241.737143 241.737143 0 0 0 200.484571-238.592zM5607.570286 545.28a423.936 423.936 0 0 0 122.88 301.056 414.866286 414.866286 0 0 0 297.472 125.074286h598.601143v-122.002286h-598.601143a296.228571 296.228571 0 0 1-212.845715-89.819429 302.738286 302.738286 0 0 1-80.676571-152.137142h892.123429V485.522286H5734.546286a304.347429 304.347429 0 0 1 296.96-241.883429h595.017143V121.636571h-594.358858c-233.472 0-423.936 190.025143-424.594285 423.643429z m-303.835429 314.733714c0 7.021714-20.992 24.283429-59.977143 24.283429h-271.36c-38.985143 0-59.977143-17.261714-59.977143-24.283429V200.192c0-7.168 20.992-24.429714 59.977143-24.429714h271.36c38.985143 0 59.977143 17.261714 59.977143 24.429714v659.748571zM3120.274286 601.819429c30.646857 20.772571 71.168 32.182857 114.176 32.182857h379.904c95.232 0 169.910857-55.076571 169.910857-125.44V165.156571c0-35.986286-19.748571-69.997714-54.125714-93.330285-30.573714-20.699429-71.168-32.036571-114.102858-32.036572h-45.494857V38.985143h-248.685714v0.731428h-85.796571c-95.305143 0-169.910857 55.076571-169.910858 125.44v343.405715c0 35.986286 19.748571 69.997714 54.125715 93.330285z m5539.913143 20.918857h-567.149715V243.638857h567.149715c103.350857 0 187.538286 85.065143 187.538285 189.513143 0 104.594286-84.187429 189.586286-187.538285 189.586286z m-5474.523429-114.102857V165.083429c0-8.630857 19.090286-24.283429 50.395429-24.283429h379.904c29.769143 0 48.786286 14.336 48.786285 24.283429v343.405714c0 8.557714-19.163429 24.356571-50.395428 24.356571h-379.904c-29.769143 0-48.786286-14.409143-48.786286-24.356571z m3725.677714-24.064V244.077714h634.514286c65.609143 0 118.930286 53.906286 118.930286 120.246857 0 66.267429-53.321143 120.246857-118.930286 120.246858h-634.514286z" fill="#FFFFFF" fill-opacity=".6" /></svg>