<svg width="25" height="14" viewBox="0 0 25 14" fill="none" xmlns="http://www.w3.org/2000/svg">
<path d="M10.9398 5.37575V8.30673H14.1686C13.9214 8.99973 13.4781 9.61867 12.8662 10.0949C12.1486 10.6517 11.237 10.9026 10.3274 10.9026H7.03992C6.19066 10.9026 5.34004 10.6784 4.65224 10.1791C3.48098 9.33144 2.88033 7.9775 3.0323 6.55604C3.10704 5.8522 3.37665 5.17681 3.80817 4.61636C4.57027 3.62755 5.70405 3.0741 6.92318 3.0741H16.5209V0.134766H6.92318C3.1373 0.134766 0.0683594 3.20326 0.0683594 6.98892C0.0683594 10.7748 3.1373 13.8433 6.92318 13.8433H10.4817C13.0775 13.8433 15.3347 12.3999 16.499 10.2733V13.8661H19.4306V5.37575H10.9398Z" fill="#0045F0"/>
<path d="M22.3722 2.44748V0.134766H19.4395V5.37959H24.9318V2.44748H22.3722Z" fill="#EE7C30"/>
</svg>
