<?xml version="1.0" standalone="no"?><!DOCTYPE svg PUBLIC "-//W3C//DTD SVG 1.1//EN" "http://www.w3.org/Graphics/SVG/1.1/DTD/svg11.dtd"><svg t="1647399544043" class="icon" viewBox="0 0 1024 1024" version="1.1" xmlns="http://www.w3.org/2000/svg" p-id="12389" xmlns:xlink="http://www.w3.org/1999/xlink" width="16" height="16"><defs><style type="text/css"></style></defs><path d="M444.373229 45.316598a73.14496 73.14496 0 0 1 140.786449 27.901315v4.799538a365.852787 365.852787 0 0 1 292.451852 358.365507v266.278371c0 2.303778 0.767926 4.543563 2.047803 6.463378l75.000781 108.597547a63.993841 63.993841 0 0 1-52.666931 100.342342h-246.376286a150.385525 150.385525 0 0 1-287.332344 0H121.97226a63.993841 63.993841 0 0 1-52.666931-100.342342l74.936788-108.597547a11.390904 11.390904 0 0 0 2.047803-6.463378V436.382958a365.788793 365.788793 0 0 1 292.579839-358.365507v-4.799538c0-9.919045 1.919815-19.32614 5.50347-27.901315z m396.633824 776.757237l-40.31612-58.426376a105.077886 105.077886 0 0 1-19.00617-60.98613V436.382958c0-74.48883-26.365462-138.034714-78.968399-190.701645-52.666931-52.666931-116.276808-79.032393-190.701645-79.032393-74.48883 0-138.098708 26.365462-190.701645 79.032393-52.666931 52.666931-79.032393 116.212815-79.032394 190.701645v266.278371c0 22.33385-6.33539 42.683892-19.00617 60.98613l-40.31612 58.426376h658.048663z" p-id="12390"></path></svg>