<?xml version="1.0" standalone="no"?><!DOCTYPE svg PUBLIC "-//W3C//DTD SVG 1.1//EN" "http://www.w3.org/Graphics/SVG/1.1/DTD/svg11.dtd"><svg t="1650541562963" class="icon" viewBox="0 0 1024 1024" version="1.1" xmlns="http://www.w3.org/2000/svg" p-id="2802" width="16" height="16" xmlns:xlink="http://www.w3.org/1999/xlink"><defs><style type="text/css">@font-face { font-family: feedback-iconfont; src: url("//at.alicdn.com/t/font_1031158_u69w8yhxdu.woff2?t=1630033759944") format("woff2"), url("//at.alicdn.com/t/font_1031158_u69w8yhxdu.woff?t=1630033759944") format("woff"), url("//at.alicdn.com/t/font_1031158_u69w8yhxdu.ttf?t=1630033759944") format("truetype"); }
</style></defs><path d="M960 236.8l-172.8-169.6A120.32 120.32 0 0 0 704 32H152.32A120.32 120.32 0 0 0 32 151.68v720.64a120.32 120.32 0 0 0 120.32 119.68h719.36a120.32 120.32 0 0 0 120.32-119.68V320a120.32 120.32 0 0 0-32-83.2zM576 552.96a32 32 0 0 1-32 32h-384a32 32 0 0 1-32-32v-32a32 32 0 0 1 32-32h384a32 32 0 0 1 32 32z m192-216.96a32 32 0 0 1-32 32h-576a32 32 0 0 1-32-32v-32a32 32 0 0 1 32-32h576a32 32 0 0 1 32 32z" p-id="2803"></path></svg>