<?xml version="1.0" standalone="no"?><!DOCTYPE svg PUBLIC "-//W3C//DTD SVG 1.1//EN" "http://www.w3.org/Graphics/SVG/1.1/DTD/svg11.dtd"><svg t="1645150974936" class="icon" viewBox="0 0 1024 1024" version="1.1" xmlns="http://www.w3.org/2000/svg" p-id="6759" xmlns:xlink="http://www.w3.org/1999/xlink" width="16" height="16"><defs><style type="text/css"></style></defs><path d="M311.761455 715.403636l83.688727-58.368 170.728727 170.821819c7.074909-14.336 13.312-37.794909 4.002909-75.589819L569.716364 750.312727l-0.372364-2.048a605.556364 605.556364 0 0 1-4.654545-36.957091v-0.930909l-0.186182-0.930909c-3.165091-40.494545 12.753455-82.850909 26.903272-112.174545 16.197818-33.792 39.936-70.283636 69.53891-102.586182l0.186181-0.186182c38.632727-41.890909 95.418182-85.457455 163.002182-85.457454 5.12 0 10.053818 0.093091 13.405091 0.279272h0.372364l7.261091 0.186182h4.561454c14.242909 0.744727 22.341818 0.744727 28.858182-0.465454a18.245818 18.245818 0 0 0 4.189091-1.210182l0.744727-0.744728a8.378182 8.378182 0 0 0 2.048-2.792727 11.636364 11.636364 0 0 0-2.792727-12.474182c-2.606545-2.699636-220.346182-220.346182-251.345455-250.973091a10.705455 10.705455 0 0 0-12.567272 1.95491 18.432 18.432 0 0 0-1.117091 4.002909c-1.210182 6.423273-1.210182 13.870545-0.744728 28.392727 0.558545 9.495273 0.558545 18.897455 0.558546 24.948364v0.930909c0 40.96-17.687273 77.265455-34.443636 102.958545a366.405818 366.405818 0 0 1-69.53891 77.358546 390.981818 390.981818 0 0 1-91.415272 58.926545c-27.834182 12.567273-68.608 26.065455-110.312728 19.549091l-1.861818-0.372364-1.861818-0.279272-0.372364-0.093091a39.098182 39.098182 0 0 0-1.489454-0.186182l-4.933818-0.465455c-0.465455 0-1.117091 0-1.675637-0.186182l-3.816727-0.279272-1.861818-0.279273a154.810182 154.810182 0 0 1-12.381091-1.861818l-1.861818-0.372364-1.954909-0.465454c-39.005091-9.495273-63.301818-3.444364-78.196364 3.723636l174.08 172.869818-61.905454 83.781818z m280.762181 219.694546c-18.618182 11.170909-42.356364 8.378182-57.250909-6.516364L384.744727 777.867636l-46.173091 32.209455-217.181091 158.440727a44.683636 44.683636 0 0 1-26.996363 8.843637 46.638545 46.638545 0 0 1-37.236364-74.100364l193.815273-262.330182-152.389818-151.458909a47.290182 47.290182 0 0 1-7.447273-56.413091c7.447273-11.636364 69.818182-102.586182 208.709818-68.514909 1.303273 0.279273 2.513455 0.372364 3.723637 0.465455a51.572364 51.572364 0 0 1 3.723636 0.465454l1.396364 0.093091c5.306182 0.465455 11.357091 0.930909 17.687272 2.234182 29.416727 4.654545 81.640727-18.618182 126.789818-57.344 43.380364-36.770909 71.307636-79.685818 71.307637-109.474909 0-6.981818 0-14.429091-0.465455-21.410909v-1.117091c-0.930909-27.927273-2.327273-70.190545 28.858182-101.469091A103.796364 103.796364 0 0 1 692.410182 70.097455c0.558545 0.279273 0.930909 0.837818 1.396363 1.396363l0.93091 0.930909c22.341818 21.876364 250.042182 249.483636 253.952 253.486546 19.549091 19.549091 30.72 46.173091 30.72 74.100363 0 27.927273-10.705455 54.085818-30.72 73.634909-31.650909 31.650909-75.031273 30.347636-103.424 28.858182-3.258182 0-6.702545 0-10.24-0.186182l-10.798546-0.186181c-27.927273 0-61.44 19.549091-94.580364 55.389091-46.08 50.362182-74.472727 115.153455-72.238545 144.47709 0.930909 9.309091 2.792727 25.693091 3.258182 27.927273 33.512727 136.192-57.344 198.097455-67.956364 205.079273z" p-id="6760"></path></svg>