<?xml version="1.0" standalone="no"?><!DOCTYPE svg PUBLIC "-//W3C//DTD SVG 1.1//EN" "http://www.w3.org/Graphics/SVG/1.1/DTD/svg11.dtd"><svg t="1645150979771" class="icon" viewBox="0 0 1024 1024" version="1.1" xmlns="http://www.w3.org/2000/svg" p-id="6896" xmlns:xlink="http://www.w3.org/1999/xlink" width="16" height="16"><defs><style type="text/css"></style></defs><path d="M591.189333 727.978667l-35.242666 225.28a37.888 37.888 0 0 1-10.837334 21.418666 39.509333 39.509333 0 0 1-66.816-22.016l-41.045333-273.578666-182.186667 0.597333A40.106667 40.106667 0 0 1 216.746667 650.24c-2.56-11.52-19.541333-103.424 84.138666-166.314667 1.706667-1.109333 3.072-2.474667 5.034667-3.84 3.584-3.072 7.850667-6.741333 12.8-10.069333 20.48-14.848 37.802667-60.074667 41.642667-110.421333 3.925333-48.042667-5.034667-90.453333-22.869334-108.373334-4.266667-4.266667-8.704-8.704-13.141333-12.544-17.322667-16.213333-44.117333-40.874667-44.117333-78.848 0-45.226667 34.133333-83.285333 79.36-87.722666 0.853333-0.256 1.706667 0 2.730666 0C388.864 71.936 663.893333 71.936 666.624 71.936c23.466667 0 46.08 9.216 62.890667 25.941333 16.725333 16.810667 25.941333 38.826667 25.685333 62.634667 0 37.973333-26.794667 63.146667-44.714667 79.36-3.925333 3.84-8.618667 8.106667-12.8 12.288-16.810667 16.725333-25.173333 48.64-23.466666 89.941333 2.474667 57.856 24.234667 113.749333 43.264 129.962667 6.144 5.034667 17.066667 13.653333 18.773333 14.762667 101.632 61.44 84.309333 153.173333 82.090667 163.754666a39.850667 39.850667 0 0 1-38.229334 30.464H599.552l-8.362667 46.933334z" p-id="6897"></path></svg>