<svg width="16" height="16" viewBox="0 0 16 16" fill="none" xmlns="http://www.w3.org/2000/svg">
<rect width="16" height="14" rx="2" fill="#666883"/>
<rect x="7" y="11.0879" width="2" height="4" fill="#666883"/>
<rect x="3" y="15" width="10" height="1" rx="0.5" fill="#666883"/>
<path fill-rule="evenodd" clip-rule="evenodd" d="M7.49902 2.5C7.22288 2.5 6.99902 2.72386 6.99902 3V3.64523C6.467 3.80374 5.98803 4.08535 5.59514 4.45703L5.03527 4.13379C4.79612 3.99572 4.49033 4.07765 4.35226 4.3168L3.85226 5.18283C3.71418 5.42197 3.79612 5.72777 4.03527 5.86584L4.59451 6.18872C4.53271 6.44909 4.5 6.72072 4.5 7C4.5 7.27915 4.53268 7.55067 4.59443 7.81094L4.03524 8.13379C3.79609 8.27186 3.71416 8.57766 3.85223 8.8168L4.35223 9.68283C4.4903 9.92197 4.79609 10.0039 5.03524 9.86584L5.59488 9.54273C5.98782 9.91453 6.46689 10.1962 6.99902 10.3548V11C6.99902 11.2761 7.22288 11.5 7.49902 11.5H8.49902C8.77517 11.5 8.99902 11.2761 8.99902 11V10.3554C9.53172 10.197 10.0113 9.91522 10.4046 9.54319L10.9635 9.86584C11.2026 10.0039 11.5084 9.92197 11.6465 9.68283L12.1465 8.8168C12.2846 8.57766 12.2026 8.27186 11.9635 8.13379L11.4054 7.8116C11.4673 7.55113 11.5 7.27939 11.5 7C11.5 6.72049 11.4672 6.44863 11.4053 6.18806L11.9634 5.86584C12.2026 5.72777 12.2845 5.42197 12.1465 5.18283L11.6465 4.3168C11.5084 4.07766 11.2026 3.99572 10.9634 4.13379L10.4044 4.45657C10.0111 4.08466 9.53161 3.80298 8.99902 3.64465V3C8.99902 2.72386 8.77517 2.5 8.49902 2.5H7.49902Z" fill="#CCCDD6"/>
<circle cx="8" cy="7" r="1.5" fill="#666883"/>
</svg>
