<?xml version="1.0" standalone="no"?><!DOCTYPE svg PUBLIC "-//W3C//DTD SVG 1.1//EN" "http://www.w3.org/Graphics/SVG/1.1/DTD/svg11.dtd"><svg class="icon" width="16px" height="16.00px" viewBox="0 0 1024 1024" version="1.1" xmlns="http://www.w3.org/2000/svg"><path d="M21.70021621 21.70021621m122.57494721 0l735.44967316 0q122.57494553 0 122.57494721 122.57494721l0 735.44967316q0 122.57494553-122.57494721 122.57494721l-735.44967316 0q-122.57494553 0-122.57494721-122.57494721l0-735.44967316q0-122.57494553 122.57494721-122.57494721Z" fill="#0045F0" /><path d="M359.88449182 492.878308l-106.6402016 325.0687559H167.19667781l145.74161028-392.11725149h54.66842532l-7.78350834 67.04849559z m88.56039952 325.0687559l-106.88535367-325.0687559-8.5802462-67.04849559h55.15872606l146.47705972 392.11725149h-86.17018591z m-4.8417106-145.98675897v63.30995831h-207.15165907V671.96030493h207.15165907z m247.78525165 145.98675897h-85.37344971l0.55158751-63.00352115h84.8218622c21.20546513 0 39.04012021-4.78042217 53.6265388-14.27998143 14.5251318-9.68342118 25.49558825-23.77953899 32.85008593-42.28835677 7.53835964-18.50881609 11.27689525-40.81745623 11.27689526-67.04849558v-19.12169034a196.1199125 196.1199125 0 0 0-6.43518466-53.07495127 105.59831506 105.59831506 0 0 0-18.57010452-38.48853441c-8.27380909-10.41887063-18.38624259-18.2636674-30.45987402-23.47310186a100.51145578 100.51145578 0 0 0-41.4916189-8.02865873h-87.76366164v-63.30995995h87.76366164c26.23103766 0 50.25572704 4.47398503 71.95149292 13.48324522 21.87962782 8.76410814 40.81745623 21.4506155 56.81348689 37.998232 15.93474223 16.48632972 28.25352571 36.15960923 36.89505867 59.2036988 8.82539658 22.79893918 13.17680643 48.23324067 13.1768081 76.2416177v18.57010284c0 27.82451341-4.35140985 53.19752647-13.1768081 76.1803293a163.82141574 163.82141574 0 0 1-93.7698323 97.26321921 193.54583865 193.54583865 0 0 1-72.68694407 13.17680642z m-39.59170604-392.11725149v392.11725149h-80.77688949v-392.11725149h80.77688949z" fill="#FFFFFF" /><path d="M499.43606782 128.46299471m30.64373596 0l0 0q30.64373596 0 30.64373763 30.64373596l0 61.2874736q0 30.64373596-30.64373763 30.64373596l0 0q-30.64373596 0-30.64373596-30.64373596l0-61.2874736q0-30.64373596 30.64373596-30.64373596Z" fill="#EE7C30" /><path d="M340.5176511 175.16404975m25.91740121-16.35013341l0 0q25.91740121-16.35013339 42.26753627 9.56726781l32.70026679 51.83480405q16.35013339 25.91740121-9.56726948 42.26753627l0 0q-25.91740121 16.35013339-42.26753458-9.56726947l-32.7002668-51.83480406q-16.35013339-25.91740121 9.5672678-42.2675346Z" fill="#EE7C30" /><path d="M719.68502527 175.16815388m-25.91740286-16.35013342l0 0q-25.91740121-16.35013339-42.26753459 9.56726946l-32.70026681 51.83480238q-16.35013339 25.91740121 9.56726945 42.26753627l0 0q25.91740121 16.35013339 42.2675346-9.56726948l32.7002668-51.83480405q16.35013339-25.91740121-9.56726945-42.26753458Z" fill="#EE7C30" /></svg>