<?xml version="1.0" standalone="no"?><!DOCTYPE svg PUBLIC "-//W3C//DTD SVG 1.1//EN" "http://www.w3.org/Graphics/SVG/1.1/DTD/svg11.dtd"><svg class="icon" width="16px" height="16.00px" viewBox="0 0 1024 1024" version="1.1" xmlns="http://www.w3.org/2000/svg"><path d="M52.3439527 52.3439527m114.91401301 0l689.48406858 0q114.91401143 0 114.91401301 114.91401301l0 574.57005715q0 114.91401143-114.91401301 114.91401143l-689.48406858 0q-114.91401143 0-114.91401301-114.91401143l0-574.57005715q0-114.91401143 114.91401301-114.91401301Z" fill="#0045F0" /><path d="M483.21403963 195.98646818a28.72850246 28.72850246 0 0 0-28.72850247 28.72850245v37.05976967a200.92714985 200.92714985 0 0 0-80.66963663 46.65508872l-32.17592326-18.55861378a28.72850246 28.72850246 0 0 0-39.24313386 10.51463297l-28.72850404 49.75776682a28.72850246 28.72850246 0 0 0 10.51463297 39.24313386l32.17592327 18.55861378a201.67409002 201.67409002 0 0 0 0 93.19526323l-32.17592327 18.5586122a28.72850246 28.72850246 0 0 0-10.51463297 39.24313543l28.72850404 49.75776683a28.72850246 28.72850246 0 0 0 39.24313386 10.51463296l32.17592326-18.55861377c22.58060261 21.37400548 50.10250954 37.51942502 80.66963663 46.65508873V684.37101793a28.72850246 28.72850246 0 0 0 28.72850247 28.72850245h57.4570065a28.72850246 28.72850246 0 0 0 28.72850247-28.72850245v-37.05976965a200.92714985 200.92714985 0 0 0 80.78455087-46.65508873l32.06100903 18.55861377a28.72850246 28.72850246 0 0 0 39.24313541-10.51463296l28.72850247-49.75776683a28.72850246 28.72850246 0 0 0-10.51463296-39.24313543l-32.06100903-18.50115586a201.50171945 201.50171945 0 0 0 0-93.31017748l32.06100903-18.50115587a28.72850246 28.72850246 0 0 0 10.51463296-39.24313386l-28.72850247-49.75776682a28.72850246 28.72850246 0 0 0-39.24313541-10.51463297l-32.11846693 18.55861378A200.92714985 200.92714985 0 0 0 569.4570065 261.7747403V224.71497063a28.72850246 28.72850246 0 0 0-28.72850404-28.72850245h-57.45700492z" fill="#FFFFFF" /><path d="M512 454.5429935m-86.18550897 0a86.18550897 86.18550897 0 1 0 172.37101794 0 86.18550897 86.18550897 0 1 0-172.37101794 0Z" fill="#EE7C30" /><path d="M454.5429935 804.91581594h114.914013v114.33944183h-114.914013z" fill="#0045F0" /><path d="M224.71497063 914.1990408m28.72850247 0l517.1130538 0q28.72850246 0 28.72850247 28.72850245l0 0q0 28.72850246-28.72850247 28.72850405l-517.1130538 0q-28.72850246 0-28.72850247-28.72850405l0 0q0-28.72850246 28.72850247-28.72850245Z" fill="#0045F0" /></svg>