<?xml version="1.0" standalone="no"?><!DOCTYPE svg PUBLIC "-//W3C//DTD SVG 1.1//EN" "http://www.w3.org/Graphics/SVG/1.1/DTD/svg11.dtd"><svg class="icon" width="16px" height="16.00px" viewBox="0 0 1024 1024" version="1.1" xmlns="http://www.w3.org/2000/svg"><path d="M189.7504683 421.90741486a245.14989105 245.14989105 0 0 1 227.98939864-155.05730591h172.03393639a245.14989105 245.14989105 0 0 1 225.78305031 149.54143263l139.85801314 330.33947885c51.29761529 121.22662182-37.69179654 255.56876169-169.33728732 255.56876336h-555.26450457c-129.80686803 0-218.73499143-130.78746785-170.99204981-251.40121377l129.92944322-328.99115516zM326.1150945 146.91052403c-39.1626954-60.5520225 20.71516607-136.24205271 88.68297304-112.1560749l19.73456625 7.04805891c50.0718651 17.83465507 104.80157887 17.83465507 154.93473242 0l19.73456625-6.98677214c67.96780695-24.14726454 127.84566842 51.48147723 88.68297304 112.09478813A128.33596751 128.33596751 0 0 1 590.14152721 205.56263534h-156.28305442c-43.51410527 0-84.14769955-22.06348976-107.74337829-58.65211131z" fill="#0045F0" /><path d="M575.49382192 736.92502573c0-15.81216873-4.78042217-28.37609925-14.27998142-37.69179656-9.31569565-9.43827083-25.25043955-18.14109221-47.80422838-26.10846248a615.32622797 615.32622797 0 0 1-58.40696262-23.47310189 197.89725018 197.89725018 0 0 1-42.1657799-26.96648877 113.19796314 113.19796314 0 0 1-27.33421434-35.97574729 114.85272395 114.85272395 0 0 1-9.62213275-49.02997689c0-32.66622233 11.15432006-59.44884918 33.5242486-80.28659043 22.30864012-20.83774125 52.09435146-33.09523463 89.11198534-36.52733312V358.78131851h49.64285278v62.94223441c36.6499083 4.8417106 65.33244634 19.121692 85.98632401 42.90123102 20.71516607 23.59567705 31.07274827 54.23941302 31.07274825 91.93120956h-89.72485957c0-23.16666475-5.20943449-40.44973236-15.50572995-51.91048952-10.17372028-11.64461913-23.84082742-17.40564278-41.00131981-17.4056428-16.97663045 0-30.09214845 4.53527346-39.40784579 13.66710551-9.31569565 8.88668332-13.97354429 21.26675357-13.97354263 37.0789223 0 14.70899374 4.53527346 26.53747648 13.6671055 35.42415812 9.07054527 8.88668332 25.92460054 17.95723026 50.56216583 27.21163915 24.88271399 9.31569565 45.23015452 18.07980378 61.16489675 26.41489962 15.93474223 8.08994714 29.41798745 17.40564278 40.38844559 27.82451343 10.97045812 10.23500869 19.3668407 22.06348976 25.12786436 35.42415977 5.82231041 13.11551967 8.70282139 28.49867442 8.70281972 46.08817915 0 32.85008595-10.97045812 59.51013594-32.9113727 80.04144004-21.94091457 20.47001569-52.15563993 32.54364881-90.70545939 36.22089601v57.73279995h-49.33641567v-57.42636283c-42.41093195-4.29012309-75.32230466-18.2636674-98.67283133-42.04320638-23.2279515-23.96340261-34.81128389-55.77160034-34.81128389-95.42459481h89.72485957c0 23.04408957 5.82231041 40.69488271 17.40564278 53.07495129 11.7671943 12.19620662 28.68253802 18.2636674 50.56216417 18.26366737 18.2636674 0 32.60493557-4.41269828 43.20766816-13.29938158a45.78174201 45.78174201 0 0 0 15.81216873-36.58862156z" fill="#FFFFFF" /><path d="M358.78131851 205.56263534m30.64373596 0l245.14989106 0q30.64373596 0 30.64373596 30.64373597l0 0q0 30.64373596-30.64373596 30.64373764l-245.14989106 0q-30.64373596 0-30.64373596-30.64373764l0 0q0-30.64373596 30.64373596-30.64373597Z" fill="#EE7C30" /></svg>