<?xml version="1.0" standalone="no"?><!DOCTYPE svg PUBLIC "-//W3C//DTD SVG 1.1//EN" "http://www.w3.org/Graphics/SVG/1.1/DTD/svg11.dtd"><svg t="1644838757066" class="icon" viewBox="0 0 1024 1024" version="1.1" xmlns="http://www.w3.org/2000/svg" p-id="4021" xmlns:xlink="http://www.w3.org/1999/xlink" width="16" height="16"><defs><style type="text/css"></style></defs><path d="M0 160a64 64 0 0 1 64-64h512a64 64 0 0 1 64 64v640H64a64 64 0 0 1-64-64v-576zM640 224h168.832a64 64 0 0 1 40.96 14.848L1000.96 364.8a64 64 0 0 1 23.04 49.152V736a64 64 0 0 1-64 64h-320v-576z" fill="#0045F0" p-id="4022"></path><path d="M715.456 305.408h91.392l141.76 123.264v94.72h-233.152V305.408z" fill="#EE7C30" p-id="4023"></path><path d="M384 800a128 128 0 1 1-256 0 128 128 0 0 1 256 0z" fill="#0045F0" p-id="4024"></path><path d="M256 697.6a102.4 102.4 0 1 0 0 204.8 102.4 102.4 0 0 0 0-204.8z m-153.6 102.4a153.6 153.6 0 1 1 307.2 0 153.6 153.6 0 0 1-307.2 0z" fill="#F7F9FF" p-id="4025"></path><path d="M896 800a128 128 0 1 1-256 0 128 128 0 0 1 256 0z" fill="#0045F0" p-id="4026"></path><path d="M768 697.6a102.4 102.4 0 1 0 0 204.8 102.4 102.4 0 0 0 0-204.8z m-153.6 102.4a153.6 153.6 0 1 1 307.2 0 153.6 153.6 0 0 1-307.2 0z" fill="#F7F9FF" p-id="4027"></path></svg>