<?xml version="1.0" standalone="no"?><!DOCTYPE svg PUBLIC "-//W3C//DTD SVG 1.1//EN" "http://www.w3.org/Graphics/SVG/1.1/DTD/svg11.dtd"><svg t="1644838844428" class="icon" viewBox="0 0 1024 1024" version="1.1" xmlns="http://www.w3.org/2000/svg" p-id="7364" xmlns:xlink="http://www.w3.org/1999/xlink" width="16" height="16"><defs><style type="text/css"></style></defs><path d="M128 832h847.424v96H128z" fill="#0045F0" p-id="7365"></path><path d="M768 832h208a48 48 0 0 1 48 48V896a128 128 0 1 1-256 0v-64z" fill="#0045F0" p-id="7366"></path><path d="M288 0m64 0l608 0q64 0 64 64l0 608q0 64-64 64l-608 0q-64 0-64-64l0-608q0-64 64-64Z" fill="#0045F0" p-id="7367"></path><path d="M592 144h128v256h-128zM656 592l-192-192h384l-192 192z" fill="#EE7C30" p-id="7368"></path><path d="M128 896m-128 0a128 128 0 1 0 256 0 128 128 0 1 0-256 0Z" fill="#0045F0" p-id="7369"></path><path d="M33.6 26.88a48 48 0 0 1 67.584 6.72l54.016 66.176c16.384 19.968 25.344 45.056 25.344 70.848V896a48 48 0 0 1-96 0V170.624a16 16 0 0 0-3.648-10.112L26.88 94.4A48 48 0 0 1 33.6 26.816z" fill="#0045F0" p-id="7370"></path></svg>