<?xml version="1.0" standalone="no"?><!DOCTYPE svg PUBLIC "-//W3C//DTD SVG 1.1//EN" "http://www.w3.org/Graphics/SVG/1.1/DTD/svg11.dtd"><svg t="1647434785735" class="icon" viewBox="0 0 1024 1024" version="1.1" xmlns="http://www.w3.org/2000/svg" p-id="8379" xmlns:xlink="http://www.w3.org/1999/xlink" width="16" height="16"><defs><style type="text/css"></style></defs><path d="M811.80197326 27.32232189A130.74660857 130.74660857 0 0 0 719.36412081-10.98643604H119.76017431a130.74660857 130.74660857 0 0 0-130.74661035 130.74661035v784.47965138a130.74660857 130.74660857 0 0 0 130.74661035 130.74661035h784.47965138a130.74660857 130.74660857 0 0 0 130.74661035-130.74661035v-599.6039465a130.74660857 130.74660857 0 0 0-38.30875793-92.43785245l-184.87570485-184.87570485z" fill="#0045F0" p-id="8380"></path><path d="M119.76017431 250.50678288m65.37330339 0l522.98643604 0q65.37330517 0 65.37330338 65.37330338l0 0q0 65.37330517-65.37330338 65.37330517l-522.98643604 0q-65.37330517 0-65.37330339-65.37330517l0 0q0-65.37330517 65.37330339-65.37330338Z" fill="#FFFFFF" p-id="8381"></path><path d="M119.76017431 577.37330517m65.37330339 0l326.8665223 0q65.37330517 0 65.37330517 65.3733034l0 0q0 65.37330517-65.37330517 65.37330517l-326.8665223 0q-65.37330517 0-65.37330339-65.37330517l0 0q0-65.37330517 65.37330339-65.3733034Z" fill="#EE7C30" p-id="8382"></path></svg>