<?xml version="1.0" standalone="no"?><!DOCTYPE svg PUBLIC "-//W3C//DTD SVG 1.1//EN" "http://www.w3.org/Graphics/SVG/1.1/DTD/svg11.dtd"><svg t="1645928165097" class="icon" viewBox="0 0 1024 1024" version="1.1" xmlns="http://www.w3.org/2000/svg" p-id="7501" xmlns:xlink="http://www.w3.org/1999/xlink" width="200" height="200"><defs><style type="text/css"></style></defs><path d="M0 64a64 64 0 0 1 64-64h653.376a64 64 0 0 1 64 64v230.72q-6.656-0.32-13.44-0.32-90.112 0-153.856 63.68Q550.4 421.824 550.4 512q0 64.128 34.624 117.824 16.64 25.728 38.592 45.184l-52.608 131.456q-49.792 1.664-85.504 37.376Q448 881.344 448 934.4V1024H64a64 64 0 0 1-64-64V64z" fill="#0045F0" p-id="7502"></path><path d="M108.096 127.488m48 0l224.064 0q48 0 48 48l0 0q0 48-48 48l-224.064 0q-48 0-48-48l0 0q0-48 48-48Z" fill="#EE7C30" p-id="7503"></path><path d="M833.728 650.88a153.6 153.6 0 1 0-131.52 0L614.4 870.4H576a64 64 0 0 0-64 64V1024h512v-89.6a64 64 0 0 0-64-64h-38.4l-87.872-219.52z" fill="#0045F0" p-id="7504"></path></svg>