<?xml version="1.0" standalone="no"?><!DOCTYPE svg PUBLIC "-//W3C//DTD SVG 1.1//EN" "http://www.w3.org/Graphics/SVG/1.1/DTD/svg11.dtd"><svg class="icon" width="16px" height="16.00px" viewBox="0 0 1024 1024" version="1.1" xmlns="http://www.w3.org/2000/svg"><path d="M793.06434993 57.61467677A122.57494553 122.57494553 0 0 0 706.40386326 21.70021621H144.27516342a122.57494553 122.57494553 0 0 0-122.57494721 122.57494721v735.44967316a122.57494553 122.57494553 0 0 0 122.57494721 122.57494721h735.44967316a122.57494553 122.57494553 0 0 0 122.57494721-122.57494721v-562.12869984a122.57494553 122.57494553 0 0 0-35.91446056-86.66048667l-173.3209733-173.3209733z" fill="#0045F0" /><path d="M481.35626404 818.43736466a275.79362869 275.79362869 0 0 0 275.79362701-275.7936287h-275.79362701V266.85010895a275.79362869 275.79362869 0 1 0 0 551.58725571z" fill="#FFFFFF" /><path d="M573.2874736 205.56263534v245.14989106h245.14989106a245.14989105 245.14989105 0 0 0-245.14989106-245.14989106z" fill="#EE7C30" /></svg>