<?xml version="1.0" standalone="no"?><!DOCTYPE svg PUBLIC "-//W3C//DTD SVG 1.1//EN" "http://www.w3.org/Graphics/SVG/1.1/DTD/svg11.dtd"><svg class="icon" width="16px" height="16.00px" viewBox="0 0 1024 1024" version="1.1" xmlns="http://www.w3.org/2000/svg"><path d="M21.70021621 21.70021621m122.57494721 0l735.44967316 0q122.57494553 0 122.57494721 122.57494721l0 735.44967316q0 122.57494553-122.57494721 122.57494721l-735.44967316 0q-122.57494553 0-122.57494721-122.57494721l0-735.44967316q0-122.57494553 122.57494721-122.57494721Z" fill="#0045F0" /><path d="M450.7125264 619.98852698a61.2874736 61.2874736 0 1 1 122.5749472 0V879.72483658h-122.5749472v-259.85888479zM205.56263534 700.21382898a61.2874736 61.2874736 0 1 1 122.57494553 0v179.57229602H205.56263534v-179.57229602zM695.86241913 532.10229182a61.2874736 61.2874736 0 1 1 122.57494553 0V879.72483658h-122.57494553v-347.49997126z" fill="#FFFFFF" /><path d="M589.58994139 144.39773694l82.43165032 82.43165197-112.64637565 112.58508722-97.44708116-97.50836961L192.07939178 493.61375741l65.02600922 64.96472245 204.7001587-186.68164336 97.44708119 97.50836961 177.67238484-177.67238317 82.43165031 82.43165031v-229.82802307h-229.82802308z" fill="#EE7C30" /></svg>