<?xml version="1.0" standalone="no"?><!DOCTYPE svg PUBLIC "-//W3C//DTD SVG 1.1//EN" "http://www.w3.org/Graphics/SVG/1.1/DTD/svg11.dtd"><svg class="icon" width="16px" height="16.00px" viewBox="0 0 1024 1024" version="1.1" xmlns="http://www.w3.org/2000/svg"><path d="M21.70021621 21.70021621m122.57494721 0l735.44967316 0q122.57494553 0 122.57494721 122.57494721l0 735.44967316q0 122.57494553-122.57494721 122.57494721l-735.44967316 0q-122.57494553 0-122.57494721-122.57494721l0-735.44967316q0-122.57494553 122.57494721-122.57494721Z" fill="#0045F0" /><path d="M144.27516342 144.27516342m61.28747192 0l0 0q61.2874736 0 61.28747361 61.28747192l0 0q0 61.2874736-61.28747361 61.28747361l0 0q-61.2874736 0-61.28747192-61.28747361l0 0q0-61.2874736 61.28747192-61.28747192Z" fill="#EE7C30" /><path d="M581.19355713 623.54320064c0-17.28306762-5.20943449-31.01146153-15.56701835-41.06260658-10.17372028-10.35758221-27.57936303-19.85714145-52.09435148-28.49867442-24.63756362-8.5802462-45.84303043-17.16049241-63.61639709-25.55687666-17.83465507-8.64153295-33.15652306-18.44752934-46.02689238-29.41798746a123.55554532 123.55554532 0 0 1-29.78571134-39.22398217 125.27159459 125.27159459 0 0 1-10.48015906-53.32010165c0-35.66930849 12.19620662-64.84214559 36.5273348-87.64108647 24.39241491-22.67636569 56.75220014-35.9757473 97.14064403-39.77556965V211.44623251h54.11683952v68.58068286c39.89814483 5.27072291 71.15475675 20.83774125 93.70854558 46.76234182 22.5537905 25.7407386 33.83068575 59.08112362 33.83068404 100.14373019H581.25484389c0-25.25043955-5.63844677-44.12698118-16.91534203-56.5683365-11.03174486-12.62521893-25.98588899-18.93782839-44.73985547-18.93783007-18.38624259 0-32.72751076 4.90299734-42.90123101 14.83156891-10.17372028 9.74470793-15.26058123 23.2279515-15.26058121 40.44973235 0 16.05731742 4.96428578 28.86639998 14.89285734 38.61110792 9.92856988 9.68342118 28.31481246 19.61199109 55.15872438 29.66313616 27.08906228 10.1124335 49.27512891 19.73456627 66.6807717 28.80511321 17.34435433 8.82539658 31.99206133 18.93782839 43.94311759 30.33729883 11.95105794 11.15432006 21.08288994 23.96340261 27.45678784 38.48853273 6.2513227 14.34126817 9.43827083 31.1340367 9.43827082 50.25572705 0 35.85317212-11.95105794 64.9647208-35.85317211 87.27336256-23.90211419 22.30864012-56.87477532 35.48544656-98.7954065 39.46913257v62.88094597h-53.81040073v-62.5132221c-46.21075431-4.65784866-82.12521318-19.9184282-107.5595147-45.84302876-25.25043955-26.16975091-37.93694525-60.79717286-37.9369452-104.00484267h97.81480671c0 25.12786437 6.31260946 44.37212987 18.93782839 57.85537512 12.87036929 13.23809486 31.25661188 19.9184282 55.15872608 19.91842819 19.85714145 0 35.54673498-4.90299734 47.0074905-14.58641854a49.88800315 49.88800315 0 0 0 17.28306761-39.83685642z" fill="#FFFFFF" /></svg>