<?xml version="1.0" standalone="no"?><!DOCTYPE svg PUBLIC "-//W3C//DTD SVG 1.1//EN" "http://www.w3.org/Graphics/SVG/1.1/DTD/svg11.dtd"><svg class="icon" width="16px" height="16.00px" viewBox="0 0 1024 1024" version="1.1" xmlns="http://www.w3.org/2000/svg"><path d="M1002.29978379 512c0-270.58419253-219.77687801-490.29978379-490.29978379-490.29978379s-490.29978379 219.71558957-490.29978379 490.29978379c0 130.11330518 51.84920275 254.83331225 143.84169911 346.76452181L168.72886509 1002.29978379l136.36462623-45.9043172A488.76759648 488.76759648 0 0 0 512 1002.29978379c270.52290578 0 490.29978379-219.71558957 490.29978379-490.29978379z" fill="#0045F0" /><path d="M223.27471525 315.08334963m61.28747359 0l0 0q61.2874736 0 61.28747194 61.28747359l0 0q0 61.2874736-61.28747194 61.28747193l0 0q-61.2874736 0-61.28747359-61.28747193l0 0q0-61.2874736 61.28747359-61.28747359Z" fill="#EE7C30" /><path d="M749.73410661 640.64240628a45.96560395 45.96560395 0 0 1 16.42504296 62.88094601c-110.68517603 189.13314204-388.56257785 198.14240053-508.01186202 0.61287592a45.96560395 45.96560395 0 0 1 78.69311472-47.62036644c82.8606626 137.03878889 273.95500427 130.54231747 349.95146992 0.61287425a45.96560395 45.96560395 0 0 1 62.94223442-16.54761816z" fill="#FFFFFF" /></svg>