<?xml version="1.0" standalone="no"?><!DOCTYPE svg PUBLIC "-//W3C//DTD SVG 1.1//EN" "http://www.w3.org/Graphics/SVG/1.1/DTD/svg11.dtd"><svg class="icon" width="16px" height="16.00px" viewBox="0 0 1024 1024" version="1.1" xmlns="http://www.w3.org/2000/svg"><path d="M52.3439527 118.8120299m114.91401301 0l689.48406858 0q114.91401143 0 114.91401301 114.91401145l0 537.74011752q0 114.91401143-114.91401301 114.91401144l-689.48406858 0q-114.91401143 0-114.91401301-114.91401144l0-537.74011752q0-114.91401143 114.91401301-114.91401145Z" fill="#0045F0" /><path d="M538.43022245 273.02663308a143.6425139 143.6425139 0 0 1 153.98477629-32.17592323l-83.59994414 83.59994414a57.4570065 57.4570065 0 0 0 81.24420623 81.24420624l83.65740049-83.59994415a143.6425139 143.6425139 0 0 1-186.27561221 186.21815588l-215.29140109 215.3488574a57.4570065 57.4570065 0 0 1-81.30166412-81.24420624l215.34885896-215.34885741a143.6425139 143.6425139 0 0 1 32.17592325-154.04223263z" fill="#EE7C30" /></svg>