<?xml version="1.0" standalone="no"?><!DOCTYPE svg PUBLIC "-//W3C//DTD SVG 1.1//EN" "http://www.w3.org/Graphics/SVG/1.1/DTD/svg11.dtd"><svg t="1644922332418" class="icon" viewBox="0 0 1024 1024" version="1.1" xmlns="http://www.w3.org/2000/svg" p-id="2332" xmlns:xlink="http://www.w3.org/1999/xlink" width="16" height="16"><defs><style type="text/css"></style></defs><path d="M52.3439527 569.4570065m57.4570065 0l287.28502937 0q57.4570065 0 57.45700493 57.45700493l0 287.28502937q0 57.4570065-57.45700493 57.4570065l-287.28502937 0q-57.4570065 0-57.4570065-57.4570065l0-287.28502937q0-57.4570065 57.4570065-57.45700493Z" fill="#0045F0" p-id="2333"></path><path d="M569.4570065 569.4570065m57.45700493 0l287.28502937 0q57.4570065 0 57.4570065 57.45700493l0 287.28502937q0 57.4570065-57.4570065 57.4570065l-287.28502937 0q-57.4570065 0-57.45700493-57.4570065l0-287.28502937q0-57.4570065 57.45700493-57.45700493Z" fill="#0045F0" p-id="2334"></path><path d="M310.90047962 52.3439527m57.45700648 0l287.2850278 0q57.4570065 0 57.45700648 57.4570065l0 287.28502937q0 57.4570065-57.45700648 57.45700493l-287.2850278 0q-57.4570065 0-57.45700648-57.45700493l0-287.28502937q0-57.4570065 57.45700648-57.4570065Z" fill="#EE7C30" p-id="2335"></path></svg>