<?xml version="1.0" standalone="no"?><!DOCTYPE svg PUBLIC "-//W3C//DTD SVG 1.1//EN" "http://www.w3.org/Graphics/SVG/1.1/DTD/svg11.dtd"><svg t="1644548860683" class="icon" viewBox="0 0 1024 1024" version="1.1" xmlns="http://www.w3.org/2000/svg" p-id="7741" width="16" height="16" xmlns:xlink="http://www.w3.org/1999/xlink"><defs><style type="text/css"></style></defs><path d="M0 0m128 0l768 0q128 0 128 128l0 768q0 128-128 128l-768 0q-128 0-128-128l0-768q0-128 128-128Z" fill="#0045F0" p-id="7742"></path><path d="M128 128m64 0l0 0q64 0 64 64l0 0q0 64-64 64l0 0q-64 0-64-64l0 0q0-64 64-64Z" fill="#EE7C30" p-id="7743"></path><path d="M584.256 628.48c0-18.048-5.44-32.384-16.256-42.88-10.624-10.88-28.8-20.736-54.4-29.76-25.728-8.96-47.872-17.92-66.432-26.688-18.624-9.024-34.624-19.264-48.064-30.72a128.96 128.96 0 0 1-31.104-40.96 130.688 130.688 0 0 1-10.944-55.68c0-37.248 12.736-67.712 38.144-91.52 25.472-23.68 59.264-37.568 101.44-41.536V198.144h56.512v71.616c41.664 5.504 74.304 21.76 97.856 48.832 23.552 26.88 35.328 61.696 35.328 104.576H584.32c0-26.368-5.888-46.08-17.664-59.072-11.52-13.184-27.136-19.776-46.72-19.776-19.2 0-34.24 5.12-44.8 15.488-10.624 10.176-15.936 24.256-15.936 42.24 0 16.768 5.184 30.144 15.552 40.32 10.368 10.112 29.568 20.48 57.6 30.976 28.288 10.56 51.456 20.608 69.632 30.08 18.112 9.216 33.408 19.776 45.888 31.616 12.48 11.712 22.016 25.088 28.608 40.32 6.592 14.912 9.92 32.448 9.92 52.48 0 37.376-12.48 67.712-37.44 91.072-24.96 23.296-59.392 37.056-103.168 41.216v65.664h-56.192v-65.28c-48.256-4.864-85.76-20.8-112.32-47.872-26.432-27.328-39.616-63.488-39.616-108.608h102.144c0 26.24 6.592 46.336 19.776 60.416 13.44 13.824 32.64 20.8 57.6 20.8 20.736 0 37.12-5.12 49.088-15.232a52.096 52.096 0 0 0 18.048-41.6z" fill="#FFFFFF" p-id="7744"></path></svg>