<?xml version="1.0" standalone="no"?><!DOCTYPE svg PUBLIC "-//W3C//DTD SVG 1.1//EN" "http://www.w3.org/Graphics/SVG/1.1/DTD/svg11.dtd"><svg class="icon" width="16px" height="16.00px" viewBox="0 0 1024 1024" version="1.1" xmlns="http://www.w3.org/2000/svg"><path d="M21.70021621 21.70021621m122.57494721 0l735.44967316 0q122.57494553 0 122.57494721 122.57494721l0 735.44967316q0 122.57494553-122.57494721 122.57494721l-735.44967316 0q-122.57494553 0-122.57494721-122.57494721l0-735.44967316q0-122.57494553 122.57494721-122.57494721Z" fill="#0045F0" /><path d="M349.83334674 306.44181668a30.64373596 30.64373596 0 0 1 0 43.39153006L187.60540674 512l162.22794 162.16665326a30.64373596 30.64373596 0 0 1-43.39153006 43.39153006l-183.86241915-183.86241745a30.64373596 30.64373596 0 0 1 0-43.39153174l183.86241915-183.86241745a30.64373596 30.64373596 0 0 1 43.39153006 0zM674.16665326 306.44181668a30.64373596 30.64373596 0 0 0 0 43.39153006L836.39459326 512l-162.22794 162.16665326a30.64373596 30.64373596 0 0 0 43.39153006 43.39153006l183.86241915-183.86241745a30.64373596 30.64373596 0 0 0 0-43.39153174l-183.86241915-183.86241745a30.64373596 30.64373596 0 0 0-43.39153006 0z" fill="#FFFFFF" /><path d="M587.81260371 284.56218884a45.96560395 45.96560395 0 0 1 29.11155034 58.10052382l-122.57494553 367.72483658a45.96560395 45.96560395 0 0 1-87.21207413-29.0502619l122.57494551-367.72483658a45.96560395 45.96560395 0 0 1 58.10052381-29.05026192z" fill="#EE7C30" /></svg>