<?xml version="1.0" standalone="no"?><!DOCTYPE svg PUBLIC "-//W3C//DTD SVG 1.1//EN" "http://www.w3.org/Graphics/SVG/1.1/DTD/svg11.dtd"><svg t="1650541539218" class="icon" viewBox="0 0 1024 1024" version="1.1" xmlns="http://www.w3.org/2000/svg" p-id="1998" width="16" height="16" xmlns:xlink="http://www.w3.org/1999/xlink"><defs><style type="text/css">@font-face { font-family: feedback-iconfont; src: url("//at.alicdn.com/t/font_1031158_u69w8yhxdu.woff2?t=1630033759944") format("woff2"), url("//at.alicdn.com/t/font_1031158_u69w8yhxdu.woff?t=1630033759944") format("woff"), url("//at.alicdn.com/t/font_1031158_u69w8yhxdu.ttf?t=1630033759944") format("truetype"); }
</style></defs><path d="M501.12 448a138.88 138.88 0 0 0 60.8-11.52l343.04-154.88a53.76 53.76 0 0 0 34.56-46.08 54.4 54.4 0 0 0-34.56-43.52L566.4 43.52A153.6 153.6 0 0 0 505.6 32a176.64 176.64 0 0 0-64 11.52L97.28 198.4a55.68 55.68 0 0 0-33.28 46.72c0 19.2 13.44 34.56 39.68 42.24l336.64 151.04a153.6 153.6 0 0 0 64 11.52zM418.56 497.92L114.56 362.24a90.88 90.88 0 0 0-30.08-7.68 47.36 47.36 0 0 0-52.48 45.44v373.12a104.96 104.96 0 0 0 64 75.52l300.8 135.68a112 112 0 0 0 34.56 7.68 50.56 50.56 0 0 0 52.48-49.28V576a103.04 103.04 0 0 0-65.28-78.08zM939.52 354.56a90.88 90.88 0 0 0-30.08 7.68L605.44 501.76A91.52 91.52 0 0 0 540.16 576v369.28a47.36 47.36 0 0 0 51.84 45.44 64 64 0 0 0 30.72-7.68l304-139.52a91.52 91.52 0 0 0 64-75.52V400a47.36 47.36 0 0 0-51.2-45.44z" p-id="1999"></path></svg>