<?xml version="1.0" standalone="no"?><!DOCTYPE svg PUBLIC "-//W3C//DTD SVG 1.1//EN" "http://www.w3.org/Graphics/SVG/1.1/DTD/svg11.dtd"><svg class="icon" width="16px" height="16.00px" viewBox="0 0 1024 1024" version="1.1" xmlns="http://www.w3.org/2000/svg"><path d="M128 0m128 0l512 0q128 0 128 128l0 384q0 128-128 128l-512 0q-128 0-128-128l0-384q0-128 128-128Z" fill="#EE7C30" /><path d="M0 192m128 0l768 0q128 0 128 128l0 576q0 128-128 128l-768 0q-128 0-128-128l0-576q0-128 128-128Z" fill="#FFFFFF" /><path d="M286.08 641.92a48 48 0 0 0 67.84 0L512 483.904l158.08 158.016a48 48 0 1 0 67.84-67.84l-192-192a48 48 0 0 0-67.84 0l-192 192a48 48 0 0 0 0 67.84z" fill="#0045F0" /><path d="M512 368a48 48 0 0 1 48 48v384a48 48 0 0 1-96 0v-384A48 48 0 0 1 512 368z" fill="#0045F0" /></svg>