<?xml version="1.0" standalone="no"?><!DOCTYPE svg PUBLIC "-//W3C//DTD SVG 1.1//EN" "http://www.w3.org/Graphics/SVG/1.1/DTD/svg11.dtd"><svg t="1650541544360" class="icon" viewBox="0 0 1024 1024" version="1.1" xmlns="http://www.w3.org/2000/svg" p-id="2158" width="16" height="16" xmlns:xlink="http://www.w3.org/1999/xlink"><defs><style type="text/css">@font-face { font-family: feedback-iconfont; src: url("//at.alicdn.com/t/font_1031158_u69w8yhxdu.woff2?t=1630033759944") format("woff2"), url("//at.alicdn.com/t/font_1031158_u69w8yhxdu.woff?t=1630033759944") format("woff"), url("//at.alicdn.com/t/font_1031158_u69w8yhxdu.ttf?t=1630033759944") format("truetype"); }
</style></defs><path d="M366.72 908.8m-96 0a96 96 0 1 0 192 0 96 96 0 1 0-192 0Z" p-id="2159"></path><path d="M791.68 907.52m-96 0a96 96 0 1 0 192 0 96 96 0 1 0-192 0Z" p-id="2160"></path><path d="M968.96 220.16h-47.36L760.32 55.04a114.56 114.56 0 0 0-82.56-35.2 117.12 117.12 0 0 0-83.2 33.28L423.68 220.16H245.76l-33.92-152.96H37.76a32 32 0 0 0-32 32v56.96a32 32 0 0 0 32 32h84.48l110.72 554.24a64 64 0 0 0 64 53.12h576a49.28 49.28 0 0 0 48.64-39.68l96-476.8a49.28 49.28 0 0 0-48.64-58.88z m-307.2-98.56a21.76 21.76 0 0 1 30.08 0l95.36 98.56H560.64z m141.44 314.88a25.6 25.6 0 0 1-25.6 25.6H403.2a25.6 25.6 0 0 1-25.6-25.6v-44.8a25.6 25.6 0 0 1 25.6-25.6h374.4a25.6 25.6 0 0 1 25.6 25.6z" p-id="2161"></path></svg>