<svg id="图层_1" data-name="图层 1" xmlns="http://www.w3.org/2000/svg" viewBox="0 0 16 16"><defs><style>.cls-1{fill:#4e5969;}</style></defs><path class="cls-1" d="M8,1.5A6.5,6.5,0,1,0,14.5,8,6.5,6.5,0,0,0,8,1.5ZM8,13.3A5.3,5.3,0,1,1,13.3,8,5.31,5.31,0,0,1,8,13.3Zm.51-2.85a.78.78,0,0,1,.23.57.76.76,0,0,1-.23.57.81.81,0,0,1-.58.22.78.78,0,0,1-.57-.23A.68.68,0,0,1,7.12,11a.71.71,0,0,1,.24-.57.81.81,0,0,1,.57-.22A.83.83,0,0,1,8.51,10.45ZM9.77,4.74a1.9,1.9,0,0,1,.63,1.51A2.13,2.13,0,0,1,10,7.54c-.09.1-.4.39-.9.83a1.46,1.46,0,0,0-.42.51,1.59,1.59,0,0,0-.16.69v.15H7.33V9.57a2.21,2.21,0,0,1,.21-1A5.73,5.73,0,0,1,8.77,7.21l.12-.14a1.15,1.15,0,0,0,.28-.75,1.11,1.11,0,0,0-.29-.81A1.14,1.14,0,0,0,8,5.21a1.14,1.14,0,0,0-1,.42,1.72,1.72,0,0,0-.27,1H5.6a2.38,2.38,0,0,1,.68-1.82,2.51,2.51,0,0,1,1.84-.66A2.35,2.35,0,0,1,9.77,4.74Z"/></svg>