<?xml version="1.0" standalone="no"?><!DOCTYPE svg PUBLIC "-//W3C//DTD SVG 1.1//EN" "http://www.w3.org/Graphics/SVG/1.1/DTD/svg11.dtd"><svg t="1650541583369" class="icon" viewBox="0 0 1024 1024" version="1.1" xmlns="http://www.w3.org/2000/svg" p-id="3604" width="16" height="16" xmlns:xlink="http://www.w3.org/1999/xlink"><defs><style type="text/css">@font-face { font-family: feedback-iconfont; src: url("//at.alicdn.com/t/font_1031158_u69w8yhxdu.woff2?t=1630033759944") format("woff2"), url("//at.alicdn.com/t/font_1031158_u69w8yhxdu.woff?t=1630033759944") format("woff"), url("//at.alicdn.com/t/font_1031158_u69w8yhxdu.ttf?t=1630033759944") format("truetype"); }
</style></defs><path d="M959.035242 511.020674l38.317307-118.145029A63.862177 63.862177 0 0 0 975.000786 319.434141l-100.90224-71.525639-38.317306-120.060893a63.862177 63.862177 0 0 0-63.862178-44.064903h-121.976759L549.678685 12.257068a63.862177 63.862177 0 0 0-75.35737 0L374.057697 85.698572H249.526451a63.862177 63.862177 0 0 0-63.862178 44.064902l-38.317306 118.145028L48.999214 319.434141a63.862177 63.862177 0 0 0-22.990384 73.441504L64.964758 511.020674 26.00883 629.165702A63.862177 63.862177 0 0 0 48.999214 702.607206l100.90224 73.441504 38.317306 118.145028a63.862177 63.862177 0 0 0 63.862178 44.064903h121.976759l100.263618 73.441504a63.862177 63.862177 0 0 0 75.35737 0l100.263618-73.441504h124.531246a63.862177 63.862177 0 0 0 63.862178-44.064903l38.317306-118.145028L975.000786 702.607206a63.862177 63.862177 0 0 0 22.990384-71.525639zM384.275645 610.007049a127.724355 127.724355 0 0 1-79.1891 21.71314 231.819704 231.819704 0 0 1-50.45112-5.108974 247.146627 247.146627 0 0 1-40.233172-12.772436v-56.198716h6.386218a132.833329 132.833329 0 0 0 41.510415 22.990384 144.328521 144.328521 0 0 0 44.703524 8.302083L320.413468 587.655286a42.149037 42.149037 0 0 0 14.6883 0 34.485576 34.485576 0 0 0 9.579327-12.772435 15.326923 15.326923 0 0 0 4.470353-12.133814 19.158653 19.158653 0 0 0-6.386218-13.411057 44.703524 44.703524 0 0 0-19.158653-8.302083l-27.460737-6.386218a114.951919 114.951919 0 0 1-27.460736-7.024839 84.298074 84.298074 0 0 1-42.787659-25.544871 63.862177 63.862177 0 0 1-12.772435-40.871794 63.862177 63.862177 0 0 1 29.376601-53.005607A127.724355 127.724355 0 0 1 320.413468 390.321158a213.938294 213.938294 0 0 1 45.342146 4.470353 220.324512 220.324512 0 0 1 38.955928 11.495192v53.644229h-6.386218a127.724355 127.724355 0 0 0-34.485576-19.158654A116.229163 116.229163 0 0 0 320.413468 433.108817h-15.326923a57.47596 57.47596 0 0 0-14.049679 3.831731 22.990384 22.990384 0 0 0-11.495192 10.217948 16.604166 16.604166 0 0 0 0 24.906249 74.718748 74.718748 0 0 0 26.183493 8.940705l24.906249 5.108974a261.834927 261.834927 0 0 1 25.544871 7.02484 90.684292 90.684292 0 0 1 39.59455 23.629005 63.862177 63.862177 0 0 1 12.772436 39.59455 63.862177 63.862177 0 0 1-24.267628 53.64423z m236.290057-170.512014H512v40.233172h100.263619v45.342146H512v57.475959h108.565702v44.703524H451.969553V394.791511H620.565702z m217.770025 187.754801h-167.318905V394.791511h60.030447v187.754801h107.288458z" p-id="3605"></path></svg>