<?xml version="1.0" standalone="no"?><!DOCTYPE svg PUBLIC "-//W3C//DTD SVG 1.1//EN" "http://www.w3.org/Graphics/SVG/1.1/DTD/svg11.dtd"><svg t="1645429626466" class="icon" viewBox="0 0 1024 1024" version="1.1" xmlns="http://www.w3.org/2000/svg" p-id="5076" xmlns:xlink="http://www.w3.org/1999/xlink" width="16" height="16"><defs><style type="text/css"></style></defs><path d="M717.081577 812.817599l193.946504 191.984001c25.853846 25.512541 67.749021 25.512541 93.602866 0a65.018582 65.018582 0 0 0 0-92.578952L812.134989 721.774519a443.269728 443.269728 0 0 0 93.944171-273.385218C906.164486 200.943255 703.088076 0 453.082243 0 203.07641 0 0 200.943255 0 448.389301c0 247.531372 202.991084 448.474627 453.082243 448.474627a453.935505 453.935505 0 0 0 263.999334-84.046329zM453.082243 121.248563c182.427464 0 330.639113 146.590451 330.639114 327.140738 0 180.635614-148.211649 327.226064-330.639114 327.226064S122.44313 629.024915 122.44313 448.389301c0-180.550287 148.211649-327.140738 330.639113-327.140738z" p-id="5077"></path></svg>