<?xml version="1.0" standalone="no"?><!DOCTYPE svg PUBLIC "-//W3C//DTD SVG 1.1//EN" "http://www.w3.org/Graphics/SVG/1.1/DTD/svg11.dtd"><svg class="icon" width="200px" height="71.11px" viewBox="0 0 2880 1024" version="1.1" xmlns="http://www.w3.org/2000/svg"><path d="M838.4 217.28c-77.76 0-108.16 96-115.52 125.44h-107.2l14.4 339.2a50.56 50.56 0 0 0 50.24 48.32h307.84a50.56 50.56 0 0 0 50.24-48.32l14.72-339.2h-99.2c-7.04-28.16-37.76-125.44-115.52-125.44zM896 641.92a84.16 84.16 0 0 1-56 17.92 78.72 78.72 0 0 1-55.36-19.84 98.88 98.88 0 0 1-25.6-67.84h17.28a81.28 81.28 0 0 0 19.84 52.48 61.44 61.44 0 0 0 43.84 15.36 72.32 72.32 0 0 0 44.16-13.12 42.88 42.88 0 0 0 16.64-35.2 46.08 46.08 0 0 0-21.12-39.68 195.2 195.2 0 0 0-45.12-19.2 234.88 234.88 0 0 1-47.04-20.8 53.44 53.44 0 0 1-23.36-46.72 57.92 57.92 0 0 1 22.08-49.28 77.76 77.76 0 0 1 51.2-16 71.04 71.04 0 0 1 53.12 19.84 86.4 86.4 0 0 1 23.04 60.16H896a75.84 75.84 0 0 0-17.92-44.48 56 56 0 0 0-41.28-15.04 64 64 0 0 0-39.04 10.56 40 40 0 0 0-16 35.2 37.44 37.44 0 0 0 19.2 32 310.4 310.4 0 0 0 39.04 16 201.28 201.28 0 0 1 52.8 23.68 60.16 60.16 0 0 1 25.6 52.16 64 64 0 0 1-22.4 51.84z m-138.24-299.2c8.64-28.8 32-91.52 80.32-91.52s72 64 80.64 91.52zM1319.36 535.04a275.84 275.84 0 0 0-58.88-25.92 239.04 239.04 0 0 1-41.6-16.96 37.12 37.12 0 0 1-19.52-32 38.72 38.72 0 0 1 16.64-34.88 66.88 66.88 0 0 1 39.04-9.28 58.56 58.56 0 0 1 42.88 14.4 69.76 69.76 0 0 1 18.88 43.2H1344a96 96 0 0 0-26.24-64 84.16 84.16 0 0 0-60.16-20.48 91.2 91.2 0 0 0-57.92 17.92 64 64 0 0 0-24.96 54.72 59.52 59.52 0 0 0 24.64 50.24 377.28 377.28 0 0 0 52.16 21.76 256 256 0 0 1 48 19.52 43.84 43.84 0 0 1 22.4 39.36 40 40 0 0 1-16.96 33.92 75.84 75.84 0 0 1-45.12 12.48 65.92 65.92 0 0 1-46.08-15.04 79.04 79.04 0 0 1-20.48-51.52h-25.92a104 104 0 0 0 29.44 73.6 92.48 92.48 0 0 0 64 20.16 96 96 0 0 0 64-19.84 69.12 69.12 0 0 0 24-55.68 65.6 65.6 0 0 0-29.44-55.68zM1458.88 462.4a52.8 52.8 0 0 0-29.76 8.96 67.84 67.84 0 0 0-23.04 28.16v-111.04h-25.28v273.6h25.28v-111.04a76.8 76.8 0 0 1 12.8-45.44 38.72 38.72 0 0 1 64-3.2 70.08 70.08 0 0 1 10.88 41.6v118.08h25.28v-122.56a96 96 0 0 0-15.04-57.28 52.48 52.48 0 0 0-45.12-19.84zM1633.6 491.84a72.32 72.32 0 0 0-58.56 25.6 91.84 91.84 0 0 0-21.12 62.08 90.88 90.88 0 0 0 21.12 60.48 72.64 72.64 0 0 0 58.56 25.92A74.56 74.56 0 0 0 1692.8 640a92.16 92.16 0 0 0 20.48-61.76 91.52 91.52 0 0 0-20.8-62.08 72.96 72.96 0 0 0-58.88-24.32z m40.96 133.44a47.68 47.68 0 0 1-40.96 20.48 46.72 46.72 0 0 1-40.64-20.48 76.48 76.48 0 0 1-12.8-45.76 78.4 78.4 0 0 1 12.8-46.08 47.36 47.36 0 0 1 40.64-21.44 48.32 48.32 0 0 1 40.96 20.16 78.4 78.4 0 0 1 13.12 46.08 77.44 77.44 0 0 1-13.12 47.04zM1828.16 491.84a58.24 58.24 0 0 0-54.72 32v-27.2h-23.68v264.96h25.28v-128a59.52 59.52 0 0 0 54.4 34.56 64 64 0 0 0 54.72-28.16 99.2 99.2 0 0 0 18.56-61.12 96 96 0 0 0-18.88-61.44 66.24 66.24 0 0 0-55.68-25.6z m36.16 135.36a47.36 47.36 0 0 1-40.32 18.88 42.56 42.56 0 0 1-35.84-17.6 72.96 72.96 0 0 1-14.08-47.04v-3.2a78.08 78.08 0 0 1 12.48-45.76A43.2 43.2 0 0 1 1824 512a45.44 45.44 0 0 1 40 19.84 88 88 0 0 1 11.52 47.04 81.6 81.6 0 0 1-11.2 48.32zM2066.24 518.72a70.4 70.4 0 0 0-59.84-26.88 69.44 69.44 0 0 0-56.64 25.92 92.48 92.48 0 0 0-20.48 61.44 93.44 93.44 0 0 0 21.44 64 73.92 73.92 0 0 0 56.64 23.36A71.68 71.68 0 0 0 2081.92 608h-25.28a58.88 58.88 0 0 1-16.64 26.24 50.56 50.56 0 0 1-32 10.24 46.08 46.08 0 0 1-36.8-15.36 72.96 72.96 0 0 1-15.04-43.52h128a118.08 118.08 0 0 0-17.92-66.88z m-110.08 48a64 64 0 0 1 15.68-39.04 45.44 45.44 0 0 1 35.2-14.4c32 0 48.64 17.6 51.84 53.44zM2219.52 635.52a51.2 51.2 0 0 1-32 10.24 46.72 46.72 0 0 1-36.8-15.36 75.2 75.2 0 0 1-14.72-43.52h128a113.6 113.6 0 0 0-18.88-68.16 70.08 70.08 0 0 0-59.84-26.88 68.8 68.8 0 0 0-56.32 25.92 91.2 91.2 0 0 0-20.8 61.44 91.84 91.84 0 0 0 21.76 64 72.96 72.96 0 0 0 56.32 23.36A72.32 72.32 0 0 0 2261.44 608h-25.6a61.44 61.44 0 0 1-16.32 27.52z m-68.48-107.84a46.08 46.08 0 0 1 35.2-14.4c32 0 48.64 17.6 51.84 53.44h-102.4a67.52 67.52 0 0 1 15.36-39.04z" /></svg>