<?xml version="1.0" standalone="no"?><!DOCTYPE svg PUBLIC "-//W3C//DTD SVG 1.1//EN" "http://www.w3.org/Graphics/SVG/1.1/DTD/svg11.dtd"><svg class="icon" width="200px" height="71.11px" viewBox="0 0 2880 1024" version="1.1" xmlns="http://www.w3.org/2000/svg"><path d="M850.56 312.64l-23.04 4.8c-9.28-25.92-24.32-50.24-52.16-50.24h-1.92a36.8 36.8 0 0 0-25.92-11.2c-64 0-96 80-104.32 120.96a328 328 0 0 0-44.8 15.04c-13.12 3.52-14.72 3.52-16.64 16.64S544 701.12 544 701.12l285.12 53.76z m-79.04 21.44v3.84c-14.72 5.44-32 9.28-50.24 15.04a87.04 87.04 0 0 1 44.8-61.44 128 128 0 0 1 5.44 42.56z m-25.92-61.44a9.92 9.92 0 0 1 7.36 3.84A109.12 109.12 0 0 0 704 358.4a373.12 373.12 0 0 1-39.04 13.12c9.92-37.44 35.84-98.88 80.64-98.88z m13.12 217.92a86.72 86.72 0 0 0-37.44-10.56c-29.76 0-32 18.56-32 24.32 0 25.92 67.2 35.2 67.2 96a70.72 70.72 0 0 1-70.72 78.4 102.4 102.4 0 0 1-74.56-30.08l13.44-40.64a96 96 0 0 0 46.4 22.08 18.88 18.88 0 0 0 20.48-18.56c0-32-55.68-35.2-55.68-91.2A91.52 91.52 0 0 1 736 429.12a76.16 76.16 0 0 1 40.96 5.76z m29.76-158.08v-5.76A120.96 120.96 0 0 0 782.72 288c15.04 1.92 24.32 18.56 29.76 37.12a169.6 169.6 0 0 0-24 7.36z" fill="#96BF47" /><path d="M1168.32 496.32a101.76 101.76 0 0 1 37.12 7.36l13.12-42.88a96 96 0 0 0-50.24-9.28c-52.16 0-89.6 29.76-89.6 72.64A65.92 65.92 0 0 0 1120 579.84c18.56 11.2 24.32 18.88 24.32 29.76s-9.28 20.48-26.24 20.48a123.2 123.2 0 0 1-50.24-12.8l-14.72 42.88a115.84 115.84 0 0 0 59.52 14.72c54.08 0 93.12-25.92 93.12-74.56a68.48 68.48 0 0 0-42.88-59.52c-14.72-7.36-22.4-14.72-22.4-24s11.52-20.48 27.84-20.48zM1568 449.6c-72.64 0-121.28 64-121.28 139.52a80.64 80.64 0 0 0 83.84 85.76c70.72 0 119.36-64 119.36-139.52A79.04 79.04 0 0 0 1568 449.6z m-32 176.96c-20.48 0-30.08-16.96-30.08-39.04 0-35.52 18.88-91.2 50.56-91.2 22.08 0 27.84 18.56 27.84 37.12 0.96 37.12-16.32 93.12-48.32 93.12zM1952 362.24a35.2 35.2 0 0 0-35.52 35.2 26.88 26.88 0 0 0 28.16 29.76 33.92 33.92 0 0 0 35.2-35.2 25.92 25.92 0 0 0-27.84-29.76zM2123.2 453.44H2080l1.92-9.28c3.84-20.48 16.96-39.36 37.44-39.36a43.52 43.52 0 0 1 18.56 3.84l11.2-48.32a79.36 79.36 0 0 0-32-5.76 86.72 86.72 0 0 0-59.52 20.48 119.36 119.36 0 0 0-35.52 69.12l-1.92 9.28h-27.84l-9.28 46.4h27.84l-32 169.6h59.84l32-169.6H2112zM2268.48 455.36s-37.12 96-54.08 146.88c0-16.64-14.72-146.88-14.72-146.88h-64l37.12 197.12v9.28a130.24 130.24 0 0 1-33.6 37.44 203.2 203.2 0 0 1-32 16.64l14.08 52.16a132.48 132.48 0 0 0 59.84-32 388.48 388.48 0 0 0 80-120.96L2336 455.36zM1803.2 449.6a80.64 80.64 0 0 0-64 35.52l3.52-32H1689.6a692.8 692.8 0 0 1-13.12 80l-42.88 221.44h59.52l16.96-89.28h1.6a78.08 78.08 0 0 0 35.52 6.72c70.72 0 117.44-72.64 117.44-146.88 0-38.4-16.96-75.52-61.44-75.52z m-57.92 178.88a36.16 36.16 0 0 1-24-9.28l9.28-56c7.36-37.12 25.92-64 48.32-64s24.32 16.96 24.32 33.6c-1.92 39.68-24.32 95.68-57.92 95.68zM1866.24 669.44h61.44l40.96-214.4H1907.2l-40.96 214.4zM1378.56 449.6a81.92 81.92 0 0 0-64 32l22.4-120.96h-58.88l-59.52 309.12h59.52l20.48-106.24c7.36-40.96 27.84-64 48.32-64 13.12 0 18.56 9.28 18.56 22.4a122.24 122.24 0 0 1-1.92 26.24l-22.08 120.96h59.52l24-124.8a332.48 332.48 0 0 0 3.84-39.04 48 48 0 0 0-50.24-55.68z"  /><path d="M850.56 312.64l-21.12 442.24 154.56-33.28L928 351.04l-44.8-5.76-32.64-32.64z" fill="#5F8E40" /></svg>