<?xml version="1.0" standalone="no"?><!DOCTYPE svg PUBLIC "-//W3C//DTD SVG 1.1//EN" "http://www.w3.org/Graphics/SVG/1.1/DTD/svg11.dtd"><svg class="icon" width="200px" height="79.47px" viewBox="0 0 2577 1024" version="1.1" xmlns="http://www.w3.org/2000/svg"><path d="M1307.96981 284.200848a147.06897 147.06897 0 0 0-46.704335 0 101.358344 101.358344 0 0 0-74.528194 49.685463 164.210455 164.210455 0 0 0-24.842732 115.767128 84.962142 84.962142 0 0 0 49.685463 71.298639 99.370926 99.370926 0 0 0 47.698045 6.210683 103.345763 103.345763 0 0 0 76.76404-41.984216 173.89912 173.89912 0 0 0 33.786115-109.804873 196.754433 196.754433 0 0 0-4.968547-30.804987 76.018758 76.018758 0 0 0-56.889855-60.367837z m-6.45911 175.638111a54.654009 54.654009 0 0 1-70.056503 18.632049 52.418163 52.418163 0 0 1-24.842731-38.754662 122.474666 122.474666 0 0 1 15.650921-84.465286 58.131992 58.131992 0 0 1 65.584811-30.059705 45.213771 45.213771 0 0 1 30.308132 37.760951 161.726182 161.726182 0 0 1 2.981128 24.842732 132.411759 132.411759 0 0 1-19.625758 72.043921zM1094.819175 284.94613a9.688665 9.688665 0 0 0-6.955965 6.210682c-1.987419 13.91193-2.7327 28.072287-4.471692 41.984217s-4.223264 32.543978-6.210683 49.685462H993.709258c-7.452819 0-10.18552-2.7327-7.204393-9.937092a29.811278 29.811278 0 0 0 0-4.968546c3.229555-27.327005 6.210683-54.654009 9.440238-82.477869h-42.729498c-9.440238 79.993595-18.880476 159.241909-28.320714 238.241795H968.866526c3.974837-33.040833 7.949674-65.336384 11.924511-97.631935h91.421252c-3.72641 32.543978-7.452819 64.591102-11.427657 97.383507h38.257807c2.235846 0 6.210683-3.229555 6.45911-5.4654 2.7327-18.135194 4.471692-36.518815 6.45911-54.65401s3.974837-38.754661 6.45911-58.131991 5.465401-39.003088 7.701247-58.380419 4.968546-40.493652 7.204392-61.361547c-12.669793-0.745282-25.588013-1.242137-38.506233-0.496854zM1515.406618 286.933548c-27.823859-2.235846-55.896146-1.738991-83.968432-2.235846h-13.91193q-14.657212 120.735675-28.569141 238.738649h44.220062a1282.928337 1282.928337 0 0 1 10.682374-84.216859h35.525106A80.738877 80.738877 0 0 0 1540.249349 409.656641a99.370926 99.370926 0 0 0 21.613177-76.515612A49.685463 49.685463 0 0 0 1515.406618 286.933548z m-39.003089 113.77971c-6.707537 0-13.166648 1.490564-19.874185 1.738991s-9.440238 0-7.701246-9.19181a541.819973 541.819973 0 0 0 6.707537-56.641428c0-13.166648 0-13.415075 13.663502-13.415075h6.955965c13.663502 0 27.575432 0 34.531397 16.64463 9.688665 21.116322-2.235846 60.864692-33.786115 60.864692zM825.027111 283.455566a74.528194 74.528194 0 0 0-63.100538 70.553357 60.11941 60.11941 0 0 0 31.053415 58.877274c11.427656 7.452819 24.842731 13.415075 35.276678 20.619467a29.314423 29.314423 0 0 1 17.141485 22.110031c1.490564 21.116322-12.172938 30.55656-33.537688 32.543978a76.018758 76.018758 0 0 1-61.858401-22.358459c-2.235846 17.141485-3.974837 32.792405-5.962255 48.443327a124.213657 124.213657 0 0 0 92.911815 9.19181A74.528194 74.528194 0 0 0 894.338332 447.169166a58.131992 58.131992 0 0 0-31.798696-53.163445c-13.415075-7.949674-27.078577-15.650921-40.245225-24.842732a23.352168 23.352168 0 0 1-11.676084-22.606885c1.738991-21.861604 29.065996-30.308132 45.710626-27.327005a412.637769 412.637769 0 0 1 42.729498 12.421366c0-12.669793 2.981128-27.327005 4.968546-43.47478a134.399177 134.399177 0 0 0-78.999886-4.720119zM1953.135546 284.697702a11.179229 11.179229 0 0 0-7.45282 4.471692c-10.18552 17.638339-19.625758 35.525106-29.56285 53.163445L1888.047589 393.508866c0-5.713828-1.490564-11.427656-2.981127-16.893057q-12.669793-43.226353-24.842732-86.452706a9.440238 9.440238 0 0 0-6.955965-5.216973h-49.685463a24.842731 24.842731 0 0 0 0 6.707537c15.650921 43.723207 30.804987 87.694842 47.698045 130.921195a33.537687 33.537687 0 0 1-2.235846 31.798696c-12.172938 22.110031-23.352168 44.965344-35.525106 68.814366h43.723207a12.669793 12.669793 0 0 0 8.943384-5.465401c9.191811-16.64463 17.141485-34.034542 26.581722-49.685463 24.842731-42.232643 49.685463-84.465287 74.528195-126.449503 10.930802-18.383621 22.358458-36.518815 34.034542-55.647718-18.135194-1.242137-33.28926-1.490564-48.194899-1.242137zM1742.966038 284.697702a9.191811 9.191811 0 0 0-5.713828 4.471692c-10.433947 17.886767-20.37104 35.773533-30.55656 53.908727s-17.389912 33.786115-27.823859 51.921309a72.540776 72.540776 0 0 0 0-13.415075c-9.191811-30.308132-18.383621-60.864692-28.072287-91.172824a9.440238 9.440238 0 0 0-6.45911-5.465401h-49.685463a20.867894 20.867894 0 0 0 0 2.484273c15.154066 41.735789 29.811278 83.720005 45.462199 124.213657a43.47478 43.47478 0 0 1-1.490564 46.704335 198.741852 198.741852 0 0 0-10.682375 20.37104c-7.204392 14.160357-14.657212 28.072287-22.606885 43.47478h44.716916a12.172938 12.172938 0 0 0 7.949674-5.713828c9.440238-16.893057 17.638339-34.531397 27.078578-51.176027 20.37104-35.773533 41.238934-71.547067 62.106828-106.823745 14.657212-24.842731 29.811278-49.685463 45.462199-74.528195-18.632049 0.745282-34.282969 0.496855-49.685463 0.745282z"  /><path d="M594.734991 393.260439c-1.490564-18.632049-2.484273-37.512524-4.223265-56.144573-2.484273-28.072287-6.210683-56.144573-7.701246-84.21686A51.176027 51.176027 0 0 0 530.143889 198.741852h-220.106601a47.946472 47.946472 0 0 0-49.685463 39.499942c-3.72641 24.842731-4.720119 49.685463-6.707537 74.528195-1.490564 19.625758-2.484273 39.499943-4.223264 59.125701-2.484273 33.28926-5.216974 66.330093-7.949674 99.370925 0 11.676084-2.7327 23.10374-3.72641 34.779824a159.98719 159.98719 0 0 0-1.987419 34.28297C241.47135 574.612378 254.38957 596.225555 298.112777 596.225555h255.880134a49.685463 49.685463 0 0 0 52.418163-49.685463 472.011897 472.011897 0 0 0-3.726409-67.323803c-2.235846-29.314423-6.45911-56.889855-7.949674-85.95585z m-83.223151-101.606772a21.613176 21.613176 0 0 0-4.223264 9.440238 87.694842 87.694842 0 0 1-72.540776 74.528194 84.713714 84.713714 0 0 1-96.638225-74.528194 15.899348 15.899348 0 0 0-4.471692-7.204392 19.377331 19.377331 0 0 1 0-27.823859 17.886767 17.886767 0 1 1 19.874185 29.56285l-1.242136 1.738991a71.547067 71.547067 0 0 0 49.685463 59.374128 69.808075 69.808075 0 0 0 88.191696-51.176026 17.389912 17.389912 0 0 0-3.974837-13.415075 16.396203 16.396203 0 0 1 1.242137-24.842732 17.886767 17.886767 0 0 1 24.842731 0 17.141485 17.141485 0 0 1-0.745282 24.345877z" fill="#7869F0" /><path d="M647.650009 476.732016c-2.484273-33.040833-5.465401-66.081666-7.949674-99.370925-2.235846-29.314423-3.974837-58.380419-6.210683-87.446415a322.955509 322.955509 0 0 0-4.223265-34.779824c-3.974837-18.632049-22.855313-36.270388-36.518815-33.28926 1.490564 13.663502 2.7327 27.078577 3.974837 40.493652s2.7327 33.537687 4.223265 49.685463c2.7327 28.569141 5.465401 57.138282 7.949674 85.955851 1.738991 17.886767 2.7327 36.021961 4.471691 54.157154 2.484273 27.327005 5.713828 54.405582 7.701247 81.732587a74.528194 74.528194 0 0 1-12.91822 48.443326 43.971635 43.971635 0 0 0 43.47478-42.977925c-0.993709-20.37104-2.235846-42.481071-3.974837-62.603684z" fill="#7869F0" /></svg>