<?xml version="1.0" standalone="no"?><!DOCTYPE svg PUBLIC "-//W3C//DTD SVG 1.1//EN" "http://www.w3.org/Graphics/SVG/1.1/DTD/svg11.dtd"><svg class="icon" width="200px" height="71.11px" viewBox="0 0 2880 1024" version="1.1" xmlns="http://www.w3.org/2000/svg"><path d="M663.68 288H325.12a55.04 55.04 0 0 0-54.72 54.72v338.56A55.04 55.04 0 0 0 325.12 736h338.56a57.6 57.6 0 0 0 21.12-4.16 64 64 0 0 0 9.28-5.12 56 56 0 0 0 15.04-15.04 55.04 55.04 0 0 0 9.28-30.4V342.72A55.04 55.04 0 0 0 663.68 288z m-17.6 134.08a175.68 175.68 0 0 1-303.36 0 14.08 14.08 0 0 1 6.08-19.2l12.48-5.76a13.44 13.44 0 0 1 17.6 5.44 134.4 134.4 0 0 0 231.04 0 13.44 13.44 0 0 1 17.6-5.44l12.48 5.76a13.44 13.44 0 0 1 6.08 19.2zM1964.16 484.8a14.72 14.72 0 0 0 2.24-4.48A78.4 78.4 0 0 0 1888 375.68h-90.24c-23.68 0-23.68 0-23.68 24.64V634.24c0 15.36 5.76 21.44 21.44 21.12h94.4a96 96 0 0 0 54.4-15.04 73.28 73.28 0 0 0 24-106.88c-14.08-18.56-24.96-30.08-4.16-48.64z m-110.08-58.24h32a27.84 27.84 0 0 1 28.8 29.76 30.08 30.08 0 0 1-28.8 32h-21.44c-42.24 0-36.48 5.44-36.8-36.16 0.32-25.6 0.64-25.6 26.24-25.6z m52.8 173.76a288 288 0 0 1-40.64 5.76c-43.52-2.24-37.12 4.16-37.76-39.04v-16.32c0-10.88 5.12-15.68 15.04-15.04 19.52 0 38.72 1.6 57.6 3.2s23.04 14.72 24.96 28.48a28.48 28.48 0 0 1-19.2 32.96zM988.48 495.68c-17.92-7.68-36.8-13.12-53.76-22.4s-18.88-28.16-2.56-42.56a51.84 51.84 0 0 1 66.56 8c15.04 19.84 27.52 12.8 42.24 3.52s17.92-13.76 5.12-32a105.28 105.28 0 0 0-118.4-38.4 80 80 0 0 0-50.56 119.04 104.32 104.32 0 0 0 60.16 39.36 503.04 503.04 0 0 1 60.16 22.4 29.76 29.76 0 0 1 12.8 24.64 36.16 36.16 0 0 1-17.28 24.64 71.36 71.36 0 0 1-76.16-15.36c-19.84-19.84-19.52-19.2-44.16-7.04-15.36 7.36-16.96 16.96-8.64 30.08 24.32 38.72 62.4 48.96 110.08 51.52a403.2 403.2 0 0 0 42.88-11.52 76.8 76.8 0 0 0 23.04-131.52 216.96 216.96 0 0 0-51.52-22.4zM1585.6 476.16c-2.24-26.56-20.48-19.52-35.2-20.8a14.4 14.4 0 0 0-17.6 15.04v240c0 5.12 3.52 14.4 6.4 15.04a90.88 90.88 0 0 0 37.12 0c5.12-1.6 8.96-15.68 9.28-24.64v-65.92a92.8 92.8 0 0 0 135.68-7.36 110.4 110.4 0 0 0-5.44-152 93.44 93.44 0 0 0-130.24 0.64z m57.28 135.68a51.84 51.84 0 0 1-58.24-54.72 55.68 55.68 0 0 1 49.92-58.56 56.96 56.96 0 0 1 64 54.72 54.72 54.72 0 0 1-55.68 58.56zM2209.92 481.6c0-11.2 2.24-24-14.72-26.24-25.92-3.2-32 0-39.04 17.6a96 96 0 0 0-139.2 13.76 118.4 118.4 0 0 0 2.24 139.84 96 96 0 0 0 136.96 11.2c6.08 17.28 15.68 21.44 40 17.28 16.32-2.56 13.44-15.36 13.76-26.56z m-107.2 129.92A52.8 52.8 0 0 1 2048 554.56a51.52 51.52 0 0 1 54.4-55.36 54.08 54.08 0 0 1 56.64 55.68 55.68 55.68 0 0 1-56.32 56.64zM1208.64 451.2a78.72 78.72 0 0 0-70.08 26.56v-81.28c0-17.28-5.76-23.36-22.08-20.8h-10.88c-13.44 0-18.24 5.44-18.24 18.24v242.88c0 5.44 3.2 14.72 6.4 15.04a120.96 120.96 0 0 0 38.72 0c2.88 0 4.8-14.72 5.12-22.72 0-34.24 0-68.48 4.16-102.72a41.92 41.92 0 0 1 41.92-32 35.84 35.84 0 0 1 37.12 32c2.88 32 3.52 64 4.16 96s8.96 37.76 38.72 30.08c4.16 0 10.56-6.4 10.56-9.92 0-46.72 0-93.44-3.52-139.84a64 64 0 0 0-62.08-51.52zM2584.96 576c19.84 0 26.56-7.04 24-26.88a150.08 150.08 0 0 0-7.04-32 102.08 102.08 0 0 0-119.36-65.92A105.92 105.92 0 0 0 2400 559.04a101.12 101.12 0 0 0 80.96 98.56 108.8 108.8 0 0 0 103.68-22.4c8-7.04 10.88-14.4 2.24-23.04a32 32 0 0 0-44.16-4.16 78.72 78.72 0 0 1-12.8 6.08A54.72 54.72 0 0 1 2456.96 576z m-81.28-80c29.12 0 48.96 14.72 50.24 39.68h-96a42.24 42.24 0 0 1 45.76-40.32zM1403.84 449.92a100.8 100.8 0 0 0-105.6 107.52 100.8 100.8 0 0 0 104.96 104.32 105.92 105.92 0 0 0 0-211.84z m54.08 107.84a56.96 56.96 0 0 1-55.04 54.08 56.64 56.64 0 0 1 0-112.96 58.88 58.88 0 0 1 55.04 58.88zM2354.24 544c-15.04-5.44-32-8.64-45.44-15.04-7.68-3.52-12.8-11.84-18.88-18.24 7.68-4.8 16-14.08 22.72-13.12a181.44 181.44 0 0 1 40.64 15.04 210.88 210.88 0 0 0 19.84-10.56c11.84-7.68 14.4-15.36 2.56-26.88a96 96 0 0 0-81.6-22.08A64 64 0 0 0 2240 499.84a56.32 56.32 0 0 0 43.84 68.16 476.8 476.8 0 0 1 45.44 15.68c5.44 2.56 12.8 14.08 11.52 16s-13.44 15.36-19.52 14.72a160 160 0 0 1-39.04-13.44c-4.8-1.92-10.88-8-13.12-6.72-11.52 5.76-26.56 11.52-32 21.44s6.72 21.76 17.92 29.12a108.16 108.16 0 0 0 101.12 8 59.2 59.2 0 0 0 39.36-54.72A57.6 57.6 0 0 0 2354.24 544z" /></svg>