<?xml version="1.0" standalone="no"?><!DOCTYPE svg PUBLIC "-//W3C//DTD SVG 1.1//EN" "http://www.w3.org/Graphics/SVG/1.1/DTD/svg11.dtd"><svg t="1650541554975" class="icon" viewBox="0 0 1024 1024" version="1.1" xmlns="http://www.w3.org/2000/svg" p-id="2482" width="16" height="16" xmlns:xlink="http://www.w3.org/1999/xlink"><defs><style type="text/css">@font-face { font-family: feedback-iconfont; src: url("//at.alicdn.com/t/font_1031158_u69w8yhxdu.woff2?t=1630033759944") format("woff2"), url("//at.alicdn.com/t/font_1031158_u69w8yhxdu.woff?t=1630033759944") format("woff"), url("//at.alicdn.com/t/font_1031158_u69w8yhxdu.ttf?t=1630033759944") format("truetype"); }
</style></defs><path d="M512 32C151.04 32 32 151.04 32 512s119.04 480 480 480 480-119.04 480-480S872.96 32 512 32zM359.68 718.08a25.6 25.6 0 0 1-25.6 25.6h-44.8a25.6 25.6 0 0 1-25.6-25.6V448a25.6 25.6 0 0 1 25.6-25.6h44.8a25.6 25.6 0 0 1 25.6 25.6z m208 0a25.6 25.6 0 0 1-25.6 25.6h-44.8a25.6 25.6 0 0 1-25.6-25.6V534.4a24.96 24.96 0 0 1 25.6-25.6h44.8a24.96 24.96 0 0 1 25.6 25.6z m208 0a25.6 25.6 0 0 1-25.6 25.6H704a25.6 25.6 0 0 1-25.6-25.6V305.92a25.6 25.6 0 0 1 25.6-25.6h44.8a25.6 25.6 0 0 1 25.6 25.6z" p-id="2483"></path></svg>