<?xml version="1.0" standalone="no"?><!DOCTYPE svg PUBLIC "-//W3C//DTD SVG 1.1//EN" "http://www.w3.org/Graphics/SVG/1.1/DTD/svg11.dtd"><svg t="1650541587108" class="icon" viewBox="0 0 1024 1024" version="1.1" xmlns="http://www.w3.org/2000/svg" p-id="3764" width="16" height="16" xmlns:xlink="http://www.w3.org/1999/xlink"><defs><style type="text/css">@font-face { font-family: feedback-iconfont; src: url("//at.alicdn.com/t/font_1031158_u69w8yhxdu.woff2?t=1630033759944") format("woff2"), url("//at.alicdn.com/t/font_1031158_u69w8yhxdu.woff?t=1630033759944") format("woff"), url("//at.alicdn.com/t/font_1031158_u69w8yhxdu.ttf?t=1630033759944") format("truetype"); }
</style></defs><path d="M378.24 307.84a71.68 71.68 0 0 0-58.24 27.52 113.28 113.28 0 0 0-21.76 72.32A115.2 115.2 0 0 0 320 479.36a67.84 67.84 0 0 0 57.6 27.52 70.4 70.4 0 0 0 58.88-26.24 116.48 116.48 0 0 0 20.48-71.68 119.68 119.68 0 0 0-19.84-73.6 67.2 67.2 0 0 0-58.88-27.52z" p-id="3765"></path><path d="M890.88 32H133.12A101.12 101.12 0 0 0 32 133.12v555.52a101.12 101.12 0 0 0 101.12 101.12H384l-50.56 128H247.04a37.76 37.76 0 1 0 0 75.52h529.92a37.76 37.76 0 1 0 0-75.52h-88.32l-50.56-128h252.8a101.12 101.12 0 0 0 101.12-101.12V133.12A101.12 101.12 0 0 0 890.88 32zM482.56 519.04a140.8 140.8 0 0 1-106.88 43.52 138.88 138.88 0 0 1-104.96-42.24 153.6 153.6 0 0 1-39.68-108.8 160 160 0 0 1 40.96-114.56A138.88 138.88 0 0 1 384 256a133.76 133.76 0 0 1 103.04 42.24 156.8 156.8 0 0 1 39.04 110.08 161.92 161.92 0 0 1-43.52 110.72z m248.32 20.48a142.08 142.08 0 0 1-87.04 23.04 188.16 188.16 0 0 1-83.84-16.64v-64A128 128 0 0 0 640 512a70.4 70.4 0 0 0 39.04-8.96 28.16 28.16 0 0 0 13.44-23.04 32.64 32.64 0 0 0-10.88-23.04 181.12 181.12 0 0 0-55.04-29.44c-46.72-19.84-69.76-48.64-69.76-86.4a75.52 75.52 0 0 1 31.36-64A142.08 142.08 0 0 1 674.56 256a204.16 204.16 0 0 1 73.6 11.52v60.16a119.68 119.68 0 0 0-70.4-20.48 71.68 71.68 0 0 0-37.76 8.32 26.88 26.88 0 0 0-14.08 23.04 32 32 0 0 0 9.6 21.76 177.28 177.28 0 0 0 48 26.24 163.84 163.84 0 0 1 64 40.32 81.92 81.92 0 0 1 16.64 51.2 74.88 74.88 0 0 1-33.28 61.44z" p-id="3766"></path></svg>