<?xml version="1.0" standalone="no"?><!DOCTYPE svg PUBLIC "-//W3C//DTD SVG 1.1//EN" "http://www.w3.org/Graphics/SVG/1.1/DTD/svg11.dtd"><svg t="1647427030851" class="icon" viewBox="0 0 1026 1024" version="1.1" xmlns="http://www.w3.org/2000/svg" p-id="25797" xmlns:xlink="http://www.w3.org/1999/xlink" width="16.03125" height="16"><defs><style type="text/css"></style></defs><path d="M425.354831 275.933508a47.994001 47.994001 0 1 0-67.895513-67.895513L259.807524 305.689789l-27.51656-27.516561a47.994001 47.994001 0 0 0-67.831521 67.831521l61.368329 61.432321a48.249969 48.249969 0 0 0 67.831521 0L425.418823 275.933508zM513.791776 277.533308h319.960005a47.994001 47.994001 0 0 1 0 95.988002h-319.960005a47.994001 47.994001 0 0 1 0-95.988002zM431.498063 688.297963a127.984002 127.984002 0 1 1-256.095988-0.127984 127.984002 127.984002 0 0 1 256.095988 0.127984zM326.103237 665.644794a30.844144 30.844144 0 0 0-22.589176-9.342832 31.100112 31.100112 0 0 0-22.653169 9.342832 31.100112 31.100112 0 0 0-9.342832 22.653169c0 8.830896 3.135608 16.381952 9.342832 22.653168a31.100112 31.100112 0 0 0 22.653169 9.342832 30.844144 30.844144 0 0 0 22.589176-9.342832 30.908136 30.908136 0 0 0 9.406824-22.653168 30.908136 30.908136 0 0 0-9.406824-22.653169zM833.751781 627.44157h-319.960005a47.994001 47.994001 0 0 0 0 95.988001h319.960005a47.994001 47.994001 0 0 0 0-95.988001z" p-id="25798"></path><path d="M1026.623672 128.111986c0-71.031121-57.144857-128.111986-122.352706-128.111986H129.391826C64.119985 0 7.03912 57.144857 7.03912 128.111986v767.52006c0 70.967129 57.080865 127.984002 122.352706 127.984002h774.87914c65.271841 0 122.352706-57.016873 122.352706-127.984002V128.111986zM936.842895 128.111986v767.52006c0 17.91776-16.31796 32.635921-32.635921 32.635921H129.391826c-16.31796 0-24.444944-14.71816-24.444944-32.635921V128.111986c0-17.91776 8.126984-31.868016 24.444944-31.868016h774.87914c16.31796 0 32.635921 13.886264 32.635921 31.868016z" p-id="25799"></path></svg>