<?xml version="1.0" standalone="no"?><!DOCTYPE svg PUBLIC "-//W3C//DTD SVG 1.1//EN" "http://www.w3.org/Graphics/SVG/1.1/DTD/svg11.dtd"><svg t="1650541579340" class="icon" viewBox="0 0 1024 1024" version="1.1" xmlns="http://www.w3.org/2000/svg" p-id="3444" width="16" height="16" xmlns:xlink="http://www.w3.org/1999/xlink"><defs><style type="text/css">@font-face { font-family: feedback-iconfont; src: url("//at.alicdn.com/t/font_1031158_u69w8yhxdu.woff2?t=1630033759944") format("woff2"), url("//at.alicdn.com/t/font_1031158_u69w8yhxdu.woff?t=1630033759944") format("woff"), url("//at.alicdn.com/t/font_1031158_u69w8yhxdu.ttf?t=1630033759944") format("truetype"); }
</style></defs><path d="M864 256H768V144A112.64 112.64 0 0 0 655.36 32h-288A112 112 0 0 0 256 144V256H160a128 128 0 0 0-128 128v480a128 128 0 0 0 128 128h704a128 128 0 0 0 128-128V384a128 128 0 0 0-128-128z m-512-112A16 16 0 0 1 367.36 128h288a16 16 0 0 1 16 16V256h-320z m400.64 463.36a128 128 0 0 1-139.52 32.64l-192 192a51.84 51.84 0 0 1-72.96-72.96l192-192a128 128 0 0 1 28.8-138.24 128 128 0 0 1 138.88-28.8L632.32 471.04a51.84 51.84 0 0 0 0 72.96 51.2 51.2 0 0 0 71.68 0l76.8-74.88a128 128 0 0 1-28.8 138.24z" p-id="3445"></path></svg>