<?xml version="1.0" standalone="no"?><!DOCTYPE svg PUBLIC "-//W3C//DTD SVG 1.1//EN" "http://www.w3.org/Graphics/SVG/1.1/DTD/svg11.dtd"><svg t="1647400800594" class="icon" viewBox="0 0 1030 1024" version="1.1" xmlns="http://www.w3.org/2000/svg" p-id="15194" xmlns:xlink="http://www.w3.org/1999/xlink" width="16.09375" height="16"><defs><style type="text/css"></style></defs><path d="M328.280747 487.168a29.44 29.44 0 0 1 13.056 24.746667c0 10.24-4.949333 19.626667-13.056 24.917333L40.024747 721.322667a24.746667 24.746667 0 0 1-26.624 0.256A29.354667 29.354667 0 0 1 0.003413 696.576V327.509333c0-10.325333 5.12-19.882667 13.397334-25.002666a24.746667 24.746667 0 0 1 26.624 0.170666l288.256 184.490667z" p-id="15195"></path><path d="M3.160747 0m64 0l896 0q64 0 64 64l0 0q0 64-64 64l-896 0q-64 0-64-64l0 0q0-64 64-64Z" p-id="15196"></path><path d="M466.09408 448m64 0l436.224 0q64 0 64 64l0 0q0 64-64 64l-436.224 0q-64 0-64-64l0 0q0-64 64-64Z" p-id="15197"></path><path d="M3.160747 896m64 0l896 0q64 0 64 64l0 0q0 64-64 64l-896 0q-64 0-64-64l0 0q0-64 64-64Z" p-id="15198"></path></svg>