<svg width="22" height="22" viewBox="0 0 22 22" fill="none" xmlns="http://www.w3.org/2000/svg">
<path d="M3.39885 3.3987L3.39886 3.39868C4.90224 1.89525 6.81767 0.871387 8.90294 0.456579C10.9882 0.0417706 13.1496 0.254643 15.1139 1.06828C17.0782 1.88191 18.7571 3.25977 19.9383 5.0276C21.1195 6.79543 21.75 8.87384 21.75 11C21.75 13.1262 21.1195 15.2046 19.9383 16.9724C18.7571 18.7402 17.0782 20.1181 15.1139 20.9317C13.1496 21.7454 10.9882 21.9582 8.90294 21.5434C6.81767 21.1286 4.90224 20.1048 3.39886 18.6013L3.39885 18.6013C2.40055 17.6031 1.60865 16.4181 1.06837 15.1139C0.528082 13.8096 0.25 12.4117 0.25 11C0.25 9.58828 0.528082 8.19038 1.06837 6.88614C1.60865 5.5819 2.40055 4.39686 3.39885 3.3987Z" fill="#00DEAE" stroke="white" stroke-width="0.5"/>
<path d="M10.9998 5.41406C9.59819 5.41398 8.24779 5.94081 7.21656 6.89002C6.18532 7.83922 5.54862 9.14143 5.4328 10.5382C5.31698 11.935 5.73051 13.3243 6.59132 14.4304C7.45213 15.5365 8.69731 16.2785 10.0798 16.5093V17.7439C8.3959 17.8976 6.77739 18.4707 5.37207 19.411C7.03743 20.5253 8.99609 21.1201 10.9999 21.1201C13.0036 21.1201 14.9623 20.5253 16.6276 19.411C15.2223 18.4707 13.6038 17.8974 11.9199 17.7437V16.5097C13.2238 16.2919 14.4083 15.6188 15.2626 14.61C16.1169 13.6011 16.5857 12.322 16.5857 11.0001C16.5857 9.52015 15.9984 8.10072 14.9528 7.05344C13.9071 6.00617 12.4886 5.41665 11.0087 5.41433C11.0058 5.41432 11.0027 5.41406 10.9998 5.41406Z" fill="#B96438"/>
<path d="M13.3127 17.9658C14.501 18.2418 15.6292 18.7317 16.6422 19.4115C14.9765 20.5255 13.0178 21.1201 11.014 21.1201C9.01015 21.1201 7.0514 20.5255 5.38574 19.4115C6.39872 18.7317 7.52694 18.2418 8.71528 17.9658L10.0953 19.3458H11.9353L13.3127 17.9658Z" fill="#0D204A"/>
<path d="M9.51112 2.00524C9.45539 1.88094 10.4119 1.16844 11.1315 1.18586C11.206 1.18766 11.278 1.1973 11.346 1.21619C12.0712 1.41767 12.4338 1.78024 12.4338 1.78024C12.4338 1.78024 12.1236 2.49973 11.8396 3.16479C12.2659 3.19894 12.6868 3.25548 13.0962 3.32739C13.0777 3.54795 13.0188 3.76551 12.9194 3.96687C15.4422 4.45372 17.3635 5.95548 18.1298 8.70494C17.8283 8.79882 17.4898 8.88675 17.121 8.96806C17.1883 10.8779 16.7575 12.9216 15.8947 14.2272L15.4453 13.9542C16.1019 12.2452 16.0421 10.3375 15.8241 9.20814C14.4775 9.41695 12.9019 9.55223 11.3091 9.59235L11.2994 9.50035C11.1557 8.13927 11.0559 7.19408 10.1633 6.11159C10.3045 7.15396 10.131 8.53795 10.0023 9.56421L9.97371 9.79344L8.99482 9.81373C9.07578 8.32131 9.0204 7.28591 8.7398 6.11155C8.27068 6.95971 8.08342 7.87857 7.86159 9.47193C7.22647 9.4433 6.7233 9.40281 6.29014 9.34919C6.27719 9.38887 6.2636 9.42991 6.24928 9.47257C5.61957 11.3479 6.78 14.0946 6.78 14.0946L6.27748 14.483C6.27748 14.483 5.00357 12.5094 4.81678 10.7587C4.76243 10.2493 4.75422 9.53299 4.8013 9.06612C4.54243 9.00043 4.27743 8.92694 3.98253 8.84515L3.89648 8.8213C4.42767 6.34775 6.60027 4.56691 9.17488 3.98966C9.12936 3.90127 9.09123 3.80966 9.06121 3.71578C9.02258 3.59491 8.99762 3.47056 8.98589 3.34512C9.34693 3.25959 9.71351 3.20195 10.0819 3.16775C9.8411 2.68624 9.58418 2.1683 9.51112 2.00524Z" fill="black"/>
</svg>
