<?xml version="1.0" standalone="no"?>
<!DOCTYPE svg PUBLIC "-//W3C//DTD SVG 1.1//EN" "http://www.w3.org/Graphics/SVG/1.1/DTD/svg11.dtd"><svg class="icon" width="200px" height="71.11px" viewBox="0 0 2880 1024" version="1.1" xmlns="http://www.w3.org/2000/svg">
<path d="M768 355.84h-64c-2.56 0-3.52 0-3.84 3.52-2.88 14.08-5.76 27.84-8.32 41.92-10.24 56-20.16 112.32-30.08 168.32 0 4.8-1.6 9.28-2.24 13.76a3.84 3.84 0 0 1 0-2.88c-3.2-20.48-5.44-40.96-9.28-61.44-9.28-53.12-19.2-105.92-28.8-160 0-3.52-2.24-4.16-5.44-4.16h-64c-3.52 0-4.48 0-5.12 4.48L528.96 448l-23.04 120.32-2.88 17.6a14.4 14.4 0 0 1-2.24-5.76c-6.72-40.64-13.44-80.96-20.48-121.6-5.44-32-11.52-64-16.96-96 0-4.8-2.56-6.08-7.04-5.76h-66.24c1.92 7.36 3.52 14.08 4.8 20.48 18.24 78.08 36.48 156.16 54.08 234.24a73.92 73.92 0 0 0 20.16 34.88 56 56 0 0 0 62.4 9.28 11.2 11.2 0 0 0 5.76-8c6.72-32 13.76-64 20.48-94.4s11.52-58.88 17.28-88.32c1.6-8.96 2.88-17.6 4.48-26.56a14.08 14.08 0 0 1 1.6 4.8c0 7.04 0 14.4 2.56 21.44 3.52 22.4 7.04 45.12 11.2 67.52 5.12 29.76 10.56 59.2 16.96 88.32a47.36 47.36 0 0 0 29.76 35.52 77.12 77.12 0 0 0 40 2.88 17.92 17.92 0 0 0 15.36-13.12c4.8-18.88 9.28-37.76 14.08-56.32l37.44-151.04c6.72-26.88 13.44-53.76 20.48-81.28zM1392.32 466.56a64 64 0 0 0-41.92-38.08 77.44 77.44 0 0 0-84.8 29.76l-4.48 6.08a62.08 62.08 0 0 0-60.8-38.72 75.2 75.2 0 0 0-64 36.8c0-9.92-1.92-18.24-2.56-26.88 0-3.52 0-5.12-5.44-5.12h-51.52v228.8h65.92v-132.8a48.32 48.32 0 0 1 10.56-32 27.84 27.84 0 0 1 48.64 6.4 73.92 73.92 0 0 1 5.12 28.8v124.48c0 4.48 0 5.76 5.44 5.44h54.4c4.8 0 5.76 0 5.76-5.76V528a101.44 101.44 0 0 1 0-16.96 35.84 35.84 0 0 1 13.44-21.76 27.84 27.84 0 0 1 43.52 10.24 75.84 75.84 0 0 1 6.08 32v128h60.48c4.48 0 5.12 0 5.12-5.12v-128a144 144 0 0 0-8.96-59.84zM1621.12 608v-84.8a200 200 0 0 0-2.88-32 77.12 77.12 0 0 0-64-64 175.04 175.04 0 0 0-59.2 0 165.12 165.12 0 0 0-48.96 15.68c-2.88 1.6-3.84 3.2-2.56 6.4a73.28 73.28 0 0 1 2.24 8.96l8.64 32c11.52-4.16 22.08-8.96 32-12.16a81.92 81.92 0 0 1 44.8 0 26.56 26.56 0 0 1 21.12 25.28c0 3.84 0 4.8-4.8 5.12A430.72 430.72 0 0 0 1504 512a100.16 100.16 0 0 0-48 21.12 74.88 74.88 0 0 0-27.84 70.4 64 64 0 0 0 34.88 53.12 78.72 78.72 0 0 0 70.72 0 67.2 67.2 0 0 0 24.96-19.52c6.08-7.36 10.88-7.04 17.28 0s5.76 6.72 8.96 9.92a37.44 37.44 0 0 0 29.44 12.16c7.04 0 10.56-4.16 10.88-11.2v-6.72c-2.24-10.88-4.16-21.44-4.16-33.28z m-66.24-26.88a35.52 35.52 0 0 1-43.2 32 25.92 25.92 0 0 1-18.56-28.16 32 32 0 0 1 19.2-26.88 100.48 100.48 0 0 1 40-7.04c2.56 0 3.2 0 3.2 3.52v11.84c0 5.44 0 9.6-0.64 16zM947.84 610.56v-88.64a168.32 168.32 0 0 0-2.56-28.48 77.44 77.44 0 0 0-67.84-65.92 171.52 171.52 0 0 0-98.56 13.44c-9.6 4.16-9.6 4.16-6.72 14.08l9.6 36.16 3.84-1.92a105.92 105.92 0 0 1 68.8-13.12 26.88 26.88 0 0 1 24.64 24.96c0 6.08 0 6.08-5.76 6.08a196.48 196.48 0 0 0-57.92 8.32 79.04 79.04 0 0 0-62.08 72.32 69.44 69.44 0 0 0 22.72 59.84 77.76 77.76 0 0 0 85.44 8.32 81.92 81.92 0 0 0 23.04-18.88c5.44-6.72 10.24-6.72 16.32 0l8.64 9.28a37.44 37.44 0 0 0 32 13.12 10.24 10.24 0 0 0 9.92-9.6 78.4 78.4 0 0 0 0-8.64c-1.6-10.56-3.2-20.48-3.52-30.72z m-66.56-24.64a35.2 35.2 0 0 1-45.44 26.56 20.48 20.48 0 0 1-12.48-11.2 32 32 0 0 1 12.8-41.28 76.8 76.8 0 0 1 26.56-7.68h18.88a247.04 247.04 0 0 1-0.32 33.6zM1923.84 431.36h-50.24v-76.8h-64a29.44 29.44 0 0 0 0 5.12v224a179.52 179.52 0 0 0 2.88 29.12 55.68 55.68 0 0 0 32 44.48 107.84 107.84 0 0 0 74.88 1.92s2.56-2.56 2.56-4.16V608h-26.24a17.92 17.92 0 0 1-16.96-14.08 64 64 0 0 1-2.88-18.88v-90.24-5.12h54.4v-44.8c-1.92-2.88-2.88-3.84-6.4-3.52zM978.56 659.52h66.56v-312h-66.56zM1780.48 425.92a64 64 0 0 0-32 3.84 68.48 68.48 0 0 0-35.52 37.76 32 32 0 0 1-2.24 4.8c0-13.76 0-27.2-2.24-40.96h-57.6v227.84h67.52v-6.08-113.28a52.16 52.16 0 0 1 52.8-54.72h12.16V428.8c0-0.96-1.6-2.56-2.88-2.88zM2176 541.12a12.48 12.48 0 0 0-15.36-4.8 102.4 102.4 0 0 0-12.48 5.12l-117.44 58.24a16.32 16.32 0 0 0-8 23.04c6.72 12.16 14.08 24 21.76 35.84a18.24 18.24 0 0 0 15.36 7.68s5.12-2.24 8-4.16L2142.08 608l40-28.48a15.68 15.68 0 0 0 5.76-21.44 107.52 107.52 0 0 0-11.84-16.96zM2479.04 600.64l-126.08-62.4a64 64 0 0 0-10.24-3.52 32 32 0 0 0-9.6 5.12 102.08 102.08 0 0 0-12.16 19.2 16.32 16.32 0 0 0 6.4 22.4l16.32 11.52 96 69.44a15.36 15.36 0 0 0 22.72-3.52 43.2 43.2 0 0 0 4.48-7.04c5.76-9.28 11.2-18.24 16.32-27.2a16 16 0 0 0-4.16-24zM2029.12 425.92l123.2 61.12a120.96 120.96 0 0 0 11.52 3.84c3.2-1.6 7.68-2.56 9.6-5.44a109.76 109.76 0 0 0 12.48-19.2 16 16 0 0 0-6.08-21.44c-38.08-27.2-76.16-54.08-113.6-81.28a16.64 16.64 0 0 0-24.32 5.12l-20.16 33.6a16 16 0 0 0 7.36 23.68zM2333.76 484.16a15.36 15.36 0 0 0 13.12 6.08c2.24 0 5.76-1.6 9.28-3.2l123.84-61.44a15.04 15.04 0 0 0 7.68-21.76c-7.04-12.8-14.4-25.28-22.4-37.12a15.68 15.68 0 0 0-22.4-3.52c-25.28 18.56-50.88 36.48-76.16 54.72l-37.44 26.56a16.32 16.32 0 0 0-6.4 22.08c3.2 6.4 7.36 13.44 10.88 17.6zM2274.24 256h-38.4a16 16 0 0 0-17.6 19.52c1.92 21.12 3.52 41.92 5.12 64s4.16 51.2 6.4 76.48a14.72 14.72 0 0 0 10.56 14.08 92.48 92.48 0 0 0 23.04 0c11.2 0 15.36-6.08 16.32-17.28 3.52-46.08 7.36-92.16 10.88-138.24a15.36 15.36 0 0 0-16.32-18.56zM2279.36 609.6c0-7.68-5.76-14.4-11.84-14.72s-15.36 0-23.04 0a16.32 16.32 0 0 0-15.04 15.36c0 10.24 0 20.48-2.56 32l-8.64 108.8a15.68 15.68 0 0 0 16.64 18.88H2272c15.04 0 20.48-6.4 19.52-20.8-2.88-34.24-5.76-68.48-8.32-102.72z" /></svg>