<svg width="32" height="32" viewBox="0 0 32 32" fill="none" xmlns="http://www.w3.org/2000/svg">
<path d="M16.1179 13.438C16.617 13.438 16.9497 13.124 16.9497 12.9669L17.4487 7.94215C17.4487 7.47107 16.7833 7 16.1179 7C15.2861 7 14.7871 7.47107 14.7871 7.94215L15.2861 12.9669C15.1198 13.124 15.6189 13.438 16.1179 13.438ZM13.2899 14.8512C13.4563 14.5372 13.4563 14.0661 13.2899 13.9091L8.79848 11.0826C8.46578 10.7686 7.80038 11.0826 7.30133 11.7107C6.80227 12.3388 6.96862 12.9669 7.46768 13.281L12.2918 15.4793C12.6245 15.4793 12.9572 15.3223 13.2899 14.8512ZM18.9459 14.8512C19.1122 15.3223 19.6113 15.4793 19.7776 15.4793L24.6018 13.281C25.1008 12.9669 25.1008 12.3388 24.7681 11.7107C24.4354 11.0826 23.6037 10.7686 23.271 11.0826L18.9459 13.9091C18.6132 14.0661 18.6132 14.5372 18.9459 14.8512ZM16.1179 19.562C16.617 19.562 16.9497 19.876 16.9497 20.0331L17.4487 25.0579C17.4487 25.5289 16.7833 26 16.1179 26C15.2861 26 14.7871 25.5289 14.7871 25.0579L15.2861 20.0331C15.2861 19.876 15.6189 19.562 16.1179 19.562ZM18.9459 17.9917C19.1122 17.6777 19.6113 17.3636 19.944 17.5207L24.6018 19.719C25.1008 20.0331 25.1008 20.6612 24.7681 21.2893C24.4354 21.9174 23.77 22.2314 23.271 21.9174L18.9459 19.0909C18.6132 18.7769 18.6132 18.4628 18.9459 17.9917ZM13.2899 17.9917C13.4563 18.3058 13.4563 18.7769 13.2899 18.9339L8.96483 21.7603C8.46578 22.0744 7.80038 21.7603 7.46768 21.1322C7.13497 20.5041 7.13497 19.876 7.63403 19.562L12.4582 17.5207C12.6245 17.3636 12.9572 17.6777 13.2899 17.9917Z" fill="#FDBB30"/>
</svg>
