<?xml version="1.0" standalone="no"?><!DOCTYPE svg PUBLIC "-//W3C//DTD SVG 1.1//EN" "http://www.w3.org/Graphics/SVG/1.1/DTD/svg11.dtd"><svg t="1650541558822" class="icon" viewBox="0 0 1024 1024" version="1.1" xmlns="http://www.w3.org/2000/svg" p-id="2642" width="16" height="16" xmlns:xlink="http://www.w3.org/1999/xlink"><defs><style type="text/css">@font-face { font-family: feedback-iconfont; src: url("//at.alicdn.com/t/font_1031158_u69w8yhxdu.woff2?t=1630033759944") format("woff2"), url("//at.alicdn.com/t/font_1031158_u69w8yhxdu.woff?t=1630033759944") format("woff"), url("//at.alicdn.com/t/font_1031158_u69w8yhxdu.ttf?t=1630033759944") format("truetype"); }
</style></defs><path d="M965.12 325.76L545.28 42.24a60.16 60.16 0 0 0-64 0L58.88 325.76a64 64 0 0 0-26.88 50.56v554.88a64 64 0 0 0 60.16 60.8h839.68a64 64 0 0 0 60.16-60.8V376.32a64 64 0 0 0-26.88-50.56z m-805.12 320a32 32 0 0 1 32-32h128a32 32 0 0 1 32 32v32a32 32 0 0 1-32 32H192a32 32 0 0 1-32-32z m384 212.48a32 32 0 0 1-32 32H192a32 32 0 0 1-32-32v-32a32 32 0 0 1 32-32h320a32 32 0 0 1 32 32z" p-id="2643"></path></svg>