<?xml version="1.0" standalone="no"?><!DOCTYPE svg PUBLIC "-//W3C//DTD SVG 1.1//EN" "http://www.w3.org/Graphics/SVG/1.1/DTD/svg11.dtd"><svg t="1650873929383" class="icon" viewBox="0 0 2880 1024" version="1.1" xmlns="http://www.w3.org/2000/svg" p-id="11307" xmlns:xlink="http://www.w3.org/1999/xlink" width="562.5" height="200"><defs><style type="text/css">@font-face { font-family: feedback-iconfont; src: url("//at.alicdn.com/t/font_1031158_u69w8yhxdu.woff2?t=1630033759944") format("woff2"), url("//at.alicdn.com/t/font_1031158_u69w8yhxdu.woff?t=1630033759944") format("woff"), url("//at.alicdn.com/t/font_1031158_u69w8yhxdu.ttf?t=1630033759944") format("truetype"); }
</style></defs><path d="M1268.48 477.12a1076.8 1076.8 0 0 1-19.2 120 59.84 59.84 0 0 1-71.04 48.32c-37.12-6.08-41.92-34.24-38.08-65.6 1.92-16.32 4.8-32 7.36-48.96 4.48-23.68 4.48-49.28-27.52-50.88s-70.4-14.72-80 34.56c-6.08 29.44-9.6 59.2-16.96 88.32a56.64 56.64 0 0 1-70.4 41.92c-33.6-6.4-42.88-33.6-37.76-66.24 7.04-47.68 16.32-97.6 20.8-142.4 5.12-49.92-9.6-70.08-49.6-85.12-46.4-17.92-92.16-37.12-138.24-55.68-22.72-8.96-49.28-32-64 7.36-20.48 58.88-25.28 78.08 20.16 98.56a704 704 0 0 0 83.84 32 40 40 0 0 1 32 53.44 1338.88 1338.88 0 0 0-19.84 135.68 125.12 125.12 0 0 0 29.44 88.96c46.72 61.12 128 60.8 207.68 22.08a56.32 56.32 0 0 1 47.36-2.56c89.28 65.92 243.52 4.16 272-123.52a736 736 0 0 0 22.08-151.68c0-19.2-3.2-25.6-10.24-29.76a67.84 67.84 0 0 0-99.84 51.2zM2072.32 418.24a529.92 529.92 0 0 0-91.2 19.52c5.76-43.2 9.92-78.08 15.68-120.64 7.36-54.4-10.56-73.28-64-54.72a76.8 76.8 0 0 0-35.84 54.08c-20.8 128-38.4 256-56.32 384-7.36 54.4 0 60.8 53.76 57.92 32-1.6 40-19.52 44.48-46.08a1316.8 1316.8 0 0 1 29.44-154.56 82.88 82.88 0 0 1 98.24-52.48c43.84 12.8 38.72 48.96 35.52 81.6-3.84 40.32-12.16 80.32-16.32 120.64-2.24 20.8-12.8 48.64 24.64 50.24 32 0 66.24 6.72 72.64-39.04 8-55.04 17.92-109.76 24.32-165.12a114.56 114.56 0 0 0-135.04-135.36zM1802.88 430.4a189.44 189.44 0 0 0-216.96 32 87.68 87.68 0 0 0 28.8 147.52c22.08 9.28 46.72 13.12 67.84 24 12.8 6.4 35.2 16 32 32s-27.84 22.08-40.32 20.8a288 288 0 0 1-90.24-23.04c-35.2-16.64-46.72 7.68-61.12 27.2-18.24 24.96 3.52 37.44 20.48 44.48A704 704 0 0 0 1632 768a162.56 162.56 0 0 0 152.64-55.04c50.88-58.88 34.56-128-37.76-154.24-20.8-8-43.84-11.84-64-20.8-10.56-4.8-28.8-8.64-27.2-26.24s23.68-23.36 34.56-22.72a217.28 217.28 0 0 1 78.08 17.92c32 14.72 41.92-6.08 53.12-24.32s4.48-39.04-18.56-52.16zM1492.48 419.52c-33.92-3.2-64-2.56-70.4 41.92q-16.32 124.8-35.52 249.6c-5.12 32 5.44 49.28 38.4 45.76a50.24 50.24 0 0 0 60.8-52.8c8.96-77.44 21.12-154.24 32-231.68 3.2-22.4 13.12-48.96-25.28-52.8zM1473.92 377.6a57.92 57.92 0 0 0 61.12-64c0-19.2 0-48-34.56-51.2a65.92 65.92 0 0 0-72.96 66.24 43.52 43.52 0 0 0 46.4 48.96z" fill="#5FC5EE" p-id="11308"></path></svg>